<svg width="135" height="108" viewBox="0 0 135 108" fill="none" xmlns="http://www.w3.org/2000/svg">
<path d="M16.9996 14.8583L1.17157 70.735C0.523115 73.0242 2.32032 75.2656 4.69807 75.1488C20.4655 74.3689 34.4289 77.7644 48.5893 85.9107C50.4876 87.0025 51.9688 88.7432 52.5837 90.845C53.197 92.9522 54.8521 94.7071 57.1171 95.3487C59.3874 95.9918 61.7178 95.3629 63.3493 93.8858C64.9586 92.4257 67.13 91.7401 69.2994 91.8647C81.2071 92.5519 92.9509 95.9077 103.705 101.191C106.688 102.654 109.597 104.265 112.41 106.01C114.373 107.225 116.955 106.23 117.586 104.006L133.462 47.9562C133.851 46.5848 133.366 45.1059 132.224 44.2459C131.141 43.4286 130.056 42.646 128.967 41.8973C111.436 29.8158 93.3664 26.4936 75.8548 29.1999C58.5936 15.6725 39.1247 9.82518 19.9068 12.3573C18.5252 12.5404 17.3796 13.5166 16.9996 14.8583Z" fill="#22A7F0"/>
<g opacity="0.3">
<path d="M16.9996 14.8582L1.17157 70.7349C0.523115 73.0241 2.32032 75.2655 4.69807 75.1487C20.4655 74.3688 34.4289 77.7643 48.5893 85.9106C50.4876 87.0024 51.9688 88.7431 52.5837 90.8449C53.197 92.9521 54.8521 94.707 57.1171 95.3486C59.3874 95.9917 61.7178 95.3628 63.3493 93.8857C64.9586 92.4256 67.13 91.74 69.2994 91.8646C75.4915 92.2217 81.6393 93.3012 87.6244 94.9966C87.9429 95.0868 88.2634 95.1805 88.5812 95.2735C88.818 95.3435 89.0548 95.4135 89.2909 95.4861C89.5404 95.5627 89.7872 95.6384 90.036 95.7176C90.2775 95.7918 90.5181 95.8688 90.7588 95.9457C91.0662 96.0444 91.3755 96.1466 91.6849 96.2488C91.7165 96.2607 91.7489 96.2699 91.7805 96.2817C92.1034 96.3878 92.422 96.4984 92.7406 96.6091C92.7568 96.6137 92.773 96.6183 92.7884 96.6255C93.1205 96.74 93.4492 96.8564 93.7797 96.9763C94.1184 97.0985 94.4544 97.2199 94.7915 97.3475C95.1375 97.4747 95.482 97.6073 95.8265 97.7398C96.1528 97.8643 96.4811 97.9923 96.8051 98.1249C97.1388 98.2544 97.4736 98.3901 97.805 98.5277C98.4712 98.801 99.1325 99.0816 99.7907 99.373C100.058 99.4896 100.325 99.6062 100.589 99.7273C100.749 99.799 100.912 99.8715 101.072 99.9459C101.31 100.054 101.547 100.162 101.784 100.273C102.099 100.418 102.413 100.565 102.724 100.714C102.728 100.718 102.731 100.719 102.734 100.72C103.06 100.874 103.384 101.029 103.706 101.191L103.708 101.191C106.691 102.655 109.597 104.265 112.41 106.01C114.373 107.225 116.956 106.23 117.586 104.005L117.73 103.495C116.7 104.014 115.421 104.019 114.331 103.346C113.637 102.915 112.936 102.492 112.229 102.078C110.774 101.224 110.609 99.1853 111.92 98.1229L113.374 96.9449L128.967 41.897C111.436 29.8155 93.3665 26.4933 75.8549 29.1997C58.5937 15.6722 39.1248 9.82493 19.9069 12.3571C19.5043 12.4092 19.1234 12.5288 18.7754 12.7073C18.7684 12.7112 18.7623 12.7123 18.758 12.7169C18.7138 12.7394 18.6687 12.7645 18.6237 12.7897C18.4886 12.8651 18.3593 12.951 18.2392 13.0453C18.1877 13.0832 18.1388 13.1219 18.0926 13.1613C17.9745 13.2591 17.8615 13.3699 17.7584 13.4865C17.7338 13.5116 17.7119 13.5375 17.6892 13.5661C17.5635 13.7113 17.451 13.8719 17.3511 14.039C17.2966 14.1285 17.2494 14.223 17.2049 14.3183C17.1876 14.3484 17.1723 14.382 17.1597 14.4163C17.1386 14.4599 17.1202 14.5043 17.1037 14.5521C17.0861 14.5938 17.0719 14.6335 17.0577 14.6732C17.0374 14.7347 17.0171 14.7961 16.9996 14.8582Z" fill="#1E276A"/>
</g>
<g opacity="0.55">
<path d="M131.033 47.2679L115.156 103.317C114.742 104.778 113.487 105.708 112.117 105.831C112.214 105.89 112.313 105.95 112.41 106.01C114.373 107.225 116.955 106.23 117.586 104.006L133.462 47.9562C133.851 46.5848 133.366 45.1059 132.224 44.2459C123.217 37.4484 114.05 33.0261 104.87 30.6038C113.234 33.1363 121.582 37.3615 129.795 43.5577C130.936 44.4176 131.421 45.8965 131.033 47.2679Z" fill="white"/>
</g>
<path d="M114.236 107.572C113.411 107.572 112.594 107.342 111.865 106.891C98.4482 98.5714 83.7092 93.7335 69.2402 92.8998C67.2919 92.7867 65.3976 93.4266 64.0441 94.6534C62.0783 96.4349 59.3832 97.0675 56.8347 96.3456C54.2915 95.6251 52.3303 93.6776 51.5878 91.1356C51.0661 89.3495 49.818 87.8131 48.0737 86.8097C34.1262 78.787 20.3586 75.4098 4.74947 76.1839C3.26997 76.2533 1.90083 75.6356 0.982875 74.4815C0.0693254 73.3328 -0.225374 71.8641 0.174526 70.4522L16.0024 14.5756C16.4936 12.8421 17.9726 11.5681 19.7707 11.3298C39.2207 8.76754 58.7021 14.5684 76.1406 28.1083C96.3308 25.1038 115.407 30.2544 132.849 43.4186C134.315 44.5235 134.963 46.4606 134.46 48.2384L118.583 104.288C118.194 105.661 117.207 106.746 115.877 107.262C115.343 107.469 114.788 107.572 114.236 107.572ZM68.8037 90.8145C68.9885 90.8145 69.1735 90.8197 69.3593 90.8304C84.1723 91.6839 99.248 96.6285 112.956 105.129C113.614 105.536 114.405 105.61 115.127 105.33C115.846 105.051 116.378 104.465 116.589 103.723L132.465 47.6735C132.737 46.713 132.39 45.668 131.601 45.0735C114.495 32.1629 95.7931 27.1669 76.0131 30.2239C75.7304 30.2682 75.4416 30.1923 75.2157 30.0154C58.1354 16.63 39.0578 10.8794 20.0421 13.3846C19.0653 13.514 18.2621 14.2034 17.9965 15.1406L2.16868 71.0172C1.95288 71.7789 2.11203 72.5714 2.60498 73.1912C3.10278 73.817 3.85057 74.1563 4.64747 74.1136C20.6721 73.3218 34.8001 76.7833 49.1069 85.0132C51.3174 86.2845 52.905 88.2525 53.5774 90.5545C54.1184 92.4073 55.5473 93.8267 57.3996 94.3514C59.2551 94.8768 61.2192 94.4161 62.6521 93.1177C64.2839 91.6388 66.5004 90.8145 68.8037 90.8145Z" fill="#1E276A"/>
<path d="M109.218 85.1898C93.36 70.9443 70.6251 71.8109 59.4847 86.9956L75.6627 29.8832C85.0522 15.0455 110.453 12.0369 125.396 28.0774L109.218 85.1898Z" fill="white"/>
<path d="M59.1377 87.7055L75.5439 29.8082C79.9353 22.869 88.1257 18.2073 97.4533 17.3384C108.056 16.3506 118.277 20.23 125.499 27.9819L125.552 28.0396L125.531 28.1157L109.292 85.4445L109.124 85.2941C100.932 77.935 90.4726 74.3093 80.425 75.3478C71.8979 76.2289 64.5012 80.3949 59.5976 87.0785L59.1377 87.7055ZM75.7919 29.9411L59.8242 86.3117C64.7717 79.915 72.0476 75.9314 80.3962 75.0686C90.4521 74.031 100.918 77.6242 109.144 84.9358L125.239 28.1155C118.081 20.4664 107.966 16.6395 97.4795 17.6179C88.2456 18.478 80.1398 23.0845 75.7919 29.9411Z" fill="#1E276A"/>
<path d="M59.4826 88.0324C59.3291 88.0324 59.1738 87.9982 59.028 87.9272C58.5776 87.707 58.3493 87.196 58.486 86.7136L74.6642 29.6004C74.6913 29.5045 74.7323 29.4129 74.7856 29.3287C79.3254 22.1562 87.7685 17.3403 97.3713 16.4461C108.25 15.4333 118.743 19.4149 126.154 27.3711C126.401 27.6363 126.492 28.0112 126.393 28.36L110.215 85.473C110.117 85.8173 109.849 86.0868 109.506 86.1862C109.162 86.2855 108.791 86.2006 108.525 85.9616C100.522 78.7714 90.3163 75.2267 80.5197 76.2392C72.2465 77.0934 65.0722 81.1313 60.3185 87.609C60.1179 87.8827 59.8042 88.0324 59.4826 88.0324ZM83.8286 73.9967C92.5791 73.9967 101.401 77.2999 108.664 83.3422L124.238 28.3623C117.293 21.1614 107.604 17.5739 97.5637 18.5098C88.6523 19.3395 80.8347 23.7472 76.6169 30.3117L61.7546 82.7794C66.6533 77.9335 73.0922 74.9225 80.3068 74.1774C81.4765 74.0565 82.6525 73.9967 83.8286 73.9967Z" fill="#1E276A"/>
<path d="M75.6614 29.8827L59.4832 86.9959C62.6284 77.5604 69.3549 71.5832 77.4964 69.2176L77.4972 69.2149C85.9233 66.7608 95.8666 68.1747 104.913 73.6186L121.092 16.5055C112.758 9.96309 102.456 9.12694 93.6188 12.3016C85.5059 15.2148 78.6305 21.5114 75.6614 29.8827Z" fill="white"/>
<path d="M59.6162 87.0404L59.3481 86.9577L75.529 29.836C78.3764 21.8081 85.1213 15.2039 93.5715 12.1696C98.1069 10.5402 102.944 10.0045 107.563 10.6206C112.567 11.2883 117.148 13.2312 121.178 16.3952L121.252 16.4533L104.998 73.8336L104.841 73.7389C96.0832 68.4689 86.1625 66.8634 77.6098 69.3282L77.5354 69.3524C68.9506 71.8471 62.5869 78.1286 59.6162 87.0404ZM75.7951 29.9254L60.4411 84.1286C63.7553 76.6479 69.6801 71.3664 77.3815 69.1051V69.1049L77.4577 69.0802C86.0514 66.5778 96.017 68.154 104.828 73.4044L120.931 16.5579C113.165 10.5009 103.233 8.99656 93.6662 12.4337C85.2961 15.4392 78.6154 21.978 75.7951 29.9254Z" fill="#1E276A"/>
<path d="M59.4848 88.0323C59.3837 88.0323 59.281 88.0174 59.1794 87.9861C58.6413 87.8204 58.334 87.2549 58.4875 86.7132L74.6655 29.6009C74.6716 29.5794 74.6784 29.558 74.686 29.5369C77.8771 20.5402 85.5339 13.5015 95.1677 10.7083C104.55 7.98788 114.232 9.80394 121.731 15.6905C122.062 15.9502 122.203 16.3838 122.089 16.7882L105.911 73.9007C105.823 74.2112 105.595 74.4632 105.295 74.5818C104.995 74.7005 104.656 74.6729 104.379 74.5061C95.0925 68.919 84.7517 67.5664 76.008 70.7959C68.6296 73.521 63.1106 79.3904 60.4677 87.3233C60.3234 87.7566 59.9194 88.0323 59.4848 88.0323ZM76.6504 30.1985L63.1748 77.771C66.2932 73.7139 70.4152 70.6519 75.29 68.8516C84.2588 65.5393 94.7549 66.7131 104.28 72.0518L119.903 16.9007C113.015 11.7663 104.251 10.2327 95.7449 12.699C86.7614 15.3036 79.6257 21.8437 76.6504 30.1985Z" fill="#1E276A"/>
<path d="M59.4831 86.996C76.2162 77.6388 94.2191 86.1183 113.374 96.9451L109.218 85.1906C93.3588 70.9435 70.6257 71.8121 59.4831 86.996Z" fill="white"/>
<path d="M113.631 97.2519L113.305 97.0674C94.5547 86.469 76.335 77.7329 59.5515 87.1186L58.988 87.4338L59.3701 86.9131C64.3228 80.1641 71.791 75.9578 80.3989 75.0688C90.5234 74.0237 101.061 77.6748 109.312 85.0864L109.338 85.1101L109.35 85.1438L113.631 97.2519ZM74.9729 82.8418C87.2395 82.8418 100.05 89.2661 113.117 96.6389L109.097 85.2712C100.91 77.9286 90.4629 74.3117 80.4277 75.3478C72.1213 76.2055 64.8874 80.1796 59.9844 86.5622C64.872 83.9514 69.8767 82.8418 74.9729 82.8418Z" fill="#1E276A"/>
<path d="M125.396 28.0774L109.218 85.1905L113.374 96.945L128.966 41.9025L125.396 28.0774Z" fill="white"/>
<path d="M113.389 97.4078L109.071 85.1952L109.083 85.1522L125.402 27.5405L129.111 41.9043L129.101 41.9408L113.389 97.4078ZM109.365 85.1859L113.359 96.4825L128.821 41.9009L125.39 28.6143L109.365 85.1859Z" fill="#1E276A"/>
<path d="M113.374 97.9816C113.199 97.9816 113.023 97.9374 112.864 97.8473C94.3449 87.38 76.3661 78.7426 59.9889 87.9005C59.5629 88.1388 59.0292 88.0475 58.7065 87.6823C58.3837 87.317 58.3591 86.776 58.6476 86.383C63.7519 79.4274 71.444 75.0927 80.3068 74.1774C90.684 73.1049 101.472 76.8393 109.91 84.4196C110.039 84.5356 110.137 84.6818 110.195 84.8452L114.351 96.5998C114.495 97.0073 114.371 97.4614 114.04 97.7392C113.849 97.8994 113.612 97.9816 113.374 97.9816ZM74.9765 81.9352C86.7773 81.9352 99.0085 87.7529 111.478 94.6933L108.329 85.7865C100.355 78.7138 90.2363 75.234 80.5198 76.2392C73.917 76.9208 68.0142 79.6305 63.4831 83.9899C67.2624 82.5642 71.0964 81.9352 74.9765 81.9352Z" fill="#1E276A"/>
<path d="M113.374 97.9817C112.936 97.9817 112.544 97.7058 112.397 97.2908L108.241 85.5362C108.169 85.334 108.162 85.1145 108.221 84.9082L124.399 27.7951C124.526 27.3446 124.931 27.0446 125.408 27.0413C125.876 27.0468 126.282 27.3652 126.399 27.8184L129.969 41.6437C130.015 41.8215 130.013 42.0084 129.963 42.1852L114.371 97.2278C114.248 97.6621 113.858 97.9668 113.407 97.9812C113.396 97.9815 113.385 97.9817 113.374 97.9817ZM110.305 85.156L113.265 93.5281L127.892 41.8901L125.35 32.0433L110.305 85.156Z" fill="#1E276A"/>
<path d="M34.2649 2.26301L18.0867 59.3762C30.5724 57.1067 42.3259 60.6752 50.1145 67.8945C55.4081 72.803 58.8674 79.3996 59.4832 86.9959L75.6614 29.8827C75.5739 22.5732 72.0454 15.5516 66.4318 10.2696L66.4291 10.2688C58.5626 2.86126 46.5977 -1.13459 34.2649 2.26301Z" fill="white"/>
<path d="M59.4062 87.7826L59.3432 87.0072C58.749 79.6764 55.5249 73.1029 50.019 67.9972C41.9524 60.5201 30.0237 57.349 18.1118 59.514L17.8903 59.5543L17.9516 59.3378L34.1513 2.14881L34.2275 2.12781C40.0817 0.515258 46.2475 0.49831 52.0588 2.07861C57.454 3.54601 62.4467 6.33411 66.4997 10.1428L66.528 10.1675C72.3371 15.6335 75.7172 22.819 75.8017 29.8811L75.8019 29.9015L75.7963 29.921L59.4062 87.7826ZM25.4765 58.5658C34.8672 58.5658 43.7607 61.8136 50.2099 67.7916C55.5798 72.7711 58.7998 79.1346 59.5529 86.235L75.5207 29.8642C75.4311 22.8946 72.0939 15.8016 66.361 10.3957L66.333 10.3711C57.7107 2.25191 45.7712 -0.733692 34.3784 2.37741L18.2827 59.1983C20.6909 58.774 23.1003 58.5658 25.4765 58.5658Z" fill="#1E276A"/>
<path d="M59.4838 88.0324C59.4501 88.0324 59.4162 88.0307 59.382 88.0275C58.8832 87.9785 58.4907 87.5795 58.4501 87.0798C57.8012 79.0725 53.8119 71.8725 47.217 66.8061C39.4084 60.8075 28.8581 58.4714 18.2719 60.3957C17.9189 60.4594 17.56 60.3376 17.3195 60.0729C17.079 59.808 16.9921 59.4379 17.0895 59.0937L33.2677 1.98061C33.3666 1.63196 33.6403 1.36026 33.9896 1.26396C44.4733 -1.62314 55.4948 0.488459 64.2274 7.05826C71.9335 12.8559 76.5951 21.3837 76.6974 29.8704C76.6986 29.97 76.6854 30.0694 76.6584 30.1653L60.4802 87.2785C60.353 87.728 59.9428 88.0324 59.4838 88.0324ZM25.5207 57.6645C34.0093 57.6645 42.0991 60.2609 48.4797 65.1625C54.2302 69.5802 58.1323 75.5197 59.7607 82.2136L74.6228 29.7468C74.4756 21.9466 70.1325 14.0946 62.9814 8.71451C54.9223 2.65116 44.7915 0.624059 35.1013 3.11281L19.5273 58.0927C21.5354 57.8061 23.5393 57.6645 25.5207 57.6645Z" fill="#1E276A"/>
<g opacity="0.4">
<path d="M82.7107 25.4798C90.1821 18.7941 101.727 16.8123 110.931 20.8676C111.05 20.9205 111.103 21.0591 111.05 21.1773C111.002 21.2851 110.881 21.3384 110.771 21.307C108.415 20.638 106.015 20.2148 103.602 20.0853C98.7808 19.8385 93.9402 20.6932 89.4674 22.5149C87.2217 23.4103 85.0722 24.5484 82.9936 25.8523C82.7732 25.9968 82.4906 25.681 82.7107 25.4798Z" fill="#1E276A"/>
</g>
<g opacity="0.4">
<path d="M101.893 25.1361C103.803 24.8126 105.753 25.2144 107.543 25.8868C108.139 26.1194 108.721 26.3889 109.265 26.7379C109.436 26.8404 109.332 27.1215 109.137 27.0893C107.286 26.8131 105.493 26.4291 103.672 26.0281C103.072 25.8806 102.469 25.7313 101.863 25.509C101.681 25.4496 101.705 25.1651 101.893 25.1361Z" fill="#1E276A"/>
</g>
<g opacity="0.4">
<path d="M81.0603 31.3061C84.8437 27.4541 90.876 25.1809 96.2451 25.1907C96.5137 25.1928 96.5642 25.5928 96.2982 25.6554C93.6763 26.2881 91.0765 27.0638 88.5913 28.0947C87.3539 28.6074 86.1402 29.1724 84.9393 29.7758C83.734 30.3739 82.557 31.0304 81.3432 31.6786C81.1156 31.8052 80.8723 31.4953 81.0603 31.3061Z" fill="#1E276A"/>
</g>
<g opacity="0.4">
<path d="M79.2921 37.5484C86.7635 30.8627 98.308 28.8809 107.513 32.9362C107.631 32.9891 107.684 33.1277 107.631 33.2459C107.583 33.3537 107.463 33.407 107.352 33.3756C104.996 32.7066 102.596 32.2833 100.184 32.1538C95.3622 31.907 90.5216 32.7617 86.0488 34.5835C83.8031 35.4788 81.6536 36.617 79.575 37.9208C79.3546 38.0654 79.0719 37.7496 79.2921 37.5484Z" fill="#1E276A"/>
</g>
<g opacity="0.4">
<path d="M77.5994 43.5239C85.0708 36.8382 96.6153 34.8565 105.82 38.9118C105.938 38.9646 105.991 39.1032 105.938 39.2214C105.89 39.3292 105.77 39.3826 105.66 39.3511C103.304 38.6821 100.904 38.2589 98.491 38.1294C93.6694 37.8826 88.8289 38.7373 84.356 40.559C82.1103 41.4544 79.9608 42.5926 77.8822 43.8964C77.6619 44.0409 77.3792 43.7252 77.5994 43.5239Z" fill="#1E276A"/>
</g>
<g opacity="0.4">
<path d="M85.1297 48.2419C90.7604 45.8507 97.5313 46.136 103.024 48.782C103.267 48.9027 103.133 49.2877 102.864 49.2214C98.5489 48.1478 94.1138 47.7793 89.69 48.1798C88.2185 48.2935 86.7523 48.4942 85.2574 48.6918C84.9975 48.7309 84.8807 48.3478 85.1297 48.2419Z" fill="#1E276A"/>
</g>
<g opacity="0.4">
<path d="M74.8318 53.4314C75.3867 52.5988 76.1634 51.9946 77.0032 51.4873C77.8446 50.991 78.7364 50.5843 79.7066 50.3988C79.8926 50.3588 80.0157 50.6101 79.8741 50.7334C78.8039 51.6874 77.6289 52.4589 76.3856 53.1547C75.9666 53.3727 75.54 53.5818 75.058 53.7294C74.8866 53.789 74.7297 53.5785 74.8318 53.4314Z" fill="#1E276A"/>
</g>
<g opacity="0.4">
<path d="M72.7904 60.501C80.2617 53.8153 91.8063 51.8336 101.011 55.8889C101.129 55.9417 101.182 56.0803 101.129 56.1985C101.081 56.3063 100.961 56.3596 100.851 56.3282C98.4946 55.6592 96.0947 55.236 93.682 55.1065C88.8604 54.8597 84.0199 55.7144 79.547 57.5361C77.3013 58.4315 75.1518 59.5696 73.0732 60.8735C72.8528 61.0181 72.5702 60.7023 72.7904 60.501Z" fill="#1E276A"/>
</g>
<g opacity="0.4">
<path d="M71.7174 29.9714C69.1546 24.5945 65.4299 19.8546 60.7612 16.1654C59.2129 14.9305 57.5667 13.8129 55.8557 12.7653C55.7449 12.698 55.7097 12.5536 55.777 12.4429C55.8371 12.3441 55.9592 12.3057 56.0633 12.3463C61.7539 14.6321 66.7023 18.8599 69.8244 24.1459C70.8509 25.9251 71.677 27.8274 72.1577 29.814C72.218 30.0769 71.8443 30.2274 71.7174 29.9714Z" fill="#1E276A"/>
<path d="M70.1755 35.4142C67.5662 29.9103 63.715 25.0826 58.894 21.3712C57.2947 20.1288 55.5942 19.011 53.8261 17.9712C53.7142 17.9059 53.6764 17.7622 53.7417 17.6503C53.8001 17.5502 53.922 17.5097 54.027 17.549C59.8783 19.8036 64.9877 24.0821 68.2082 29.4709C69.2677 31.2844 70.1196 33.227 70.6159 35.2569C70.6767 35.5199 70.3024 35.6712 70.1755 35.4142Z" fill="#1E276A"/>
<path d="M49.7142 25.4186C48.4419 25.2528 47.2542 24.9035 46.0388 24.5467C44.8306 24.1811 43.6361 23.8338 42.45 23.3693C42.2625 23.3011 42.3123 23.0042 42.5105 23.0001C44.4487 22.9331 46.387 23.3544 48.1672 24.1052C48.7561 24.3695 49.3304 24.6711 49.8554 25.0721C50.0119 25.1841 49.9026 25.4484 49.7142 25.4186Z" fill="#1E276A"/>
<path d="M67.8306 43.6926C64.7932 37.4464 60.3275 32.1827 54.7654 28.0399C54.5472 27.8769 54.7598 27.5154 55.0115 27.6422C61.2561 30.8036 66.5996 36.643 68.2711 43.5352C68.3298 43.7958 67.9533 43.9407 67.8306 43.6926Z" fill="#1E276A"/>
<path d="M66.0722 49.9002C62.6365 42.1688 56.2995 35.9467 48.6748 32.3663C46.1352 31.1664 43.4523 30.2615 40.6841 29.6233C40.5579 29.5948 40.4786 29.4695 40.5071 29.3433C40.5334 29.2266 40.6436 29.1503 40.7596 29.1618C43.6266 29.4574 46.4565 30.2041 49.1403 31.3098C54.5113 33.5277 59.3221 37.2189 62.7155 41.9506C64.401 44.3225 65.7418 46.955 66.5126 49.7428C66.5773 50.0049 66.2038 50.1744 66.0722 49.9002Z" fill="#1E276A"/>
<path d="M64.3777 55.8821C60.942 48.1507 54.605 41.9286 46.9804 38.3482C44.4408 37.1484 41.7578 36.2435 38.9896 35.6052C38.8634 35.5768 38.7842 35.4514 38.8126 35.3252C38.8389 35.2086 38.9492 35.1322 39.0652 35.1437C41.9321 35.4394 44.7621 36.1861 47.4459 37.2917C52.8169 39.5097 57.6277 43.2008 61.021 47.9325C62.7065 50.3044 64.0473 52.937 64.8182 55.7248C64.8829 55.9869 64.5093 56.1563 64.3777 55.8821Z" fill="#1E276A"/>
<path d="M61.7756 70.2112C58.3399 62.4798 52.0029 56.2577 44.3783 52.6773C41.8387 51.4775 39.1557 50.5726 36.3875 49.9343C36.2613 49.9059 36.1821 49.7805 36.2105 49.6543C36.2368 49.5377 36.3471 49.4613 36.4631 49.4728C39.33 49.7685 42.16 50.5151 44.8438 51.6208C50.2148 53.8388 55.0256 57.5299 58.4189 62.2616C60.1044 64.6335 61.4452 67.2661 62.2161 70.0539C62.2808 70.316 61.9072 70.4855 61.7756 70.2112Z" fill="#1E276A"/>
<path d="M51.8103 11.093C49.3617 10.4735 46.9924 9.69305 44.4373 9.7824C44.3324 9.7809 44.2485 9.69465 44.25 9.58975C44.251 9.51335 44.2972 9.4481 44.3626 9.4188C44.9804 9.14355 45.6584 8.9791 46.3397 8.9368C47.0204 8.89255 47.7089 8.9335 48.3733 9.06615C49.039 9.19385 49.6878 9.39435 50.3 9.6725C50.915 9.96075 51.4954 10.2974 51.9966 10.7686C52.0733 10.8424 52.0756 10.9644 52.0017 11.041C51.9505 11.0942 51.8769 11.1113 51.8103 11.093Z" fill="#1E276A"/>
</g>
<path d="M8.38312 67.2048C30.3705 68.0322 50.146 70.254 59.4831 86.996C57.9618 68.2248 39.0614 55.5629 18.0866 59.3763L8.38312 67.2048Z" fill="white"/>
<path d="M59.675 87.6283L59.3606 87.0643C49.9956 70.2723 29.9009 68.1549 8.37767 67.3448L8.00342 67.3309L18.0264 59.2445L18.0615 59.2381C28.9749 57.2542 39.8626 59.6727 47.9338 65.8729C54.7956 71.1441 58.9468 78.6417 59.623 86.9847L59.675 87.6283ZM8.76267 67.0787C29.9841 67.8934 49.7727 70.0574 59.2839 86.3636C58.4575 78.3594 54.3838 71.1817 47.7629 66.0955C39.7627 59.9498 28.9695 57.5501 18.147 59.5076L8.76267 67.0787Z" fill="#1E276A"/>
<path d="M23.9748 12.1623L8.38312 67.2048L18.0866 59.3763L34.2649 2.26318L23.9748 12.1623Z" fill="white"/>
<path d="M8.12787 67.5911L8.24797 67.1665L23.8503 12.0875L23.8776 12.0613L34.541 1.80273L34.3999 2.30139L18.2094 59.4573L18.1748 59.4854L8.12787 67.5911ZM24.0993 12.2372L8.63812 66.8186L17.9638 59.2951L33.9887 2.72364L24.0993 12.2372Z" fill="#1E276A"/>
<g opacity="0.3">
<path d="M8.38312 67.2048C30.3705 68.0322 50.146 70.254 59.4831 86.996C57.9618 68.2248 39.0614 55.5629 18.0866 59.3763L8.38312 67.2048Z" fill="#1E276A"/>
</g>
<g opacity="0.3">
<path d="M23.9748 12.1623L8.38312 67.2048L18.0866 59.3763L34.2649 2.26318L23.9748 12.1623Z" fill="#1E276A"/>
</g>
<path d="M59.4831 88.0325C59.1152 88.0325 58.7649 87.8357 58.5781 87.501C49.4396 71.1152 29.6018 69.0403 8.34393 68.2405C7.91203 68.2241 7.53558 67.9416 7.39958 67.5315C7.26333 67.1213 7.39593 66.6697 7.73233 66.3982L17.4359 58.5696C17.5707 58.4609 17.7306 58.3877 17.9013 58.3567C29.0617 56.3271 40.2079 58.8081 48.4796 65.1626C55.5446 70.5898 59.8192 78.3142 60.516 86.9123C60.5553 87.3984 60.2506 87.8459 59.7841 87.9878C59.6845 88.0181 59.5832 88.0325 59.4831 88.0325ZM11.1779 66.2815C30.122 67.1194 47.6735 69.4258 57.6545 82.3388C56.0839 76.2514 52.4804 70.8496 47.217 66.8061C39.4719 60.8564 29.0307 58.5092 18.5305 60.3496L11.1779 66.2815Z" fill="#1E276A"/>
<path d="M8.38277 68.2411C8.18452 68.2411 7.98557 68.1842 7.81172 68.0692C7.43502 67.8204 7.26287 67.3566 7.38592 66.9223L22.9777 11.8798C23.0278 11.703 23.124 11.5427 23.2563 11.4154L33.5463 1.51627C33.8837 1.19167 34.3969 1.13383 34.798 1.37443C35.1994 1.61528 35.3896 2.09527 35.2619 2.54557L19.0837 59.6586C19.0253 59.8649 18.9042 60.048 18.7372 60.1828L9.03362 68.0114C8.84467 68.1637 8.61422 68.2411 8.38277 68.2411ZM24.8955 12.7146L10.268 64.3524L17.1794 58.7765L32.2243 5.66403L24.8955 12.7146Z" fill="#1E276A"/>
<g opacity="0.3">
<path d="M99.7906 99.3731C99.1324 99.0817 98.4712 98.8011 97.805 98.5278C98.4704 98.8038 99.1317 99.0844 99.7906 99.3731Z" fill="#6B184E"/>
<path d="M99.7343 99.5017C99.1118 99.229 98.4631 98.9528 97.7512 98.6574L97.8581 98.3979C98.5642 98.6877 99.2148 98.9648 99.8469 99.2448C99.8471 99.2448 99.8469 99.2448 99.8471 99.2448C99.8471 99.2448 99.8474 99.2448 99.8476 99.2451L99.7343 99.5017Z" fill="#1E276A"/>
</g>
<g opacity="0.3">
<path d="M66.4291 10.2688L50.2164 67.5034C50.2164 67.5034 50.1801 67.6418 50.1144 67.8944C55.408 72.803 58.8674 79.3996 59.4831 86.9958L75.6613 29.8827C75.5739 22.5732 72.0453 15.5516 66.4318 10.2695L66.4291 10.2688Z" fill="#1E276A"/>
</g>
<g opacity="0.3">
<path d="M97.0118 69.9433L95.0519 76.8622C82.3484 72.8839 71.0685 75.2084 61.3968 84.6529C67.554 70.1601 79.4257 65.2569 97.0118 69.9433Z" fill="#1E276A"/>
</g>
<g opacity="0.3">
<path d="M75.6614 29.8829L59.4832 86.9961C62.6284 77.5606 69.3549 71.5834 77.4964 69.2178L93.6188 12.3018C85.5059 15.215 78.6305 21.5116 75.6614 29.8829Z" fill="#1E276A"/>
</g>
<path d="M88.5147 80.4014L95.8013 82.4654L92.5905 93.8004L89.6519 90.2805L85.3038 91.7364L88.5147 80.4014Z" fill="#E03D6B"/>
<g opacity="0.55">
<path d="M85.8963 89.6438L85.3036 91.7361L89.6508 90.2804L92.5917 93.8006L93.1844 91.7082L90.2435 88.188L85.8963 89.6438Z" fill="white"/>
</g>
<path d="M92.5905 94.6423C92.3439 94.6423 92.1061 94.5336 91.9443 94.34L89.374 91.2612L85.5712 92.5344C85.2753 92.633 84.9489 92.5607 84.7228 92.3454C84.497 92.1298 84.4089 91.8071 84.4941 91.5068L87.7048 80.1719C87.8315 79.7246 88.2978 79.4651 88.7441 79.5916L96.0307 81.6555C96.4779 81.7822 96.7377 82.2476 96.611 82.6948L93.4003 94.03C93.3153 94.3303 93.0709 94.5588 92.7657 94.6238C92.7075 94.6362 92.6486 94.6423 92.5905 94.6423ZM89.6516 89.4387C89.8967 89.4387 90.1352 89.5459 90.2981 89.7409L92.2151 92.0373L94.762 83.0459L89.0952 81.4407L86.5483 90.4321L89.3845 89.4824C89.4724 89.4528 89.5625 89.4387 89.6516 89.4387Z" fill="#1E276A"/>
</svg>
