<svg width="124" height="100" viewBox="0 0 124 100" fill="none" xmlns="http://www.w3.org/2000/svg">
<path d="M50.8845 99.0719C77.986 99.0719 99.9561 77.1018 99.9561 50.0003C99.9561 22.8988 77.986 0.928711 50.8845 0.928711C23.783 0.928711 1.81293 22.8988 1.81293 50.0003C1.81293 77.1018 23.783 99.0719 50.8845 99.0719Z" fill="#36A0FF"/>
<g opacity="0.3">
<path d="M99.9561 50.0008C99.9561 77.1016 77.9853 99.0724 50.8845 99.0724C36.5476 99.0724 23.6458 92.9239 14.675 83.1175C23.4548 91.3934 35.293 96.465 48.3116 96.465C75.4124 96.465 97.3832 74.4941 97.3832 47.3934C97.3832 34.6295 92.5105 23.0061 84.5264 14.2793C94.0277 23.2263 99.9561 35.9212 99.9561 50.0008Z" fill="#380076"/>
</g>
<g opacity="0.6">
<path d="M88.8129 18.865C79.8421 9.06395 66.9429 2.91809 52.6087 2.91809C25.5079 2.91809 3.53705 24.8889 3.53705 51.9897C3.53705 63.8093 7.71743 74.6554 14.6803 83.1249C6.68827 74.3982 1.81293 62.7669 1.81293 50.0003C1.81293 22.8995 23.7837 0.928711 50.8845 0.928711C66.1657 0.928711 79.8155 7.91279 88.8129 18.865Z" fill="white"/>
</g>
<g opacity="0.6">
<path d="M52.1223 90.4206C73.2741 90.4206 90.421 73.2737 90.421 52.1219C90.421 30.9701 73.2741 13.8232 52.1223 13.8232C30.9706 13.8232 13.8237 30.9701 13.8237 52.1219C13.8237 73.2737 30.9706 90.4206 52.1223 90.4206Z" fill="white"/>
</g>
<path d="M50.8845 88.2985C72.0363 88.2985 89.1832 71.1516 89.1832 49.9998C89.1832 28.8481 72.0363 11.7012 50.8845 11.7012C29.7327 11.7012 12.5858 28.8481 12.5858 49.9998C12.5858 71.1516 29.7327 88.2985 50.8845 88.2985Z" fill="#FFD99C"/>
<g opacity="0.3">
<path d="M57.1654 51.2594C57.1654 50.1971 56.717 49.2416 56.002 48.5647C56.0153 48.4587 56.0244 48.3515 56.0244 48.242V29.2961C56.0244 27.8754 54.8726 26.7236 53.4519 26.7236C52.0312 26.7236 50.8794 27.8754 50.8794 29.2961V48.242C50.8794 48.3515 50.8885 48.4587 50.9018 48.5647C50.1868 49.2415 49.7383 50.1971 49.7383 51.2594C49.7383 51.7868 49.8498 52.2876 50.048 52.742C49.8916 52.8981 49.751 53.0748 49.6352 53.2754L44.6038 61.99C43.8934 63.2204 44.3149 64.7938 45.5454 65.5041C46.7758 66.2145 48.3491 65.7929 49.0594 64.5625L54.0909 55.8478C54.2753 55.5284 54.3819 55.1858 54.4193 54.8412C56.0004 54.415 57.1654 52.9751 57.1654 51.2594Z" fill="#380076"/>
</g>
<g opacity="0.3">
<path d="M82.5105 28.3925C75.4866 20.2227 65.0781 15.0477 53.4574 15.0477C32.3062 15.0477 15.1577 32.1936 15.1577 53.3447C15.1577 61.3686 17.6246 68.8169 21.8447 74.9708C16.0728 68.2651 12.5848 59.541 12.5848 49.9999C12.5848 28.8487 29.7333 11.7002 50.8845 11.7002C64.0198 11.7002 75.6113 18.313 82.5105 28.3925Z" fill="#380076"/>
</g>
<g opacity="0.3">
<path d="M79.4601 25.3417C72.4362 17.1719 62.0277 11.9969 50.4071 11.9969C29.2559 11.9969 12.1073 29.1428 12.1073 50.294C12.1073 58.3178 14.5742 65.7661 18.7943 71.92C13.0225 65.2144 9.53439 56.4902 9.53439 46.9492C9.53439 25.798 26.6829 8.64941 47.8341 8.64941C60.9694 8.64937 72.5609 15.2622 79.4601 25.3417Z" fill="#380076"/>
</g>
<path d="M48.2969 88.2575V84.153C48.2969 82.7239 49.4554 81.5654 50.8845 81.5654C52.3136 81.5654 53.472 82.7239 53.472 84.153V88.1506" fill="#B157FF"/>
<path d="M53.4721 11.7012V15.8057C53.4721 17.2347 52.3136 18.3932 50.8845 18.3932C49.4555 18.3932 48.297 17.2347 48.297 15.8057V11.808" fill="#B157FF"/>
<path d="M12.6067 47.3906H16.7112C18.1403 47.3906 19.2987 48.5491 19.2987 49.9782C19.2987 51.4072 18.1403 52.5657 16.7112 52.5657H12.7135" fill="#B157FF"/>
<path d="M89.1623 52.5657H85.0578C83.6288 52.5657 82.4703 51.4072 82.4703 49.9782C82.4703 48.5491 83.6288 47.3906 85.0578 47.3906H89.0555" fill="#B157FF"/>
<path d="M50.8846 100C37.5291 100 24.973 94.7992 15.5293 85.3554C6.0853 75.9117 0.88446 63.3556 0.88446 50.0001C0.88446 36.6446 6.0853 24.0885 15.5293 14.6446C24.973 5.20094 37.5291 0 50.8846 0C64.2401 0 76.7962 5.20098 86.2399 14.6447C95.6837 24.0885 100.885 36.6446 100.885 50.0001C100.885 63.3556 95.6837 75.9117 86.2399 85.3554C76.7962 94.7992 64.2401 100 50.8846 100ZM50.8846 1.85675C24.3383 1.85675 2.74121 23.4538 2.74121 50C2.74121 76.5462 24.3383 98.1432 50.8846 98.1432C77.4309 98.1432 99.0278 76.5462 99.0278 50C99.0277 23.4538 77.4309 1.85675 50.8846 1.85675Z" fill="#380076"/>
<path d="M50.8846 89.2266C29.2547 89.2266 11.6573 71.6294 11.6573 49.9996C11.6573 28.3697 29.2546 10.7725 50.8846 10.7725C72.5146 10.7725 90.1116 28.3697 90.1116 49.9996C90.1116 71.6294 72.5145 89.2266 50.8846 89.2266ZM50.8846 12.6292C30.2786 12.6292 13.5141 29.3935 13.5141 49.9996C13.5141 70.6057 30.2786 87.3698 50.8846 87.3698C71.4907 87.3698 88.2548 70.6057 88.2548 49.9996C88.2548 29.3935 71.4907 12.6292 50.8846 12.6292Z" fill="#380076"/>
<path d="M49.2254 88.2562H47.3686V84.1518C47.3686 82.2131 48.9459 80.6357 50.8846 80.6357C52.8233 80.6357 54.4004 82.2131 54.4004 84.1518V88.1494H52.5436V84.1518C52.5436 83.2368 51.7994 82.4925 50.8847 82.4925C49.9699 82.4925 49.2254 83.2368 49.2254 84.1518L49.2254 88.2562Z" fill="#380076"/>
<path d="M50.8846 19.3216C48.9459 19.3216 47.3686 17.7444 47.3686 15.8058V11.8081H49.2254V15.8058C49.2254 16.7206 49.9698 17.4649 50.8846 17.4649C51.7994 17.4649 52.5436 16.7206 52.5436 15.8058V11.7012H54.4004V15.8058C54.4004 17.7444 52.8233 19.3216 50.8846 19.3216Z" fill="#380076"/>
<path d="M16.7113 53.4947H12.7135V51.638H16.7113C17.6261 51.638 18.3703 50.8937 18.3703 49.9789C18.3703 49.0639 17.6261 48.3196 16.7113 48.3196H12.6066V46.4629H16.7113C18.65 46.4629 20.2271 48.0402 20.2271 49.9789C20.2271 51.9175 18.65 53.4947 16.7113 53.4947Z" fill="#380076"/>
<path d="M89.1624 53.4948H85.0579C83.1192 53.4948 81.5419 51.9176 81.5419 49.9789C81.5419 48.0402 83.1192 46.4629 85.0579 46.4629H89.0555V48.3196H85.0579C84.1431 48.3196 83.3987 49.0639 83.3987 49.9789C83.3987 50.8937 84.1431 51.638 85.0579 51.638H89.1624V53.4948Z" fill="#380076"/>
<path d="M50.8845 49.5547C49.4638 49.5547 48.312 48.403 48.312 46.9822V28.0363C48.312 26.6156 49.4638 25.4639 50.8845 25.4639C52.3053 25.4639 53.457 26.6156 53.457 28.0363V46.9822C53.4569 48.403 52.3053 49.5547 50.8845 49.5547Z" fill="#B157FF"/>
<g opacity="0.6">
<path d="M50.0689 28.6126V47.5596C50.0689 48.3633 50.4376 49.0822 51.0158 49.5516C49.671 49.4667 48.61 48.3501 48.61 46.984V28.0397C48.61 26.618 49.7612 25.4668 51.1829 25.4668C51.8036 25.4668 52.3685 25.6843 52.8142 26.0477C52.7585 26.045 52.7001 26.0424 52.6418 26.0424C51.2201 26.0423 50.0689 27.1935 50.0689 28.6126Z" fill="white"/>
</g>
<path d="M50.5819 51.0736C51.8123 51.7839 52.2338 53.3573 51.5235 54.5876L46.492 63.3023C45.7816 64.5327 44.2084 64.9543 42.9779 64.2439C41.7476 63.5336 41.326 61.9602 42.0363 60.7299L47.0678 52.0152C47.7782 50.7848 49.3515 50.3632 50.5819 51.0736Z" fill="#B157FF"/>
<g opacity="0.6">
<path d="M51.1869 51.5593C50.1179 51.3179 48.9747 51.7821 48.3964 52.7821L43.3646 61.4983C43.1312 61.9041 43.0198 62.3471 43.0198 62.7821C43.0198 63.4214 43.2585 64.0474 43.7014 64.5248C43.4547 64.4718 43.2081 64.3763 42.9773 64.2436C42.1523 63.7662 41.6908 62.9015 41.6908 62.0129C41.6908 61.5779 41.8022 61.1349 42.0356 60.7291L47.0675 52.0155C47.7783 50.7847 49.3513 50.363 50.582 51.0739C50.8129 51.2092 51.0171 51.3736 51.1869 51.5593Z" fill="white"/>
</g>
<path d="M50.8846 50.4837C48.9543 50.4837 47.3837 48.9133 47.3837 46.983V28.037C47.3837 26.1067 48.9543 24.5361 50.8846 24.5361C52.815 24.5361 54.3853 26.1067 54.3853 28.037V46.983C54.3852 48.9133 52.815 50.4837 50.8846 50.4837ZM50.8846 26.3929C49.9781 26.3929 49.2405 27.1304 49.2405 28.037V46.9829C49.2405 47.8894 49.9781 48.6269 50.8846 48.6269C51.7911 48.6269 52.5285 47.8894 52.5285 46.9829V28.037C52.5285 27.1304 51.7911 26.3929 50.8846 26.3929Z" fill="#380076"/>
<path d="M44.2582 65.5161C43.6647 65.5161 43.0637 65.3652 42.5138 65.0477C40.842 64.0825 40.2674 61.9372 41.2323 60.2655L46.2639 51.5507C46.7313 50.7409 47.4862 50.1617 48.3896 49.9196C49.2926 49.6776 50.2361 49.8018 51.046 50.2694C51.856 50.737 52.4352 51.4919 52.6772 52.3951C52.9193 53.2983 52.795 54.2418 52.3275 55.0516L47.2961 63.7663C46.6482 64.8881 45.4689 65.5161 44.2582 65.5161ZM49.2983 51.6564C49.1555 51.6564 49.0118 51.6751 48.8702 51.7131C48.4459 51.8268 48.0916 52.0988 47.8719 52.479L42.8403 61.1938C42.3872 61.9788 42.657 62.9865 43.4422 63.4397C44.2276 63.893 45.2348 63.6229 45.6881 62.8379L50.7195 54.1232C50.9391 53.7429 50.9974 53.2998 50.8837 52.8756C50.7701 52.4515 50.498 52.0969 50.1178 51.8773C49.8644 51.7311 49.5832 51.6564 49.2983 51.6564Z" fill="#380076"/>
<path d="M50.8845 53.7142C52.9355 53.7142 54.5981 52.0516 54.5981 50.0007C54.5981 47.9497 52.9355 46.2871 50.8845 46.2871C48.8336 46.2871 47.171 47.9497 47.171 50.0007C47.171 52.0516 48.8336 53.7142 50.8845 53.7142Z" fill="#B157FF"/>
<path d="M50.8846 54.6412C48.325 54.6412 46.2427 52.5588 46.2427 49.9993C46.2427 47.4398 48.3251 45.3574 50.8846 45.3574C53.4439 45.3574 55.5263 47.4398 55.5263 49.9993C55.5263 52.5588 53.4439 54.6412 50.8846 54.6412ZM50.8846 47.2142C49.3489 47.2142 48.0994 48.4637 48.0994 49.9994C48.0994 51.5351 49.3489 52.7844 50.8846 52.7844C52.4203 52.7844 53.6696 51.5351 53.6696 49.9994C53.6695 48.4637 52.4203 47.2142 50.8846 47.2142Z" fill="#380076"/>
<path d="M91.1119 85.1854C90.068 85.1854 89.0183 84.845 88.1406 84.1462L73.9671 72.8624C71.904 71.2201 71.5632 68.2163 73.2056 66.1534C74.8477 64.0904 77.8516 63.7493 79.9145 65.3918L90.4767 73.8006L114.576 45.5417C116.287 43.5355 119.3 43.2959 121.307 45.0068C123.313 46.718 123.552 49.7316 121.841 51.7378L94.7471 83.5089C93.8048 84.614 92.4634 85.1854 91.1119 85.1854Z" fill="#00CE83"/>
<g opacity="0.3">
<path d="M121.842 51.7369L94.7465 83.5088C93.8049 84.6149 92.4627 85.1852 91.1125 85.1852C90.0674 85.1852 89.017 84.8457 88.1417 84.1454L87.3008 83.477C87.598 83.5353 87.895 83.5618 88.1947 83.5618C89.5449 83.5618 90.8871 82.9915 91.8287 81.8855L118.924 50.1136C120.468 48.3046 120.425 45.6733 118.924 43.9199C119.776 44.0473 120.603 44.408 121.306 45.0075C123.314 46.7184 123.553 49.7317 121.842 51.7369Z" fill="#380076"/>
</g>
<g opacity="0.6">
<path d="M75.4256 73.9676L88.675 84.514C88.492 84.4053 88.3142 84.2833 88.1418 84.1454L73.9668 72.8616C71.9031 71.2197 71.5636 68.217 73.2055 66.1533C74.8474 64.0897 77.8527 63.7501 79.9137 65.392L80.8315 66.1242C78.8156 64.9225 76.1684 65.3709 74.6644 67.2594C73.0224 69.3204 73.362 72.3257 75.4256 73.9676Z" fill="white"/>
<path d="M121.762 45.4538C119.853 44.5201 117.479 44.9551 116.036 46.6475L91.9349 74.9074L90.5052 73.7695L114.577 45.5414C116.288 43.5361 119.301 43.2973 121.306 45.0082C121.471 45.1488 121.625 45.2973 121.762 45.4538Z" fill="white"/>
</g>
<path d="M91.1118 86.1137C89.8282 86.1137 88.5676 85.6729 87.5621 84.8723L73.3888 73.5886C72.197 72.6399 71.446 71.2839 71.2742 69.7702C71.1025 68.2566 71.5303 66.7668 72.4792 65.5751C73.4277 64.3833 74.7839 63.6323 76.2975 63.4605C77.811 63.2888 79.301 63.7165 80.4926 64.6655L90.3527 72.5152L113.869 44.9392C114.858 43.7802 116.238 43.0754 117.757 42.9548C119.277 42.8345 120.75 43.3118 121.909 44.3003C123.068 45.2889 123.773 46.6695 123.894 48.188C124.014 49.7066 123.536 51.1812 122.548 52.3402L95.4534 84.1113C94.3683 85.3839 92.7859 86.1137 91.1118 86.1137ZM76.9484 65.2804C76.8019 65.2804 76.6547 65.2887 76.5069 65.3054C75.4861 65.4213 74.5717 65.9278 73.9318 66.7314C73.292 67.5352 73.0034 68.54 73.1192 69.5608C73.2351 70.5816 73.7414 71.4961 74.5452 72.1359L88.7187 83.4197C89.4066 83.9675 90.234 84.257 91.1118 84.257C92.2413 84.257 93.3089 83.7648 94.0409 82.9064L121.135 51.1354C121.802 50.3537 122.124 49.3592 122.043 48.3351C121.961 47.311 121.486 46.3797 120.704 45.7131C119.922 45.0465 118.928 44.7247 117.904 44.8056C116.88 44.887 115.949 45.3623 115.282 46.144L91.183 74.4029C90.8584 74.7838 90.2901 74.8384 89.8985 74.5269L79.3363 66.1181C78.6488 65.5707 77.8141 65.2804 76.9484 65.2804Z" fill="#380076"/>
</svg>
