<svg width="128" height="155" viewBox="0 0 128 155" fill="none" xmlns="http://www.w3.org/2000/svg">
<path d="M48.5044 154.499C74.6672 154.499 95.8762 151.698 95.8762 148.243C95.8762 144.789 74.6672 141.988 48.5044 141.988C22.3417 141.988 1.13263 144.789 1.13263 148.243C1.13263 151.698 22.3417 154.499 48.5044 154.499Z" fill="#A8D5BA"/>
<path d="M99.2083 105.805C98.991 109.951 95.5648 114.483 90.5144 113.708C87.9267 113.311 85.9317 110.754 86.3552 107.903C86.4674 107.148 86.7503 106.373 87.2353 105.614C89.4762 102.104 92.9726 105.375 95.7381 104.556C97.999 103.884 97.8409 100.913 97.8409 100.913C97.8409 100.913 98.9623 102.754 99.1819 104.83C99.2127 105.151 99.2258 105.478 99.2083 105.805Z" fill="#7C7C7C"/>
<g opacity="0.4">
<path d="M98.3619 102.213C98.3619 102.213 98.5347 105.488 96.0436 106.229C92.9963 107.131 89.1415 103.527 86.6716 107.394C86.5533 107.581 86.4445 107.768 86.3474 107.957C86.3498 107.938 86.352 107.922 86.3544 107.903C86.4683 107.148 86.7499 106.373 87.2353 105.613C89.4752 102.104 92.9727 105.374 95.7384 104.557C97.9996 103.885 97.8409 100.913 97.8409 100.913C97.8409 100.913 98.3619 101.765 98.7621 102.966C98.5346 102.495 98.3619 102.213 98.3619 102.213Z" fill="white"/>
</g>
<path d="M99.2083 105.805C98.991 109.951 95.5648 114.483 90.5144 113.708C87.9267 113.311 85.9317 110.754 86.3552 107.903C86.9412 106.915 87.9267 105.871 89.4369 106.048C91.8971 106.338 92.2067 109.369 93.3107 109.863C95.2969 110.752 98.6639 108.535 99.1818 104.83C99.2127 105.151 99.2258 105.478 99.2083 105.805Z" fill="#6C6C6C"/>
<path d="M91.6478 114.891C91.2207 114.891 90.7869 114.857 90.3488 114.79C88.3728 114.487 86.6146 113.127 85.7602 111.241C84.8594 109.252 85.0611 106.987 86.3132 105.025C88.1279 102.182 90.748 102.803 92.6611 103.256C93.6918 103.5 94.6656 103.731 95.4277 103.506C96.8209 103.092 96.7491 100.991 96.7479 100.97C96.7214 100.469 97.0384 100.014 97.5174 99.8662C97.9964 99.7179 98.515 99.9141 98.7758 100.342C98.8441 100.454 100.446 103.118 100.302 105.862C100.157 108.612 98.774 111.373 96.6918 113.067C95.2118 114.271 93.4882 114.891 91.6478 114.891ZM90.1112 105.048C89.3071 105.048 88.7079 105.342 88.1586 106.203C86.9996 108.018 87.4078 109.573 87.7543 110.338C88.3068 111.557 89.428 112.434 90.6805 112.626C92.8255 112.955 94.3819 112.124 95.3099 111.369C96.9274 110.053 98.0024 107.899 98.1155 105.747C98.1417 105.249 98.084 104.742 97.9817 104.259C97.54 104.854 96.9158 105.348 96.0498 105.604C94.728 105.996 93.3617 105.672 92.156 105.386C91.3385 105.192 90.6746 105.048 90.1112 105.048Z" fill="#371A45"/>
<path d="M89.4675 109.738C87.6481 111.235 87.782 113.63 86.8558 116.347C86.6319 117.003 86.3465 117.679 85.9558 118.364C81.9438 125.422 73.0678 121.954 73.0678 121.954L74.5054 116.744C76.8056 118.654 78.7874 118.994 80.4271 118.32C82.6022 117.424 84.1802 114.749 85.113 111.584C85.8658 109.027 87.376 108.213 88.7697 108.07C89.7046 107.975 90.1941 109.141 89.4675 109.738Z" fill="#C2C6D2"/>
<g opacity="0.4">
<path d="M89.7695 109.305C88.2682 108.751 86.9327 110.155 86.052 112.563C84.913 115.66 83.1656 118.227 80.9349 118.98C79.5166 119.456 77.8994 119.195 76.1235 117.862C77.7479 118.76 79.1851 118.83 80.4259 118.319C82.6019 117.424 84.1812 114.748 85.1118 111.585C85.865 109.028 87.3757 108.213 88.7702 108.071C89.509 107.995 89.9684 108.708 89.7695 109.305Z" fill="white"/>
</g>
<path d="M86.8557 116.347C86.632 117.003 86.3465 117.679 85.956 118.364C81.9438 125.422 73.0677 121.954 73.0677 121.954L74.5055 116.744C76.8055 118.654 78.7875 118.994 80.4272 118.32C82.0096 119.04 84.8518 119.67 86.8557 116.347Z" fill="#A8AFC1"/>
<path d="M77.8169 123.91C75.8135 123.91 73.956 123.477 72.6703 122.974C72.1072 122.754 71.8291 122.119 72.0491 121.556C72.2689 120.994 72.903 120.716 73.4657 120.935C73.8008 121.064 81.518 123.957 85.0038 117.823C85.8199 116.387 86.1349 115.001 86.4396 113.66C86.8113 112.025 87.1642 110.472 88.3772 109.253C87.3261 109.544 86.5987 110.414 86.162 111.894C84.9401 116.035 82.8797 118.737 80.3604 119.504C78.2989 120.131 76.0944 119.485 73.8069 117.586C73.3418 117.199 73.278 116.509 73.6642 116.044C74.0506 115.579 74.7408 115.515 75.2056 115.902C76.891 117.301 78.4111 117.808 79.7231 117.41C81.4887 116.872 83.0702 114.636 84.0623 111.274C85.0242 108.014 87.0932 107.14 88.6594 106.981C89.5628 106.889 90.4042 107.39 90.7528 108.226C91.1004 109.06 90.864 110.007 90.1644 110.583C89.2044 111.373 88.9403 112.536 88.5745 114.145C88.2504 115.571 87.8831 117.188 86.9072 118.905C84.714 122.764 81.073 123.91 77.8169 123.91Z" fill="#371A45"/>
<path d="M39.816 76.1238L36.9152 81.8135L36.596 82.4386L32.5024 90.4637C27.0132 92.5822 10.8787 90.2494 8.96988 77.9049C8.96988 77.9049 8.99043 77.6836 9.04048 77.3005C9.29828 75.3895 10.3382 69.4213 13.5604 66.4085C15.5354 64.5592 20.4544 65.6927 22.133 65.6927C27.0952 65.6927 27.8229 67.3505 27.8229 67.3505C27.8229 67.3505 27.8754 68.0598 28.1968 69.0747C29.027 71.7018 31.6565 76.3835 39.816 76.1238Z" fill="#C2C6D2"/>
<path d="M39.816 76.1237L36.9152 81.8134C30.5845 79.1271 26.6918 75.4942 27.0338 71.8546C27.1274 70.8648 27.5264 69.9342 28.1968 69.0747C29.027 71.7018 31.6565 76.3835 39.816 76.1237Z" fill="#A8AFC1"/>
<path d="M81.5131 79.5923C79.5131 82.4363 74.6259 84.5434 68.1993 85.5102L64.6782 78.8193C64.6782 78.8193 73.4423 77.1819 81.5131 79.5923Z" fill="#A8AFC1"/>
<path d="M72.6168 84.6026C67.5197 85.9688 60.8745 86.4682 53.6954 85.793C45.693 85.0406 38.6143 82.979 33.7613 80.2856L43.1388 63.4805L72.2086 73.3665C71.4903 77.2525 71.8299 80.956 72.6168 84.6026Z" fill="#A8AFC1"/>
<path d="M36.596 82.4386L32.5024 90.4637C27.0132 92.5824 10.8787 90.2494 8.96988 77.9049C8.96988 77.9049 8.99043 77.6836 9.04053 77.3005C11.0656 80.7554 14.6209 84.263 20.8331 85.2594C29.62 86.669 34.3179 84.3541 36.596 82.4386Z" fill="#A8AFC1"/>
<path d="M27.868 92.253C24.1011 92.253 19.5183 91.2829 15.7325 89.0928C11.3208 86.5406 8.60788 82.7297 7.88693 78.0721C7.87328 77.9836 7.87043 77.8938 7.87863 77.8045C7.90978 77.466 8.68723 69.4672 12.8116 65.6093C14.7042 63.8391 18.2944 64.2228 20.6703 64.4768C21.281 64.542 21.8085 64.5984 22.1326 64.5984C27.4 64.5984 28.5864 66.3672 28.8246 66.9093C28.8745 67.0229 28.9047 67.1441 28.9139 67.2677C28.9409 67.5938 29.7053 75.3509 39.78 75.0287C40.3842 75.0091 40.8898 75.4837 40.9092 76.0878C40.9285 76.6921 40.4543 77.1976 39.8501 77.2169C39.6181 77.2243 39.3884 77.228 39.1647 77.228C28.8705 77.2291 27.0573 69.5462 26.7773 67.7866C26.484 67.5233 25.374 66.7877 22.1325 66.7877C21.6917 66.7877 21.1106 66.7255 20.4376 66.6536C18.5789 66.455 15.4678 66.1224 14.3071 67.2082C11.0506 70.2542 10.1868 76.8661 10.0726 77.8755C10.7277 81.8468 13.0003 84.9829 16.8288 87.1978C22.3371 90.3845 29.2417 90.5495 32.1075 89.4431C32.672 89.2257 33.3053 89.5063 33.5229 90.0701C33.7406 90.6342 33.4598 91.2679 32.8958 91.4855C31.6014 91.985 29.8472 92.253 27.868 92.253Z" fill="#371A45"/>
<path d="M47.6154 124.126C40.9427 134.044 40.3838 145.524 37.2893 148.172C35.6085 149.609 31.3258 149.695 28.2311 149.636C24.5366 149.568 19.8706 148.423 18.8512 146.792C18.6026 146.396 18.5274 145.575 18.5845 144.414C18.8147 139.816 21.1591 129.901 23.3416 120.158C24.6345 114.368 25.8729 108.639 26.5776 104.122L47.6154 124.126Z" fill="#C2C6D2"/>
<path d="M47.6154 124.126C40.9427 134.044 40.3838 145.524 37.2893 148.172C35.6085 149.609 31.3258 149.695 28.2311 149.636C24.5366 149.568 19.8706 148.423 18.8512 146.792C18.6026 146.396 18.5274 145.575 18.5845 144.414C19.1545 145.798 21.1934 148.387 28.4794 148.227C38.3792 148.012 37.467 135.383 36.9175 133.632C35.9848 130.653 27.1911 128.69 23.3416 120.158C24.6344 114.368 25.8729 108.639 26.5776 104.122L47.6154 124.126Z" fill="#A8AFC1"/>
<path d="M29.4988 150.744C29.0616 150.744 28.6304 150.739 28.2098 150.731C25.0072 150.671 19.3822 149.706 17.9222 147.373C16.6987 145.418 18.069 138.568 21.4872 123.404C23.0454 116.49 24.6567 109.342 25.4963 103.952C25.5893 103.355 26.1484 102.946 26.7463 103.039C27.3436 103.132 27.7524 103.692 27.6594 104.289C26.8086 109.751 25.1891 116.936 23.6228 123.885C22.3848 129.377 21.2154 134.565 20.4624 138.708C19.3623 144.761 19.6642 145.988 19.783 146.22C20.414 147.227 24.2537 148.467 28.2511 148.542C32.746 148.627 35.5464 148.223 36.5778 147.34C37.6995 146.381 38.5801 143.463 39.5997 140.084C41.0643 135.232 42.887 129.193 46.7074 123.516C47.045 123.014 47.7252 122.882 48.2267 123.219C48.7283 123.556 48.8612 124.236 48.5238 124.738C44.8874 130.142 43.1176 136.005 41.6956 140.717C40.4847 144.729 39.6099 147.627 38.0008 149.004C36.293 150.465 32.7412 150.744 29.4988 150.744Z" fill="#371A45"/>
<path d="M18.7302 142.742C19.4755 142.459 20.4254 142.442 21.1753 142.976C22.6374 144.015 22.241 146.683 22.0084 147.887C21.9286 148.206 21.8921 148.409 21.8921 148.409C21.8921 148.409 21.9446 148.211 22.0084 147.887C22.3162 146.647 23.2866 144.026 25.3071 144.317C27.3998 144.619 28.0271 147.584 27.8424 149.624C24.2176 149.488 19.8359 148.366 18.8509 146.793C18.4975 146.227 18.4907 144.791 18.7302 142.742Z" fill="white"/>
<path d="M27.8429 150.445C27.8324 150.445 27.822 150.445 27.8115 150.445C24.7852 150.33 19.4874 149.356 18.155 147.228C17.8506 146.741 17.5486 145.781 17.9147 142.646C17.9502 142.342 18.1525 142.083 18.439 141.974C19.5595 141.549 20.76 141.673 21.6509 142.306C22.296 142.765 22.72 143.458 22.9213 144.378C23.5867 143.728 24.4212 143.36 25.4243 143.505C28.1737 143.901 28.8657 147.426 28.66 149.698C28.6216 150.123 28.2656 150.445 27.8429 150.445ZM22.8192 148.029C24.0741 148.379 25.5562 148.643 27.0484 148.757C27.0077 147.184 26.4694 145.314 25.19 145.13C23.7064 144.918 22.9524 147.519 22.8192 148.029ZM19.4856 143.39C19.2527 145.739 19.493 146.271 19.5471 146.358C19.7938 146.752 20.4033 147.143 21.2459 147.495C21.5965 145.509 21.4046 144.146 20.6994 143.644C20.2916 143.354 19.8307 143.339 19.4856 143.39Z" fill="#371A45"/>
<path d="M33.3403 81.0415C24.7924 93.1852 20.2941 105.636 24.3947 118.162C27.2966 127.026 39.8696 129.86 43.4817 130.465C53.8701 132.204 71.1054 129.914 75.7963 118.482C82.9223 101.116 69.3842 88.6568 72.2096 73.3665L43.1391 63.4796" fill="#C2C6D2"/>
<path d="M72.6168 84.6026C67.5197 85.9688 60.8745 86.4682 53.6954 85.793C45.693 85.0406 38.6143 82.979 33.7613 80.2856L43.1388 63.4805L72.2086 73.3665C71.4903 77.2525 71.8299 80.956 72.6168 84.6026Z" fill="#A8AFC1"/>
<path d="M75.7958 118.482C71.1049 129.914 53.8709 132.204 43.4809 130.464C39.8686 129.86 27.2961 127.027 24.395 118.163C23.7111 116.074 23.2664 113.985 23.0405 111.903C25.9551 120.749 37.2048 124.642 40.7806 125.422C52.5732 127.998 68.3431 123.841 73.034 112.409C79.3694 96.9721 69.3762 85.4123 69.0613 72.2969L72.2086 73.3665C69.383 88.6575 82.9224 101.116 75.7958 118.482Z" fill="#A8AFC1"/>
<path d="M39.4329 129.094C39.8796 129.167 40.3276 129.23 40.7745 129.29C41.219 129.36 41.6642 129.421 42.1091 129.475C42.5534 129.531 42.9953 129.593 43.437 129.638C43.658 129.655 43.876 129.7 44.0953 129.73C44.3155 129.76 44.5346 129.794 44.7554 129.82C46.5186 130.044 48.3041 130.139 50.0881 130.131C51.8725 130.123 53.6564 130.005 55.4253 129.787C57.194 129.569 58.948 129.243 60.6635 128.79C62.3793 128.339 64.0565 127.759 65.6583 127.033C67.2599 126.309 68.7791 125.419 70.1476 124.352C70.8287 123.815 71.4713 123.234 72.0639 122.61C72.6545 121.983 73.1895 121.309 73.665 120.597C74.1421 119.885 74.5442 119.126 74.884 118.341C75.2203 117.54 75.5329 116.703 75.7966 115.866C76.3207 114.185 76.6935 112.459 76.8713 110.708C77.0517 108.958 77.058 107.189 76.8999 105.427C76.5925 101.896 75.6729 98.4192 74.622 94.9617C73.5764 91.5 72.3828 88.0292 71.6302 84.3889C71.2539 82.5719 70.9881 80.7143 70.9124 78.835C70.8304 76.9566 70.9671 75.0589 71.315 73.2021L71.9138 74.2239L64.6562 71.7227C62.2417 70.8757 59.8236 70.0385 57.4139 69.1768C55.0018 68.3225 52.5942 67.4547 50.1902 66.5764C48.9872 66.1397 47.7872 65.6946 46.5886 65.2457C45.3891 64.799 44.1891 64.3538 42.9944 63.8936C42.7688 63.8066 42.6564 63.5533 42.7432 63.3279C42.8257 63.1137 43.0596 63.0021 43.2759 63.0655C44.5036 63.4291 45.7263 63.8078 46.9492 64.185C48.1732 64.5602 49.3956 64.9389 50.6155 65.3259C53.0565 66.0958 55.494 66.8755 57.9267 67.6692C60.362 68.4552 62.7892 69.266 65.2195 70.0667L72.497 72.5092L73.2358 72.7572L73.0959 73.5312C72.4734 76.9777 72.7034 80.5354 73.4317 84.0171C74.155 87.5068 75.2922 90.9444 76.3363 94.4465C77.3788 97.9447 78.3341 101.545 78.6472 105.275C78.8042 107.136 78.8112 109.019 78.6207 110.888C78.4353 112.758 78.042 114.605 77.4877 116.397C77.2067 117.295 76.8851 118.165 76.5197 119.041C76.1402 119.925 75.688 120.781 75.1547 121.582C74.0953 123.19 72.7526 124.592 71.2566 125.766C69.7569 126.938 68.1142 127.897 66.4044 128.672C64.6954 129.454 62.9171 130.053 61.1137 130.517C57.5036 131.443 53.7918 131.854 50.0877 131.837C48.2351 131.827 46.3816 131.71 44.5388 131.457C44.0785 131.39 43.6165 131.333 43.1602 131.23C42.7063 131.118 42.2556 131.005 41.8107 130.871C41.3666 130.735 40.9258 130.592 40.4881 130.441C40.0523 130.282 39.6216 130.111 39.1937 129.935C38.9689 129.843 38.8613 129.586 38.9536 129.361C39.0327 129.168 39.2352 129.062 39.4329 129.094Z" fill="#371A45"/>
<path d="M31.6511 84.3247C30.025 87.1713 28.508 90.0658 27.2475 93.0578C25.9852 96.0463 24.9711 99.1292 24.355 102.285C23.748 105.439 23.5501 108.67 23.9087 111.85C24.085 113.44 24.3893 115.014 24.8159 116.557C24.9128 116.945 25.0457 117.324 25.1586 117.708C25.2745 118.09 25.3919 118.439 25.5143 118.807L26.3091 121.041C26.3931 121.276 26.27 121.535 26.0347 121.619C25.8797 121.674 25.7148 121.64 25.5963 121.543L25.5889 121.536C25.4177 121.396 25.2657 121.24 25.1177 121.078C24.9686 120.917 24.8199 120.753 24.6931 120.575C24.5586 120.401 24.4349 120.219 24.3216 120.031C24.2035 119.845 24.094 119.654 23.9984 119.455C23.7977 119.067 23.6278 118.643 23.5062 118.237C23.3862 117.832 23.2465 117.432 23.143 117.022C22.6904 115.391 22.3666 113.724 22.1783 112.041C21.7979 108.674 21.9973 105.256 22.643 101.95C23.3015 98.6416 24.4226 95.4518 25.842 92.4298C27.267 89.4078 28.9818 86.5431 30.9156 83.8517C31.0566 83.6552 31.3301 83.6103 31.5267 83.7516C31.7099 83.8833 31.7599 84.1328 31.6511 84.3247Z" fill="#371A45"/>
<path d="M78.4892 146.3C78.4275 146.64 78.3407 146.906 78.2222 147.091C76.3635 149.996 63.5336 150.644 60.9999 147.689C57.8367 144.001 56.6258 135.111 54.1537 127.976C53.8253 127.029 59.9897 128.514 66.3659 124.772C72.7422 121.032 77.3189 101.994 77.3189 101.994C78.6555 110.249 77.2004 117.884 76.9177 123.203C76.8994 123.547 76.8858 123.878 76.879 124.202C76.7422 130.213 79.1617 142.582 78.4892 146.3Z" fill="#C2C6D2"/>
<path d="M78.4892 146.3C78.4275 146.64 78.3407 146.906 78.2222 147.091C76.3635 149.996 63.5336 150.644 60.9999 147.689C57.8367 144.001 56.6258 135.111 54.1537 127.976C53.8253 127.029 59.9897 128.514 66.3659 124.772C72.7422 121.032 77.3189 101.994 77.3189 101.994C78.6555 110.249 77.2004 117.884 76.9177 123.203C75.7366 124.536 72.6722 127.488 67.1926 129.609C62.4405 131.447 60.001 136.732 61.7176 141.529C62.364 143.336 63.3052 144.969 64.6735 146.001C68.179 148.644 75.2075 148.275 78.4892 146.3Z" fill="#A8AFC1"/>
<path d="M78.1821 101.854C78.7567 105.41 78.8462 109.015 78.6656 112.571C78.5783 114.349 78.4259 116.119 78.2569 117.876C78.0903 119.633 77.9012 121.38 77.8006 123.103C77.7486 123.969 77.7353 124.804 77.7657 125.665C77.7937 126.524 77.8505 127.391 77.9213 128.259C78.0632 129.995 78.2574 131.738 78.4583 133.483C78.6599 135.229 78.8725 136.978 79.0625 138.737C79.2479 140.498 79.4287 142.26 79.4755 144.076C79.4853 144.531 79.4838 144.991 79.4573 145.465C79.4442 145.701 79.4245 145.941 79.3895 146.191C79.3543 146.441 79.3102 146.697 79.2214 146.981C79.1731 147.126 79.1203 147.274 79.0281 147.441L78.9566 147.565L78.887 147.665C78.8407 147.734 78.7917 147.796 78.7412 147.854C78.5405 148.091 78.3234 148.279 78.1047 148.441C77.6661 148.759 77.2185 148.984 76.7716 149.174C75.8767 149.548 74.9778 149.785 74.0774 149.972C73.1766 150.155 72.274 150.281 71.3697 150.364C69.5608 150.525 67.7456 150.536 65.9227 150.345C65.0113 150.245 64.0974 150.094 63.1817 149.834C62.7241 149.704 62.2651 149.54 61.8083 149.325C61.3538 149.103 60.8922 148.831 60.4733 148.406C60.4232 148.353 60.3672 148.294 60.3237 148.243L60.2083 148.1C60.1326 148.005 60.0522 147.911 59.9811 147.813C59.8407 147.617 59.6953 147.423 59.5707 147.221C59.3068 146.823 59.0846 146.411 58.8671 146C58.4473 145.172 58.0979 144.328 57.7837 143.48C57.1605 141.783 56.6627 140.072 56.1689 138.371C55.9332 137.518 55.6955 136.668 55.4876 135.812C55.2749 134.958 55.0822 134.101 54.8855 133.247L53.7398 128.118L53.7393 128.116C53.6864 127.879 53.8358 127.644 54.073 127.591C54.2772 127.546 54.4801 127.65 54.5662 127.832C55.3341 129.447 55.9374 131.126 56.4759 132.813C56.7429 133.657 57 134.502 57.2366 135.35C57.4782 136.197 57.6899 137.049 57.9177 137.894C58.3544 139.587 58.8286 141.266 59.424 142.873C59.7213 143.676 60.048 144.461 60.4245 145.203C60.6185 145.569 60.8148 145.934 61.0381 146.269C61.1443 146.443 61.2641 146.6 61.3792 146.762C61.4378 146.843 61.5016 146.915 61.562 146.992L61.6538 147.107L61.7273 147.187C61.9269 147.392 62.228 147.586 62.5638 147.747C62.9036 147.907 63.2753 148.043 63.6645 148.153C64.4429 148.374 65.2723 148.515 66.1101 148.606C67.7898 148.783 69.5127 148.774 71.2097 148.622C72.0583 148.544 72.9023 148.426 73.7268 148.258C74.5491 148.089 75.3596 147.869 76.0906 147.563C76.4529 147.41 76.7944 147.232 77.0688 147.032C77.2031 146.932 77.3194 146.827 77.4025 146.728C77.4965 146.608 77.5022 146.602 77.5538 146.453C77.6404 146.172 77.6898 145.765 77.7112 145.365C77.7337 144.959 77.7359 144.538 77.7265 144.113C77.6836 142.409 77.5072 140.663 77.3233 138.924C77.1352 137.182 76.9229 135.435 76.7207 133.683C76.5189 131.931 76.3229 130.174 76.1778 128.4C76.1056 127.513 76.0466 126.622 76.0175 125.721C75.9849 124.823 75.9998 123.897 76.0543 123.005C76.159 121.212 76.3501 119.458 76.5156 117.709C76.6838 115.962 76.8331 114.222 76.9186 112.484C77.095 109.01 77.0052 105.535 76.4555 102.134C76.3781 101.657 76.7017 101.208 77.1785 101.13C77.6554 101.053 78.1047 101.377 78.1821 101.854Z" fill="#371A45"/>
<path d="M78.5806 143.423C78.5145 143.389 78.4461 143.359 78.3757 143.339C75.9224 142.596 76.3099 147.598 76.3099 147.598C76.3099 147.598 75.6397 144.217 73.563 144.73C71.4838 145.243 71.5908 148.509 71.5908 148.509C71.5908 148.509 71.3151 145.391 69.0422 145.625C67.387 145.797 66.8354 148.188 66.6528 149.535C71.2718 149.898 77.026 148.965 78.2226 147.091C78.5784 146.533 78.658 145.204 78.5806 143.423Z" fill="white"/>
<path d="M68.5685 150.427C67.8657 150.427 67.197 150.401 66.5886 150.354C66.3635 150.336 66.1556 150.226 66.0139 150.051C65.8722 149.875 65.809 149.649 65.8394 149.425C66.2196 146.617 67.3272 144.977 68.9578 144.809C69.7256 144.729 70.4282 144.934 70.9923 145.399C71.112 145.498 71.2215 145.605 71.3219 145.718C71.6962 144.916 72.3218 144.19 73.3664 143.932C74.0336 143.768 74.686 143.871 75.2522 144.231C75.4185 144.337 75.5713 144.461 75.7115 144.598C75.891 143.909 76.1922 143.268 76.6895 142.868C77.0596 142.571 77.6936 142.274 78.6138 142.553C78.7247 142.586 78.8394 142.633 78.959 142.695C79.2196 142.83 79.3881 143.094 79.4008 143.388C79.4972 145.607 79.3519 146.846 78.9151 147.532C77.58 149.623 72.5348 150.427 68.5685 150.427ZM67.6238 148.771C68.6854 148.814 69.7612 148.79 70.795 148.711C70.7844 148.669 70.777 148.626 70.7731 148.581C70.7378 148.21 70.5199 147.135 69.9446 146.663C69.7184 146.478 69.4581 146.407 69.1266 146.442C68.2865 146.529 67.8414 147.805 67.6238 148.771ZM73.9807 145.497C73.911 145.497 73.838 145.507 73.7599 145.526C72.3766 145.868 72.4106 148.458 72.4114 148.484C72.4119 148.502 72.4119 148.52 72.4111 148.538C73.5903 148.374 74.6626 148.136 75.527 147.844C75.5181 147.816 75.5105 147.787 75.5046 147.757C75.4192 147.335 75.0264 146.031 74.3694 145.615C74.2443 145.536 74.1191 145.497 73.9807 145.497ZM77.7814 144.108C77.752 144.121 77.7327 144.136 77.7184 144.148C77.2617 144.514 77.0852 145.957 77.1075 147.083C77.2925 146.944 77.4353 146.799 77.5307 146.65C77.6036 146.535 77.8203 146.028 77.7814 144.108Z" fill="#371A45"/>
<path d="M94.5759 94.6939C87.2258 100.47 74.3657 97.232 74.3657 97.232L74.3019 97.1089L64.6782 78.8191C64.6782 78.8191 88.5643 74.3585 93.7846 91.0064C94.138 92.1351 94.4071 93.3619 94.5759 94.6939Z" fill="#C2C6D2"/>
<path d="M81.5131 79.5923C79.5131 82.4363 74.6259 84.5434 68.1993 85.5102L64.6782 78.8193C64.6782 78.8193 73.4423 77.1819 81.5131 79.5923Z" fill="#A8AFC1"/>
<path d="M94.5759 94.694C87.2258 100.47 74.3657 97.2321 74.3657 97.2321L74.3019 97.109C79.4399 97.2867 88.2178 96.6391 93.7846 91.0065C94.138 92.1351 94.4071 93.362 94.5759 94.694Z" fill="#A8AFC1"/>
<path d="M94.5759 94.694L91.9897 92.5775C95.9486 89.5742 98.8632 84.6826 98.9111 76.7896C100.507 82.3198 100.273 89.4829 94.5759 94.694Z" fill="#A8AFC1"/>
<path d="M64.454 77.9752C65.3633 77.7419 66.2412 77.5517 67.1385 77.3713C68.0322 77.1929 68.9288 77.0333 69.8284 76.8912C71.6279 76.608 73.4396 76.394 75.2629 76.2702C77.0858 76.1473 78.9207 76.1121 80.76 76.2118C82.5979 76.3128 84.4442 76.5453 86.2596 77.0108C88.0698 77.4769 89.8663 78.1816 91.4576 79.2933C92.2508 79.8475 92.9857 80.5044 93.6161 81.257C94.2475 82.008 94.7701 82.8531 95.1663 83.747C95.5625 84.6419 95.8288 85.583 95.9967 86.5295C96.159 87.4776 96.2211 88.4318 96.2095 89.3766C96.1815 91.2675 95.8699 93.1148 95.4232 94.9067L95.3493 95.2029L95.1156 95.3807C94.7531 95.6763 94.3813 95.9616 93.9902 96.2174C93.5986 96.4715 93.1963 96.7079 92.7859 96.927C92.3739 97.143 91.9541 97.3413 91.5284 97.5232C91.1003 97.6995 90.6663 97.8571 90.229 98.0014C88.4761 98.5694 86.6652 98.869 84.8629 98.9897C83.9612 99.055 83.0597 99.0686 82.1615 99.0456C81.2639 99.0198 80.3681 98.975 79.4791 98.8733C79.0346 98.8239 78.5907 98.769 78.1506 98.6916C77.7093 98.621 77.2705 98.5362 76.835 98.4358C75.9615 98.2358 75.1074 98.0005 74.258 97.6557C74.0323 97.5638 73.9234 97.3063 74.0153 97.0804C74.089 96.8987 74.27 96.7929 74.4554 96.8062L74.4716 96.8075C76.1887 96.9322 77.9123 97.0752 79.6175 97.1613C80.4718 97.2018 81.3245 97.2352 82.176 97.2247C83.0267 97.214 83.8751 97.1768 84.7173 97.1051C86.4005 96.9558 88.0625 96.6674 89.6444 96.1719C90.4341 95.922 91.2029 95.6222 91.9417 95.268C92.6779 94.9083 93.3752 94.4829 94.0344 94.0053L93.727 94.4796C94.1499 92.785 94.4359 91.0617 94.4606 89.3536C94.4857 87.6496 94.2317 85.9577 93.5665 84.455C92.9073 82.9511 91.82 81.6727 90.4552 80.7268C89.093 79.7735 87.4898 79.1326 85.8242 78.7049C84.155 78.2764 82.4154 78.0542 80.6651 77.9585C78.9129 77.8632 77.1457 77.8964 75.3815 78.0156C73.6167 78.135 71.854 78.3433 70.1011 78.6188C69.2247 78.7574 68.3508 78.9131 67.4812 79.0867C66.616 79.2603 65.736 79.4521 64.9038 79.6657L64.8889 79.6694C64.421 79.7897 63.9444 79.5076 63.8243 79.0397C63.7042 78.5719 63.9861 78.0953 64.454 77.9752Z" fill="#371A45"/>
<path d="M126.848 48.464C126.64 52.1911 125.827 55.8384 124.333 58.8155C121.42 64.6252 115.628 68.503 110.884 72.7946C108.724 74.7475 106.683 76.6671 104.74 78.3456C101.129 81.4673 97.8617 83.7592 94.831 83.9186C82.0811 84.5911 84.5059 69.1947 84.5059 69.1947L88.3996 34.0477C98.6963 28.4534 113.821 23.7876 121.066 29.4508C125.125 32.6263 127.29 40.7201 126.848 48.464Z" fill="#F3AABB"/>
<g opacity="0.4">
<path d="M103.347 72.9497C104.668 74.8434 122.799 60.4615 122.296 49.3489C122.08 44.5532 119.235 52.5823 114.604 59.4522C109.973 66.322 102.587 71.8586 103.347 72.9497Z" fill="white"/>
</g>
<path d="M126.848 48.4641C118.061 37.0056 101.744 38.3404 100.183 50.4795C98.2542 65.5064 93.8462 66.6038 94.3303 73.7217C94.6701 78.7264 100.371 78.9357 104.74 78.3458C101.129 81.4674 97.8617 83.7593 94.831 83.9187C82.0812 84.5913 84.506 69.1949 84.506 69.1949L88.3997 34.0478C98.6963 28.4535 113.821 23.7877 121.066 29.4509C125.125 32.6264 127.29 40.7201 126.848 48.4641Z" fill="#E36F8A"/>
<path d="M94.0313 85.0346C90.7611 85.0346 88.1681 83.9953 86.3146 81.9391C82.2477 77.4277 83.3276 69.6606 83.4196 69.0523L85.8392 47.2069L86.1055 46.9365C91.6954 41.2615 105.879 28.3866 116.839 31.3871C122.159 32.8441 125.903 37.8021 127.968 46.1234L128 46.2517L128 46.384C128.013 51.2329 127.059 55.8223 125.312 59.3067L125.312 59.3071C122.966 63.9832 118.903 67.405 114.973 70.7142C113.852 71.6581 112.693 72.6343 111.619 73.606C110.918 74.2398 110.23 74.8697 109.554 75.4888C104.111 80.4708 99.4108 84.7734 94.8875 85.0115C94.5972 85.0269 94.3116 85.0346 94.0313 85.0346ZM87.9313 48.204L85.5863 69.366C85.5752 69.4376 84.4983 76.662 87.9451 80.4783C89.4937 82.1929 91.7911 82.9832 94.7723 82.8254C98.5117 82.6286 102.944 78.5716 108.076 73.8741C108.755 73.2521 109.447 72.6193 110.15 71.9827C111.253 70.985 112.427 69.9961 113.563 69.0397C117.323 65.8732 121.211 62.5989 123.355 58.3255C124.935 55.1725 125.806 50.9853 125.811 46.522C123.946 39.1052 120.734 34.7237 116.261 33.4987C106.349 30.7837 92.3976 43.7148 87.9313 48.204Z" fill="#371A45"/>
<path d="M126.905 46.3871C119.603 16.9556 93.6999 40.7866 86.8852 47.7047L88.3989 34.0479C98.6969 28.4535 113.821 23.7873 121.066 29.4508C124.762 32.3437 126.886 39.3155 126.905 46.3871Z" fill="#C2C6D2"/>
<g opacity="0.7">
<path d="M126.905 46.3881C126.889 46.3241 126.874 46.26 126.855 46.1983C126.462 39.8979 124.409 33.9997 121.088 31.3995C113.843 25.7365 98.7179 30.4022 88.421 35.9968L87.1522 47.435C87.0595 47.5275 86.9712 47.6175 86.8857 47.705L88.3996 34.048C98.6963 28.4536 113.821 23.7877 121.066 29.4509C124.761 32.3436 126.886 39.3146 126.905 46.3881Z" fill="white"/>
</g>
<path d="M86.8849 48.7993C86.7257 48.7993 86.5652 48.7646 86.4149 48.6931C85.9939 48.4928 85.746 48.0476 85.7974 47.5841L87.311 33.9272C87.3505 33.5711 87.5616 33.2569 87.8765 33.086C93.6679 29.9398 100.153 27.5221 105.669 26.453C112.662 25.0971 118.219 25.8359 121.74 28.5882C125.522 31.5483 127.979 38.5334 128 46.3841C128.001 46.9378 127.589 47.4055 127.04 47.4734C126.49 47.5408 125.976 47.1881 125.843 46.6506C123.983 39.1558 120.759 34.7308 116.261 33.4988C106.142 30.7285 91.8154 44.2595 87.665 48.4729C87.4546 48.6865 87.1719 48.7993 86.8849 48.7993ZM89.4236 34.7397L88.3118 44.7711C94.859 38.5553 107.119 28.7241 116.839 31.3873C119.992 32.2508 122.592 34.3447 124.616 37.6395C123.662 34.3537 122.189 31.72 120.391 30.3127C117.385 27.9623 112.438 27.3708 106.086 28.6021C100.938 29.5998 94.8959 31.8281 89.4236 34.7397Z" fill="#371A45"/>
<path d="M34.3117 33.6448L28.6559 54.5107C28.6559 54.5107 25.1597 69.6989 15.5649 64.8526C13.9771 64.0519 12.6645 62.2487 11.4423 59.8448C9.95852 56.9294 8.60987 53.1255 7.06712 49.1461C4.90707 43.569 1.79332 38.0276 1.57007 31.6373C1.49527 29.4718 1.75307 27.1299 2.26452 24.7671C2.66947 22.8907 3.23312 21.0026 3.92122 19.1732C19.8095 -5.91107 31.4703 24.9255 34.3117 33.6448Z" fill="#F3AABB"/>
<path d="M34.3117 33.6448L28.6559 54.5107C28.6559 54.5107 25.1597 69.6989 15.5649 64.8526C13.9771 64.0519 12.6645 62.2487 11.4423 59.8448C15.4427 53.9669 21.9309 47.5751 23.7765 40.0575C26.1657 30.3169 23.7765 17.4634 13.3266 17.1553C8.46648 17.0119 4.63163 21.2078 2.26453 24.7672C2.66948 22.8907 3.23313 21.0027 3.92123 19.1733C19.8095 -5.91109 31.4703 24.9255 34.3117 33.6448Z" fill="#E36F8A"/>
<path d="M19.1864 66.9039C17.8654 66.9039 16.4899 66.5452 15.0714 65.8288C11.5839 64.0681 9.45083 58.4681 6.98083 51.984C6.67528 51.1819 6.36438 50.3658 6.04528 49.5421C5.55628 48.2788 5.00293 46.983 4.46763 45.7299C2.59323 41.3408 0.65503 36.8023 0.47688 31.6749V31.6745C0.34588 27.8658 1.20513 23.2893 2.89633 18.7879L2.93603 18.6825L2.99633 18.5873C7.61118 11.3014 12.3876 7.91246 17.1952 8.51551C26.6782 9.70486 33.0525 26.2478 35.3529 33.3052L35.4541 33.6156L29.7175 54.7794C29.577 55.3778 27.5275 63.7396 22.2512 66.213C21.2684 66.6736 20.245 66.9039 19.1864 66.9039ZM2.66493 31.5989C2.82873 36.318 4.68543 40.6657 6.48108 44.87C7.02343 46.1402 7.58433 47.4534 8.08678 48.7515C8.40733 49.5789 8.71958 50.3987 9.02658 51.2046C11.2385 57.0114 13.3277 62.496 16.0582 63.8745C18.0079 64.8591 19.7285 64.9766 21.3186 64.2322C25.711 62.1766 27.571 54.3442 27.5893 54.2654L27.5993 54.2253L33.1699 33.6743C31.3413 28.1444 25.2315 11.7297 16.9227 10.6876C13.0483 10.2016 9.00713 13.2214 4.90618 19.6633C3.34033 23.8661 2.54468 28.101 2.66493 31.5989Z" fill="#371A45"/>
<path d="M3.92093 19.1728C19.8091 -5.91037 31.4705 24.9259 34.3123 33.6444L37.9058 20.3833C33.6845 13.207 27.256 4.69128 16.7801 5.94808C10.4605 6.70588 6.40018 12.572 3.92093 19.1728Z" fill="#C2C6D2"/>
<g opacity="0.7">
<path d="M37.9059 20.3829L34.3118 33.6447C34.2492 33.4496 34.1821 33.2467 34.108 33.0314L37.0228 22.2745C32.8033 15.0982 26.3739 6.58179 15.8988 7.83949C10.7892 8.45169 7.15593 12.4049 4.64233 17.3846C7.16158 11.5412 11.0387 6.63675 16.7793 5.94755C27.2571 4.69245 33.6838 13.2062 37.9059 20.3829Z" fill="white"/>
</g>
<path d="M34.312 34.739C33.8394 34.739 33.4187 34.435 33.2715 33.9836C31.5777 28.7872 25.3931 11.7501 16.9228 10.6877C13.03 10.1987 8.96727 13.2514 4.84557 19.7587C4.54527 20.2325 3.93552 20.4028 3.43297 20.1528C2.93077 19.9027 2.69882 19.3133 2.89622 18.7881C6.05517 10.3773 10.8111 5.56154 16.6498 4.86134C27.8669 3.51429 34.6909 12.759 38.8492 19.8285C38.9985 20.0823 39.0393 20.3855 38.9623 20.6697L35.3688 33.9307C35.2422 34.398 34.8237 34.7264 34.3398 34.7387C34.3306 34.7389 34.3213 34.739 34.312 34.739ZM16.1058 8.44724C16.469 8.44724 16.8318 8.46994 17.1953 8.51549C25.3807 9.54209 31.25 22.008 34.1823 29.9388L36.7284 20.5432C32.5649 13.5528 26.5569 5.87789 16.9106 7.03489C14.4134 7.33444 12.3255 8.53699 10.5915 10.2097C12.4187 9.03639 14.2593 8.44724 16.1058 8.44724Z" fill="#371A45"/>
<path d="M54.0506 81.0329C52.4136 80.9411 49.4918 80.4653 49.4918 80.4653C30.2192 77.4626 19.8215 66.9629 19.1894 60.7134C18.6013 54.8991 21.9967 51.9478 23.4019 49.1996C25.3112 45.4659 25.4638 42.2389 27.0525 36.7893C32.5686 17.8667 45.4039 8.95874 63.5076 11.9652C79.6678 14.6491 89.8124 21.7554 93.1449 33.3565L94.1321 38.406C94.6732 41.3237 94.3663 46.6817 93.4893 51.4535C92.1472 58.7555 93.2175 72.4403 83.5897 77.9116C79.0366 80.4991 71.6945 81.4264 64.5452 81.4968L54.0506 81.0329Z" fill="#C2C6D2"/>
<g opacity="0.7">
<path d="M94.3965 41.6653L93.6973 38.0851C90.1143 25.6103 79.3786 17.2378 61.9982 14.351C51.1619 12.5511 41.9065 15.4512 34.962 21.2411C41.7381 13.2433 51.4562 9.96469 63.5068 11.966C79.6685 14.6499 89.8121 21.7543 93.1441 33.3556L94.1317 38.4066C94.2953 39.2951 94.3808 40.4091 94.3965 41.6653Z" fill="white"/>
</g>
<path d="M93.4887 51.4538C92.1479 58.7554 93.2186 72.4393 83.5902 77.9112C75.459 82.5332 58.4298 81.8581 49.4914 80.465C30.2196 77.4621 19.8202 66.9632 19.1897 60.7129C19.0847 59.6689 19.1175 58.732 19.252 57.8801C21.0182 64.194 31.2803 73.5656 49.3121 76.3752C58.2529 77.7685 75.2797 78.4434 83.4109 73.8214C93.0389 68.3493 91.9686 54.6654 93.3118 47.3642C93.8317 44.5397 94.1505 41.5084 94.2126 38.901C94.6387 41.9021 94.3191 46.94 93.4887 51.4538Z" fill="#A8AFC1"/>
<path d="M94.5623 38.3262C94.9136 39.6325 95.037 40.9592 95.0982 42.2763C95.1266 42.9362 95.127 43.5944 95.1227 44.2525C95.1054 44.9096 95.0789 45.5664 95.0396 46.2221C94.9451 47.5323 94.8072 48.8381 94.6104 50.1375C94.5623 50.4624 94.5133 50.787 94.4573 51.1113L94.3014 52.0615C94.2028 52.6797 94.1261 53.3094 94.0565 53.9432C93.9188 55.212 93.8132 56.4984 93.6931 57.7906C93.5687 59.0831 93.4342 60.3821 93.26 61.6832C93.0855 62.984 92.8732 64.2873 92.5898 65.5844C92.2999 66.8797 91.9418 68.1686 91.4791 69.4319C91.0168 70.694 90.449 71.9309 89.7428 73.0989C89.0335 74.2638 88.1827 75.3569 87.1949 76.3161C86.2088 77.2766 85.086 78.0976 83.8847 78.7555C82.6819 79.4137 81.4203 79.9047 80.1449 80.2953C77.5918 81.0798 74.9793 81.4949 72.3726 81.7392C69.763 81.976 67.1506 82.0217 64.5494 81.9338C64.308 81.9257 64.1186 81.7235 64.1267 81.4817C64.1344 81.2554 64.3126 81.075 64.5339 81.0597L64.5409 81.0592C65.8274 80.9759 67.1115 80.9007 68.3904 80.7778C69.6684 80.6512 70.9436 80.5196 72.2093 80.3359C73.4742 80.1538 74.7321 79.9386 75.9734 79.6732C77.2127 79.4003 78.4358 79.0772 79.6257 78.6852C80.8154 78.2925 81.9644 77.8059 83.0252 77.209C84.0844 76.608 85.0571 75.8731 85.9123 75.0156C87.6284 73.3003 88.8468 71.1175 89.684 68.7812C90.1036 67.6112 90.4328 66.3999 90.6998 65.1682C90.9734 63.9379 91.1859 62.6866 91.3614 61.4239C91.7128 58.8963 91.9092 56.3302 92.2334 53.7287C92.3156 53.0778 92.4055 52.4243 92.5209 51.7662L92.6948 50.8039C92.754 50.4917 92.8065 50.1775 92.8581 49.8633C93.061 48.606 93.2383 47.3423 93.3735 46.0747C93.4485 45.4417 93.5103 44.8076 93.5641 44.1727C93.6188 43.5388 93.6675 42.9036 93.6986 42.2693C93.769 41.0009 93.7967 39.731 93.7021 38.4856L93.7012 38.4733C93.683 38.2317 93.8641 38.0209 94.1054 38.0028C94.3191 37.9865 94.5087 38.1266 94.5623 38.3262Z" fill="#371A45"/>
<path d="M54.0262 81.4696C53.189 81.4488 52.3728 81.3839 51.5572 81.2984C50.7425 81.2129 49.93 81.1204 49.1186 81.0076L47.9005 80.837C47.4936 80.785 47.091 80.6997 46.6859 80.6326C45.8749 80.4994 45.0716 80.3236 44.2656 80.1581C42.6631 79.7862 41.0661 79.3754 39.4962 78.8668C37.9292 78.3521 36.3779 77.7801 34.8617 77.1178C31.8334 75.7878 28.9278 74.1385 26.2848 72.1022C24.9648 71.0835 23.7076 69.9719 22.5607 68.7383C22.2828 68.4211 21.9894 68.1193 21.7261 67.7872L21.3227 67.2975L20.939 66.7889L20.7477 66.5341L20.5671 66.2698C20.4477 66.0929 20.3244 65.9191 20.2087 65.7391C19.9846 65.3731 19.7552 65.0108 19.5572 64.6249C19.1514 63.8614 18.7952 63.058 18.5531 62.1931L18.3961 61.5332C18.3537 61.3093 18.3251 61.0793 18.2907 60.8523C18.2686 60.631 18.2601 60.4179 18.2448 60.2001C18.2354 59.9827 18.2083 59.7674 18.2142 59.5487C18.1974 57.8072 18.5293 56.0254 19.2347 54.4308C19.9094 52.8207 20.908 51.4176 21.7802 50.0933C21.9977 49.7614 22.2046 49.4338 22.3863 49.1089C22.5678 48.7952 22.7333 48.4357 22.901 48.0887C23.2217 47.3847 23.497 46.6603 23.7382 45.9173C24.2214 44.4334 24.5568 42.8619 24.9246 41.2741C25.2875 39.6845 25.6793 38.0803 26.1392 36.4962C27.0741 33.3288 28.2393 30.2105 29.7884 27.2615C30.5648 25.7904 31.4051 24.3454 32.3781 22.9837C33.3459 21.62 34.4076 20.3179 35.5704 19.1055C37.9102 16.6962 40.6702 14.6678 43.7186 13.2216C46.7727 11.7928 50.0734 10.9164 53.4065 10.6035C55.0729 10.4465 56.7466 10.398 58.4114 10.4747C60.0747 10.5609 61.7318 10.7231 63.3686 10.9945C66.6202 11.5295 69.8417 12.2668 72.9835 13.3161C76.1212 14.3617 79.1831 15.7127 82.0076 17.4975C84.8258 19.2773 87.4168 21.5016 89.4279 24.1987C91.4364 26.8896 92.8653 30.0012 93.5652 33.2357C93.6166 33.4722 93.4662 33.7058 93.2296 33.7567C93.013 33.8037 92.7993 33.6815 92.7254 33.4793L92.7248 33.4773C92.1733 31.9708 91.5268 30.5133 90.7659 29.1259L90.4782 28.6071L90.171 28.1005C89.974 27.7587 89.7556 27.4301 89.5369 27.1021C89.0998 26.4464 88.6256 25.8176 88.1398 25.1994C86.1593 22.7549 83.7475 20.6732 81.0638 19.0001C78.379 17.3237 75.4426 16.0435 72.4108 15.0517C69.3781 14.0567 66.2372 13.3548 63.0727 12.8519C61.4997 12.5998 59.916 12.4548 58.333 12.3809C56.7491 12.3182 55.1663 12.3711 53.5971 12.5198C52.0267 12.6656 50.4752 12.9551 48.9606 13.3642C47.446 13.7737 45.9686 14.3112 44.5524 14.9787C41.7253 16.3282 39.1688 18.2123 36.9839 20.4699C34.8162 22.7469 32.9931 25.3604 31.5205 28.1703C30.0326 30.9753 28.8978 33.9724 27.9808 37.0339C27.5286 38.5705 27.1422 40.1243 26.7754 41.7025C26.403 43.2787 26.0556 44.8919 25.5267 46.4996C25.2632 47.3016 24.9573 48.0977 24.6009 48.872C24.4138 49.2559 24.2384 49.6351 24.0128 50.0254C23.7963 50.4087 23.5665 50.7677 23.3376 51.1147C22.4173 52.4948 21.5173 53.7625 20.9283 55.1588C20.3126 56.5392 20.0351 58.0225 20.0388 59.5285C20.0452 59.9037 20.0766 60.2866 20.1003 60.6583C20.1283 60.8328 20.1475 61.007 20.1796 61.1822L20.3027 61.7089C20.4958 62.4121 20.7977 63.1057 21.1515 63.7769C21.3227 64.1158 21.5283 64.4407 21.7264 64.7691C21.8298 64.9311 21.9415 65.0892 22.0487 65.2495L22.2105 65.4896L22.3847 65.7224L22.7333 66.1888L23.1034 66.6414C23.3433 66.948 23.6175 67.23 23.8733 67.5256C24.9359 68.6779 26.1179 69.7322 27.3671 70.7041C28.6175 71.6749 29.9406 72.5596 31.3122 73.366C32.6818 74.1756 34.0965 74.9164 35.5524 75.5728C37.0078 76.2301 38.4917 76.8294 40.0026 77.3607C41.5143 77.8901 43.0508 78.354 44.603 78.7669C46.1567 79.1762 47.727 79.5199 49.3112 79.8293C50.1025 79.988 50.8992 80.1269 51.6953 80.2589C52.4912 80.3844 53.2897 80.5169 54.0753 80.5965L54.0812 80.5972C54.3217 80.6215 54.4967 80.8364 54.4724 81.0767C54.4491 81.3049 54.2521 81.4744 54.0262 81.4696Z" fill="#371A45"/>
<path d="M80.9187 39.5935C81.6345 40.2079 82.6864 39.4291 82.292 38.5722C81.4274 36.6929 80.0016 34.7343 77.724 34.2176C73.6035 33.2826 74.4506 35.9703 76.6106 36.8512C77.8711 37.3655 79.4889 38.3667 80.9187 39.5935Z" fill="#371A45"/>
<path d="M37.7707 32.9978C36.9042 33.3706 36.1323 32.3138 36.7642 31.6133C38.1498 30.0775 40.0949 28.6331 42.4231 28.8189C46.6349 29.155 45.025 31.4676 42.7003 31.6647C41.3438 31.7797 39.5013 32.2531 37.7707 32.9978Z" fill="#371A45"/>
<path d="M64.501 11.7642C64.4275 13.1872 64.1122 14.5094 63.7064 15.6398L60.5218 14.2946C60.5371 11.9516 58.4778 9.3626 56.4221 7.48265C56.1438 7.22815 55.8652 6.9874 55.5939 6.7613C55.5307 6.70885 55.4675 6.65415 55.4067 6.5995C52.3334 3.8104 56.4466 -0.863853 59.6772 1.74005C63.624 4.92075 64.665 8.59275 64.501 11.7642Z" fill="#C2C6D2"/>
<g opacity="0.7">
<path d="M64.501 11.7642C62.9444 6.92335 59.2989 2.4207 57.1893 3.76255C55.9072 4.57895 56.0486 6.209 56.4221 7.48265C56.1437 7.22815 55.8652 6.9874 55.5938 6.7613C55.5306 6.70885 55.4674 6.65415 55.4067 6.5995C52.3333 3.8104 56.4466 -0.863853 59.6771 1.74005C63.624 4.92075 64.665 8.59275 64.501 11.7642Z" fill="white"/>
</g>
<path d="M63.2945 15.4917C63.4154 14.0359 63.6203 12.6949 63.6286 11.336C63.6345 9.98414 63.4091 8.63859 62.892 7.40319C62.3843 6.16519 61.63 5.03194 60.713 4.02834L59.9956 3.29869L59.215 2.62544L59.1177 2.54104C59.084 2.51019 59.0534 2.48594 59.0267 2.46889L58.8597 2.34844C58.8037 2.30909 58.7442 2.28154 58.6876 2.24634C58.6314 2.20914 58.5726 2.18249 58.5133 2.15824C58.2798 2.04959 58.0397 1.98354 57.797 1.96759C57.3145 1.92954 56.8083 2.07759 56.3738 2.38169C55.9381 2.68169 55.5943 3.13779 55.424 3.62014C55.2541 4.10554 55.2552 4.60604 55.4507 5.05164C55.5486 5.27534 55.6918 5.48849 55.8694 5.69034C55.9693 5.78564 56.0563 5.88449 56.1775 5.98309L56.6025 6.34584C57.7502 7.34724 58.8006 8.46389 59.7069 9.73489C60.1565 10.3727 60.5614 11.0597 60.8784 11.8142C61.1887 12.5683 61.4087 13.4067 61.3953 14.3016C61.3883 14.7844 60.991 15.1701 60.508 15.1628C60.036 15.156 59.6568 14.7762 59.6468 14.3079L59.6463 14.2887C59.6347 13.718 59.4638 13.1171 59.2018 12.5316C58.9412 11.9439 58.5922 11.3693 58.189 10.822C57.3809 9.72504 56.3863 8.72844 55.3322 7.81314L54.9231 7.46569C54.7606 7.33319 54.5973 7.16504 54.4374 7.00409C54.1289 6.66104 53.856 6.26484 53.6621 5.81834C53.2624 4.92189 53.264 3.85969 53.583 2.97304C53.9002 2.07964 54.4847 1.31854 55.2469 0.781939C56.0036 0.244689 56.9725 -0.0653111 57.9507 0.0116389C58.4378 0.0437889 58.9121 0.185689 59.3376 0.387039C59.446 0.435789 59.5516 0.48784 59.6496 0.54949C59.7484 0.60959 59.852 0.666038 59.9456 0.731838L60.2207 0.934289C60.2694 0.969089 60.3097 1.00209 60.3431 1.03334L60.452 1.12914L61.3218 1.89724C61.5949 2.17404 61.8623 2.45784 62.1317 2.73839C63.1755 3.89679 64.0462 5.24584 64.6125 6.72719C65.1939 8.20349 65.4283 9.80249 65.388 11.3667C65.3677 12.9329 64.9573 14.487 64.1179 15.7867C63.9832 15.9948 63.7055 16.0545 63.4972 15.92C63.3535 15.8271 63.2805 15.666 63.2932 15.5064L63.2945 15.4917Z" fill="#371A45"/>
<path d="M60.435 14.2279L57.8834 14.9343C56.6336 13.3255 53.6208 12.7977 51.3466 12.7474C51.283 12.7445 51.2194 12.7417 51.1581 12.7386C51.0615 12.7332 50.9675 12.7205 50.8756 12.7056C48.0063 12.2357 48.3345 7.76218 51.415 7.79103C56.0064 7.83498 58.4822 10.2204 59.751 12.6286C60.0364 13.1683 60.2603 13.7101 60.435 14.2279Z" fill="#C2C6D2"/>
<g opacity="0.7">
<path d="M59.751 12.6285C56.9772 10.3513 52.4812 8.81111 51.1481 9.81101C50.0163 10.6594 50.3528 11.8313 50.8756 12.7057C48.0063 12.2356 48.3347 7.76206 51.415 7.79091C56.0066 7.83486 58.4822 10.2204 59.751 12.6285Z" fill="white"/>
</g>
<path d="M59.6069 14.5076C58.8941 12.5717 57.6314 10.8677 55.9051 9.89122C55.0456 9.39947 54.086 9.08397 53.0848 8.91257L52.3258 8.81157L51.5531 8.77307L51.4565 8.76802C51.4215 8.76517 51.3931 8.76477 51.3723 8.76717L51.2304 8.77222C51.1409 8.78512 51.0476 8.78837 50.9667 8.81397C50.7983 8.85137 50.6459 8.90997 50.5143 9.00002C50.2499 9.17317 50.0413 9.45592 49.9331 9.80332C49.8225 10.1488 49.829 10.5461 49.9386 10.876C50.0503 11.2077 50.2469 11.4707 50.5333 11.6306C50.6772 11.711 50.8445 11.7688 51.0297 11.8064C51.1274 11.8164 51.2177 11.8355 51.3327 11.8387L51.7619 11.8602C52.9341 11.9371 54.1128 12.0839 55.2603 12.4724C55.8317 12.6674 56.3964 12.9252 56.9172 13.2792C57.4356 13.6284 57.9221 14.0869 58.2287 14.6648C58.3435 14.881 58.2612 15.1495 58.045 15.2641C57.8861 15.3485 57.6991 15.3264 57.5657 15.223L57.5386 15.202C56.7644 14.6011 55.8071 14.2939 54.8024 14.0615C53.7958 13.8413 52.7421 13.6898 51.6814 13.6603L51.2721 13.6509C51.107 13.65 50.9203 13.6277 50.7402 13.6074C50.3746 13.5483 50.0027 13.4373 49.653 13.2536C48.9446 12.8897 48.3991 12.2139 48.1535 11.4891C47.9027 10.761 47.8887 9.98587 48.1006 9.25992C48.3088 8.53642 48.7688 7.84352 49.4368 7.39222C49.7665 7.16437 50.1417 7.00892 50.5169 6.91972C50.7054 6.86832 50.8932 6.85082 51.0802 6.83007L51.3576 6.81892C51.4068 6.81632 51.4481 6.81697 51.4831 6.81957L51.596 6.82457L52.4992 6.86852L53.4038 6.98637C54.6072 7.18272 55.8024 7.58722 56.8794 8.21932C57.9648 8.84027 58.8899 9.71927 59.6279 10.7028C60.3708 11.6893 60.8978 12.8022 61.2649 13.9495C61.4119 14.4095 61.1582 14.9019 60.6982 15.0491C60.2508 15.1923 59.7731 14.9564 59.6115 14.5202L59.6069 14.5076Z" fill="#371A45"/>
<g opacity="0.4">
<path d="M11.8353 47.0632C9.80429 48.1611 2.51784 33.3423 7.96329 23.6424C10.3133 19.4564 9.89659 27.8497 10.2912 36.1255C10.5698 41.9626 13.0058 46.4305 11.8353 47.0632Z" fill="white"/>
</g>
<path d="M65.9262 52.3114C64.944 55.3994 66.5338 58.6614 69.4771 59.5975C72.4201 60.5335 75.6023 58.7889 76.5843 55.7009C77.5662 52.6129 75.9766 49.3509 73.0334 48.4149C70.0904 47.4788 66.9082 49.2234 65.9262 52.3114Z" fill="#371A45"/>
<path d="M67.8998 54.3652C67.4844 55.6721 68.1572 57.0524 69.4026 57.4488C70.648 57.8447 71.9949 57.1064 72.4105 55.7997C72.826 54.4926 72.1532 53.1123 70.9077 52.7161C69.6624 52.32 68.3155 53.0581 67.8998 54.3652Z" fill="white"/>
<path d="M72.3288 51.8183C72.0891 52.5717 72.477 53.3679 73.1953 53.5961C73.9133 53.8246 74.6897 53.3989 74.9294 52.6454C75.1688 51.892 74.7811 51.0961 74.0629 50.8676C73.3446 50.6391 72.5684 51.065 72.3288 51.8183Z" fill="white"/>
<path d="M33.9022 46.4898C32.9201 49.5778 34.5099 52.8398 37.4531 53.7758C40.3963 54.7119 43.5781 52.9675 44.5603 49.8795C45.5425 46.7915 43.9526 43.5292 41.0094 42.5934C38.0662 41.6572 34.8842 43.4018 33.9022 46.4898Z" fill="#371A45"/>
<path d="M35.8759 48.5434C35.4604 49.8503 36.133 51.2308 37.3787 51.627C38.6243 52.0229 39.971 51.2846 40.3864 49.9779C40.8021 48.6711 40.1293 47.2905 38.8839 46.8943C37.6382 46.4982 36.2915 47.2365 35.8759 48.5434Z" fill="white"/>
<path d="M40.3048 45.9966C40.0651 46.7499 40.453 47.546 41.1711 47.7745C41.8893 48.0027 42.6658 47.5772 42.9054 46.8236C43.1448 46.0701 42.757 45.2742 42.0389 45.0457C41.3206 44.8175 40.5444 45.2432 40.3048 45.9966Z" fill="white"/>
<path d="M62.061 61.4504C64.3724 62.968 66.607 63.9395 68.6861 64.4907C69.1934 64.6232 69.689 64.7323 70.1755 64.8184C71.7964 65.1049 73.3053 65.1341 74.6616 64.9715C75.5932 64.8621 76.4538 64.6606 77.23 64.3921C78.011 64.1229 78.7066 63.782 79.3024 63.395C83.5415 60.6396 87.1539 51.4572 86.7596 49.3464C86.1222 45.942 79.033 43.1168 73.1789 42.042C71.7043 41.7726 70.3065 41.6125 69.1129 41.5826C68.4493 41.5655 67.8246 41.5684 67.2367 41.5861C66.0153 41.6226 64.9527 41.7265 64.0341 41.869C62.602 42.0931 61.5221 42.4082 60.7378 42.7128C59.5116 43.1866 59.0059 43.6285 59.0059 43.6285C59.0059 43.6285 53.5886 55.8895 62.061 61.4504Z" fill="#371A45"/>
<g opacity="0.7">
<path d="M67.2366 41.5862L74.6615 64.9716C75.5932 64.862 76.4538 64.6604 77.23 64.3921L73.1788 42.042C71.7043 41.7727 70.3064 41.6126 69.1128 41.5824C68.4492 41.5654 67.8246 41.5685 67.2366 41.5862Z" fill="white"/>
</g>
<g opacity="0.7">
<path d="M60.7378 42.7127L68.6862 64.4908C69.1934 64.6231 69.6889 64.7322 70.1756 64.8186L64.0342 41.8691C62.6018 42.093 61.5221 42.4081 60.7378 42.7127Z" fill="white"/>
</g>
<path d="M27.9523 49.9843C29.236 52.7614 32.8459 55.773 39.019 55.8194C39.4141 55.8231 39.8195 55.8143 40.236 55.7907C40.4343 55.7818 40.6365 55.7669 40.8414 55.7507C42.0143 55.6556 43.05 55.3618 43.965 54.9212C44.6815 54.5772 45.3248 54.143 45.9027 53.6449C50.4169 49.7361 50.8562 41.8442 50.8562 41.8442C50.8562 41.8442 49.6484 38.8793 43.4794 36.2789C42.9181 36.0432 42.2917 35.8228 41.6204 35.6258C39.7949 35.0855 37.6436 34.7099 35.5868 34.6036C34.8701 34.5671 34.1623 34.5623 33.4865 34.5958C32.1055 34.6636 30.8494 34.8857 29.8665 35.3029C29.1321 35.6145 28.5514 36.0349 28.1875 36.58C27.1999 38.0629 26.2433 46.2784 27.9523 49.9843Z" fill="#371A45"/>
<g opacity="0.7">
<path d="M35.5869 34.6036L43.9651 54.9212C44.6816 54.5772 45.3249 54.1428 45.9027 53.6449L41.6205 35.6258C39.795 35.0855 37.6437 34.7097 35.5869 34.6036Z" fill="white"/>
</g>
<g opacity="0.7">
<path d="M29.8666 35.3027L39.0188 55.8192C39.4141 55.8232 39.8195 55.8144 40.2358 55.7906L33.4866 34.5958C32.1054 34.6634 30.8492 34.8858 29.8666 35.3027Z" fill="white"/>
</g>
<path d="M72.9675 66.1419C69.6492 66.1421 65.6894 65.1136 61.4724 62.3457C57.6621 59.8448 55.8693 55.7035 56.2879 50.3697C56.5937 46.4719 57.9667 43.3265 58.0251 43.1945C58.0886 43.0506 58.183 42.9224 58.3017 42.8192C58.5964 42.5625 61.4051 40.3176 69.139 40.5102C75.1808 40.661 86.8594 44.0561 87.8134 49.15C88.3103 51.8049 84.4622 61.3194 79.8863 64.2939C78.2262 65.3727 75.8364 66.1417 72.9675 66.1419ZM59.8798 44.3204C59.1983 46.0538 55.6875 55.9846 62.6487 60.5537C69.6475 65.1473 75.6793 64.4713 78.7181 62.4966C82.7395 59.8824 85.9949 51.0854 85.7064 49.5442V49.5441C85.1027 46.3162 75.5273 42.8137 69.0855 42.653C63.2196 42.5082 60.561 43.8892 59.8798 44.3204Z" fill="#371A45"/>
<path d="M39.1736 56.8912C32.4126 56.8912 28.4043 53.5196 26.9801 50.4324C25.1631 46.4937 26.0659 37.8307 27.2953 35.9864C29.8848 32.1017 39.6196 33.4903 43.8953 35.2924C50.2894 37.9875 51.7089 41.0936 51.8497 41.4389C51.9097 41.586 51.9363 41.7447 51.9274 41.9033C51.9196 42.0446 51.7181 45.4049 50.3259 48.9084C48.407 53.7379 45.1573 56.473 40.9282 56.8183C40.3245 56.8676 39.7388 56.8912 39.1736 56.8912ZM29.079 37.1754C28.3677 38.2423 27.3415 46.0988 28.9264 49.5345C30.1802 52.2523 34.0316 55.2314 40.7538 54.6818C48.2793 54.0674 49.5885 43.9067 49.7637 42.0667C49.3782 41.4337 47.7777 39.2551 43.0627 37.2678C38.4774 35.3349 30.5766 34.9285 29.079 37.1754Z" fill="#371A45"/>
<path d="M59.0054 43.6274C59.0054 43.6274 54.8742 40.6066 50.8572 41.8437C50.8572 41.8437 50.8242 43.2564 50.2441 45.6149C50.2441 45.6149 55.8148 45.3023 57.681 48.0887C57.681 48.0887 58.4126 44.8131 59.0054 43.6274Z" fill="#371A45"/>
<g opacity="0.7">
<path d="M59.0043 43.6263C58.8469 43.9456 58.6783 44.413 58.5141 44.9308C57.9098 44.518 54.3132 42.2007 50.7306 43.1337C50.8469 42.3011 50.8583 41.843 50.8583 41.843C54.8743 40.6068 59.0043 43.6263 59.0043 43.6263Z" fill="white"/>
</g>
<path d="M57.6808 49.1605C57.3277 49.1605 56.9918 48.9855 56.7905 48.6851C55.5446 46.8247 51.6852 46.6094 50.303 46.6851C49.963 46.7025 49.6359 46.56 49.4193 46.2985C49.2028 46.0372 49.1223 45.6887 49.2034 45.3589C49.7427 43.1659 49.7854 41.8295 49.7858 41.8162C49.7986 41.357 50.1027 40.9547 50.5418 40.8194C55.0211 39.4402 59.4516 42.6259 59.638 42.7622C60.0601 43.0708 60.1978 43.6389 59.964 44.1066C59.5265 44.9818 58.9228 47.4465 58.7271 48.3223C58.6336 48.7408 58.2997 49.0632 57.8783 49.1421C57.8124 49.1545 57.7463 49.1605 57.6808 49.1605ZM51.5764 44.5533C53.0372 44.627 55.3507 44.9328 57.077 46.0532C57.2507 45.3991 57.4597 44.6724 57.6765 44.0557C56.5448 43.4058 54.2005 42.3035 51.8635 42.7037C51.8142 43.1558 51.7275 43.7811 51.5764 44.5533Z" fill="#371A45"/>
<path d="M86.6936 50.6434C86.6936 50.6434 93.2804 53.5169 94.5149 54.4383C95.7496 55.3599 94.8129 60.9259 92.6195 60.5668C91.1832 60.3318 91.7053 57.6188 91.7053 57.6188L85.455 54.5835C85.455 54.5835 86.4883 52.3863 86.6936 50.6434Z" fill="#371A45"/>
<path d="M92.8104 61.6537C92.6688 61.6537 92.5453 61.6406 92.4464 61.6245C91.8806 61.5319 91.4065 61.2318 91.0751 60.757C90.5598 60.0184 90.5062 58.9837 90.5511 58.2497L84.9868 55.5475C84.4589 55.2911 84.2353 54.6582 84.4851 54.1272C84.4945 54.1073 85.4471 52.0628 85.6291 50.5179C85.6689 50.1809 85.8658 49.8827 86.16 49.7137C86.4543 49.5447 86.8111 49.5254 87.1222 49.661C87.808 49.96 93.8597 52.6119 95.156 53.5794C96.5591 54.6266 96.2618 57.6431 95.5078 59.4179C94.698 61.3244 93.5239 61.6536 92.8104 61.6537ZM86.8398 54.0645L92.1734 56.6546C92.6098 56.8665 92.8495 57.345 92.7578 57.8213C92.6384 58.4577 92.6703 59.2794 92.8176 59.5099C92.957 59.5009 93.1556 59.2751 93.2993 59.0425C94.0384 57.8455 94.1314 55.7385 93.8392 55.2721C93.07 54.7251 89.9221 53.2528 87.4782 52.1616C87.2881 52.8686 87.0448 53.545 86.8398 54.0645Z" fill="#371A45"/>
<path d="M94.5759 94.694L84.3226 86.3041C84.3226 86.3041 83.3192 84.2653 83.2191 81.9459C83.2191 81.9459 83.1961 81.9529 83.1552 81.9641C82.74 82.0736 80.3591 82.6096 78.3911 81.0884C76.7285 79.8023 75.9805 76.8695 76.7742 73.9777C77.18 72.4954 77.9942 71.0268 79.2941 69.793C82.8494 66.4223 90.138 65.2479 94.7469 69.2868C98.7333 72.7827 103.773 86.2811 94.5759 94.694Z" fill="#C2C6D2"/>
<path d="M84.6579 77.266C84.619 77.3526 83.5723 79.5671 83.1551 81.9639C82.7401 82.0735 80.359 82.6094 78.391 81.0882C76.7284 79.8021 75.9804 76.8694 76.7741 73.9775C76.7741 73.9775 76.7056 77.6493 79.3489 78.7393C82.6533 80.1032 84.5735 77.3872 84.6579 77.266Z" fill="#A8AFC1"/>
<path d="M94.5759 94.694L91.9897 92.5775C95.9486 89.5742 98.8632 84.6826 98.9111 76.7896C100.507 82.3198 100.273 89.4829 94.5759 94.694Z" fill="#A8AFC1"/>
<g opacity="0.4">
<path d="M99.5929 85.1546C99.7778 79.077 96.9885 73.3277 94.5849 71.2184C89.9782 67.1795 82.6898 68.3541 79.1321 71.7245C77.6407 73.1409 76.7923 74.8672 76.4594 76.5639C76.3933 74.3153 77.2257 71.7542 79.2942 69.793C82.8494 66.4223 90.1381 65.2479 94.747 69.2868C97.406 71.6174 100.533 78.3997 99.5929 85.1546Z" fill="white"/>
</g>
<path d="M83.9294 86.4976C83.7208 86.1399 83.5485 85.7997 83.3819 85.4387C83.2166 85.0812 83.0681 84.715 82.9336 84.3407C82.7976 83.9666 82.68 83.5833 82.5809 83.1906C82.4766 82.7992 82.4064 82.3947 82.3455 81.9841L83.475 82.7828C83.3438 82.821 83.2673 82.8381 83.1683 82.86C83.0747 82.8805 82.9822 82.8982 82.8899 82.914C82.7056 82.9457 82.5219 82.9697 82.3376 82.9872C81.9692 83.0213 81.5981 83.0281 81.2256 83.006C80.4822 82.9599 79.7283 82.7961 79.0266 82.4795C78.6764 82.3225 78.3401 82.1297 78.0274 81.9058C77.8728 81.7984 77.716 81.665 77.5638 81.5332C77.4202 81.3944 77.2772 81.2547 77.1525 81.1031C76.6413 80.5047 76.2865 79.8229 76.0424 79.1254C75.5544 77.725 75.4814 76.2502 75.6987 74.8351C75.9167 73.4182 76.4568 72.0556 77.2522 70.8655C78.0439 69.6762 79.1094 68.663 80.3043 67.9111C81.497 67.1556 82.8026 66.6224 84.151 66.2817C85.5003 65.943 86.8979 65.7992 88.2942 65.8707C89.6892 65.947 91.084 66.2474 92.3889 66.798C93.0407 67.0728 93.6704 67.4087 94.2568 67.8099C94.5487 68.0119 94.8378 68.2201 95.1076 68.4512L95.3129 68.6211L95.5175 68.8071C95.65 68.9337 95.7788 69.0621 95.9013 69.1933C96.876 70.2469 97.5995 71.4207 98.2209 72.6355C99.4467 75.0712 100.217 77.7051 100.515 80.41C100.811 83.1099 100.587 85.9075 99.6848 88.5184C99.2355 89.8213 98.6202 91.0713 97.8536 92.2188C97.0874 93.3667 96.1744 94.4105 95.1653 95.3385C94.8097 95.6654 94.2563 95.642 93.9295 95.2864C93.6026 94.9307 93.626 94.3775 93.9815 94.0506L93.9848 94.0476C94.897 93.2082 95.7141 92.2728 96.398 91.2486C97.0822 90.2249 97.6292 89.1129 98.0311 87.9479C98.8377 85.6158 99.0481 83.0814 98.7763 80.5974C98.5045 78.1126 97.7838 75.655 96.6611 73.4268C96.0978 72.3198 95.4277 71.2532 94.6246 70.3893C94.4195 70.1715 94.2284 69.9839 93.989 69.7959C93.7635 69.6019 93.5211 69.4285 93.277 69.2589C92.7864 68.9224 92.2579 68.6408 91.7071 68.409C90.6056 67.9443 89.4115 67.6837 88.2004 67.6174C86.9887 67.5553 85.7609 67.6806 84.5787 67.978C83.3969 68.2753 82.256 68.7448 81.2419 69.3878C80.7355 69.7097 80.263 70.0742 79.841 70.4832C79.4149 70.8943 79.0331 71.3489 78.7054 71.8391C78.0512 72.8184 77.6054 73.9403 77.4272 75.105C77.2464 76.265 77.317 77.4758 77.6926 78.545C77.8776 79.0776 78.1435 79.5716 78.4815 79.9658C78.564 80.0675 78.6562 80.1541 78.7459 80.2435C78.8414 80.3236 78.9317 80.4047 79.0454 80.4834C79.2634 80.6393 79.4963 80.7729 79.7414 80.8829C80.2307 81.1044 80.7727 81.2251 81.331 81.26C81.6102 81.2764 81.8934 81.2716 82.175 81.2454C82.3156 81.232 82.4557 81.2139 82.593 81.1903C82.6617 81.1785 82.7295 81.1653 82.7953 81.1511C82.8556 81.1385 82.938 81.1175 82.9634 81.1098L83.0126 81.0958C83.4613 80.9662 83.9303 81.2253 84.06 81.6739C84.0821 81.7509 84.0926 81.8324 84.093 81.9088C84.0783 82.2501 84.0685 82.598 84.0925 82.9498C84.1111 83.3016 84.1478 83.6569 84.2038 84.0118C84.2578 84.3669 84.3267 84.723 84.4133 85.0757C84.4977 85.4258 84.602 85.7874 84.7143 86.1117L84.7218 86.1338C84.8009 86.3623 84.6798 86.6117 84.4511 86.6909C84.2499 86.7606 84.0326 86.6749 83.9294 86.4976Z" fill="#371A45"/>
<path d="M84.6609 77.2631C84.6609 77.2631 83.4603 79.6048 83.2191 81.9463L84.6609 77.2631Z" fill="#C2C6D2"/>
<path d="M85.05 77.4628C84.9124 77.822 84.7826 78.2108 84.6697 78.5908C84.5558 78.9736 84.4568 79.3595 84.3717 79.745C84.2845 80.1307 84.2206 80.5177 84.1697 80.9008C84.1181 81.2845 84.0971 81.6643 84.0892 82.036L84.089 82.0472C84.079 82.5324 83.6775 82.9172 83.1923 82.9069C82.7074 82.8971 82.3223 82.4956 82.3324 82.0105C82.3335 81.9595 82.3398 81.9051 82.3492 81.857C82.4378 81.4138 82.5427 80.9819 82.6763 80.5656C82.8093 80.1495 82.9549 79.7424 83.1217 79.3473C83.2866 78.9516 83.4639 78.5643 83.6544 78.1852C83.847 77.8039 84.0445 77.4396 84.2716 77.0638C84.3971 76.8567 84.6663 76.7902 84.8733 76.9153C85.0579 77.0268 85.1307 77.2525 85.0561 77.4471L85.05 77.4628Z" fill="#371A45"/>
<path d="M13.3291 73.1976C13.3291 73.1976 15.6822 75.6646 18.3913 76.1728C23.0599 77.0485 30.9748 74.0971 29.9368 67.336C29.3583 63.5685 25.3629 59.0768 19.9454 60.1868C14.528 61.2969 5.76908 67.3504 9.41813 79.7914" fill="#C2C6D2"/>
<g opacity="0.4">
<path d="M29.9734 69.4099C29.9642 69.3209 29.9506 69.2322 29.9369 69.141C29.3577 65.371 25.3621 60.8806 19.9459 61.9914C15.5719 62.8852 9.02223 67.0039 8.57988 75.0996C8.07348 65.8068 15.2596 61.1476 19.9459 60.1873C25.3621 59.0768 29.3577 63.5694 29.9369 67.3369C30.0508 68.0735 30.0578 68.7645 29.9734 69.4099Z" fill="white"/>
</g>
<path d="M13.6456 72.8958C14.757 73.4927 15.7816 74.1673 16.8243 74.6934C17.3484 74.9507 17.8883 75.1501 18.424 75.2583C18.9684 75.3679 19.5614 75.4086 20.1474 75.4018C21.3265 75.3889 22.5221 75.174 23.6508 74.7992C24.7805 74.429 25.853 73.8865 26.7519 73.1661C27.6512 72.4479 28.3609 71.542 28.7492 70.5135C29.1445 69.4906 29.2044 68.3322 28.9921 67.2136C28.7774 66.1092 28.266 65.0236 27.5713 64.0872C26.8808 63.1444 25.992 62.3496 24.9902 61.7841C23.9888 61.2135 22.8581 60.9097 21.7152 60.8938C21.1424 60.8842 20.5717 60.9491 19.9988 61.0702C19.4185 61.1962 18.8409 61.3728 18.2761 61.5873C16.0146 62.4512 13.947 63.8901 12.3986 65.7396C11.625 66.6656 10.9837 67.6962 10.504 68.7986C10.0273 69.9021 9.70522 71.0733 9.55152 72.2742C9.23512 74.68 9.56047 77.1663 10.2573 79.5452C10.3935 80.0085 10.1283 80.4947 9.66477 80.6309C9.20147 80.7671 8.71542 80.502 8.57917 80.0384L8.57872 80.0375C7.83247 77.4874 7.46187 74.7594 7.81717 72.047C7.99012 70.6951 8.35527 69.3598 8.89972 68.1008C9.44702 66.8427 10.1797 65.6666 11.0565 64.6177C12.8173 62.5198 15.1124 60.9259 17.6557 59.952C18.2935 59.7095 18.9497 59.5081 19.6271 59.361C20.3128 59.2149 21.0282 59.1325 21.7423 59.1448C23.1727 59.1647 24.6037 59.5519 25.8446 60.2461C27.0883 60.9384 28.1629 61.8961 29.001 63.0232C29.8393 64.1499 30.474 65.4374 30.7729 66.8589C30.9144 67.5706 30.9723 68.2815 30.931 69.0133C30.8928 69.7407 30.7425 70.4714 30.4878 71.1633C29.9832 72.5583 29.0286 73.7376 27.9248 74.6247C26.8141 75.5168 25.5496 76.1506 24.2382 76.5849C22.9219 77.0115 21.5505 77.2402 20.1553 77.2428C19.4552 77.2399 18.7577 77.1788 18.043 77.0207C17.3201 76.856 16.6508 76.5849 16.0279 76.2612C15.403 75.94 14.8297 75.5471 14.3212 75.0888C14.066 74.8608 13.8303 74.6129 13.6095 74.3522C13.3895 74.0866 13.1888 73.8215 13.0126 73.4994C12.8928 73.2801 12.9734 73.0053 13.1925 72.8855C13.3309 72.8098 13.4912 72.814 13.6209 72.8825L13.6456 72.8958Z" fill="#371A45"/>
<path d="M23.4762 75.1772C23.4762 75.1772 23.4762 75.175 23.474 75.1726C23.4716 75.1704 23.4716 75.1658 23.467 75.1614C23.4421 75.0998 23.3349 74.8717 23.1615 74.5685C22.5366 73.4805 20.9405 71.8972 19.2903 72.863C18.079 73.5721 17.9117 74.9721 18.0668 76.1032C18.1739 76.1305 18.2811 76.1535 18.3906 76.174C23.0612 77.0495 30.9745 74.0964 29.9368 67.3369C29.9346 67.3163 29.9301 67.2982 29.9255 67.2776C29.2509 67.0546 27.5271 66.7708 26.843 68.1277C25.7051 70.3853 28.1035 72.2399 28.2038 72.582C28.3064 72.924 25.7029 68.9997 23.5431 70.757C22.2857 71.78 22.71 73.5968 23.1615 74.5685C23.3052 74.8831 23.4307 75.0998 23.467 75.1614" fill="white"/>
<path d="M20.0931 77.1427C19.4348 77.1428 18.8097 77.0878 18.2394 76.9809C18.1124 76.9572 17.9882 76.9305 17.8638 76.8988C17.5402 76.8161 17.2988 76.5456 17.2534 76.2146C17.0026 74.3847 17.5939 72.9048 18.8755 72.1544C19.5713 71.7474 20.3434 71.6395 21.1091 71.8433C21.3944 71.9192 21.6666 72.0342 21.9231 72.1775C22.0158 71.4082 22.3429 70.6752 23.025 70.1202C23.6587 69.6047 24.5568 69.2493 25.7291 69.6547C25.6782 69.0661 25.7728 68.4267 26.1097 67.7582C26.888 66.2149 28.7168 66.0135 30.1831 66.4982C30.4565 66.5886 30.6626 66.8156 30.7262 67.0965C30.7367 67.1427 30.7445 67.1827 30.75 67.2243C31.1461 69.8268 30.3648 72.1608 28.4903 73.9746C26.2266 76.165 22.868 77.1426 20.0931 77.1427ZM18.8392 75.4162C19.9242 75.5717 21.2384 75.5149 22.5648 75.2207C22.5233 75.1391 22.4784 75.0474 22.4319 74.9468C22.0753 74.3409 21.3845 73.6156 20.687 73.4301C20.3399 73.3376 20.0278 73.3827 19.705 73.5714C19.0032 73.9824 18.8386 74.7674 18.8392 75.4162ZM23.8931 74.194C24.0159 74.4108 24.116 74.6071 24.1785 74.7411C25.3278 74.3068 26.418 73.6794 27.2997 72.8416C25.8755 71.2537 24.8153 70.7803 24.0613 71.3938C23.0627 72.2061 23.7573 73.8919 23.8931 74.194ZM28.74 67.9091C28.2959 67.9091 27.8109 68.0313 27.5759 68.4974C27.0026 69.6351 27.662 70.6393 28.3927 71.5013C29.0323 70.4478 29.2975 69.258 29.1836 67.9454C29.0496 67.9245 28.8973 67.9091 28.74 67.9091ZM29.1205 67.4242C29.1205 67.4246 29.1206 67.425 29.1206 67.4253C29.1206 67.425 29.1205 67.4246 29.1205 67.4242Z" fill="#371A45"/>
<path d="M26.6659 107.88C26.6919 97.9002 35.8389 84.3844 48.3155 85.5813C60.4995 86.7495 67.7199 102.293 64.679 114.234C62.8242 121.518 52.9751 127.917 41.922 125.345C34.051 123.514 26.639 118.25 26.6659 107.88Z" fill="#EEF0F4"/>
<path d="M53.1876 73.3263C48.9349 73.3263 45.1567 71.1771 44.9166 71.0377C44.5244 70.8102 44.391 70.3079 44.6185 69.9157C44.8459 69.5238 45.3479 69.3899 45.74 69.6172C45.8202 69.6637 53.8243 74.2004 58.8926 69.587C59.2277 69.2816 59.7468 69.306 60.0522 69.6415C60.3575 69.9767 60.3331 70.496 59.9978 70.8011C57.9103 72.7015 55.4797 73.3263 53.1876 73.3263Z" fill="#371A45"/>
<path d="M49.4467 86.1899C41.8275 89.875 33.3189 84.9812 31.7862 74.7279C31.7862 74.7235 31.7862 74.7211 31.784 74.7165C31.613 73.5855 31.531 72.3859 31.5424 71.127C31.5949 65.4828 34.5526 57.4966 39.9049 54.0185C49.5585 47.7494 58.8014 54.819 60.4979 61.15L51.9848 69.7062C50.6644 70.7119 49.9461 72.4087 49.572 73.6698C49.2963 74.6002 49.2095 75.2959 49.2095 75.2959C54.799 76.5092 53.7865 84.0918 49.4467 86.1899Z" fill="#C2C6D2"/>
<path d="M49.4467 86.19C41.8275 89.8751 33.3189 84.9813 31.7862 74.7279C31.9574 75.599 33.5719 82.5844 41.116 81.4967C47.743 80.5388 48.1423 75.4418 49.572 73.6699C49.2963 74.6003 49.2095 75.296 49.2095 75.296C54.799 76.5093 53.7865 84.0918 49.4467 86.19Z" fill="#A8AFC1"/>
<g opacity="0.4">
<path d="M60.498 61.1499L60.4707 61.1772C56.9882 55.3708 48.3407 50.6068 39.3666 56.4339C36.3018 58.4247 33.9575 61.777 32.4158 65.4007C33.661 60.9606 36.2128 56.4177 39.9049 54.0187C49.5583 47.7495 58.8013 54.8191 60.498 61.1499Z" fill="white"/>
</g>
<path d="M52.2498 70.0539C51.8907 70.3767 51.5868 70.7589 51.3312 71.176C51.0767 71.5941 50.8688 72.0445 50.6967 72.5109C50.5273 72.9788 50.3904 73.4609 50.287 73.9511C50.2349 74.1958 50.1908 74.4422 50.1543 74.6886C50.1193 74.9289 50.0871 75.1952 50.0769 75.4032V75.4034L49.3947 74.4402C50.4035 74.6578 51.4255 75.1198 52.2231 75.8833C53.0278 76.6385 53.5503 77.6572 53.7755 78.6906C54.006 79.7289 53.9675 80.7859 53.7486 81.7851C53.5269 82.7857 53.1194 83.7381 52.5421 84.5889C51.9655 85.4374 51.2092 86.187 50.2992 86.7251C49.8258 86.9995 49.3953 87.1794 48.9419 87.3683C48.4888 87.5498 48.0242 87.7046 47.5526 87.8358C46.6095 88.0999 45.6302 88.2453 44.6469 88.2796C43.6628 88.3089 42.6743 88.216 41.7118 88.0059C40.7501 87.7912 39.8163 87.4593 38.9362 87.0233C38.0586 86.5831 37.2314 86.0463 36.4799 85.4225C34.9697 84.1799 33.7593 82.6148 32.8589 80.9133C31.9563 79.2092 31.355 77.3668 31.0168 75.4937C30.8447 74.5568 30.7371 73.6111 30.6875 72.6646C30.6588 72.1916 30.6514 71.7183 30.6507 71.2455C30.652 70.7691 30.6708 70.2867 30.7087 69.8125C30.858 67.9098 31.2448 66.0504 31.8137 64.2494C32.3837 62.4492 33.1352 60.7031 34.0916 59.0584C35.0482 57.4162 36.2278 55.8769 37.6714 54.572C38.0302 54.2444 38.4126 53.9396 38.8055 53.6477C39.0032 53.5036 39.2087 53.3674 39.4105 53.229C39.615 53.1029 39.8142 52.969 40.0234 52.8494C40.8493 52.3564 41.7201 51.9278 42.6289 51.5828C44.4443 50.8932 46.4235 50.5669 48.3793 50.692C50.3367 50.8083 52.2518 51.3681 53.9717 52.2641C54.8334 52.7106 55.6472 53.2435 56.397 53.8524C57.1531 54.4545 57.8344 55.1446 58.4479 55.8862C59.054 56.6349 59.5891 57.4415 60.0143 58.3058C60.4394 59.1682 60.7663 60.0852 60.9206 61.0359C60.9598 61.2755 60.7971 61.5012 60.5575 61.5401C60.3497 61.574 60.1525 61.4561 60.0782 61.2681L60.076 61.2622C59.4334 59.6367 58.4488 58.1786 57.2609 56.9257C56.0782 55.6678 54.6863 54.6153 53.1647 53.834C51.6394 53.0602 49.9683 52.5941 48.277 52.5112C46.5847 52.4174 44.886 52.7257 43.2912 53.3314C42.4924 53.6331 41.7186 54.0118 40.9768 54.4535C40.7892 54.56 40.6094 54.6811 40.4251 54.7941C40.2511 54.9142 40.0753 55.0294 39.9043 55.1538C39.5648 55.4064 39.2315 55.67 38.9162 55.9576C37.6459 57.0996 36.5765 58.4915 35.6877 59.9958C34.7993 61.5023 34.0874 63.1256 33.5456 64.8017C33.0053 66.4777 32.6318 68.2137 32.4904 69.9518C32.2542 73.4224 32.7943 77.0413 34.4053 80.0953C35.2104 81.6171 36.2809 82.9942 37.5937 84.0737C38.247 84.6161 38.9615 85.0784 39.715 85.4568C40.4709 85.8309 41.2692 86.1143 42.0893 86.298C42.9103 86.4768 43.7524 86.5562 44.5931 86.5313C45.4336 86.5013 46.273 86.378 47.0881 86.1493C47.4954 86.036 47.8982 85.902 48.2926 85.7443C48.6814 85.5836 49.0933 85.4048 49.409 85.2191C50.0726 84.8273 50.6479 84.2645 51.0959 83.6051C51.99 82.2905 52.3984 80.5711 52.068 79.0696C51.9029 78.3232 51.5485 77.6495 51.0179 77.151C50.4916 76.647 49.7937 76.3173 49.0233 76.1493L49.0198 76.1484C48.5758 76.0516 48.2858 75.6285 48.3414 75.1862V75.186C48.4039 74.8672 48.4741 74.6111 48.5537 74.3319C48.6333 74.0593 48.7212 73.7906 48.8172 73.5247C49.0087 72.9927 49.2363 72.473 49.5015 71.9703C49.7696 71.4687 50.079 70.9844 50.4439 70.5375C50.8097 70.0916 51.2346 69.6854 51.7195 69.3583C51.92 69.2232 52.1923 69.2761 52.3276 69.4766C52.4511 69.6601 52.4174 69.9036 52.2574 70.0473L52.2498 70.0539Z" fill="#371A45"/>
<path d="M48.8194 80.6549C48.6657 80.1964 48.5542 79.7633 48.4573 79.3074C48.3628 78.8552 48.2924 78.3958 48.2463 77.9294C48.1973 77.4634 48.1851 76.9892 48.1995 76.5095C48.2106 76.0294 48.2764 75.5431 48.3681 75.054C48.4573 74.5771 48.916 74.2631 49.3929 74.3523C49.8697 74.4413 50.184 74.9003 50.0947 75.3769C50.0862 75.4226 50.0742 75.4665 50.0593 75.5092L50.0497 75.5355C49.9181 75.9004 49.7961 76.2798 49.7204 76.6794C49.6419 77.0776 49.5827 77.4873 49.558 77.9045C49.5302 78.3211 49.5241 78.7441 49.5416 79.1678C49.5591 79.5879 49.6 80.0263 49.6629 80.424L49.6666 80.4476C49.7044 80.6863 49.5416 80.9105 49.3028 80.9483C49.0885 80.9823 48.8859 80.8541 48.8194 80.6549Z" fill="#371A45"/>
<path d="M58.4373 73.4375C58.7117 72.9488 58.9598 72.4066 59.0873 71.8845C59.2262 71.3589 59.2515 70.84 59.1715 70.3382C59.0965 69.886 58.868 69.4916 58.504 69.1118C58.1421 68.7412 57.6541 68.4025 57.1663 68.1023L57.1374 68.0846C56.9807 67.9879 56.9319 67.7828 57.0283 67.6263C57.0954 67.5169 57.2161 67.4601 57.3357 67.4684C57.6998 67.4944 58.0166 67.5817 58.3461 67.7007C58.6678 67.8262 58.9855 67.9875 59.2776 68.2064C59.5717 68.422 59.8373 68.7027 60.0505 69.0303C60.2724 69.3526 60.3988 69.7542 60.4637 70.1351C60.5715 70.8672 60.4618 71.625 60.1725 72.2713C59.8777 72.9218 59.4717 73.4715 58.9021 73.9005C58.7565 74.01 58.5499 73.9809 58.4401 73.8353C58.359 73.7275 58.354 73.5863 58.4159 73.4757L58.4373 73.4375Z" fill="#371A45"/>
<path d="M35.4411 57.6374C35.8207 57.4797 36.1594 57.3691 36.5215 57.2565C36.8783 57.1461 37.2391 57.0543 37.6005 56.9672C38.3258 56.8013 39.0613 56.6817 39.8034 56.6167C41.285 56.4901 42.8053 56.571 44.2532 56.988C44.9752 57.1953 45.6794 57.4721 46.3387 57.8344C46.994 58.2028 47.609 58.6375 48.1668 59.1353C49.2719 60.1431 50.1373 61.3719 50.7943 62.6792C50.8757 62.841 50.8105 63.0382 50.6485 63.1195C50.4906 63.1989 50.2991 63.1388 50.2142 62.9855L50.2127 62.9824C49.5373 61.7576 48.678 60.6402 47.6291 59.7543C47.0998 59.3176 46.5247 58.9442 45.9193 58.6328C45.3097 58.3276 44.6638 58.1024 44.003 57.9395C42.6793 57.6117 41.287 57.589 39.9246 57.7582C39.2424 57.8439 38.5652 57.9808 37.9001 58.1599C37.5687 58.2535 37.2383 58.351 36.9149 58.4649C36.597 58.5762 36.2594 58.7043 35.9819 58.8324L35.9679 58.839C35.6388 58.9909 35.2489 58.8475 35.097 58.5184C34.9448 58.1894 35.0884 57.7995 35.4175 57.6476C35.4245 57.6444 35.4339 57.6404 35.4411 57.6374Z" fill="#371A45"/>
<path d="M46.6934 80.1001C46.2797 80.5514 45.8462 80.9199 45.3756 81.2714C44.9082 81.6199 44.4116 81.9305 43.891 82.199C42.8517 82.7388 41.7106 83.1067 40.5319 83.2506C40.2378 83.2928 39.9411 83.3059 39.6442 83.3241C39.3475 83.3241 39.0492 83.3335 38.753 83.309C38.455 83.2989 38.1609 83.2565 37.865 83.2215C37.7179 83.2014 37.5727 83.1704 37.426 83.1451C37.2795 83.119 37.133 83.0928 36.99 83.0541C35.8331 82.7828 34.7254 82.3354 33.6941 81.7698C33.3764 81.5955 33.26 81.1967 33.4341 80.879C33.6084 80.5611 34.0072 80.4447 34.3251 80.619C34.3337 80.6238 34.3444 80.6299 34.3527 80.6349C35.2699 81.1977 36.2501 81.648 37.2743 81.9421C37.4011 81.9836 37.5308 82.0129 37.6604 82.0422C37.7901 82.0711 37.9191 82.106 38.0496 82.1303C38.3116 82.1731 38.5733 82.2256 38.8383 82.2464C39.1022 82.282 39.3681 82.2854 39.6339 82.2993C39.8998 82.2952 40.1666 82.2974 40.432 82.2718C41.4957 82.1944 42.5485 81.9136 43.5313 81.4621C44.0235 81.238 44.4988 80.9721 44.9497 80.6688C45.3973 80.3697 45.8407 80.0227 46.2065 79.6604L46.2214 79.646C46.3502 79.5187 46.5574 79.5199 46.6847 79.6484C46.808 79.7731 46.8104 79.9722 46.6934 80.1001Z" fill="#371A45"/>
<path d="M46.0702 72.0219C44.8344 72.2228 43.6095 72.3354 42.3702 72.401C41.1328 72.4631 39.8909 72.4627 38.6475 72.398C37.404 72.3265 36.1619 72.1684 34.9269 71.9296C33.6942 71.6725 32.4776 71.2995 31.296 70.7979C30.9624 70.6562 30.8067 70.2709 30.9484 69.9373C31.0901 69.6036 31.4753 69.4482 31.809 69.5899C31.8168 69.5932 31.8247 69.5966 31.8324 69.6004L31.8556 69.6113C32.9101 70.1138 34.0259 70.515 35.1812 70.8104C36.3409 71.0881 37.5256 71.2942 38.7251 71.4169C39.925 71.5335 41.1348 71.5884 42.3466 71.5814C43.5553 71.5722 44.7784 71.5131 45.9687 71.3739L45.9794 71.3726C46.1594 71.3516 46.3223 71.4801 46.3433 71.6601C46.3638 71.8349 46.242 71.9935 46.0702 72.0219Z" fill="#371A45"/>
</svg>
