<svg width="141" height="158" viewBox="0 0 141 158" fill="none" xmlns="http://www.w3.org/2000/svg">
<path d="M41.7412 88.1356C28.2187 85.0086 15.2474 76.3935 12.7303 66.1785C12.3381 64.5866 12.4676 62.904 13.0605 61.3753C15.3942 55.3585 19.4236 51.8592 25.6461 52.5381C26.5833 52.6404 27.4394 53.1235 27.992 53.8874C33.8484 61.9833 41.0473 69.4735 48.7318 74.4896L41.7412 88.1356Z" fill="#C2C6D2"/>
<path d="M12.1028 65.469C12.3701 68.799 14.522 71.6656 16.8368 74.0757C21.6064 79.0505 27.4493 82.9952 33.8467 85.561C35.9386 86.4004 38.121 87.099 40.3726 87.2223C40.7407 87.2419 41.1406 87.2377 41.4263 87.0066C42.0128 86.5346 41.6736 85.586 41.2217 84.984C39.3951 82.5462 36.5473 81.1424 33.9195 79.5972C29.6378 77.077 25.7137 73.9802 22.0464 70.6262C19.495 68.2965 16.9592 65.6643 16.1139 62.3151C16.0393 62.0218 15.9841 61.7209 15.9465 61.4168C15.4926 61.3035 15.0451 61.1632 14.6037 60.9962C14.1365 60.8206 13.6785 60.6113 13.2359 60.3791C14.1662 58.7355 15.2023 57.2695 16.2561 56.1662C16.4571 56.3044 16.6519 56.4508 16.8382 56.6041C17.5568 55.2937 18.6712 54.2679 20.1282 53.8665L19.0755 52.8884C16.75 53.8601 15.1591 56.035 13.9811 58.2625C12.8041 60.4878 11.9015 62.9611 12.1028 65.469Z" fill="#A8AFC1"/>
<path d="M13.2359 60.3791C13.6785 60.6113 14.1365 60.8206 14.6037 60.9962C15.045 61.1633 15.4926 61.3035 15.9465 61.4168C15.7394 59.7724 16.057 58.0219 16.8383 56.6042C16.6519 56.4508 16.4571 56.3045 16.2561 56.1663C15.2023 57.2695 14.1661 58.7355 13.2359 60.3791Z" fill="#EDEDED"/>
<path d="M15.9464 61.4168C16.4844 61.5531 17.0278 61.6461 17.5746 61.7002C17.9526 61.7403 18.3404 61.7578 18.6927 61.6523C19.0431 61.5513 19.3558 61.3076 19.4366 60.9661C19.494 60.722 19.4277 60.4593 19.3477 60.2094C18.9696 59.0154 18.2431 57.899 17.2886 56.9984C17.144 56.8604 16.9932 56.7305 16.8382 56.6041C16.057 58.0218 15.7393 59.7723 15.9464 61.4168Z" fill="white"/>
<path d="M23.1235 51.9995C21.6519 52.4063 20.0123 53.1341 18.3693 54.0682C18.631 54.4965 18.9179 54.9095 19.2282 55.3006C19.8653 56.1062 20.6035 56.8249 21.4185 57.4283C21.723 57.6546 22.0477 57.8686 22.4032 57.9594C22.757 58.0513 23.1494 58.0023 23.3934 57.75C23.567 57.5708 23.646 57.3112 23.7048 57.0562C23.993 55.8356 23.9396 54.5055 23.5826 53.242C23.4628 52.8171 23.31 52.402 23.1235 51.9995Z" fill="white"/>
<path d="M41.742 88.9995C41.6775 88.9995 41.6121 88.9922 41.5467 88.977C26.5069 85.4992 14.3123 76.2092 11.8916 66.385C11.4593 64.6311 11.585 62.7907 12.2554 61.063C14.898 54.25 19.5618 51.0039 25.7397 51.6794C26.9272 51.8091 28.0034 52.4294 28.6919 53.3813C34.9643 62.0522 42.0571 69.1013 49.2038 73.7661C49.6032 74.0268 49.7158 74.5622 49.455 74.9616C49.1938 75.3608 48.6584 75.4729 48.2595 75.2128C40.9377 70.4335 33.6872 63.2343 27.292 54.3937C26.8894 53.8368 26.2551 53.4733 25.5522 53.3967C20.1594 52.8078 16.2278 55.5978 13.8657 61.6874C13.3323 63.0629 13.2268 64.5842 13.5688 65.9716C14.7138 70.6181 18.1884 75.1635 23.6172 79.1166C28.7309 82.8407 35.2368 85.7448 41.9358 87.2939C42.4006 87.4013 42.6902 87.8652 42.5828 88.33C42.4905 88.7295 42.1351 88.9995 41.742 88.9995Z" fill="#371A45"/>
<path d="M105.865 129.169C103.342 127.822 101.41 128.255 100.41 128.903C99.6186 129.416 98.9605 130.112 98.8176 131.354C98.667 132.663 99.2582 134.843 101.055 136.468C101.788 137.13 102.783 137.914 103.217 139.372C103.56 139.38 103.826 139.066 104.032 138.599C104.708 139.046 105.439 139.65 106.346 140.795C106.356 140.807 109.434 138.276 108.174 132.263C109.009 131.996 109.258 131.332 109.032 130.617C107.501 130.892 107.558 130.072 105.865 129.169Z" fill="#C4612B"/>
<path d="M98.8181 131.354C98.6672 132.663 99.2575 134.843 101.055 136.467C101.785 137.129 102.777 137.908 103.213 139.358C103.216 139.362 103.217 139.368 103.218 139.372C103.27 139.373 103.321 139.368 103.369 139.354C103.499 139.318 103.616 139.234 103.723 139.114C103.838 138.982 103.94 138.805 104.031 138.599C104.708 139.047 105.44 139.65 106.346 140.795C106.35 140.794 106.417 140.742 106.522 140.636C106.54 140.619 106.558 140.599 106.579 140.577C106.649 140.505 106.729 140.414 106.82 140.304C106.837 140.282 106.857 140.259 106.876 140.235C106.915 140.183 106.958 140.129 107.002 140.069C107.021 140.043 107.041 140.015 107.06 139.987C107.193 139.799 107.334 139.578 107.474 139.321C108.203 137.982 108.891 135.687 108.175 132.263C109.009 131.995 109.258 131.332 109.032 130.617C107.501 130.892 107.558 130.073 105.865 129.169C103.775 128.055 102.093 128.159 101.009 128.596C101.007 128.597 101.007 128.597 101.006 128.596C100.781 128.686 100.581 128.791 100.41 128.904C99.6189 129.417 98.9604 130.112 98.8181 131.354Z" fill="#C4612B"/>
<path d="M98.8181 131.354C98.6672 132.663 99.2575 134.843 101.055 136.467C101.785 137.129 102.777 137.908 103.213 139.358C103.216 139.362 103.217 139.368 103.218 139.372C103.27 139.373 103.321 139.368 103.369 139.354C103.499 139.318 103.616 139.234 103.723 139.114C103.838 138.982 103.94 138.805 104.031 138.599C104.708 139.047 105.44 139.65 106.346 140.795C106.35 140.794 106.417 140.742 106.522 140.636C106.54 140.619 106.558 140.599 106.579 140.577C106.649 140.505 106.729 140.414 106.82 140.304C106.837 140.282 106.857 140.259 106.876 140.235C106.915 140.183 106.958 140.129 107.002 140.069C107.021 140.043 107.041 140.015 107.06 139.987C107.193 139.799 107.334 139.578 107.474 139.321C108.203 137.982 108.891 135.687 108.175 132.263C108.199 132.255 108.222 132.248 108.246 132.239C108.547 132.131 108.765 131.967 108.907 131.767C108.917 131.752 108.926 131.739 108.936 131.724C109.123 131.432 109.156 131.07 109.054 130.689C109.047 130.665 109.04 130.641 109.032 130.617C107.501 130.892 107.558 130.073 105.865 129.169C103.775 128.055 102.093 128.159 101.009 128.596C101.007 128.597 101.007 128.597 101.006 128.596C100.781 128.686 100.581 128.791 100.41 128.904C100.22 129.026 100.038 129.16 99.8694 129.309C99.3336 129.781 98.9266 130.411 98.8181 131.354Z" fill="#666566"/>
<g opacity="0.4">
<path d="M108.246 132.239C108.226 132.258 108.205 132.276 108.181 132.294C108.179 132.284 108.177 132.273 108.174 132.263C108.199 132.256 108.223 132.247 108.246 132.239Z" fill="white"/>
</g>
<path d="M98.8181 131.354C98.6672 132.663 99.2575 134.843 101.055 136.467C101.785 137.129 102.777 137.908 103.213 139.358C103.216 139.362 103.217 139.368 103.218 139.372C103.27 139.373 103.321 139.368 103.369 139.354C103.499 139.318 103.617 139.235 103.723 139.114C103.838 138.982 103.94 138.805 104.031 138.599C104.708 139.047 105.44 139.65 106.346 140.795C106.35 140.794 106.417 140.742 106.522 140.636C106.54 140.619 106.558 140.599 106.579 140.577C106.649 140.505 106.729 140.414 106.82 140.304C106.837 140.282 106.857 140.259 106.876 140.235C106.915 140.183 106.958 140.129 107.002 140.069C107.021 140.043 107.041 140.015 107.06 139.988C107.193 139.8 107.334 139.578 107.474 139.321C106.917 139.76 106.477 139.68 106.119 139.077C105.403 137.871 105.104 136.645 104.072 135.716C103.672 136.657 102.161 135.399 101.943 134.875C101.089 132.821 102.538 131.756 102.6 130.359C102.666 128.9 101.007 128.597 101.006 128.596C100.781 128.686 100.581 128.791 100.41 128.904C99.6189 129.417 98.9604 130.112 98.8181 131.354Z" fill="#595959"/>
<path d="M106.347 141.535C106.126 141.535 105.91 141.436 105.766 141.254C105.162 140.492 104.658 140.004 104.228 139.656C103.874 140.03 103.49 140.121 103.199 140.112C102.878 140.104 102.599 139.891 102.507 139.583C102.171 138.454 101.421 137.786 100.76 137.197L100.559 137.017C98.5953 135.242 97.9002 132.851 98.0821 131.269C98.276 129.585 99.2738 128.758 100.007 128.282C100.619 127.886 102.872 126.732 106.214 128.516C106.889 128.876 107.324 129.234 107.641 129.495C108.153 129.916 108.259 130.004 108.901 129.888C109.267 129.824 109.626 130.039 109.738 130.394C110.035 131.333 109.743 132.187 109.008 132.679C110.002 138.448 107.147 141.238 106.661 141.465C106.56 141.512 106.453 141.535 106.347 141.535ZM104.032 137.859C104.175 137.859 104.317 137.901 104.439 137.981C104.936 138.309 105.583 138.79 106.374 139.676C107.093 138.722 108.291 136.43 107.45 132.415C107.372 132.044 107.587 131.674 107.949 131.558C108.081 131.516 108.181 131.464 108.251 131.398C107.545 131.333 107.132 130.993 106.701 130.638C106.402 130.392 106.063 130.113 105.517 129.822C102.889 128.42 101.252 129.24 100.813 129.525C100.025 130.035 99.6487 130.607 99.5533 131.439C99.419 132.605 99.9871 134.504 101.552 135.918L101.745 136.091C102.286 136.573 102.977 137.188 103.483 138.102C103.573 138.002 103.69 137.928 103.823 137.889C103.891 137.869 103.961 137.859 104.032 137.859Z" fill="#371A45"/>
<path d="M108.213 133.003C107.473 132.78 106.717 132.564 106.066 132.144C106.784 132.075 107.474 131.789 108.136 131.524L108.213 133.003Z" fill="#371A45"/>
<path d="M103.315 138.413C103.742 137.637 104.157 136.744 104.1 135.83C104.654 136.698 104.73 137.771 104.748 138.786L103.315 138.413Z" fill="#371A45"/>
<g opacity="0.4">
<path d="M106.257 130.659C106.166 130.328 104.643 129.466 103.913 129.769C103.332 130.011 103.622 130.741 104.123 130.829C104.928 130.971 106.302 130.82 106.257 130.659Z" fill="white"/>
</g>
<g opacity="0.4">
<path d="M107.093 137.534C107.501 137.212 107.931 134.25 107.356 133.509C106.97 133.011 106.462 133.149 106.386 133.924C106.329 134.503 106.962 137.637 107.093 137.534Z" fill="white"/>
</g>
<path d="M101.341 131.242C99.3955 130.897 98.0256 132.056 96.1755 133.151C95.3012 133.669 94.3205 134.172 93.1228 134.496C85.9096 136.449 82.4224 128.401 82.4224 128.401L86.76 125.963C86.978 128.436 87.865 129.911 89.1408 130.64C91.1524 131.794 94.1359 131.096 97.0076 129.549C99.4119 128.253 101.012 128.968 101.992 129.953C102.514 130.476 102.068 131.372 101.341 131.242Z" fill="#C2C6D2"/>
<path d="M96.1755 133.151C95.3012 133.669 94.3205 134.172 93.1228 134.496C85.9096 136.449 82.4224 128.401 82.4224 128.401L86.76 125.963C86.978 128.436 87.865 129.911 89.1408 130.64C89.3589 131.454 89.9355 132.373 91.3173 133.004C92.9967 133.771 94.7648 133.512 96.1755 133.151Z" fill="#A8AFC1"/>
<path d="M90.9161 135.542C84.7894 135.542 81.7767 128.772 81.7435 128.695C81.5809 128.32 81.7532 127.884 82.1282 127.722C82.5044 127.559 82.9398 127.731 83.1019 128.106C83.2403 128.423 86.4356 135.539 92.929 133.781C94.4346 133.373 95.5618 132.67 96.6519 131.99C98.148 131.056 99.5594 130.174 101.471 130.514V130.514C101.473 130.514 101.48 130.496 101.478 130.488C100.383 129.385 99.0386 129.295 97.3582 130.201C93.9417 132.043 90.93 132.448 88.8778 131.343C87.2162 130.448 86.2555 128.659 86.0228 126.028C85.9869 125.621 86.2879 125.261 86.6951 125.225C87.1053 125.19 87.4618 125.49 87.4979 125.897C87.6839 128.001 88.3843 129.395 89.5799 130.039C91.156 130.888 93.7349 130.472 96.6556 128.898C99.6744 127.271 101.624 128.533 102.517 129.43C102.984 129.899 103.092 130.609 102.785 131.197C102.479 131.782 101.861 132.086 101.212 131.972C99.8643 131.732 98.8446 132.367 97.4359 133.246C96.3097 133.949 95.033 134.745 93.3163 135.21C92.469 135.44 91.669 135.542 90.9161 135.542Z" fill="#371A45"/>
<path d="M81.7238 136.976C80.1148 139.703 80.6651 143.395 81.2303 147.094C82.1162 154.404 71.4651 157.938 62.6697 155.547C62.45 155.49 62.2329 155.426 62.0182 155.359C60.762 154.969 59.9008 153.834 59.8514 152.536C59.849 152.454 59.849 152.373 59.8514 152.289L59.8564 152.156L59.9625 149.643C59.9921 148.933 59.7922 148.227 59.3899 147.637C56.7321 143.723 54.7183 142.203 56.2829 132.919C56.2903 132.875 56.2977 132.828 56.3051 132.781C56.083 132.771 55.851 132.756 55.6092 132.734C55.3278 132.709 55.0342 132.677 54.7306 132.638C54.7282 132.635 54.7257 132.635 54.7232 132.635C54.0643 132.551 53.3536 132.433 52.6034 132.287L49.4026 135.488C48.714 136.177 48.413 137.166 48.6079 138.121C48.8522 139.313 49.2446 140.606 49.3433 141.986C49.442 143.39 48.9041 144.77 47.8848 145.742C43.9881 149.458 38.2455 151.018 33.3814 149.609C33.2925 149.584 33.2037 149.557 33.1149 149.53C31.8069 149.118 30.9234 147.899 30.8889 146.534C30.8864 146.507 30.8864 146.477 30.8864 146.45V142.887C30.8864 142.104 30.6717 141.334 30.2621 140.671C25.6546 133.218 25.2203 129.541 31.1332 117.48C28.8159 101.975 34.028 89.9689 42.4853 79.4757L47.4209 75.0336L89.1273 81.4499C91.1534 86.2795 92.5403 91.3681 93.0907 96.7135C94.3443 108.823 91.3114 122.253 81.7238 136.976Z" fill="#C2C6D2"/>
<path d="M36.7944 116.917C37.3497 118.931 38.2455 121.012 39.63 123.003C39.3486 122.645 39.1093 122.322 38.9069 122.046C38.4183 121.286 37.8778 120.296 37.4262 119.084C37.135 118.302 36.9326 117.571 36.7944 116.917Z" fill="#A8AFC1"/>
<path d="M64.7229 153.856C64.8907 153.868 65.061 153.878 65.2313 153.881C65.1869 154.066 65.1474 154.251 65.1128 154.438C65.0117 154.957 64.9401 155.49 64.9006 156.02C64.1503 155.904 63.4026 155.746 62.6696 155.546C63.1484 155.546 63.6074 155.527 64.0467 155.485C64.096 155.001 64.1108 154.52 64.0886 154.041C64.0862 153.957 64.0812 153.873 64.0738 153.789C64.2886 153.816 64.5057 153.839 64.7229 153.856Z" fill="#A8AFC1"/>
<path d="M72.1042 151.423C71.929 152.437 71.8747 153.488 71.9339 154.537C71.9611 155.011 72.0154 155.485 72.0919 155.956C69.9227 156.351 67.5659 156.4 65.2461 156.075C67.0057 156.134 68.669 156.013 70.0757 155.692C70.0633 155.208 70.014 154.73 69.9301 154.256C69.8585 153.841 69.7598 153.434 69.6339 153.039C70.5495 152.639 71.3935 152.101 72.1042 151.423Z" fill="#A8AFC1"/>
<path d="M81.7238 136.976C80.1148 139.703 80.6651 143.395 81.2303 147.094C81.6128 150.26 79.8335 152.716 76.9782 154.29C76.8622 153.91 76.7216 153.54 76.5612 153.177C75.9788 151.877 75.1249 150.734 74.0909 149.922C73.9107 149.779 73.7133 149.641 73.5085 149.589C75.3273 146.203 74.2661 141.973 73.1531 138.252C72.5189 136.137 71.7292 133.82 69.8043 132.736C67.2056 131.273 64.0295 132.773 61.0755 133.195C60.6461 133.257 58.7385 133.297 56.283 132.919C55.7845 132.845 55.2638 132.751 54.7307 132.638C54.7283 132.635 54.7258 132.635 54.7233 132.635C54.4889 132.586 54.2495 132.532 54.0101 132.472C50.2615 131.564 47.2927 129.879 45.1555 128.321C48.1688 130.271 51.0685 131.058 52.4801 131.424C55.1947 132.127 60.9398 133.615 66.0532 130.93C69.1849 129.286 71.1961 126.542 72.4893 123.601C72.4893 123.598 72.4893 123.598 72.4893 123.598C76.3761 121.987 81.4278 119.045 85.0555 113.655C86.1611 112.012 88.3081 108.742 88.8905 103.929C89.3051 100.479 88.7473 97.629 88.2637 95.8867C89.4137 96.2569 91.0696 96.6616 93.0908 96.7134C94.3443 108.823 91.3114 122.253 81.7238 136.976Z" fill="#A8AFC1"/>
<path d="M38.2974 150.07C38.4528 150.058 38.6108 150.043 38.7663 150.023C38.6133 150.058 38.4603 150.093 38.3073 150.125C38.3048 150.107 38.2998 150.088 38.2974 150.07Z" fill="white"/>
<path d="M42.9468 145.653C42.816 145.759 42.6827 145.858 42.547 145.952C41.2291 146.865 39.6843 147.376 38.1098 147.719C38.1271 146.852 38.2381 145.989 38.4455 145.147C38.5466 144.737 38.675 144.323 38.9292 143.985C39.1809 143.647 39.5782 143.392 40.0027 143.412C40.3037 143.425 40.5802 143.575 40.8368 143.736C41.6487 144.239 42.3643 144.895 42.9468 145.653Z" fill="white"/>
<path d="M70.0756 155.692C68.669 156.013 67.0056 156.134 65.2461 156.075C65.2411 156.077 65.2362 156.075 65.2313 156.072C65.1202 156.057 65.0117 156.04 64.9006 156.02C64.9401 155.49 65.0116 154.957 65.1128 154.438C65.1474 154.251 65.1869 154.066 65.2313 153.881C66.7317 153.923 68.2643 153.639 69.6339 153.039C69.7597 153.434 69.8584 153.841 69.93 154.256C70.014 154.73 70.0633 155.208 70.0756 155.692Z" fill="#EDEDED"/>
<path d="M64.9006 156.02C65.0117 156.04 65.1203 156.057 65.2313 156.072C65.1203 156.072 65.0092 156.067 64.8957 156.062C64.8957 156.047 64.8981 156.035 64.9006 156.02Z" fill="white"/>
<path d="M44.3041 148.227C42.7493 148.947 40.8392 149.555 38.7712 150.023C38.7687 150.023 38.7687 150.023 38.7662 150.023C38.6108 150.043 38.4528 150.058 38.2973 150.07C38.2035 149.547 38.1443 149.021 38.1196 148.493C38.1073 148.234 38.1048 147.978 38.1098 147.718C39.6843 147.375 41.2291 146.865 42.5469 145.951C42.6827 145.858 42.8159 145.759 42.9467 145.653H42.9492C43.2478 146.038 43.5143 146.452 43.7414 146.887C43.9684 147.316 44.156 147.763 44.3041 148.227Z" fill="#EDEDED"/>
<path d="M38.1197 148.493C38.1444 149.021 38.2036 149.547 38.2974 150.07C36.6291 150.211 34.9584 150.065 33.3814 149.609C34.3291 149.722 35.2323 149.784 36.0714 149.784C36.1331 149.303 36.1503 148.819 36.1257 148.333C36.1207 148.247 36.1158 148.163 36.1084 148.076C36.4415 148.037 36.7747 147.98 37.1054 147.921C37.441 147.859 37.7766 147.793 38.1098 147.719C38.1049 147.978 38.1073 148.234 38.1197 148.493Z" fill="#A8AFC1"/>
<path d="M55.6092 132.734C55.3279 132.709 55.0342 132.677 54.7307 132.637C54.7282 132.635 54.7257 132.635 54.7233 132.635C54.0644 132.551 53.3536 132.433 52.6034 132.287L49.4026 135.488C48.7141 136.176 48.413 137.166 48.608 138.121C48.8523 139.313 49.2447 140.606 49.3434 141.986C49.4421 143.39 48.9041 144.769 47.8849 145.742C45.3726 148.138 42.0904 149.638 38.7712 150.023C40.8392 149.555 42.7493 148.948 44.3041 148.227C44.156 147.763 43.9685 147.316 43.7414 146.887C43.5144 146.452 43.2479 146.038 42.9492 145.653C44.346 144.533 45.3677 142.879 45.3554 141.1C45.3455 139.895 44.8766 138.748 44.652 137.566C44.3337 135.898 44.5064 134.163 44.1856 132.494C43.4453 128.632 40.2124 125.673 39.1537 121.885L39.9262 122.056C39.899 122.675 40.6641 122.949 41.2292 123.198C41.9078 123.499 42.4656 124.008 43.0825 124.42C44.5065 125.372 46.2093 125.794 47.88 126.172C49.5507 126.55 51.2584 126.91 52.7441 127.759C54.2297 128.61 55.4834 130.059 55.6339 131.764C55.6635 132.09 55.6512 132.413 55.6092 132.734Z" fill="#A8AFC1"/>
<path d="M69.6339 153.039C68.2643 153.639 66.7318 153.923 65.2313 153.881C65.4411 152.977 65.7422 152.101 66.1247 151.277C66.295 150.904 66.4899 150.534 66.7688 150.268C67.0452 150.001 67.4178 149.853 67.7485 149.977C67.9829 150.063 68.1705 150.275 68.3383 150.492C68.9034 151.225 69.3402 152.096 69.6339 153.039Z" fill="white"/>
<path d="M64.0467 155.485C63.6075 155.527 63.1484 155.546 62.6697 155.546C62.45 155.49 62.2329 155.426 62.0182 155.359C61.9244 155.329 61.8306 155.295 61.7418 155.258C61.7146 155.248 61.69 155.235 61.6653 155.226C60.7078 154.794 60.039 153.905 59.8835 152.876C59.8786 152.844 59.8737 152.81 59.8712 152.777C59.8613 152.698 59.8539 152.617 59.8514 152.536C61.1989 153.15 62.6105 153.599 64.0739 153.789C64.0813 153.873 64.0862 153.957 64.0887 154.041C64.1109 154.52 64.0961 155.001 64.0467 155.485Z" fill="#EDEDED"/>
<path d="M64.0739 153.789C62.6105 153.599 61.1989 153.15 59.8514 152.536C59.849 152.454 59.849 152.373 59.8514 152.289L59.8564 152.156C60.1032 151.615 60.3845 151.092 60.6979 150.596C60.915 150.248 61.1569 149.907 61.4654 149.678C61.7739 149.451 62.1613 149.35 62.4747 149.515C62.6968 149.631 62.8548 149.865 62.993 150.105C63.6149 151.173 63.9826 152.454 64.0739 153.789Z" fill="white"/>
<path d="M76.9782 154.29C75.569 155.07 73.8958 155.633 72.0918 155.956C72.0153 155.485 71.961 155.011 71.9339 154.537C71.8746 153.488 71.9289 152.437 72.1042 151.423C72.578 150.974 72.9951 150.465 73.3356 149.895C73.3973 149.794 73.4541 149.693 73.5084 149.589C73.7132 149.641 73.9106 149.779 74.0908 149.922C75.1248 150.734 75.9787 151.877 76.5611 153.177C76.7215 153.54 76.8622 153.91 76.9782 154.29Z" fill="#EDEDED"/>
<path d="M73.3357 149.895C72.9951 150.465 72.578 150.974 72.1042 151.423C72.1141 151.356 72.1264 151.292 72.1388 151.225C72.2128 150.821 72.3115 150.416 72.5139 150.088C72.7162 149.762 73.042 149.527 73.3924 149.564C73.4319 149.569 73.4689 149.577 73.5084 149.589C73.4541 149.693 73.3974 149.794 73.3357 149.895Z" fill="white"/>
<path d="M77.0522 154.535C75.685 155.233 73.9748 155.786 72.124 156.166C72.1116 156.097 72.0993 156.028 72.0919 155.956C73.8959 155.633 75.5691 155.07 76.9782 154.29C77.0053 154.372 77.03 154.453 77.0522 154.535Z" fill="white"/>
<path d="M36.0714 149.784C35.2323 149.784 34.3291 149.722 33.3814 149.609C33.2926 149.584 33.2037 149.557 33.1149 149.53C32.9372 149.473 32.767 149.402 32.6041 149.318C32.5399 149.286 32.4757 149.249 32.414 149.209C32.34 149.165 32.2709 149.118 32.2043 149.068C32.1426 149.024 32.0833 148.977 32.0266 148.928C31.9772 148.886 31.9279 148.841 31.8834 148.797C31.8489 148.765 31.8143 148.73 31.7822 148.696C31.7378 148.651 31.6983 148.607 31.6588 148.56C31.649 148.548 31.6391 148.535 31.6292 148.523C31.5848 148.471 31.5428 148.414 31.5009 148.358C31.4762 148.323 31.4515 148.289 31.4293 148.254C31.4071 148.219 31.3824 148.185 31.3627 148.148C31.2837 148.022 31.2146 147.889 31.1578 147.751C31.1406 147.714 31.1257 147.674 31.1109 147.637C31.0789 147.561 31.0517 147.482 31.0295 147.403C31.0171 147.363 31.0048 147.324 30.9949 147.282C30.9851 147.242 30.9752 147.203 30.9653 147.163C30.9456 147.082 30.9308 146.998 30.9209 146.914C30.9086 146.83 30.9012 146.746 30.8938 146.662C30.8913 146.62 30.8888 146.576 30.8888 146.534C31.0097 146.628 31.1331 146.717 31.259 146.803C32.1746 147.432 33.1963 147.943 34.2969 148.094C34.8966 148.175 35.5037 148.15 36.1083 148.076C36.1157 148.163 36.1207 148.247 36.1256 148.333C36.1503 148.819 36.1331 149.303 36.0714 149.784Z" fill="#EDEDED"/>
<path d="M36.1084 148.076C35.5038 148.15 34.8967 148.175 34.297 148.094C33.1963 147.943 32.1746 147.432 31.2591 146.803C31.1332 146.717 31.0098 146.628 30.8889 146.534C30.8864 146.507 30.8864 146.477 30.8864 146.45V146.287C31.2221 145.665 31.612 145.075 32.0537 144.525C32.3153 144.197 32.6065 143.874 32.9816 143.674C33.3518 143.474 33.8207 143.41 34.1958 143.607C34.4623 143.745 34.6523 143.997 34.8152 144.251C35.563 145.389 36.0023 146.719 36.1084 148.076Z" fill="white"/>
<path d="M72.4892 123.6C71.196 126.542 69.1847 129.286 66.0531 130.93C60.9397 133.615 55.1946 132.127 52.48 131.423C51.0684 131.058 48.1687 130.271 45.1554 128.321C43.4255 127.058 42.2384 125.878 41.6215 125.254C40.812 124.437 40.1506 123.662 39.6299 123.003C38.2455 121.012 37.3497 118.931 36.7944 116.917C36.7524 116.727 36.7179 116.545 36.6858 116.37C38.9735 118.657 44.1485 123.25 51.7396 125.254C53.2721 125.659 56.9837 126.604 61.8577 126.241C62.6745 126.179 64.8339 125.984 67.5337 125.254C68.5333 124.982 70.3323 124.496 72.4892 123.6Z" fill="#D3D8E5"/>
<path d="M45.1555 128.321C43.5267 127.268 41.8634 125.873 40.3876 124.02C40.1211 123.684 39.8669 123.344 39.63 123.003C40.1507 123.662 40.8121 124.437 41.6216 125.254C42.2385 125.878 43.4255 127.058 45.1555 128.321Z" fill="white"/>
<path d="M72.4892 123.598C72.4892 123.598 72.4892 123.598 72.4892 123.6C70.3323 124.496 68.5332 124.982 67.5338 125.254C64.834 125.984 62.6746 126.179 61.8578 126.241C56.9838 126.604 53.2722 125.659 51.7397 125.254C44.1486 123.25 38.9736 118.657 36.6859 116.37C36.718 116.545 36.7525 116.727 36.7945 116.917C35.2546 111.387 36.2442 106.375 36.5057 105.176C38.7169 95.008 48.5068 83.6683 59.0987 85.3193C70.2805 87.0641 74.6905 102.091 74.7966 110.975C74.809 112.029 74.883 118.149 72.4892 123.598Z" fill="#F3F7FF"/>
<path d="M42.4853 79.4756C40.047 83.5033 37.427 87.3137 35.5269 91.5886C32.3637 98.4396 31.0228 106.082 31.6036 113.602C31.6225 114.38 31.899 116.535 31.9875 117.353C32.0144 117.532 31.9827 117.709 31.9082 117.862C30.2877 121.236 28.694 124.596 27.9107 128.239C27.1163 132.152 28.0416 135.119 29.9923 138.516C30.2682 139.02 30.7317 139.772 31.0329 140.277C31.5662 141.152 31.7875 142.185 31.7502 143.198C31.7511 144.145 31.7496 145.352 31.7502 146.299C31.6872 147.533 32.543 148.6 33.7603 148.813C35.6375 149.327 37.6102 149.372 39.5296 149.032C42.5824 148.471 45.8214 146.901 47.8241 144.482C48.9572 142.883 48.3584 140.943 47.9583 139.176L47.8409 138.663C47.5528 137.619 47.672 136.444 48.2733 135.527C48.441 135.255 48.6577 135.007 48.8857 134.783L49.0684 134.601L51.9926 131.676C52.2031 131.466 52.4949 131.387 52.7668 131.439C53.9668 131.667 55.1751 131.864 56.3416 131.918C56.8513 131.938 57.2366 132.408 57.1588 132.912C57.0683 133.513 56.9675 134.114 56.8846 134.714C56.8214 135.218 56.7251 135.997 56.6921 136.499C56.4933 138.802 56.5534 141.172 57.5677 143.253C58.0593 144.265 58.7605 145.226 59.4684 146.236C59.8007 146.728 60.3361 147.405 60.5378 147.973C60.8206 148.653 60.8617 149.408 60.8063 150.135C60.8019 150.146 60.7216 152.203 60.7191 152.201C60.6164 153.314 61.3731 154.344 62.4637 154.588L62.882 154.709C64.1638 155.046 65.4754 155.275 66.798 155.368C71.2599 155.675 77.4498 154.626 79.8171 150.425C80.239 149.597 80.4421 148.671 80.4127 147.742C80.3995 147.352 80.3251 146.866 80.2623 146.471C79.8277 143.305 79.2708 139.933 80.7857 136.902C81.0528 136.393 81.4699 135.766 81.7753 135.281C86.6114 127.618 90.3632 119.113 91.819 110.139C93.4238 100.589 92.1115 90.6852 88.3309 81.7839L88.996 82.3034L47.2897 75.887C46.1891 75.7035 46.3959 74.0405 47.5524 74.1796L89.2586 80.596C89.566 80.6425 89.8115 80.8484 89.9238 81.1154C95.9648 94.9173 95.391 111.013 89.3104 124.697C87.614 128.689 85.5593 132.525 83.245 136.189C82.9687 136.633 82.5455 137.254 82.3144 137.706C81.0364 140.279 81.5947 143.43 81.9708 146.215C82.2141 147.542 82.224 148.97 81.7571 150.254C79.2724 156.979 68.952 158.094 62.9007 156.494C62.6646 156.444 62.204 156.311 61.9727 156.244C60.4528 155.87 59.2305 154.536 59.0272 152.978C58.9745 152.629 58.984 152.256 59.0026 151.903L59.0803 150.063C59.1086 149.575 59.1276 149.06 58.9303 148.605C58.7865 148.206 58.2918 147.591 58.0552 147.229C57.359 146.232 56.5992 145.206 56.0143 144.008C54.7063 141.341 54.7381 138.275 55.0614 135.419C55.1549 134.515 55.3146 133.526 55.4537 132.635L56.2687 133.644C54.9443 133.581 53.6864 133.371 52.4402 133.135L53.2142 132.898L50.29 135.822L50.1073 136.005C49.6013 136.461 49.329 137.164 49.4363 137.841C49.4423 137.946 49.5088 138.171 49.5274 138.288L49.6406 138.783C50.3514 141.559 50.7572 144.171 48.4676 146.379C45.0336 149.63 40.1954 151.4 35.4681 150.89C34.3412 150.741 33.1819 150.562 32.1544 150.055C30.992 149.433 30.1892 148.216 30.051 146.911C30.0147 146.586 30.0223 146.116 30.0228 145.782C30.033 145.262 30.0154 144.233 30.0228 143.714C30.0239 143.534 30.0219 143.112 30.0228 142.939C30.0284 142.314 29.8708 141.694 29.5505 141.164L29.0172 140.275C27.734 138.124 26.5797 135.867 26.1002 133.362C25.1417 127.636 28.0221 122.114 30.357 117.101C30.3589 117.095 30.2785 117.609 30.279 117.608L29.9499 115.027L29.9108 114.704C29.8599 114.046 29.8119 113.077 29.7649 112.429C29.3904 105.054 30.9869 97.5977 34.3087 91.0095C36.4254 86.7915 39.0481 82.7306 42.4853 79.4756Z" fill="#371A45"/>
<path d="M38.7835 121.922C42.7059 127.003 48.3501 130.569 54.667 131.657C60.9792 132.825 67.3849 131.834 73.58 130.313C67.6034 132.859 60.9063 134.185 54.4206 132.948C51.9882 132.5 49.5409 131.798 47.3758 130.562C43.7953 128.537 40.8359 125.458 38.7835 121.922Z" fill="#371A45"/>
<path d="M88.1402 95.7632C101.791 98.2719 117.119 95.526 123.49 87.1545C124.483 85.8499 125.034 84.2545 125.098 82.6162C125.349 76.1675 123.044 71.3544 117.065 69.5027C116.164 69.2238 115.186 69.3267 114.376 69.8078C105.783 74.9069 96.1987 78.9164 87.1531 80.4627L88.1402 95.7632Z" fill="#C2C6D2"/>
<path d="M124.348 86.7532C122.779 89.7023 119.664 91.4767 116.582 92.7673C110.227 95.435 103.298 96.7307 96.4074 96.5406C94.1543 96.4789 91.874 96.2519 89.7591 95.4696C89.4136 95.3413 89.0484 95.1784 88.8781 94.8526C88.5277 94.1863 89.2162 93.4509 89.8702 93.0783C92.5157 91.568 95.6869 91.4125 98.7124 91.0398C103.643 90.4303 108.475 89.1495 113.174 87.5306C116.441 86.4077 119.815 85.001 121.922 82.2642C122.108 82.0248 122.278 81.7707 122.433 81.5066C122.895 81.5831 123.361 81.6324 123.833 81.6546C124.331 81.6793 124.834 81.6694 125.333 81.6324C125.133 79.7544 124.765 77.9973 124.237 76.566C123.998 76.6129 123.761 76.6696 123.529 76.7362C123.391 75.2481 122.776 73.8637 121.599 72.916L122.954 72.4373C124.701 74.2536 125.296 76.8818 125.491 79.3941C125.686 81.9039 125.53 84.5322 124.348 86.7532Z" fill="#A8AFC1"/>
<path d="M125.333 81.6324C124.834 81.6694 124.331 81.6793 123.832 81.6546C123.361 81.6324 122.895 81.583 122.433 81.5065C123.277 80.0801 123.682 78.3477 123.529 76.7362C123.761 76.6696 123.998 76.6128 124.237 76.5659C124.765 77.9973 125.133 79.7544 125.333 81.6324Z" fill="#EDEDED"/>
<path d="M122.433 81.5066C121.885 81.4178 121.35 81.287 120.827 81.1192C120.464 81.0056 120.101 80.8675 119.82 80.6305C119.538 80.3986 119.348 80.0506 119.41 79.7051C119.455 79.4583 119.62 79.2436 119.793 79.0462C120.614 78.101 121.725 77.3656 122.959 76.9189C123.146 76.8498 123.336 76.7905 123.529 76.7362C123.682 78.3478 123.277 80.0802 122.433 81.5066Z" fill="white"/>
<path d="M119.593 70.0117C120.782 70.9702 121.997 72.29 123.133 73.8005C122.722 74.0894 122.295 74.3542 121.855 74.5897C120.95 75.0754 119.986 75.4413 118.999 75.6708C118.629 75.7573 118.246 75.8246 117.884 75.7665C117.523 75.7101 117.182 75.5091 117.059 75.1806C116.971 74.9471 117.002 74.6775 117.049 74.4202C117.27 73.1856 117.848 71.9865 118.678 70.9692C118.957 70.6269 119.262 70.3068 119.593 70.0117Z" fill="white"/>
<path d="M88.1402 95.7633C92.0042 95.5611 95.7123 96.0759 99.5422 95.8961C106.058 95.6138 112.716 94.2767 118.25 90.7268C119.771 89.7357 121.187 88.5271 122.34 87.1278C122.888 86.4805 123.384 85.7423 123.679 84.9442C124.323 83.3022 124.212 81.4471 124.066 79.7158C123.904 78.01 123.433 76.3072 122.592 74.8096C122.532 74.7145 122.218 74.2306 122.152 74.1261C121.959 73.8664 121.756 73.6124 121.551 73.3624C121.323 73.1475 121.108 72.8722 120.868 72.6732L120.374 72.2528C119.884 71.8592 119.275 71.5027 118.722 71.1997C118.528 71.115 118.005 70.8738 117.817 70.7904C117.484 70.6694 116.94 70.4654 116.604 70.3758C116.022 70.2408 115.394 70.3288 114.882 70.6309L114.262 70.9917C110.931 72.9487 107.49 74.7209 103.938 76.2449C98.6053 78.5487 93.043 80.37 87.2987 81.3141C86.8281 81.3922 86.3833 81.074 86.3052 80.6034C86.2274 80.1354 86.5424 79.6929 87.0076 79.6113C96.5175 77.8418 105.567 73.853 113.908 68.9633C114.962 68.3408 116.308 68.2177 117.455 68.621C117.72 68.7111 118.286 68.9148 118.538 69.0091C118.755 69.1074 119.366 69.385 119.592 69.4896C119.987 69.7151 120.567 70.0206 120.926 70.2927C124.676 72.8325 126.003 77.0434 126.057 81.3957C126.059 81.6402 126.041 82.2645 126.039 82.5149C126.015 83.5604 125.794 84.6332 125.402 85.6213C125.026 86.5963 124.423 87.5059 123.739 88.294C122.606 89.6396 121.275 90.803 119.829 91.7922C113.92 95.7897 106.594 97.1728 99.586 97.3649C95.7185 97.4024 91.7526 97.3339 88.1402 95.7633Z" fill="#371A45"/>
<path d="M139.744 61.5298C139.596 62.0042 139.405 62.4733 139.163 62.9391C139.09 63.0768 139.014 63.2155 138.933 63.3534C137.517 65.7535 133.735 67.8731 129.056 69.3274L129.054 69.327C122.524 71.3576 114.248 72.0922 108.22 70.4786L97.441 52.7253L107.302 21.5697C107.302 21.5697 123.548 21.9529 128.383 23.9689C133.215 25.9845 133.824 30.8753 133.217 36.9142C132.612 42.9554 137.315 53.8803 137.315 53.8803L139.744 61.5298Z" fill="#F8ABBB"/>
<path d="M65.6382 40.7226C65.6382 40.7226 44.5827 57.3302 35.4095 54.1537C21.5533 49.3557 17.9512 35.9876 18.6401 30.0469C18.7956 29.6344 19.4141 28.2343 20.5859 28.5312C21.9581 28.878 26.8514 27.2567 28.6567 25.6517C30.4624 24.044 29.5857 15.4464 33.6894 9.21162C37.9849 2.68362 48.3802 0.711125 51.1733 7.77083L57.2719 12.7649C60.9559 22.5801 65.6382 40.7226 65.6382 40.7226Z" fill="#F8ABBB"/>
<path d="M65.6372 40.7231C65.6372 40.7231 44.5822 57.3304 35.4095 54.153C23.8869 50.1638 19.4566 40.2487 18.6877 33.6058C18.5308 32.258 18.5236 31.0477 18.6406 30.046C18.7948 29.6336 19.4139 28.2346 20.5862 28.5319C21.9577 28.8786 26.8508 27.2569 28.6568 25.6519C30.4613 24.0446 29.5851 15.4452 33.6891 9.21237C37.9844 2.68417 48.3801 0.711371 51.1734 7.77027L53.4531 9.63827L57.2711 12.7651C60.9561 22.5807 65.6372 40.7231 65.6372 40.7231Z" fill="#F8ABBB"/>
<path d="M65.6372 40.7231C65.6372 40.7231 55.8111 48.474 46.6594 52.3721C42.4161 54.1795 38.3162 55.1605 35.4095 54.153C28.8301 51.8745 24.5615 47.665 21.9693 43.2348C20.0212 39.9073 19.0166 36.4541 18.6877 33.6058C18.5308 32.258 18.5236 31.0477 18.6406 30.046C18.7948 29.6336 19.4139 28.2346 20.5862 28.5319C21.9577 28.8786 26.8508 27.2569 28.6568 25.6519C30.4613 24.0446 29.5851 15.4452 33.6891 9.21237C37.9844 2.68417 48.3801 0.711371 51.1734 7.77027L53.4531 9.63827L57.2711 12.7651C60.9561 22.5807 65.6372 40.7231 65.6372 40.7231Z" fill="#F8ABBB"/>
<path d="M53.4531 9.63839L49.9011 12.9341C49.9011 12.9341 45.2104 7.02849 40.6062 10.9126C36.5285 14.3522 37.0313 25.4292 33.7542 31.2748C32.0689 34.2823 28.396 34.9606 23.5506 32.4942C20.8017 31.0953 19.3914 32.3 18.6877 33.6059C18.5308 32.2581 18.5236 31.0478 18.6406 30.0461C18.7948 29.6337 19.4139 28.2347 20.5862 28.532C21.9577 28.8787 26.8508 27.257 28.6568 25.652C30.4613 24.0447 29.5851 15.4453 33.6891 9.21249C37.9844 2.68429 48.3801 0.711494 51.1734 7.77039L53.4531 9.63839Z" fill="#F47F9B"/>
<path d="M38.0186 55.4117C36.9752 55.4117 36.0045 55.2737 35.1268 54.9698C27.2091 52.2281 22.9717 46.9153 20.8116 42.9415C18.055 37.8704 17.4393 32.9044 17.7823 29.9473L17.7945 29.8421L17.8318 29.7428C18.4253 28.1659 19.5625 27.3802 20.7981 27.6942C21.8123 27.9498 26.4214 26.4832 28.0825 25.0062C28.5969 24.5484 28.9077 22.5433 29.2083 20.6046C29.7354 17.2059 30.4571 12.5516 32.968 8.73686C35.6904 4.59941 40.773 2.03596 45.322 2.50616C48.4009 2.82306 50.7244 4.50151 51.8892 7.24076L57.9988 12.2439L58.0803 12.4615C61.7383 22.2071 66.4275 40.325 66.4746 40.5069L66.6153 41.052L66.1731 41.4009C65.3789 42.0271 48.2803 55.4117 38.0186 55.4117ZM19.4856 30.2596C18.9297 35.6275 22.2044 48.667 35.6922 53.3375C43.6084 56.078 61.5984 42.7252 64.6582 40.388C63.8504 37.3038 59.7984 22.0291 56.5442 13.2857L50.4524 8.29696L50.3699 8.08871C49.2361 5.22276 46.9029 4.40561 45.1451 4.22446C41.2713 3.82551 36.7562 6.12266 34.4109 9.68661C32.1065 13.1876 31.4461 17.4469 30.9156 20.8692C30.5054 23.5147 30.209 25.4261 29.2308 26.2967C27.3184 27.9974 22.1055 29.8058 20.3743 29.3687C19.9559 29.2639 19.5989 29.9944 19.4856 30.2596Z" fill="#371A45"/>
<path d="M57.2719 12.765L52.2445 12.8108C47.1151 6.39116 40.1763 4.07846 36.114 11.0064C32.5359 17.1086 32.8968 27.1223 29.6546 29.512C26.8304 31.5936 21.9581 28.8781 20.5859 28.5313C19.4141 28.2344 18.7955 29.6345 18.6401 30.047C18.7267 29.0831 18.9056 28.2071 19.1814 27.4451C20.8755 22.7623 26.1873 19.3807 28.6134 15.1094C30.6031 8.99961 32.2898 5.59652 35.0999 3.30897C41.8796 -2.20993 53.3932 2.35606 57.4496 9.57101C58.0648 10.6654 56.4872 10.6718 57.2719 12.765Z" fill="#C2C6D2"/>
<path d="M57.2711 12.7651L53.7185 12.7976L52.2447 12.8101C47.1147 6.39118 40.1754 4.07888 36.1139 11.007C32.535 17.1079 32.8975 27.1231 29.6539 29.5112C26.83 31.593 21.9578 28.8786 20.5863 28.5319C19.4139 28.2346 18.7949 29.6336 18.6406 30.046C18.6791 29.6185 18.7344 29.2068 18.8109 28.8178C18.9053 28.3278 19.0275 27.868 19.182 27.4456C20.8744 22.7627 26.1869 19.3797 28.6131 15.1087C30.6036 8.99944 32.2901 5.59664 35.1004 3.30804C41.8801 -2.20966 53.3923 2.35639 57.4492 9.57104C58.0647 10.6655 56.4874 10.6716 57.2711 12.7651Z" fill="#C2C6D2"/>
<path d="M53.7185 12.7977L52.2447 12.8101C47.1146 6.39123 40.1753 4.07893 36.1138 11.0071C32.535 17.1079 32.8974 27.1231 29.6538 29.5112C26.83 31.5931 21.9577 28.8787 20.5862 28.532C19.4139 28.2346 18.7948 29.6336 18.6406 30.0461C18.6791 29.6186 18.7343 29.2068 18.8108 28.8178C19.0939 27.9895 19.6548 27.2942 20.7378 27.334C22.6898 27.4054 26.1705 29.355 28.0695 28.5753C30.9308 27.3976 31.467 19.4021 33.5213 13.6679C35.5342 8.04978 38.6474 3.60733 45.7662 5.73468C50.1468 7.04463 52.783 11.105 53.7185 12.7977Z" fill="#A8AFC1"/>
<g opacity="0.4">
<path d="M57.3953 10.6167C53.0512 3.75734 41.939 -0.467463 35.4117 4.96594C32.9626 7.00414 30.6571 11.1097 28.6662 17.2209C27.1522 20.1863 23.4855 21.659 19.1819 27.4456C20.8743 22.7627 26.1868 19.3797 28.613 15.1087C30.6035 8.99944 32.29 5.59664 35.1003 3.30804C41.88 -2.20966 53.3922 2.35639 57.4491 9.57104C57.7094 10.0353 57.5765 10.303 57.3953 10.6167Z" fill="white"/>
</g>
<path d="M27.0115 31.1487C24.9583 31.149 22.8245 30.3057 21.4539 29.7642C20.9915 29.5816 20.5924 29.4239 20.3743 29.3687C19.8763 29.2423 19.4656 30.306 19.4485 30.3511C19.2964 30.7554 18.8692 30.9852 18.4478 30.889C18.0266 30.7928 17.7412 30.4002 17.7798 29.9698C17.8741 28.9197 18.0723 27.9712 18.3692 27.1509C19.3882 24.3343 21.5913 22.0088 23.7217 19.7603C25.3128 18.0808 26.8167 16.4932 27.8196 14.7571C29.6888 9.03177 31.3965 5.20977 34.5547 2.63897C37.3853 0.334772 41.2349 -0.499476 45.3938 0.290324C50.718 1.30157 55.7459 4.77812 58.2024 9.14752C58.7149 10.0594 58.344 10.7037 58.1223 11.0887C57.9268 11.4288 57.7854 11.6744 58.0806 12.4617C58.1795 12.7256 58.1433 13.0213 57.9839 13.2537C57.8245 13.4861 57.5615 13.626 57.2795 13.6287L52.2522 13.6746C52.2497 13.6746 52.247 13.6746 52.2444 13.6746C51.9819 13.6746 51.7336 13.5552 51.5696 13.3499C48.5569 9.57942 45.0154 7.44977 42.0764 7.66512C39.9966 7.81477 38.2412 9.08602 36.8591 11.4434C35.2222 14.2352 34.4175 18.0106 33.7075 21.3419C32.8589 25.3241 32.1257 28.7635 30.167 30.2074C29.231 30.897 28.1333 31.1487 27.0115 31.1487ZM20.2659 27.626C20.4402 27.626 20.6182 27.6485 20.7982 27.6941C21.1236 27.7762 21.5494 27.9446 22.0887 28.1575C23.8968 28.8719 27.2625 30.2017 29.1422 28.8167C30.5731 27.762 31.275 24.4686 32.0181 20.9818C32.7552 17.5225 33.5909 13.6021 35.369 10.5694C37.0323 7.73277 39.3089 6.13242 41.9525 5.94197C45.4127 5.69662 49.294 7.87532 52.6527 11.9434L56.1912 11.911C56.1385 11.1668 56.377 10.6583 56.6253 10.2269C56.6588 10.169 56.7017 10.0941 56.7235 10.0474C56.7179 10.0345 56.7093 10.0167 56.6966 9.99417C54.4793 6.05032 49.9161 2.90752 45.0716 1.98757C41.4217 1.29422 38.0741 2.00147 35.6454 3.97877C33.1351 6.02197 31.5099 9.00467 29.4347 15.377C29.4166 15.4321 29.3932 15.4854 29.3644 15.5359C28.2582 17.4837 26.5895 19.2449 24.9757 20.9483C22.994 23.0403 20.9454 25.2022 20.0301 27.6399C20.108 27.6306 20.1866 27.626 20.2659 27.626Z" fill="#371A45"/>
<path d="M30.782 12.1502C29.6423 15.0665 28.7283 18.1147 28.3782 21.251C28.1924 19.6646 28.1746 18.0447 28.2495 16.4307C28.3319 14.7923 28.4823 13.2044 28.747 11.5696L30.782 12.1502Z" fill="#371A45"/>
<path d="M139.744 61.5297C139.596 62.0041 139.405 62.4732 139.163 62.939C138.757 58.6333 132.242 62.3199 125.843 57.8608C119.334 53.3256 128.947 33.6142 124.016 32.1887C118.979 30.732 112.299 36.7032 112.299 36.7032C112.299 36.7032 101.194 71.6847 129.054 69.3269C122.524 71.3574 114.248 72.0921 108.22 70.4785L97.4411 52.7251L107.302 21.5696C107.302 21.5696 123.548 21.9528 128.383 23.9688C133.215 25.9843 133.824 30.8752 133.217 36.914C132.612 42.9552 137.315 53.8801 137.315 53.8801L139.744 61.5297Z" fill="#F47F9B"/>
<path d="M115.732 72.2176C112.966 72.2176 110.316 71.9336 107.997 71.3132L107.662 71.2234L96.4986 52.8377L106.674 20.6917L107.322 20.7068C107.993 20.7227 123.788 21.1174 128.715 23.1719C134.424 25.5527 134.63 31.4986 134.077 37.0007C133.5 42.7476 138.062 53.4309 138.108 53.5381L138.138 53.6182L140.65 61.5281L140.569 61.7876C140.353 62.4807 140.053 63.1553 139.677 63.7927C136.824 68.6294 125.558 72.2176 115.732 72.2176ZM108.777 69.7307C119.316 72.3701 135.198 67.9861 138.189 62.9153C138.451 62.47 138.668 62.0034 138.836 61.5252L136.504 54.1811C136.142 53.3344 131.749 42.8946 132.358 36.8284C133.061 29.8298 131.813 26.3352 128.05 24.7661C123.955 23.0584 110.983 22.5501 107.929 22.4526L98.3824 52.6116L108.777 69.7307Z" fill="#371A45"/>
<path d="M70.4943 82.7792C47.6581 79.2654 29.3866 66.3649 30.8218 49.4174C31.2131 44.7973 33.1282 42.1847 34.8653 39.9516C38.7039 23.8566 44.1872 12.2999 55.472 6.31844C65.6516 0.922736 82.8752 1.59438 96.2202 8.53803C104.218 12.6993 123.614 23.2586 113.84 59.8436C112.654 76.4448 98.6418 86.4857 70.4943 82.7792Z" fill="#C2C6D2"/>
<path d="M113.84 59.8424C113.689 61.9389 113.336 63.9314 112.773 65.8044C108.888 78.7623 95.0871 86.0164 70.4947 82.7802C49.6728 79.574 32.6446 68.567 30.8912 53.8032C30.7239 52.3745 30.6957 50.9117 30.8226 49.4169C31.2142 44.7971 33.1277 42.1852 34.8642 39.9529C38.7044 23.8572 44.1883 12.301 55.4718 6.31973C65.651 0.922984 82.8754 1.59418 96.22 8.53923C104.219 12.6991 123.614 23.2593 113.84 59.8424Z" fill="#C2C6D2"/>
<path d="M112.773 65.8044C108.888 78.7623 95.0871 86.0164 70.4947 82.7802C49.6728 79.574 32.6446 68.567 30.8912 53.8032C33.582 57.4134 37.5818 61.0644 43.0055 61.7317C54.2785 63.1228 66.669 65.9407 66.669 65.9407C66.669 65.9407 69.7849 74.8801 84.1912 76.9936C97.9029 79.0047 108.829 73.8329 112.773 65.8044Z" fill="#A8AFC1"/>
<g opacity="0.6">
<path d="M108.046 19.55C104.423 16.4756 99.4076 13.4901 95.6531 11.5374C95.1037 11.2525 94.5483 10.9763 93.9845 10.7104C92.6729 11.87 89.2103 12.027 85.4391 10.9768C81.527 9.88786 78.5733 7.85311 78.2144 6.14456C69.3352 4.97626 60.8538 6.06176 54.8782 9.22791C52.2281 10.6312 49.8481 12.3797 47.7139 14.5006C50.164 11.6695 52.9789 9.42426 56.2108 7.71166C61.9519 4.66806 70.1001 3.62111 78.6332 4.73836C80.1167 4.93186 81.6103 5.19006 83.1074 5.51571C87.1691 6.39906 91.0081 7.72231 94.5377 9.45656C94.8592 9.61126 95.1771 9.77321 95.4927 9.93666C98.5345 11.5203 103.779 14.2491 108.046 19.55Z" fill="white"/>
</g>
<path d="M81.378 84.3999C77.9322 84.3999 74.2608 84.1463 70.3814 83.6355L70.3628 83.6328C58.7493 81.846 48.3277 77.6475 41.0174 71.811C33.0765 65.4712 29.2532 57.7024 29.9612 49.3445C30.3479 44.7751 32.1138 42.0964 34.0687 39.5696C38.4759 21.196 44.7615 11.0178 55.0675 5.55519C65.7716 -0.118164 83.2467 0.813735 96.6188 7.77174C100.177 9.62304 107.582 13.4758 112.436 21.5884C118.169 31.1702 118.929 44.0891 114.695 59.9875C114.155 67.2976 111.268 73.1347 106.115 77.3381C100.386 82.0122 91.948 84.3999 81.378 84.3999ZM70.6163 81.9239C85.9088 83.9366 97.8055 81.8875 105.023 75.9998C109.812 72.0933 112.489 66.637 112.978 59.7821L112.984 59.7L113.005 59.6207C122.711 23.2952 103.176 13.1307 95.8214 9.30404C83.1236 2.69708 65.951 1.74179 55.8766 7.08164C46.0204 12.3057 39.9879 22.1961 35.7054 40.1522L35.662 40.3343L35.547 40.482C33.6427 42.93 32.0375 45.2975 31.6825 49.4903C31.0257 57.2464 34.6263 64.4979 42.0951 70.461C49.1717 76.1109 59.2996 80.1814 70.6163 81.9239Z" fill="#371A45"/>
<path d="M95.2065 31.2191C95.2065 31.2191 94.8369 25.0607 91.0962 23.9354C87.7136 22.9178 86.3915 27.0985 89.3217 28.7243C91.615 29.9967 95.2065 31.2191 95.2065 31.2191Z" fill="#371A45"/>
<path d="M48.0001 19.3114C48.0001 19.3114 51.1025 15.1699 54.3289 15.6446C57.4306 16.1009 56.2146 20.0498 53.5928 20.1129C52.0626 20.1498 48.0001 19.3114 48.0001 19.3114Z" fill="#371A45"/>
<path d="M90.2755 53.4196C91.4478 48.4161 89.2699 43.6271 85.4111 42.723C81.5524 41.819 77.4739 45.1422 76.3017 50.1458C75.1294 55.1493 77.3073 59.9383 81.166 60.8424C85.0248 61.7464 89.1033 58.4232 90.2755 53.4196Z" fill="#371A45"/>
<path d="M84.3982 55.4917C84.8661 53.4949 83.9969 51.5836 82.4569 51.2228C80.9169 50.862 79.2893 52.1883 78.8215 54.1852C78.3536 56.182 79.2228 58.0933 80.7628 58.4541C82.3027 58.8149 83.9304 57.4886 84.3982 55.4917Z" fill="white"/>
<g opacity="0.6">
<path d="M87.0259 48.6021C87.2112 47.811 86.8669 47.0539 86.2568 46.9109C85.6467 46.768 85.0019 47.2934 84.8166 48.0845C84.6313 48.8756 84.9756 49.6327 85.5857 49.7756C86.1957 49.9186 86.8406 49.3932 87.0259 48.6021Z" fill="white"/>
</g>
<path d="M52.8847 42.9381C53.9257 38.4946 51.9916 34.2415 48.5647 33.4386C45.1378 32.6357 41.5157 35.5871 40.4747 40.0306C39.4336 44.4742 41.3677 48.7273 44.7947 49.5302C48.2216 50.333 51.8436 47.3817 52.8847 42.9381Z" fill="#371A45"/>
<path d="M47.4359 43.6212C47.8514 41.8478 47.0795 40.1505 45.7119 39.8301C44.3443 39.5097 42.8988 40.6875 42.4833 42.4609C42.0678 44.2343 42.8397 45.9316 44.2073 46.252C45.5749 46.5725 47.0204 45.3946 47.4359 43.6212Z" fill="white"/>
<g opacity="0.6">
<path d="M49.9983 38.6593C50.1629 37.9568 49.8571 37.2843 49.3153 37.1574C48.7735 37.0305 48.2009 37.4971 48.0363 38.1996C47.8717 38.9022 48.1775 39.5746 48.7193 39.7015C49.2611 39.8284 49.8337 39.3618 49.9983 38.6593Z" fill="white"/>
</g>
<path d="M52.1365 50.1203C52.8658 48.5255 53.5049 46.4191 56.4869 45.3424C60.2342 43.9895 68.3991 45.5673 71.2188 53.3825L67.9625 58.0602L52.1365 50.1203Z" fill="#C1C5D1"/>
<g opacity="0.4">
<path d="M54.1784 49.3951C54.707 48.3161 55.3856 47.4028 57.0179 46.8136C57.8635 46.5083 59.0029 46.4029 60.226 46.5167C63.4798 46.8194 67.5205 48.7367 69.4554 53.1779C69.4554 53.1779 67.1371 49.7506 61.9369 48.5662C57.3629 47.5243 54.1784 49.3951 54.1784 49.3951Z" fill="white"/>
</g>
<path d="M51.3509 49.7612C51.8415 48.3229 52.7406 46.452 54.1747 45.5054C57.4753 43.1735 62.1622 44.0224 65.4666 45.9133C68.2721 47.5162 70.3939 50.3124 71.2188 53.3825C70.3774 51.4862 69.1213 49.782 67.5201 48.4843C64.7118 46.2564 60.916 45.156 57.4155 45.9812C56.2314 46.3074 55.0846 46.9834 54.3519 47.9362C53.7451 48.695 53.3917 49.5758 52.9219 50.4797C52.4043 51.4323 50.9684 50.7753 51.3509 49.7612Z" fill="#371A45"/>
<path d="M66.6684 65.9413C59.832 72.9162 49.7101 74.3577 43.3646 71.8478C34.1989 68.2226 33.8936 57.7437 25.7766 59.1457C22.7477 59.6688 23.477 46.4566 26.6076 46.064C35.8122 44.9097 37.5601 51.8398 42.3304 53.9083C47.9671 56.3525 51.1109 50.8653 52.272 50.0792C54.3789 48.4735 63.7362 48.1374 68.594 57.0713L66.6684 65.9413Z" fill="#C2C6D2"/>
<path d="M68.5929 57.0708L66.7462 65.5805L66.669 65.9406C59.8309 72.9153 49.7096 74.3579 43.3653 71.8465C34.1994 68.2231 33.8928 57.7438 25.7766 59.1468C24.5611 59.3568 23.9498 57.3509 23.8582 54.8501C23.7204 51.1253 24.7346 46.298 26.6084 46.0646C35.8134 44.9087 37.5608 51.8401 42.3302 53.9072C47.968 56.3511 51.1108 50.8658 52.2713 50.078C54.3795 48.4731 63.7355 48.1377 68.5929 57.0708Z" fill="#C2C6D2"/>
<g opacity="0.4">
<path d="M43.9607 57.2362C40.2718 57.0975 37.0233 51.7871 37.0233 51.7871C38.3983 53.145 39.8195 54.549 41.6989 55.3637C42.9444 55.9036 44.19 56.1555 45.4014 56.1124C47.4589 56.0392 49.1142 55.1396 50.3876 54.1274C50.3876 54.1274 48.4833 57.4062 43.9607 57.2362Z" fill="white"/>
</g>
<g opacity="0.4">
<path d="M53.1776 51.3808L53.2132 51.3566L53.2328 51.3411C53.4928 51.1429 54.3694 50.831 55.7181 50.783C57.4337 50.722 63.2058 51.027 66.9133 57.3253C66.9133 57.3253 62.575 50.8783 53.2328 51.3411" fill="white"/>
</g>
<path d="M66.7462 65.5805L66.669 65.9406C59.8309 72.9153 49.7096 74.3579 43.3653 71.8466C34.1994 68.2232 33.8928 57.7438 25.7766 59.1469C24.5611 59.3569 23.9498 57.3509 23.8582 54.8501C25.5383 55.2747 27.4243 55.6841 28.1811 55.6016C29.6736 55.44 31.2152 55.9146 33.0013 57.4605C35.9347 60.0032 38.5717 66.1962 42.6822 68.2682C51.5174 72.7187 63.7502 67.8286 66.7462 65.5805Z" fill="#A8AFC1"/>
<path d="M66.8997 66.1679C60.8086 73.3382 48.7806 76.5076 40.4515 71.4017C37.3367 69.492 35.1839 66.4324 33.0167 63.6111C31.6934 61.9423 30.1793 60.2692 28.0324 59.9738C27.411 59.8856 26.7465 59.8987 26.1091 59.9984C25.6326 60.1008 25.0769 60.0494 24.6668 59.7822C22.6575 58.4221 22.9192 53.9494 23.1132 51.7981C23.3873 49.6779 24.0407 45.3061 26.8035 45.1759C29.262 44.8915 31.8937 45.18 34.1163 46.3639C35.2423 46.9426 36.2411 47.7078 37.145 48.5153C38.8542 50.0221 40.3133 51.8884 42.2819 52.9296C45.5921 54.6238 48.2647 53.196 50.5512 50.5887C50.8693 50.2508 51.3647 49.664 51.7581 49.385C52.4192 48.8994 53.2277 48.6716 53.9188 48.5198C55.1843 48.2695 56.4484 48.215 57.6881 48.3851C62.5831 49.0988 66.7356 52.5734 68.594 57.0712C66.0801 53.2247 62.0542 50.5145 57.4758 50.1756C55.9087 50.0574 53.95 49.9188 52.6663 50.8693C52.5031 50.9982 51.9851 51.5917 51.8229 51.7579C49.0522 54.9407 45.5379 56.5288 41.4911 54.4654C38.3049 52.7771 36.4835 49.4963 33.321 47.8973C31.3038 46.8201 28.9198 46.6348 26.6779 46.928C26.0425 47.2472 25.7779 48.0477 25.5068 48.7471C24.8313 50.8115 24.6141 53.1568 24.7534 55.3337C24.8174 56.1323 24.923 56.9242 25.1985 57.6507C25.3082 57.9193 25.4154 58.1365 25.588 58.266C25.6072 58.2732 25.6006 58.2673 25.6032 58.2679C25.6032 58.2679 25.6116 58.2657 25.6223 58.2652L25.843 58.2319C29.6506 57.584 32.2713 59.647 34.4475 62.4736C36.5531 65.1638 38.4961 68.0327 41.4312 69.8402C47.2375 73.3919 54.8516 72.4041 60.76 69.5461C62.8009 68.5407 64.706 67.2453 66.4371 65.7143C66.571 65.595 66.7762 65.607 66.8955 65.7408C67.0046 65.8634 67.0031 66.0464 66.8997 66.1679Z" fill="#371A45"/>
<path d="M63.5882 65.4002C64.3495 64.3683 65.9352 64.2485 66.9872 64.9401C68.0739 65.6726 68.5158 66.9584 68.1975 68.1717C67.4886 67.4634 66.9458 66.6767 66.1962 66.1911C65.3982 65.6902 64.6165 65.5355 63.5882 65.4002Z" fill="#371A45"/>
<path d="M139.944 60.746C139.891 61.0089 139.824 61.2708 139.744 61.5297C138.351 56.8439 132.333 60.1501 128.788 57.2604C123.974 53.3318 128.018 44.7127 129.512 39.9202C131.01 35.1243 134.627 28.2911 125.447 26.7225C119.682 25.7371 112.699 27.5621 112.455 27.6261C112.45 27.6272 112.448 27.6287 112.448 27.6287C112.448 27.6287 108.516 25.9925 107.201 23.4364C105.886 20.8803 108.282 20.4126 108.282 20.4126C109.515 20.1559 110.731 19.9462 111.925 19.7821C120.689 18.5745 128.337 19.818 133.326 23.4054C141.956 29.6067 135.654 39.9887 136.598 45.586C137.272 49.5767 139.906 53.9898 140.124 58.2788C140.123 58.2826 140.124 58.2888 140.125 58.2931C140.166 59.1152 140.114 59.9355 139.944 60.746Z" fill="#C2C6D2"/>
<path d="M139.944 60.746C139.891 61.0089 139.824 61.2708 139.744 61.5297C138.351 56.8439 132.333 60.1501 128.788 57.2604C123.974 53.3318 128.018 44.7127 129.512 39.9202C131.01 35.1243 134.627 28.2911 125.447 26.7225C119.682 25.7371 112.699 27.5621 112.455 27.6261C112.757 27.5 124.739 22.5084 130.851 27.486C136.88 32.3973 127.565 45.0683 128.596 52.6419C129.51 59.3525 139.78 55.5443 139.944 60.746Z" fill="#A8AFC1"/>
<g opacity="0.4">
<path d="M140.124 58.2788C139.273 51.5011 135.335 50.6225 135.063 44.2271C134.743 36.7211 140.982 26.5253 127.18 22.4097C117.464 19.5117 111.628 22.81 110.742 21.0849C110.484 20.5828 111.003 20.0478 111.925 19.7821C120.689 18.5745 128.337 19.818 133.326 23.4054C141.956 29.6067 135.654 39.9887 136.598 45.586C137.272 49.5767 139.906 53.9898 140.124 58.2788Z" fill="white"/>
</g>
<path d="M108.282 20.412C115.539 17.4128 126.22 17.7741 132.96 21.9746C138.888 25.6047 139.563 31.154 138.38 37.4839C138.042 39.5281 137.561 41.496 137.404 43.5244C137.224 45.5389 137.863 47.311 138.513 49.2277C139.437 51.8667 140.555 54.4826 140.907 57.3306C141.085 58.7836 141.027 60.3283 140.569 61.7869C140.426 62.2423 139.941 62.4956 139.485 62.3525C139.201 62.263 138.997 62.0423 138.916 61.7766C138.229 59.2803 135.491 59.6804 133.304 59.5027C130.272 59.4154 127.633 58.355 126.322 55.4241C125.198 52.8138 125.597 49.9828 126.193 47.36C126.868 44.4752 127.931 41.8209 128.766 39.0955C129.566 36.4406 131.523 32.3729 129.86 29.8864C127.463 26.6646 119.975 27.1742 116.256 27.3305C114.995 27.4141 113.728 27.5103 112.447 27.6278C117.185 25.7372 122.796 24.882 127.823 26.3695C130.968 27.3247 132.778 29.7374 132.425 33.0616C132.167 35.7636 131.084 38.085 130.302 40.6023C128.855 45.1226 124.651 53.9263 130.053 57.0606C131.541 57.8367 133.562 57.7604 135.314 57.871C137.69 57.9603 139.868 58.7515 140.572 61.2834C140.573 61.2855 138.919 61.2729 138.919 61.2737C140.064 57.3872 138.13 53.4744 136.884 49.8005C136.425 48.4792 135.978 47.1289 135.73 45.6687C135.498 44.1698 135.683 42.724 135.897 41.2741C136.7 36.2629 138.401 30.3915 134.818 26.1031C133.174 24.1466 130.78 22.8296 128.38 21.9312C121.929 19.5046 115.064 20.2967 108.282 20.412Z" fill="#371A45"/>
<path d="M29.2664 55.2361C28.8235 58.2843 26.7078 60.2511 23.5249 60.0698C20.016 59.8699 18.5128 55.767 21.0603 51.6469C18.6287 49.6345 19.3529 46.2053 21.2076 44.9056C23.1222 43.564 26.9279 43.1473 28.545 48.6669" fill="#C2C6D2"/>
<g opacity="0.4">
<path d="M21.6734 47.5128C21.6734 47.5128 21.7749 46.2166 23.292 45.8531C26.0464 45.1932 27.565 48.7871 26.9666 49.1525C26.5403 49.4127 24.6466 47.109 21.6734 47.5128Z" fill="white"/>
</g>
<path d="M23.4366 52.9812C23.4366 52.9812 22.3422 55.4709 23.6482 56.0728C24.9541 56.6748 25.5899 53.8969 25.5899 53.8969L23.4366 52.9812Z" fill="#371A45"/>
<path d="M29.2664 55.2362C29.5669 61.9616 19.3938 63.2978 18.8091 56.2329C18.6797 54.414 19.3092 52.6414 20.3257 51.1927L20.5096 52.3124C18.2107 50.7278 17.908 47.2389 19.6455 45.1124C20.7475 43.7234 22.6624 43.0499 24.4064 43.3389C26.9581 43.7519 28.3283 46.3295 28.5451 48.6669C27.9007 47.4012 27.1711 46.1439 25.9764 45.3662C24.4381 44.3525 22.2411 44.8099 21.1662 46.2649C20.1476 47.7052 20.3094 49.7839 21.6289 50.9997C21.9244 51.2991 21.9786 51.7469 21.795 52.1013C21.1274 53.3861 20.6977 54.7753 20.7973 56.0871C20.8779 57.339 21.4963 58.511 22.6759 58.9826C23.9252 59.436 25.4136 59.3175 26.5975 58.7102C27.9287 58.027 28.7788 56.6712 29.2664 55.2362Z" fill="#371A45"/>
<path d="M23.8039 52.8331C23.4928 53.588 23.1084 54.5808 23.3789 55.3375C23.5187 55.6585 24.0252 55.7169 24.316 55.5388C24.7236 55.3115 25.041 54.7522 25.1602 54.2872C25.1943 54.1548 25.2143 54.0097 25.2084 53.925C25.2066 53.9474 25.215 53.9714 25.2171 53.9906C25.2259 54.0315 25.2449 54.063 25.2508 54.0755C25.2701 54.1046 25.2593 54.0874 25.2284 54.0667C24.8301 53.81 23.947 53.5746 23.4836 53.4057C21.0065 52.5917 19.5311 51.3246 18.8001 48.7697C18.5568 47.8265 19.9309 47.4293 20.2242 48.3638C20.6199 49.9172 21.5773 51.1415 23.0357 51.6975C23.3366 51.8256 23.6479 51.9697 23.9583 52.0817C24.3268 52.2229 25.1053 52.4815 25.4579 52.6492C25.866 52.8351 26.3908 53.1301 26.5204 53.66C26.7174 55.2243 25.1687 57.3155 23.4487 56.8089C21.8742 56.4071 21.9467 54.5791 22.3853 53.382C22.6009 52.8865 22.7746 51.765 23.5505 52.0866C23.8285 52.2218 23.9395 52.5589 23.8039 52.8331Z" fill="#371A45"/>
<path d="M100.097 103.014C97.9819 101.97 95.6844 100.948 93.2363 99.9611C93.3745 101.652 93.4214 103.369 93.3794 105.111C94.9786 105.795 96.5012 106.491 97.9326 107.199C106.76 111.552 109.349 114.906 109.591 116.439C109.603 116.52 109.61 116.599 109.61 116.671C109.61 116.752 109.603 116.829 109.588 116.895C109.312 118.124 105.877 120.555 94.8528 120.957C93.4535 121.009 91.9975 121.027 90.4946 121.007C81.2378 120.906 70.0683 119.541 58.504 117.073C47.6234 114.751 37.4781 111.686 29.275 108.268C27.3377 107.461 25.514 106.634 23.8112 105.795C13.9596 100.938 11.8792 97.3279 12.1531 96.0989C12.4196 94.9144 15.618 92.6143 25.7188 92.0887C26.0988 92.0689 26.4912 92.0517 26.891 92.0368C27.9423 91.9974 29.0257 91.9776 30.1412 91.9776C31.4368 91.9776 32.767 92.0023 34.1366 92.0541C34.951 90.4944 35.8493 88.9742 36.8192 87.4861C33.2285 87.2838 29.8352 87.2369 26.7109 87.3504C25.9632 87.3775 25.2351 87.4145 24.5294 87.459C14.1892 88.1179 8.45143 90.6844 7.46183 95.097C6.40808 99.8105 11.1809 104.818 21.6445 109.98C23.9346 111.111 26.4345 112.214 29.1072 113.277C37.2684 116.53 47.0583 119.43 57.4774 121.653C68.6493 124.037 79.4979 125.422 88.7276 125.666C89.7123 125.693 90.6772 125.705 91.6224 125.705C92.7897 125.705 93.9273 125.683 95.0305 125.644C105.042 125.279 111.229 123.322 113.475 119.822L113.478 119.82C113.858 119.225 114.127 118.583 114.28 117.897C115.336 113.184 110.563 108.176 100.097 103.014Z" fill="#FEBD1C"/>
<path d="M36.8191 87.4861C35.8493 88.9742 34.951 90.4944 34.1366 92.0541C32.7669 92.0023 31.4368 91.9776 30.1411 91.9776C29.0257 91.9776 27.9423 91.9973 26.891 92.0368C26.4912 92.0516 26.0988 92.0689 25.7187 92.0887C25.8619 91.2348 25.8248 90.3513 25.5904 89.5172C25.3806 88.7694 25.0129 88.0686 24.5292 87.459C25.235 87.4146 25.963 87.3776 26.7108 87.3504C29.8351 87.2369 33.2284 87.2838 36.8191 87.4861Z" fill="#FF8D06"/>
<path d="M114.279 117.897C114.126 118.583 113.857 119.225 113.477 119.82C113.512 118.902 113.248 117.981 112.643 117.295C111.903 116.453 110.63 116.101 109.591 116.439C109.349 114.906 106.76 111.552 97.9325 107.199C96.5012 106.491 94.9785 105.795 93.3794 105.111C93.4213 103.369 93.3745 101.651 93.2362 99.9609C95.6843 100.948 97.9819 101.97 100.097 103.014C110.563 108.176 115.336 113.184 114.279 117.897Z" fill="#FF8D06"/>
<path d="M91.6219 126.569C90.64 126.569 89.6583 126.556 88.7042 126.53C79.3577 126.282 68.4969 124.888 57.297 122.498C46.8946 120.278 37.0365 117.367 28.7879 114.08C26.0875 113.005 23.555 111.887 21.2616 110.755C10.3932 105.393 5.46668 100.061 6.61878 94.9084C7.77233 89.7634 14.5219 86.9302 26.6803 86.487C29.8123 86.3733 33.2403 86.4189 36.868 86.6237C37.1759 86.6411 37.451 86.821 37.5902 87.0961C37.7293 87.3713 37.7113 87.6996 37.5428 87.9579C36.5694 89.4499 35.6815 90.9626 34.9032 92.4535C34.7489 92.7489 34.4457 92.935 34.1048 92.9169C31.649 92.8242 29.19 92.8156 26.9234 92.8996C16.046 93.2965 13.1339 95.7113 12.9957 96.288C12.8763 96.8644 14.4915 100.237 24.1922 105.02C25.8839 105.854 27.7059 106.678 29.6068 107.47C37.8253 110.894 47.88 113.923 58.6834 116.228C70.211 118.688 81.2144 120.041 90.5042 120.143C91.973 120.163 93.4246 120.146 94.8201 120.094C105.695 119.697 108.607 117.283 108.745 116.706C108.747 116.696 108.747 116.684 108.747 116.671C108.747 115.788 106.735 112.504 97.5511 107.974C96.1612 107.287 94.6434 106.591 93.0391 105.905C92.7139 105.767 92.5062 105.444 92.515 105.09C92.557 103.394 92.5101 101.692 92.376 100.03C92.3519 99.7318 92.4839 99.4423 92.7252 99.265C92.9666 99.0875 93.2821 99.0482 93.5601 99.1598C96.0294 100.156 98.3573 101.192 100.479 102.239C111.35 107.601 116.277 112.933 115.122 118.086C113.972 123.23 107.223 126.064 95.0631 126.507C93.9048 126.548 92.7474 126.569 91.6219 126.569ZM30.1412 88.1538C28.9737 88.1538 27.8399 88.1736 26.743 88.2136C15.627 88.6186 9.25103 91.0642 8.30448 95.2858C7.36258 99.4985 12.1072 104.312 22.0259 109.206C24.2784 110.317 26.7684 111.417 29.427 112.475C37.5869 115.727 47.3487 118.608 57.6572 120.808C68.7556 123.177 79.5076 124.558 88.7507 124.802C90.7641 124.858 92.8699 124.856 95.0007 124.78C106.117 124.375 112.492 121.93 113.436 117.709C114.38 113.495 109.636 108.682 99.7146 103.788C99.7146 103.788 99.7146 103.788 99.7143 103.788C98 102.942 96.1467 102.103 94.1902 101.286C94.2461 102.366 94.2671 103.457 94.2529 104.547C95.6897 105.171 97.054 105.801 98.3159 106.425C109.597 111.989 110.474 115.674 110.474 116.671C110.474 116.818 110.459 116.957 110.43 117.087C109.975 119.116 105.652 121.427 94.8835 121.82C93.4597 121.873 91.9802 121.889 90.4831 121.87C81.0825 121.767 69.9609 120.401 58.323 117.918C47.417 115.59 37.2573 112.529 28.9421 109.065C27.008 108.259 25.1528 107.419 23.4284 106.57C13.802 101.823 10.8564 97.9518 11.3095 95.9115C11.7658 93.8776 16.09 91.5663 26.8596 91.1732C29 91.0931 31.3083 91.0956 33.6269 91.1715C34.1428 90.2084 34.7014 89.2389 35.2968 88.2736C33.5198 88.1938 31.7969 88.1538 30.1412 88.1538Z" fill="#371A45"/>
<path d="M107.283 117.253L107.833 117.112C107.698 117.263 107.468 117.337 107.283 117.253Z" fill="#FF8D06"/>
<path d="M3.08194 93.7377C2.59719 93.5558 2.17209 94.076 1.99494 94.4752C1.75744 95.0104 1.66859 95.5429 1.64964 96.1255C1.61039 97.3319 1.75739 98.524 2.07629 99.6882C2.70744 101.992 3.97244 104.155 5.73034 105.782C6.71034 106.689 7.80974 107.402 9.06014 107.874C9.19914 107.926 9.25519 107.727 9.15374 107.652C7.43819 106.382 5.90574 104.818 4.79349 102.989C3.68584 101.167 3.02644 99.1682 2.76264 97.0574C2.69044 96.4796 2.68674 95.9029 2.66974 95.322C2.66194 95.0562 2.68059 94.8206 2.79109 94.5752C2.89104 94.3533 3.06819 94.2079 3.19079 94.0054C3.25639 93.8971 3.18894 93.7779 3.08194 93.7377Z" fill="#371A45"/>
<path d="M116.281 121.668C116.203 122.165 116.793 122.127 117.077 121.921C117.573 121.559 117.963 120.958 118.3 120.454C119.021 119.377 119.459 118.07 119.674 116.799C120.104 114.259 119.595 111.569 118.309 109.338C117.947 108.709 117.508 108.113 117.002 107.592C116.529 107.104 115.611 106.682 115.192 107.47C115.107 107.632 115.21 107.885 115.42 107.866C115.563 107.854 115.741 108.041 115.851 108.136C116.037 108.296 116.202 108.479 116.363 108.663C116.698 109.047 117.011 109.448 117.295 109.871C117.862 110.716 118.33 111.656 118.593 112.641C119.126 114.641 118.964 116.77 118.214 118.692C118.004 119.23 117.745 119.759 117.47 120.267C117.331 120.523 117.182 120.774 117.022 121.017C116.947 121.131 116.866 121.241 116.792 121.356C116.768 121.394 116.725 121.496 116.686 121.53C116.626 121.583 116.564 121.549 116.603 121.626C116.539 121.498 116.304 121.518 116.281 121.668Z" fill="#371A45"/>
<path d="M0.547031 105.361C0.759531 106.42 1.23063 107.357 1.90368 108.197C2.54898 109.003 3.41513 109.685 4.40428 110.01C4.51093 110.046 4.60528 109.892 4.51683 109.817C4.32323 109.653 4.11623 109.513 3.93533 109.334C3.76998 109.171 3.59403 109.019 3.42673 108.858C3.06368 108.508 2.71583 108.145 2.39468 107.756C1.77313 107.002 1.26203 106.118 0.880082 105.221C0.794932 105.021 0.508881 105.171 0.547031 105.361Z" fill="#371A45"/>
</svg>
