<svg width="133" height="153" viewBox="0 0 133 153" fill="none" xmlns="http://www.w3.org/2000/svg">
<path d="M39.0908 98.0342C42.463 100.979 42.9024 104.045 42.5096 105.869C42.1986 107.312 41.5459 108.661 39.8082 109.56C37.9765 110.508 34.4584 110.854 31.083 109.127C29.706 108.422 28.0072 107.402 25.6325 107.577C25.4298 107.079 25.7415 106.516 26.3107 105.956C25.2805 105.214 23.9915 104.48 21.812 103.788C21.7897 103.781 23.7821 97.8706 33.2802 96.3742C33.208 95.0048 34.0417 94.2716 35.2129 94.2052C35.661 96.5971 36.8292 96.0594 39.0908 98.0342Z" fill="#C4612B"/>
<path d="M39.8074 109.56C37.9769 110.507 34.4583 110.855 31.0839 109.127C29.71 108.426 28.0191 107.408 25.6554 107.575C25.6472 107.574 25.6375 107.575 25.631 107.575C25.6011 107.5 25.5809 107.423 25.5737 107.345C25.5541 107.135 25.6124 106.917 25.7289 106.694C25.8584 106.451 26.061 106.204 26.311 105.957C25.2796 105.214 23.9909 104.479 21.8124 103.789C21.8118 103.782 21.8507 103.656 21.947 103.443C21.9617 103.407 21.981 103.369 22.0016 103.327C22.0685 103.185 22.1575 103.016 22.267 102.823C22.2896 102.785 22.312 102.744 22.3375 102.702C22.3915 102.616 22.4468 102.524 22.5096 102.427C22.5367 102.383 22.5669 102.339 22.5972 102.296C22.7982 101.996 23.0439 101.668 23.3417 101.32C24.8961 99.509 27.8726 97.2281 33.2805 96.3737C33.2091 95.0044 34.0416 94.272 35.2134 94.2041C35.6608 96.5974 36.8283 96.0594 39.0916 98.0342C41.8816 100.473 42.6642 102.992 42.6262 104.821C42.6265 104.824 42.6265 104.824 42.6283 104.826C42.6211 105.206 42.5784 105.556 42.5094 105.87C42.1971 107.312 41.5461 108.662 39.8074 109.56Z" fill="#C4612B"/>
<path d="M39.8074 109.56C37.9769 110.507 34.4583 110.855 31.0839 109.127C29.71 108.426 28.0191 107.408 25.6554 107.575C25.6472 107.574 25.6375 107.575 25.631 107.575C25.6011 107.5 25.5809 107.423 25.5737 107.345C25.5541 107.135 25.6124 106.917 25.7289 106.693C25.8584 106.451 26.061 106.204 26.311 105.956C25.2796 105.214 23.9909 104.479 21.8124 103.789C21.8118 103.782 21.8507 103.656 21.947 103.443C21.9617 103.407 21.981 103.369 22.0016 103.327C22.0685 103.185 22.1575 103.016 22.267 102.823C22.2896 102.785 22.312 102.744 22.3375 102.702C22.3915 102.616 22.4468 102.524 22.5096 102.426C22.5367 102.383 22.5669 102.339 22.5972 102.296C22.7982 101.996 23.0439 101.668 23.3417 101.32C24.8961 99.509 27.8726 97.228 33.2805 96.3736C33.2784 96.333 33.2765 96.2955 33.2762 96.2563C33.2673 95.7555 33.3862 95.3458 33.6001 95.0269C33.616 95.0042 33.6304 94.9832 33.6462 94.9605C33.9701 94.5236 34.4814 94.2752 35.095 94.2135C35.1339 94.2099 35.1727 94.2063 35.2134 94.2041C35.6608 96.5974 36.8283 96.0594 39.0916 98.0342C41.8816 100.473 42.6642 102.992 42.6262 104.821C42.6265 104.824 42.6265 104.824 42.6283 104.826C42.6211 105.206 42.5784 105.556 42.5094 105.87C42.4352 106.215 42.341 106.555 42.2163 106.885C41.8231 107.932 41.1281 108.877 39.8074 109.56Z" fill="#666566"/>
<g opacity="0.4">
<path d="M33.2758 96.256C33.2598 96.295 33.244 96.337 33.2312 96.3818C33.2473 96.3796 33.2649 96.3759 33.281 96.3737C33.2777 96.334 33.2774 96.2942 33.2758 96.256Z" fill="white"/>
</g>
<g opacity="0.4">
<path d="M42.2164 106.885C42.026 106.225 41.8186 105.697 41.7091 104.975C41.4479 103.233 40.4246 100.885 38.7656 99.4354C36.6655 97.599 35.3914 97.9916 34.3422 95.8225C33.6497 95.8606 33.4639 95.7781 33.2762 96.2563C33.2674 95.7555 33.3862 95.3458 33.6001 95.0269C33.616 95.0042 33.6304 94.9832 33.6463 94.9605C33.9702 94.5236 34.4815 94.2752 35.095 94.2135C35.1325 94.2116 35.1713 94.208 35.212 94.2058L35.2135 94.2041C35.6609 96.5974 36.8284 96.0594 39.0916 98.0342C41.8816 100.473 42.6643 102.992 42.6263 104.821C42.6266 104.824 42.6266 104.824 42.6284 104.826C42.6211 105.206 42.5784 105.556 42.5095 105.87C42.4352 106.215 42.341 106.555 42.2164 106.885Z" fill="white"/>
</g>
<g opacity="0.4">
<path d="M23.343 101.32C22.1764 102.677 21.8088 103.766 21.8113 103.788C21.9428 103.83 22.07 103.873 22.1957 103.914C22.4319 103.521 22.7602 103.045 23.2004 102.53C24.7567 100.719 27.7294 98.4375 33.1398 97.5857C33.1137 97.0931 33.1358 96.6926 33.2312 96.3818C27.8535 97.241 24.8922 99.5163 23.343 101.32Z" fill="white"/>
</g>
<path d="M39.8074 109.56C37.9769 110.507 34.4583 110.855 31.0839 109.127C29.71 108.426 28.0191 107.408 25.6554 107.575C25.6472 107.574 25.6375 107.575 25.631 107.575C25.6011 107.5 25.5809 107.423 25.5737 107.345C25.5541 107.135 25.6106 106.915 25.7289 106.694C25.8584 106.451 26.061 106.204 26.311 105.957C25.2796 105.214 23.9909 104.479 21.8124 103.789C21.8118 103.782 21.8507 103.656 21.947 103.443C21.9617 103.407 21.981 103.369 22.0016 103.327C22.0685 103.185 22.1575 103.016 22.267 102.823C22.2896 102.785 22.312 102.744 22.3375 102.702C22.3915 102.616 22.4468 102.524 22.5096 102.427C22.5367 102.383 22.5669 102.34 22.5972 102.296C22.7982 101.996 23.0439 101.668 23.3417 101.32C23.0101 102.379 23.3712 102.977 24.4525 103.166C26.6143 103.545 28.5744 103.302 30.5064 104.296C29.3527 105.403 32.032 106.915 32.9198 106.943C36.3996 107.051 37.8739 103.704 39.5943 103.306C41.8206 102.79 42.6265 104.824 42.6283 104.826C42.6211 105.206 42.5784 105.556 42.5094 105.87C42.1971 107.312 41.5461 108.662 39.8074 109.56Z" fill="#515151"/>
<path d="M36.1049 111.153C34.4239 111.153 32.5485 110.773 30.7193 109.837C30.5974 109.775 30.4732 109.71 30.3462 109.644C29.0741 108.982 27.633 108.23 25.6911 108.373C25.3486 108.397 25.0235 108.199 24.893 107.878C24.6663 107.321 24.7486 106.734 25.137 106.127C24.3386 105.627 23.2549 105.084 21.5704 104.549C21.2173 104.437 20.9874 104.096 21.0156 103.726C21.0393 103.417 21.6809 101.773 23.453 100.034C25.0011 98.5147 27.813 96.5618 32.5181 95.6944C32.7261 94.3794 33.723 93.4898 35.1677 93.408C35.568 93.3823 35.9238 93.6639 35.9977 94.0582C36.2161 95.2242 36.5265 95.4017 37.4482 95.929C38.0237 96.2581 38.7399 96.6677 39.6158 97.4329C43.933 101.202 43.5195 104.971 43.29 106.037C43.0172 107.303 42.3976 109.12 40.1749 110.27C39.1346 110.808 37.708 111.153 36.1049 111.153ZM26.6411 106.772C28.496 106.879 29.911 107.617 31.0841 108.228C31.2075 108.292 31.3283 108.355 31.4466 108.416C34.4986 109.978 37.7303 109.736 39.4413 108.851C40.7106 108.195 41.3948 107.252 41.729 105.7C41.9121 104.851 42.2249 101.831 38.5656 98.6355C37.8091 97.9751 37.1962 97.6243 36.6553 97.315C35.8092 96.8311 35.0603 96.4026 34.6332 95.1506C34.233 95.3503 34.0465 95.7456 34.0775 96.3321C34.099 96.7405 33.8084 97.0991 33.4044 97.1626C26.4663 98.2558 23.7628 101.81 22.9115 103.317C24.8462 104.015 25.985 104.737 26.7774 105.308C26.9683 105.445 27.0888 105.66 27.1067 105.894C27.1248 106.129 27.0385 106.359 26.8709 106.524C26.779 106.615 26.7033 106.698 26.6411 106.772Z" fill="#363D56"/>
<path d="M34.0404 96.13C34.141 97.2218 34.2244 98.3599 34.6263 99.3928C33.7561 98.6144 33.1422 97.6004 32.5201 96.6184L34.0404 96.13Z" fill="#363D56"/>
<path d="M25.8485 105.305C27.2538 104.693 28.7789 104.112 30.3248 104.317C28.9243 104.631 27.7707 105.637 26.7728 106.607L25.8485 105.305Z" fill="#363D56"/>
<path d="M57.7522 115.506C55.8999 118.804 50.6118 123.599 46.0808 119.729C41.9926 115.607 48.5975 109.528 43.4814 104.924C41.3622 103.153 39.1893 103.617 38.7657 105.076C38.2347 106.906 40.5735 107.481 40.5337 109.882C40.3943 113.575 37.9743 118.117 40.6897 122.826C43.6806 128.253 53.2386 131.113 60.3515 124.659L57.7522 115.506Z" fill="white"/>
<path d="M38.922 106.466C39.4215 107.415 40.5616 108.199 40.5329 109.881C40.3943 113.574 37.9731 118.115 40.6907 122.826C43.6807 128.252 53.2386 131.113 60.3515 124.659L57.7535 115.505C56.5059 117.723 53.7071 120.62 50.6287 121.1C49.1301 121.335 47.5646 120.995 46.0803 119.729C41.9933 115.606 48.5971 109.528 43.4823 104.924C41.3623 103.153 39.1897 103.617 38.7666 105.075C38.6065 105.625 38.7045 106.06 38.922 106.466Z" fill="#C2C6D2"/>
<path d="M40.5329 109.882C40.3942 113.574 37.9731 118.115 40.6906 122.826C43.6806 128.252 53.2386 131.113 60.3515 124.659L57.7535 115.505C56.5058 117.723 53.707 120.62 50.6286 121.101C50.4852 121.913 50.4518 123.015 50.87 124.222C51.5679 126.234 44.9689 126.865 41.9669 122.09C38.7331 116.942 44.4574 109.561 39.976 106.555C39.6366 106.327 39.2852 106.308 38.922 106.466C39.4215 107.415 40.5615 108.199 40.5329 109.882Z" fill="#A1ACC6"/>
<path d="M51.1083 129.168C50.3328 129.168 49.5509 129.103 48.7667 128.973C44.9625 128.339 41.5996 126.131 39.9904 123.212C37.9183 119.618 38.6184 116.171 39.2361 113.13C39.4735 111.96 39.6977 110.856 39.7357 109.851C39.7505 108.954 39.3295 108.402 38.842 107.764C38.2972 107.05 37.6192 106.162 37.999 104.854C38.241 104.02 38.8831 103.387 39.7606 103.12C41.0476 102.727 42.6303 103.172 43.9933 104.311C44.0007 104.317 44.0082 104.324 44.0154 104.33C47.0414 107.053 46.4202 110.246 45.8722 113.063C45.4098 115.439 45.0104 117.493 46.6247 119.144C47.8304 120.163 49.1727 120.55 50.6141 120.293C53.1915 119.834 55.8058 117.341 57.056 115.115L58.4484 115.897C57.0585 118.371 54.1017 121.294 50.8939 121.865C48.949 122.212 47.1554 121.697 45.5624 120.336C45.5455 120.322 45.5294 120.307 45.5139 120.291C43.2777 118.037 43.8234 115.232 44.3047 112.758C44.8164 110.128 45.2995 107.643 42.9582 105.527C41.8466 104.603 40.8191 104.466 40.2265 104.647C39.9737 104.724 39.6481 104.9 39.5324 105.298C39.39 105.789 39.5676 106.082 40.1113 106.795C40.666 107.521 41.3563 108.425 41.3318 109.894C41.2885 111.047 41.0517 112.213 40.8008 113.447C40.2122 116.346 39.6033 119.344 41.3812 122.427C42.7678 124.943 45.6954 126.842 49.0291 127.397C52.9063 128.044 56.7364 126.861 59.8149 124.068L60.8879 125.251C58.0589 127.817 54.6529 129.168 51.1083 129.168Z" fill="#363D56"/>
<path d="M71.5527 124.376C71.5527 124.376 72.7001 142.308 71.8911 146.909C71.2432 150.327 68.8817 151.861 65.1767 151.861C62.8039 151.861 61.4631 151.861 56.3812 151.861C54.0119 151.861 52.6823 150.778 52.5888 148.907C52.4742 146.616 53.5993 144.253 55.1975 143.22C52.7458 131.923 50.277 112.761 50.277 112.761" fill="#C2C6D2"/>
<path d="M51.7327 113.556C51.7109 114.561 51.7615 116.117 51.8795 118.046C52.2666 118.881 52.2876 120.444 52.4732 120.813C54.4003 127.165 64.7554 129.51 67.2946 133.342C69.7386 137.031 69.0152 144.184 69.0152 144.184C68.849 145.299 68.6049 146.185 68.3094 146.655C67.0502 148.655 64.2129 148.979 62.5718 148.979H57.9238C54.1064 148.979 52.9865 147.251 52.795 146.892C52.6319 147.546 52.555 148.229 52.5888 148.906C52.6824 150.778 54.0119 151.861 56.3813 151.861C61.4631 151.861 62.804 151.861 65.1768 151.861C68.8817 151.861 71.2433 150.327 71.8911 146.908C72.7002 142.308 71.5527 124.376 71.5527 124.376L51.7327 113.556Z" fill="#A1ACC6"/>
<path d="M64.3965 143.762C61.5808 143.412 58.6577 143.245 55.8744 143.856C55.7607 143.887 55.4937 143.952 55.4002 143.992L54.9949 142.448C55.1405 142.421 55.2324 142.413 55.3442 142.401C58.4156 142.174 61.4791 142.879 64.3965 143.762Z" fill="#363D56"/>
<path d="M64.1369 146.66C62.099 146.361 61.1329 148.694 61.1329 148.694C61.1329 148.694 60.5501 146.257 58.7337 146.125C56.6998 145.974 56.1429 148.66 56.1429 148.66C56.1209 147.764 55.2666 146.117 54.0311 146.249C53.6069 146.294 53.1227 146.475 52.8287 146.755C52.641 147.45 52.5525 148.182 52.5888 148.906C52.6823 150.778 54.0119 151.861 56.3812 151.861C61.4631 151.861 62.8039 151.861 65.1767 151.861C65.5103 151.861 65.829 151.844 66.1405 151.819C66.9546 149.918 65.9015 146.922 64.1369 146.66Z" fill="white"/>
<path d="M65.1768 151.861C65.5103 151.861 65.8291 151.844 66.1406 151.819C66.576 150.802 66.4772 149.472 66.021 148.415C64.8244 148.873 63.5049 148.979 62.5718 148.979H57.9237C54.1063 148.979 52.9864 147.251 52.795 146.892C52.6318 147.546 52.5549 148.229 52.5888 148.907C52.6823 150.778 54.0119 151.861 56.3812 151.861C61.4631 151.861 62.804 151.861 65.1768 151.861Z" fill="#E2EEF2"/>
<path d="M65.1768 152.659H56.3812C53.6235 152.659 51.9076 151.271 51.7914 148.946C51.6744 146.607 52.6918 144.202 54.3082 142.882C51.913 131.62 49.5095 113.052 49.4851 112.863L51.0689 112.659C51.0935 112.85 53.5615 131.916 55.9778 143.051L56.095 143.591L55.631 143.891C54.2539 144.781 53.2889 146.92 53.3861 148.867C53.4591 150.323 54.4667 151.062 56.3812 151.062H65.1768C68.6183 151.062 70.558 149.655 71.1067 146.76C71.8881 142.316 70.7673 124.605 70.7559 124.427L72.3494 124.325C72.3965 125.061 73.4935 142.406 72.6775 147.047C72.1913 149.613 70.4971 152.659 65.1768 152.659Z" fill="#363D56"/>
<path d="M77.9694 124.376C77.9694 124.376 76.8219 142.308 77.631 146.909C78.2788 150.327 80.6404 151.861 84.3453 151.861C86.7181 151.861 88.059 151.861 93.1409 151.861C95.5102 151.861 96.8397 150.778 96.9333 148.907C97.0478 146.616 95.9228 144.253 94.3246 143.22C96.7763 131.923 99.2451 112.761 99.2451 112.761" fill="#C2C6D2"/>
<path d="M97.7894 113.556C97.8112 114.561 97.7606 116.117 97.6426 118.046C97.2555 118.881 97.2345 120.444 97.0489 120.813C95.1218 127.165 84.7667 129.51 82.2275 133.342C79.7836 137.031 80.507 144.184 80.507 144.184C80.6732 145.299 80.9173 146.185 81.2127 146.655C82.472 148.655 85.3092 148.979 86.9503 148.979H91.5983C95.4157 148.979 96.5356 147.251 96.7271 146.892C96.8902 147.546 96.9671 148.229 96.9333 148.906C96.8397 150.778 95.5102 151.861 93.1409 151.861C88.059 151.861 86.7181 151.861 84.3453 151.861C80.6404 151.861 78.2788 150.327 77.631 146.908C76.8219 142.308 77.9694 124.376 77.9694 124.376L97.7894 113.556Z" fill="#A1ACC6"/>
<path d="M85.1256 143.762C88.0432 142.879 91.1062 142.174 94.1779 142.401C94.2897 142.413 94.3816 142.421 94.5274 142.448L94.122 143.992C94.0299 143.952 93.7628 143.887 93.6477 143.856C90.8646 143.245 87.941 143.412 85.1256 143.762Z" fill="#363D56"/>
<path d="M85.3851 146.66C87.4231 146.361 88.3891 148.694 88.3891 148.694C88.3891 148.694 88.972 146.257 90.7883 146.125C92.8223 145.974 93.3792 148.66 93.3792 148.66C93.4011 147.764 94.2555 146.117 95.491 146.249C95.9152 146.294 96.3993 146.475 96.6934 146.755C96.881 147.45 96.9695 148.182 96.9333 148.906C96.8397 150.778 95.5102 151.861 93.1408 151.861C88.059 151.861 86.7181 151.861 84.3453 151.861C84.0118 151.861 83.693 151.844 83.3815 151.819C82.5674 149.918 83.6206 146.922 85.3851 146.66Z" fill="white"/>
<path d="M84.3454 151.861C84.0119 151.861 83.6931 151.844 83.3816 151.819C82.9462 150.802 83.045 149.472 83.5012 148.415C84.6978 148.873 86.0173 148.979 86.9504 148.979H91.5985C95.4159 148.979 96.5358 147.251 96.7272 146.892C96.8904 147.546 96.9673 148.229 96.9334 148.907C96.8399 150.778 95.5103 151.861 93.141 151.861C88.0591 151.861 86.7183 151.861 84.3454 151.861Z" fill="#E2EEF2"/>
<path d="M93.141 152.659H84.3454C79.0251 152.659 77.3309 149.613 76.8466 147.057C76.0285 142.406 77.1256 125.061 77.1727 124.325L78.7662 124.427C78.7548 124.605 77.634 142.316 78.4174 146.77C78.9642 149.655 80.9039 151.062 84.3454 151.062H93.141C95.0555 151.062 96.0631 150.323 96.136 148.867C96.2333 146.92 95.2682 144.781 93.8912 143.891L93.4272 143.591L93.5444 143.051C95.9607 131.916 98.4286 112.85 98.4532 112.659L100.037 112.863C100.013 113.052 97.6091 131.621 95.214 142.882C96.8306 144.202 97.8476 146.607 97.7307 148.946C97.6146 151.271 95.8988 152.659 93.141 152.659Z" fill="#363D56"/>
<path d="M98.9354 115.559C98.2902 117.945 97.2012 120.156 95.5452 122.082L87.2417 127.953C84.7782 129.582 80.5433 131.202 74.762 131.202C68.9826 131.202 64.7458 129.582 62.2823 127.953L53.9768 122.082C52.3228 120.156 51.2338 117.945 50.5866 115.559C48.1916 106.724 51.8614 95.5034 55.2672 87.6125C55.9242 86.0914 57.9212 83.0222 57.7497 79.5914C57.5782 76.1606 63.8159 69.0225 74.762 69.0225C85.7081 69.0225 92.3623 83.4637 92.3623 83.4637C92.9527 84.6954 93.5998 86.0914 94.2548 87.6105C97.6626 95.5015 101.332 106.724 98.9354 115.559Z" fill="#C2C6D2"/>
<path d="M91.5399 81.8854C89.447 78.1397 83.4597 69.0225 74.762 69.0225C63.8159 69.0225 57.5782 76.1606 57.7497 79.5914C57.8612 81.8203 57.0573 83.896 56.3003 85.4943C65.1634 86.7389 78.7401 87.2106 91.5399 81.8854Z" fill="#A1ACC6"/>
<path d="M95.5452 122.082C97.2012 120.156 98.2903 117.945 98.9355 115.559C98.9355 115.559 92.092 122.697 74.7623 122.697C57.4327 122.697 50.5867 115.559 50.5867 115.559C51.2338 117.945 52.3229 120.156 53.9769 122.082L62.2823 127.953C64.7458 129.582 68.9826 131.202 74.762 131.202C80.5434 131.202 84.7783 129.582 87.2417 127.953L95.5452 122.082Z" fill="#A1ACC6"/>
<path d="M72.5089 83.7089C86.5007 82.2431 98.0683 98.3261 95.1626 114.535C93.2406 125.257 80.4546 127.291 74.762 127.291C69.0694 127.291 56.2834 125.257 54.3614 114.535C51.4557 98.3261 61.6216 84.8494 72.5089 83.7089Z" fill="#F8FDFF"/>
<path d="M72.5089 83.7088C70.0459 83.9668 67.6204 84.858 65.3743 86.2675C70.1905 86.4107 75.5737 86.1311 81.0899 85.031C78.422 83.8931 75.522 83.3931 72.5089 83.7088Z" fill="#E2EEF2"/>
<path d="M93.4554 119.078C89.5829 120.879 83.5089 122.697 74.7623 122.697C66.0164 122.697 59.9421 120.879 56.069 119.078C60.2305 125.86 69.9891 127.292 74.7621 127.292C79.5351 127.291 89.2939 125.86 93.4554 119.078Z" fill="#E2EEF2"/>
<path d="M53.9773 122.082C49.8986 118.607 48.7258 112.829 48.9401 107.688C49.4542 99.0581 52.8906 90.855 57.1609 83.4626C54.2071 91.3328 51.3236 99.3443 50.7817 107.781C50.4369 112.755 51.2686 117.806 53.9773 122.082Z" fill="#363D56"/>
<path d="M95.5456 122.082C98.2542 117.806 99.086 112.755 98.7411 107.781C98.1992 99.3437 95.316 91.3334 92.3618 83.4626C96.6321 90.8542 100.069 99.0585 100.583 107.687C100.797 112.828 99.6239 118.608 95.5456 122.082Z" fill="#363D56"/>
<path d="M87.2415 127.952C80.9773 133.374 68.5507 133.376 62.2832 127.952C69.6928 131.249 79.8293 131.251 87.2415 127.952Z" fill="#363D56"/>
<path d="M132.051 30.0407C131.116 37.7998 126.248 42.465 123.891 48.7742C120.497 57.8613 122.598 64.4466 114.217 66.6596C95.8869 71.4991 94.6695 40.8836 90.9939 32.7899L85.1337 23.921C89.9731 11.518 100.845 1.34606 110.304 0.817156C121.748 0.177256 133.68 16.5316 132.051 30.0407Z" fill="#C2C6D2"/>
<path d="M132.051 30.0407C131.116 37.7998 126.248 42.465 123.891 48.7742C120.497 57.8613 122.598 64.4466 114.217 66.6596C95.8869 71.4991 94.6695 40.8836 90.9939 32.7899L85.1337 23.921C89.9731 11.518 100.845 1.34606 110.304 0.817156C121.748 0.177256 133.68 16.5316 132.051 30.0407Z" fill="#C2C6D2"/>
<g opacity="0.4">
<path d="M130.238 17.6608C126.138 9.60986 118.715 2.72356 111.551 3.12261C102.241 3.64376 91.6364 14.1334 86.685 26.2671L85.1343 23.9208C89.9724 11.5179 100.843 1.34626 110.303 0.816461C118.317 0.367861 126.571 8.25446 130.238 17.6608Z" fill="white"/>
</g>
<path d="M110.499 67.9703C108.314 67.9703 106.305 67.4236 104.493 66.3326C97.4021 62.0626 94.6447 50.2106 92.6313 41.5567C91.8128 38.039 91.1048 34.9959 90.2923 33.1763L84.4676 24.3611C84.3246 24.1447 84.2957 23.8724 84.3899 23.6308C89.43 10.7132 100.552 0.562678 110.26 0.0199278C114.996 -0.247172 120.014 2.17828 124.388 6.84303C130.452 13.3082 133.771 22.4513 132.844 30.1362C132.241 35.1335 130.071 38.8718 127.972 42.4871C126.703 44.6732 125.504 46.7383 124.639 49.0534C123.628 51.7598 123.109 54.2678 122.652 56.4806C121.578 61.668 120.731 65.7654 114.42 67.4314C113.059 67.7908 111.75 67.9703 110.499 67.9703ZM86.0292 23.8279L91.6599 32.3497C91.683 32.3847 91.7034 32.4215 91.7207 32.4597C92.6094 34.4166 93.3402 37.5577 94.1865 41.1948C96.1353 49.5711 98.8043 61.0429 105.317 64.9648C107.817 66.4708 110.662 66.7726 114.013 65.8876C119.367 64.4739 120.015 61.3435 121.088 56.1571C121.557 53.8881 122.089 51.3162 123.143 48.4949C124.055 46.0533 125.344 43.8328 126.591 41.6854C128.609 38.21 130.695 34.6162 131.259 29.9452C132.131 22.7097 128.977 14.0704 123.224 7.93553C119.178 3.62118 114.604 1.37598 110.349 1.61423C105.983 1.85838 101.075 4.30478 96.5279 8.50288C92.069 12.6196 88.3518 18.0489 86.0292 23.8279Z" fill="#363D56"/>
<path d="M132.05 30.0414C131.117 37.7993 126.248 42.4662 123.889 48.7736C123.323 50.2888 122.911 51.7357 122.576 53.1043C120.906 59.9357 121.202 64.8136 114.217 66.658C97.1126 71.1776 94.9068 44.8219 91.7023 34.6984L92.648 34.3484C92.648 34.3484 97.1049 11.1276 109.806 6.97717C118.631 4.08967 126.688 12.7955 131.221 20.6181L131.224 20.6205L131.224 20.6231C131.345 21.0551 131.452 21.4885 131.549 21.9232C132.167 24.6396 132.368 27.3946 132.05 30.0414Z" fill="#F9ACBC"/>
<path d="M122.576 53.1043C120.906 59.9357 121.202 64.8136 114.217 66.658C97.1125 71.1776 94.9067 44.8219 91.7021 34.6984L92.6479 34.3484C92.6479 34.3484 97.1048 11.1276 109.806 6.97717C118.631 4.08967 126.688 12.7955 131.221 20.6181L131.224 20.6205L131.224 20.6231C131.345 21.0551 131.452 21.4885 131.549 21.9232C129.862 20.585 115.824 11.6993 108.482 18.3025C101.827 24.2881 104.747 33.7384 108.092 44.5823C109.33 48.5965 108.529 55.6877 111.948 58.7273C113.999 60.5515 119.654 61.1509 122.576 53.1043Z" fill="#E26F8A"/>
<path d="M110.497 67.97C108.313 67.97 106.304 67.4233 104.493 66.3328C97.4013 62.0628 94.6433 50.2099 92.6295 41.5552C92.0247 38.9556 91.5023 36.7103 90.9418 34.9401C90.8134 34.5341 91.026 34.0986 91.4253 33.9506L91.9527 33.7549C92.661 30.3918 97.3923 10.1936 109.558 6.21729C120.649 2.59144 129.445 15.9676 131.898 20.1954C131.943 20.2665 131.976 20.3443 131.997 20.4259C132.929 23.7973 133.213 27.0641 132.843 30.1363C132.241 35.1347 130.07 38.8739 127.97 42.4898C126.701 44.6752 125.503 46.7396 124.638 49.0535C123.627 51.7603 123.108 54.2683 122.651 56.481C121.578 61.6675 120.731 65.7644 114.42 67.4306C113.058 67.7903 111.749 67.97 110.497 67.97ZM92.6853 35.1863C93.1858 36.8995 93.673 38.9932 94.1848 41.1934C96.134 49.5703 98.8035 61.0431 105.316 64.9647C107.817 66.4705 110.661 66.7722 114.012 65.8867C119.367 64.4728 120.015 61.3429 121.087 56.1576C121.557 53.8885 122.088 51.3168 123.142 48.4949C124.054 46.0544 125.343 43.8347 126.589 41.688C128.608 38.2119 130.695 34.6174 131.257 29.9453C131.257 29.9453 131.257 29.9453 131.257 29.9452C131.6 27.1061 131.338 24.0754 130.481 20.9356C128.133 16.905 119.954 4.49754 110.055 7.73509C97.9501 11.6913 93.4747 34.2721 93.4309 34.4997C93.3782 34.7738 93.1862 35.0005 92.9246 35.0975L92.6853 35.1863Z" fill="#363D56"/>
<g opacity="0.4">
<path d="M119.822 44.3551C121.291 45.3746 130.583 30.0427 127.223 22.1072C125.773 18.6827 125.872 25.2805 124.36 31.5182C122.848 37.7559 118.975 43.7677 119.822 44.3551Z" fill="white"/>
</g>
<path d="M2.96796 44.4847C5.59541 51.8451 11.374 55.319 15.0667 60.9513C20.3853 69.0636 19.7918 75.9503 28.4553 76.256C47.4013 76.9245 41.8217 46.7972 43.6175 38.0911L47.3725 28.1463C39.9114 17.1197 27.0605 9.60227 17.7179 11.1773C6.41526 13.0827 -1.60664 31.6698 2.96796 44.4847Z" fill="#C2C6D2"/>
<path d="M2.96796 44.4847C5.59541 51.8451 11.374 55.319 15.0667 60.9513C20.3853 69.0636 19.7918 75.9503 28.4553 76.256C47.4013 76.9245 41.8217 46.7972 43.6175 38.0911L47.3725 28.1463C39.9114 17.1197 27.0605 9.60227 17.7179 11.1773C6.41526 13.0827 -1.60664 31.6698 2.96796 44.4847Z" fill="#C2C6D2"/>
<g opacity="0.4">
<path d="M2.00037 32.0101C4.21922 23.2521 9.93681 14.8954 17.0113 13.7012C26.2063 12.1517 38.8671 20.038 46.3779 30.7772L47.3717 28.1461C39.9118 17.1194 27.0616 9.6021 17.719 11.1762C9.80406 12.51 3.49702 22.026 2.00037 32.0101Z" fill="white"/>
</g>
<path d="M29.0607 77.0652C28.8516 77.0652 28.6405 77.0613 28.427 77.0538C21.9047 76.8238 20.1723 73.015 17.979 68.1932C17.0434 66.1363 15.9831 63.8051 14.3989 61.389C13.0439 59.3222 11.4183 57.5733 9.69715 55.7216C6.8511 52.6597 3.9082 49.4936 2.21595 44.7531C-0.386351 37.4632 0.829597 27.8127 5.31385 20.1673C8.54945 14.651 12.9075 11.1786 17.5852 10.39C27.1725 8.77412 40.263 16.2147 48.0337 27.6989C48.1791 27.9137 48.2109 28.1857 48.1194 28.4283L44.3871 38.313C43.9968 40.267 43.979 43.3912 43.9582 47.0026C43.9074 55.8876 43.8377 68.056 37.8659 73.7879C35.5988 75.9642 32.6388 77.065 29.0607 77.0652ZM20.288 11.7678C19.4458 11.7678 18.632 11.833 17.8506 11.9647C13.6468 12.6733 9.6836 15.8734 6.6913 20.9752C2.43605 28.2301 1.2698 37.3527 3.71985 44.2163C5.3015 48.6473 8.13075 51.691 10.8667 54.6345C12.5572 56.4532 14.3054 58.3339 15.7343 60.5135C17.3856 63.0322 18.473 65.4228 19.4324 67.532C21.6252 72.3528 22.9488 75.2627 28.4833 75.4581C31.9465 75.5799 34.6545 74.657 36.7602 72.6361C42.2448 67.3717 42.3122 55.5936 42.3614 46.9935C42.3827 43.2595 42.4013 40.0346 42.8354 37.9299C42.8439 37.8887 42.8557 37.8483 42.8704 37.8091L46.4785 28.2536C42.936 23.1308 38.1107 18.6573 32.8521 15.628C28.4615 13.0986 24.0933 11.7678 20.288 11.7678Z" fill="#363D56"/>
<path d="M2.96958 44.4851C5.59383 51.8451 11.3741 55.3203 15.0687 60.9504C15.9553 62.303 16.6773 63.623 17.3068 64.8837C20.4451 71.1771 21.2343 75.9998 28.4548 76.2545C46.1348 76.882 42.4607 50.6906 43.3484 40.1091L42.3487 39.9768C42.3487 39.9768 32.8697 18.3154 19.5652 17.0749C10.3199 16.2094 4.38723 26.4806 1.69528 35.1117L1.69293 35.1147L1.69323 35.1173C1.67088 35.5653 1.66183 36.0118 1.66338 36.4571C1.66113 39.2429 2.07408 41.9742 2.96958 44.4851Z" fill="#F9ACBC"/>
<path d="M17.3068 64.8837C20.4451 71.1771 21.2343 75.9998 28.4548 76.2545C46.1348 76.882 42.4607 50.6906 43.3484 40.1091L42.3487 39.9768C42.3487 39.9768 32.8697 18.3154 19.5652 17.0749C10.3199 16.2094 4.38723 26.4806 1.69528 35.1117L1.69293 35.1147L1.69323 35.1173C1.67088 35.5653 1.66183 36.0118 1.66338 36.4571C3.01333 34.7791 14.7401 23.0103 23.3596 27.8275C31.1729 32.1942 30.4137 42.0562 29.5487 53.3711C29.2285 57.5597 31.5765 64.2986 28.9145 68.0186C27.317 70.2511 21.9345 72.0855 17.3068 64.8837Z" fill="#E26F8A"/>
<path d="M29.0627 77.0645C28.8528 77.0645 28.6414 77.0606 28.4273 77.0531C21.9042 76.8229 20.1723 73.0147 17.9798 68.1937C17.0444 66.1368 15.984 63.8054 14.3999 61.3889C13.0454 59.3232 11.4201 57.5749 9.69935 55.7238C6.85245 52.6614 3.90845 49.4947 2.21695 44.7529C1.1762 41.837 0.731851 38.5856 0.896051 35.0895C0.898851 35.0047 0.915103 34.9208 0.943903 34.8415C2.4057 30.1669 8.0314 15.1927 19.639 16.2791C32.383 17.468 41.4616 36.1209 42.8955 39.2443L43.4533 39.3185C43.8754 39.3746 44.1792 39.7522 44.1436 40.1766C43.9882 42.0271 43.9751 44.3323 43.9597 47.0013C43.9086 55.8869 43.8387 68.0564 37.8663 73.7881C35.5994 75.9637 32.6397 77.0643 29.0627 77.0645ZM2.4868 35.2576C2.34445 38.5092 2.7595 41.5229 3.7208 44.2161C3.7208 44.2162 3.7208 44.2162 3.7208 44.2162C5.302 48.6484 8.13195 51.6927 10.8688 54.6366C12.559 56.4547 14.3068 58.3347 15.7352 60.5132C17.3868 63.0325 18.474 65.4233 19.4333 67.5325C21.6253 72.3526 22.9485 75.2618 28.4836 75.4573C31.9449 75.5782 34.6548 74.657 36.7606 72.636C42.2457 67.3719 42.3133 55.5929 42.3628 46.9922C42.3758 44.7333 42.3882 42.5837 42.4975 40.8022L42.2445 40.7685C41.9679 40.7317 41.7305 40.553 41.6186 40.2974C41.5256 40.085 32.17 19.0519 19.4904 17.869C9.12035 16.903 3.8867 30.8068 2.4868 35.2576Z" fill="#363D56"/>
<g opacity="0.4">
<path d="M18.0588 55.7422C16.8509 57.0612 4.40002 44.1623 5.92297 35.6805C6.58022 32.0201 7.94257 38.4765 10.7959 44.2257C13.6493 49.975 18.7548 54.9821 18.0588 55.7422Z" fill="white"/>
</g>
<path d="M57.6517 78.9739C50.8092 82.3781 41.9581 91.842 41.7316 101.336C41.5538 108.793 46.1623 112.804 54.4177 111.076C59.4823 110.016 65.4957 105.393 65.4957 105.393C65.4957 105.393 68.8282 106.282 70.9283 104.965C74.3496 102.821 72.0517 96.2675 72.0517 96.2675C72.0517 96.2675 75.8847 94.5564 74.4347 91.9611C73.0986 89.5696 67.9718 89.033 62.6049 90.3611C58.4092 91.3994 54.2467 93.2282 54.2467 93.2282C54.3071 90.6036 55.6092 88.4206 55.6092 88.4206C57.1687 84.9249 58.2293 81.6261 57.6517 78.9739Z" fill="#C2C6D2"/>
<g opacity="0.5">
<path d="M74.4347 91.9611C73.0985 89.5696 67.9718 89.033 62.6049 90.3611C58.4092 91.3994 54.2467 93.2282 54.2467 93.2282C54.2467 93.2282 49.2802 95.3309 49.4458 95.3309C53.3439 95.667 64.0834 90.1149 70.2517 91.3976C72.8869 91.9456 74.0253 93.1043 74.5008 94.1542C74.8204 93.5317 74.899 92.792 74.4347 91.9611Z" fill="white"/>
</g>
<path d="M67.6713 102.772C66.2217 102.93 66.418 101.443 66.418 101.443C66.418 101.443 57.3418 108.853 49.3245 108.52C42.4605 108.235 41.8209 100.05 41.8181 100.014C41.7715 100.454 41.7422 100.895 41.7316 101.336C41.5538 108.793 46.1623 112.804 54.4177 111.076C59.4823 110.016 65.4957 105.393 65.4957 105.393C65.4957 105.393 68.8282 106.282 70.9283 104.965C71.7482 104.451 72.2371 103.683 72.5105 102.814C72.5461 99.5598 69.7156 102.549 67.6713 102.772Z" fill="#A1ACC6"/>
<path d="M56.7683 85.5588C57.6298 83.14 58.0687 80.8881 57.6518 78.9739C55.2887 80.1495 52.6861 82.0482 50.2819 84.421C51.9799 84.7922 54.1849 85.2107 56.7683 85.5588Z" fill="#A1ACC6"/>
<g opacity="0.5">
<path d="M43.8283 101.178C44.0336 92.5715 51.327 83.9895 57.7863 79.9245C57.7616 79.5996 57.7188 79.2819 57.6517 78.9739C50.8091 82.3781 41.9581 91.842 41.7316 101.336C41.5639 108.367 45.653 112.332 53.0403 111.314C46.9819 111.358 43.6772 107.513 43.8283 101.178Z" fill="white"/>
</g>
<path d="M58.0073 79.6887C50.1398 83.8326 42.0225 93.5188 42.6011 102.821C42.8056 106.423 44.6619 109.568 48.3503 110.372C54.4235 111.658 60.2495 108.179 64.9994 104.748L65.3177 104.509L65.7056 104.606C67.6389 105.026 70.4063 105.22 71.4806 103.201C72.4291 101.254 71.9184 98.5781 71.2902 96.5345L71.0619 95.8489C72.3063 95.2722 74.326 94.231 73.8821 92.6884C73.3599 91.3495 71.8476 90.9115 70.4347 90.6384C64.9963 89.8202 59.5497 92.0118 54.4879 93.7763C54.4877 93.7764 53.5043 94.1439 53.5041 94.1439L53.6482 93.2144C53.8946 91.4873 54.6048 89.8249 55.6093 88.4207C55.1358 89.5852 54.8658 90.8073 54.8121 92.0473C54.7897 92.4508 54.8138 92.851 54.8455 93.242L54.006 92.68C55.0404 92.1752 56.0776 91.7273 57.1395 91.312C60.3499 90.0621 63.6947 89.0286 67.1687 88.8735C69.5534 88.802 72.1874 88.9342 74.1825 90.4569C76.9506 92.864 75.1811 95.7164 72.3808 97.0044L72.8135 96.0004C73.0323 96.6517 73.1823 97.2563 73.3188 97.9164C73.8461 100.536 73.9264 103.982 71.3922 105.631C69.5274 106.758 67.3181 106.627 65.286 106.18L65.9921 106.039C62.861 108.328 59.5652 110.369 55.8446 111.556C46.0925 114.34 39.5914 109.24 41.1157 98.9939C42.5493 90.4385 49.735 82.2036 57.2962 78.2588C58.2573 77.8124 58.9443 79.1932 58.0073 79.6887Z" fill="#363D56"/>
<path d="M69.9581 95.0665L72.4489 95.575L71.6544 96.96L69.9581 95.0665Z" fill="#363D56"/>
<path d="M65.3451 104.609C66.6441 104.524 68.0365 104.293 69.2091 103.682C69.6001 103.468 69.9754 103.202 70.2517 102.821C69.915 103.724 69.0919 104.388 68.2986 104.9C67.4549 105.434 66.6006 105.839 65.6462 106.177L65.3451 104.609Z" fill="#363D56"/>
<path d="M49.9922 95.0665L54.0091 92.6785C54.2957 92.5081 54.6662 92.6024 54.8366 92.889C55.0409 93.2213 54.8591 93.6754 54.4842 93.7779L49.9922 95.0665Z" fill="#363D56"/>
<path d="M72.2234 79.39C77.726 78.7743 104.582 76.2901 107.497 61.0673C108.728 54.6378 105.083 49.9452 104.643 49.2294C104.33 40.895 103.445 26.9962 96.7845 18.5755C88.7643 8.43613 77.3959 5.24424 64.0933 6.73279C50.7908 8.22128 40.4091 13.8469 34.8283 25.5082C30.1936 35.1929 32.4029 48.9434 33.9391 57.141C33.6689 57.9362 31.1506 63.3185 33.7726 69.3168C39.9805 83.5187 66.721 80.0057 72.2234 79.39Z" fill="#C2C6D2"/>
<path d="M107.743 57.992C107.773 58.9599 107.703 59.99 107.497 61.0664C104.582 76.2908 77.7255 78.7742 72.2243 79.3898C66.7213 80.0055 39.9798 83.5197 33.7722 69.316C33.3436 68.332 33.0496 67.3643 32.8631 66.4314C31.9165 61.6748 33.7135 57.8053 33.9382 57.1411C32.4034 48.9441 30.1943 35.1921 34.8291 25.5074C40.4096 13.8465 50.7911 8.22102 64.0942 6.73247C77.3954 5.24412 88.7635 8.43587 96.7853 18.5747C103.446 26.9954 104.329 40.8959 104.644 49.2293C105.008 49.8238 107.597 53.1771 107.743 57.992Z" fill="#C2C6D2"/>
<path d="M107.743 57.9919C107.773 58.9599 107.703 59.9899 107.497 61.0664C104.582 76.2908 77.7254 78.7742 72.2242 79.3897C66.7212 80.0055 39.9797 83.5196 33.7721 69.3159C33.3435 68.332 33.0495 67.3642 32.863 66.4313C32.8632 66.4333 32.8652 66.433 32.8654 66.435C36.071 72.3069 46.2053 75.7207 51.874 70.7868C55.9845 67.2096 55.6474 63.1665 58.6162 60.0063C60.4782 58.0273 69.6927 56.8711 69.6927 56.8711C69.6927 56.8711 78.9349 55.962 81.1882 57.4806C84.7821 59.9064 85.347 63.924 90.1464 66.5042C96.7655 70.0632 105.893 64.494 107.723 58.0586C107.73 58.0363 107.736 58.0142 107.743 57.9919Z" fill="#A1ACC6"/>
<path d="M59.839 81.0206C57.4753 81.0206 54.9662 80.9134 52.4502 80.6256C42.2489 79.4596 35.7187 75.7623 33.041 69.6366C31.3538 65.7765 31.3701 61.5692 33.0897 57.1313C33.098 57.1098 33.1061 57.0893 33.1137 57.0697C31.2425 47.0232 29.6984 34.3783 34.1082 25.1635C39.4361 14.0308 49.4946 7.56295 64.0047 5.9393C78.5149 4.3154 89.7543 8.40035 97.4108 18.0802C103.748 26.0921 105.037 38.7657 105.433 48.9774C105.445 48.9949 105.457 49.0133 105.47 49.0326C108.128 52.9805 109.074 57.0802 108.281 61.2174C107.024 67.7833 101.472 72.8326 91.7814 76.2247C84.1818 78.8846 76.2427 79.753 72.8525 80.1238L72.3122 80.1833L71.7724 80.2447C69.4499 80.5106 64.9907 81.0206 59.839 81.0206ZM69.9753 7.19125C68.1098 7.19125 66.1787 7.30285 64.1821 7.5262C50.2563 9.08445 40.6226 15.2505 35.5486 25.8528C30.7623 35.8541 33.5384 50.668 34.724 56.9938L34.7626 57.1997L34.6952 57.3979C34.671 57.4691 34.631 57.5735 34.5786 57.7083C33.0169 61.739 32.9917 65.5369 34.5042 68.9969C36.9375 74.5636 43.0364 77.9422 52.6315 79.0391C60.45 79.9324 68.2572 79.0396 71.591 78.6583L72.679 78.5365C76.0148 78.1717 83.8266 77.3172 91.2538 74.7174C100.369 71.5269 105.57 66.8839 106.713 60.9171C107.423 57.2086 106.559 53.5101 104.145 49.9243C104.064 49.8041 104.002 49.7111 103.963 49.647L103.854 49.4687L103.846 49.2594C103.604 42.8279 103.036 27.7666 96.1583 19.0708C89.9118 11.1738 81.1214 7.19125 69.9753 7.19125Z" fill="#363D56"/>
<path d="M59.9688 56.3977C59.9688 56.3977 63.3433 52.386 69.1121 51.5852C74.9153 51.0911 79.0932 54.2577 79.0932 54.2577" fill="#C2C6D2"/>
<path d="M59.9688 56.3977C62.0436 53.4274 65.4856 51.5121 69.0457 50.9901C69.937 50.9363 70.9113 50.9213 71.7951 51.0426C74.4606 51.3651 77.1054 52.4369 79.0933 54.2577C77.44 53.4195 75.695 52.8292 73.8937 52.461C72.3498 52.1598 70.7357 52.0593 69.1789 52.1803C65.7941 52.672 62.6087 54.2232 59.9688 56.3977Z" fill="#363D56"/>
<path d="M59.5823 58.7879C56.0339 62.2345 55.1233 72.9842 61.9847 78.4999C64.1968 80.2782 69.954 83.5749 78.3132 80.6753C84.217 78.6275 88.2889 72.6673 89.8303 72.9991C90.3303 73.1067 91.1423 75.0703 94.0982 74.6309C96.7064 74.2431 99.0971 71.5732 97.184 67.256C97.184 67.256 99.2138 65.9951 98.9775 63.5749C98.7411 61.1548 95.8393 59.4603 92.9415 61.7401C92.7198 61.9145 91.7238 60.6441 88.0841 61.0723C85.8157 61.3391 83.7911 62.3966 82.8986 63.2268C82.8517 62.8079 82.4192 58.9421 79.3989 56.5704" fill="#C2C6D2"/>
<path d="M61.9837 78.5C64.1978 80.2788 69.9539 83.5748 78.3128 80.6752C84.2165 78.6274 88.2882 72.6667 89.8304 72.9997C90.3295 73.1077 91.1424 75.071 94.0985 74.6318C96.7071 74.2429 99.0973 71.5727 97.1832 67.2559C97.1832 67.2559 97.2848 67.1937 97.4372 67.0705C97.9749 66.6364 99.1607 65.4559 98.9779 63.5744C98.7417 61.1541 95.8399 59.4592 92.9423 61.7408C92.7192 61.9134 91.7232 60.6446 88.0849 61.0724C85.8159 61.3402 83.7923 62.3976 82.8995 63.2268C82.8525 62.8074 82.4199 58.9412 79.3985 56.5694C79.3985 56.5694 75.3212 52.785 69.3227 53.4562C63.3241 54.1275 59.5816 58.7869 59.5816 58.7869C58.1411 60.1876 57.1354 62.7929 56.909 65.7611C56.5755 70.1032 57.9101 75.2235 61.9837 78.5Z" fill="#C2C6D2"/>
<g opacity="0.4">
<path d="M63.3578 58.5813C65.7525 57.4985 65.8619 56.5521 69.609 56.1328C73.3562 55.7135 73.6743 56.6121 76.2491 57.1387C76.2491 57.1387 73.7601 53.9194 69.4157 54.4055C65.0714 54.8917 63.3578 58.5813 63.3578 58.5813Z" fill="white"/>
</g>
<g opacity="0.4">
<path d="M88.2119 62.6892C87.6064 62.6751 85.3578 62.8482 82.7614 65.114C78.4925 68.8393 75.4229 63.4994 74.4649 63.7968C73.5068 64.0941 74.9965 71.6747 79.6579 68.9069C80.6696 68.3062 84.7103 65.4317 86.8791 64.5877C88.4765 63.966 89.6726 63.8224 89.6674 63.3097C89.6631 62.8912 88.9134 62.7054 88.2119 62.6892Z" fill="white"/>
</g>
<g opacity="0.4">
<path d="M97.3167 63.7242C97.3167 63.7242 97.4188 62.6928 96.4951 62.332C94.2523 61.4557 92.1428 64.7859 92.6414 65.1784C92.9965 65.4579 94.6884 63.0427 97.3167 63.7242Z" fill="white"/>
</g>
<path d="M94.9373 68.2708C94.9373 68.2708 95.6538 70.6251 94.4158 71.026C93.1778 71.427 92.9043 68.8627 92.9043 68.8627L94.9373 68.2708Z" fill="#363D56"/>
<path d="M61.9836 78.5001C64.1977 80.279 69.9538 83.5749 78.3127 80.6753C84.2164 78.6275 88.2881 72.6669 89.8303 72.9998C90.3294 73.1079 91.1423 75.0712 94.0984 74.6319C96.707 74.2431 99.0973 71.5728 97.1832 67.256C97.1832 67.256 97.2847 67.1939 97.4371 67.0707L96.0314 67.6688C96.0314 67.6688 97.4924 71.7524 94.9088 72.6324C91.1893 73.9026 90.1169 68.8777 89.0525 68.5652C87.394 68.0791 85.4869 72.7981 78.3894 76.2651C70.2697 80.2297 57.9246 76.3646 56.909 65.7614C56.5754 70.1034 57.91 75.2236 61.9836 78.5001Z" fill="#A1ACC6"/>
<path d="M59.5823 58.7879C57.9544 61.0534 57.5653 63.8686 57.5759 66.573C57.6067 71.9422 60.184 77.1712 65.1855 79.5006C69.4028 81.6048 74.4969 81.3816 78.8133 79.63C80.6857 78.846 82.3512 77.6952 83.9348 76.4022C85.0019 75.5345 86.0113 74.5945 87.0953 73.6569C88.0517 72.8694 89.6287 71.373 90.8177 72.7576C92.1603 74.3994 94.8441 74.1809 96.1895 72.6649C97.4376 71.2532 97.2125 69.2835 96.454 67.5794C96.2889 67.2092 96.4333 66.7855 96.7626 66.5777C96.9045 66.4774 97.0558 66.3556 97.1808 66.2323C98.1404 65.3452 98.543 63.8194 97.857 62.6575C96.7977 60.9509 94.7338 61.2727 93.3297 62.4385C93.0806 62.5977 92.6992 62.569 92.4985 62.4775C90.4054 61.3793 87.8024 61.693 85.6397 62.524C84.8668 62.8375 84.0456 63.2701 83.4423 63.8114C83.1161 64.1138 82.6044 64.0914 82.3063 63.7612C82.1897 63.6324 82.123 63.4759 82.105 63.3155C82.1055 62.7297 82.04 62.1166 81.9298 61.515C81.5835 59.666 80.7851 57.9172 79.3987 56.5704C81.0887 57.6349 82.3217 59.3291 83.0767 61.1699C83.3334 61.7995 83.5457 62.4466 83.6919 63.1379L82.3548 62.6421C82.7781 62.2591 83.2123 61.9687 83.661 61.7101C86.3345 60.2134 90.1098 59.5362 92.9662 60.9389L93.0655 60.9847C92.9939 60.9648 92.8836 60.9401 92.7262 60.9772C92.6455 60.9929 92.5162 61.0541 92.4483 61.1122C92.6638 60.9467 92.8858 60.7881 93.1227 60.645C95.7964 58.9183 99.4095 60.1935 99.774 63.5235C99.9593 65.2536 99.0388 66.9857 97.6052 67.9341L97.9138 66.9324C99.3621 70.0053 98.8104 73.7612 95.3554 75.1203C93.1922 75.9064 91.0835 75.485 89.5408 73.7456C89.5311 73.737 89.522 73.729 89.5192 73.7275C89.5151 73.7244 89.5076 73.7176 89.5143 73.7235L89.5422 73.7395L89.5727 73.7524C89.6029 73.7686 89.6359 73.7728 89.6682 73.7817L89.6798 73.7837C89.6893 73.7832 89.6917 73.7852 89.6959 73.7852C89.7067 73.7835 89.7022 73.7859 89.6993 73.7852C89.1701 73.9529 88.6042 74.4885 88.1336 74.8699C87.0972 75.7656 86.0535 76.737 84.9451 77.6385C81.4753 80.5718 77.6235 82.2656 73.0528 82.5785C67.2041 83.0157 60.8325 80.4069 57.9754 75.0775C56.2137 71.8264 55.699 67.9647 56.4675 64.3662C56.9508 62.2862 57.8382 60.1096 59.5823 58.7879Z" fill="#363D56"/>
<path d="M95.5203 67.7811C95.8391 68.8541 96.1957 70.0376 95.5131 71.0817C95.2294 71.4678 94.7281 71.6688 94.2669 71.6708C92.8521 71.6587 92.065 70.1388 92.0939 68.879C92.0913 68.6018 92.2741 68.3002 92.4429 68.1798C93.2366 67.6279 94.1316 67.6435 94.9841 67.3669C96.5947 66.8765 98.1453 65.4318 98.405 63.7458C98.4583 63.4194 98.7661 63.1979 99.0925 63.2512C99.4244 63.3049 99.6475 63.624 99.5843 63.9542C99.4556 64.6821 99.1602 65.3836 98.7439 65.9865C97.9556 67.1121 96.8288 67.9392 95.5475 68.3999C94.8507 68.6174 94.0724 68.7014 93.4062 68.9053C93.2817 68.944 93.1601 69.0024 93.1377 69.0227C93.1263 69.0384 93.1777 68.968 93.1807 68.9151C93.124 69.4108 93.3661 70.0781 93.7256 70.4306C94.0053 70.7128 94.4776 70.7723 94.7443 70.482C94.8535 70.3544 94.9247 70.1077 94.9417 69.835C94.9734 69.2791 94.8463 68.6297 94.6677 68.0625C94.5032 67.5051 95.321 67.2363 95.5203 67.7811Z" fill="#363D56"/>
<path d="M83.4784 63.7757C82.6786 64.4384 81.7437 65.2796 80.6484 65.5061C79.2561 65.8405 77.7074 65.1963 77.0126 63.9704C77.9342 65.0039 79.5735 65.3116 80.7113 64.5158C81.3862 64.0279 81.7964 63.3775 82.3209 62.6751C83.0767 61.7485 84.3669 62.9716 83.4784 63.7757Z" fill="#363D56"/>
<path d="M78.8298 65.4341C76.0238 65.4295 72.872 66.153 71.0028 68.3833C70.414 69.1227 70.0533 70.0492 69.9159 71.0705C69.0384 66.4035 75.0709 63.8088 78.9137 64.9422C79.1936 65.0237 79.1209 65.4515 78.8298 65.4341Z" fill="#363D56"/>
<path d="M84.3656 62.873C82.706 64.5278 80.7332 66.6161 81.2131 69.134C81.379 69.9181 81.8224 70.6485 82.3591 71.3322C79.6423 69.5801 80.0829 66.378 82.0778 64.2312C82.673 63.5648 83.3619 62.9929 84.1267 62.5531C84.223 62.4978 84.346 62.531 84.4013 62.6272C84.4483 62.7092 84.4312 62.8107 84.3656 62.873Z" fill="#363D56"/>
<path d="M93.5824 62.2162C92.9019 62.7591 91.8803 63.4653 91.2778 64.0799C91.4765 63.2335 91.9959 62.0889 92.3005 61.2641C92.464 60.8328 92.9493 60.6173 93.3788 60.7857C93.9736 60.9994 94.0871 61.8481 93.5824 62.2162Z" fill="#363D56"/>
<path d="M88.8674 69.9836C88.8674 69.9836 89.5257 72.7873 91.2145 74.1342L88.8674 69.9836Z" fill="#C2C6D2"/>
<path d="M88.8674 69.9836C89.5121 71.3655 90.376 72.7615 91.7124 73.5101C92.6418 74.0399 91.8998 75.4224 90.9441 74.9394C90.4796 74.6134 90.1743 74.0714 89.9023 73.6236C89.3011 72.4936 88.9869 71.224 88.8674 69.9836Z" fill="#363D56"/>
<path d="M63.0212 63.0599C63.0212 63.0599 65.5878 60.0087 69.9753 59.3997C74.389 59.0239 77.5665 61.4323 77.5665 61.4323" fill="#C2C6D2"/>
<path d="M63.0212 63.0599C64.5252 60.7054 67.1649 59.2096 69.9088 58.8046C72.0139 58.6389 74.1377 59.1077 75.9465 60.1826C76.533 60.5391 77.0975 60.9359 77.5666 61.4323C76.3551 60.8879 75.1081 60.4785 73.8196 60.2277C69.878 59.3344 66.1783 60.6923 63.0212 63.0599Z" fill="#363D56"/>
<path d="M45.1874 31.7758C45.4764 29.8272 48.6403 23.1033 52.5646 25.4518C53.9479 26.2797 53.98 29.0083 52.2452 29.6617C49.7161 30.6142 49.1227 30.3358 45.1874 31.7758Z" fill="#363D56"/>
<path d="M89.2384 24.6856C86.3688 24.8213 83.439 20.679 80.9881 23.2071C79.866 24.3646 80.4587 26.6958 82.2301 27.2423C84.5394 27.9547 87.7213 26.8719 89.2384 24.6856Z" fill="#363D56"/>
<path d="M52.4704 60.8074C56.9275 60.3055 60.0708 55.7261 59.4912 50.579C58.9116 45.432 54.8286 41.6663 50.3715 42.1682C45.9144 42.6701 42.7711 47.2495 43.3507 52.3966C43.9303 57.5436 48.0134 61.3093 52.4704 60.8074Z" fill="#363D56"/>
<path d="M53.9445 56.4467C55.3977 56.2831 56.4078 54.6591 56.2006 52.8194C55.9935 50.9798 54.6475 49.6211 53.1943 49.7848C51.7411 49.9484 50.731 51.5724 50.9382 53.412C51.1454 55.2517 52.4913 56.6104 53.9445 56.4467Z" fill="white"/>
<g opacity="0.2">
<path d="M47.734 51.4295C48.5388 51.3389 49.0776 50.2561 48.9374 49.0111C48.7972 47.7661 48.0311 46.8304 47.2263 46.921C46.4215 47.0116 45.8827 48.0943 46.0229 49.3393C46.1631 50.5843 46.9292 51.5201 47.734 51.4295Z" fill="white"/>
</g>
<path d="M96.4274 50.3534C93.9535 48.4212 90.6713 46.7672 87.6036 47.3562C85.4832 47.7108 83.5961 49.3248 82.1274 51.0395C81.5406 51.699 80.9965 52.4321 80.3277 53.1822C79.5955 47.482 84.5383 42.4353 90.3492 44.0141C93.3306 44.8312 95.8823 47.3038 96.4274 50.3534Z" fill="#363D56"/>
<path d="M116.745 123.418H82.446C80.9378 123.418 79.7152 122.195 79.7152 120.687V70.6581C79.7152 69.1499 80.9379 67.9272 82.446 67.9272H116.745C118.253 67.9272 119.476 69.1499 119.476 70.6581V120.687C119.476 122.195 118.253 123.418 116.745 123.418Z" fill="#EAEAEA"/>
<path d="M82.446 121.359C82.0753 121.359 81.7736 121.057 81.7736 120.687V70.658C81.7736 70.2873 82.0753 69.9857 82.446 69.9857H116.745C117.116 69.9857 117.418 70.2874 117.418 70.658V120.687C117.418 121.058 117.116 121.359 116.745 121.359H82.446Z" fill="white"/>
<path d="M116.22 120.162L116.22 71.1833H82.9713V120.162H116.22Z" fill="white"/>
<path d="M116.745 124.216H82.4461C80.5 124.216 78.9167 122.633 78.9167 120.687V70.6581C78.9167 68.712 80.5 67.129 82.4461 67.129H116.745C118.691 67.129 120.275 68.712 120.275 70.6581V120.687C120.275 122.633 118.691 124.216 116.745 124.216ZM82.4461 68.7257C81.3805 68.7257 80.5137 69.5927 80.5137 70.6581V120.687C80.5137 121.753 81.3805 122.619 82.4461 122.619H116.745C117.811 122.619 118.678 121.753 118.678 120.687V70.6581C118.678 69.5927 117.811 68.7257 116.745 68.7257H82.4461Z" fill="#363D56"/>
<path d="M87.7074 74.3362C87.533 74.6508 87.2651 74.9045 86.9041 75.0974C86.5428 75.2904 86.0944 75.3869 85.5587 75.3869H84.5687V77.7411H82.9712V71.1833H85.5587C86.082 71.1833 86.524 71.2737 86.8853 71.4542C87.2463 71.635 87.5173 71.8839 87.698 72.2015C87.8785 72.5191 87.9689 72.8835 87.9689 73.2945C87.9689 73.6744 87.8816 74.0219 87.7074 74.3362ZM86.1193 73.9016C86.2688 73.7587 86.3435 73.556 86.3435 73.2945C86.3435 73.033 86.2688 72.8307 86.1193 72.6875C85.9697 72.5443 85.7425 72.4724 85.4373 72.4724H84.5687V74.1167H85.4373C85.7425 74.1166 85.9697 74.045 86.1193 73.9016Z" fill="#363D56"/>
<path d="M115.958 116.753C115.784 117.067 115.516 117.321 115.155 117.514C114.794 117.707 114.345 117.803 113.81 117.803H112.82V120.157H111.222V113.6H113.81C114.333 113.6 114.775 113.69 115.136 113.871C115.497 114.051 115.768 114.3 115.949 114.618C116.13 114.935 116.22 115.3 116.22 115.711C116.22 116.091 116.133 116.438 115.958 116.753ZM114.37 116.318C114.52 116.175 114.595 115.972 114.595 115.711C114.595 115.449 114.52 115.247 114.37 115.104C114.221 114.961 113.994 114.889 113.688 114.889H112.82V116.533H113.688C113.994 116.533 114.221 116.461 114.37 116.318Z" fill="#363D56"/>
<path d="M120.01 83.8389C117.493 83.4633 113.628 85.1663 113.553 89.7674C113.497 93.2146 115.452 96.7503 119.476 97.4261V99.3056C122.547 99.0763 124.217 97.0158 124.345 92.0199C124.415 89.3269 123.887 84.4175 120.01 83.8389Z" fill="#C2C6D2"/>
<g opacity="0.7">
<path d="M123.125 97.2827C123.871 96.1156 124.284 94.4022 124.345 92.02C124.415 89.327 123.887 84.4176 120.01 83.839C118.784 83.6561 117.24 83.9679 115.968 84.8658C116.073 84.8408 120.14 83.8936 121.739 86.6307C123.902 90.3362 123.13 97.2377 123.125 97.2827Z" fill="white"/>
</g>
<path d="M116.624 93.6168C113.298 89.7095 116.65 84.4527 116.652 84.4495C114.997 85.304 113.598 87.0179 113.553 89.7675C113.497 93.2147 115.452 96.7504 119.476 97.4262V99.3057C121.88 99.1262 123.425 97.8247 124.044 94.8726C122.348 95.3662 118.695 96.0499 116.624 93.6168Z" fill="#A1ACC6"/>
<path d="M117.534 93.2411C117.517 91.9829 115.761 91.7382 115.761 91.7382C115.761 91.7382 117.146 91.5504 117.418 90.0475C117.689 88.5446 115.737 87.7932 115.737 87.7932C115.737 87.7932 118.045 87.5804 118.179 86.0512C118.247 85.2881 117.493 84.7685 116.685 84.4331C115.015 85.2818 113.598 86.9996 113.553 89.7675C113.519 91.8837 114.243 94.0321 115.738 95.5329C116.679 95.1471 117.55 94.4612 117.534 93.2411Z" fill="#F8FDFF"/>
<path d="M117.298 94.262C117.06 94.0761 116.833 93.8632 116.624 93.6168C113.298 89.7095 116.65 84.4527 116.652 84.4495C114.997 85.304 113.598 87.0179 113.553 89.7675C113.519 91.8837 114.243 94.0321 115.738 95.5328C116.376 95.2715 116.98 94.8717 117.298 94.262Z" fill="#E2EEF2"/>
<path d="M118.678 100.166V98.0753C114.516 97.0389 112.698 93.2244 112.755 89.7545C112.799 87.036 114.031 85.429 115.057 84.5597C116.46 83.3707 118.403 82.7923 120.128 83.0494C123.401 83.5377 125.276 86.899 125.143 92.0404C125.011 97.193 123.176 99.8299 119.535 100.102L118.678 100.166ZM119.306 84.5863C118.187 84.5863 116.977 85.025 116.089 85.7777C114.98 86.7183 114.379 88.1024 114.351 89.7804C114.303 92.7467 115.91 96.0177 119.608 96.6388L120.274 96.7506V98.3858C121.931 98.0057 123.427 96.6754 123.547 91.9994C123.588 90.4044 123.446 85.159 119.892 84.6285H119.892C119.701 84.6002 119.505 84.5863 119.306 84.5863Z" fill="#363D56"/>
<path d="M121.932 97.0159L119.608 98.2136L119.344 96.6387L121.932 97.0159Z" fill="#363D56"/>
</svg>
