<svg width="95" height="100" viewBox="0 0 95 100" fill="none" xmlns="http://www.w3.org/2000/svg">
<path opacity="0.2" d="M48.6681 99.9996C63.975 99.9996 76.3838 98.7951 76.3838 97.3093C76.3838 95.8236 63.975 94.6191 48.6681 94.6191C33.3611 94.6191 20.9524 95.8236 20.9524 97.3093C20.9524 98.7951 33.3611 99.9996 48.6681 99.9996Z" fill="#4C136D"/>
<path d="M89.1678 23.6432C88.7133 24.5037 87.7591 24.9783 86.7955 24.8435L78.1133 23.6295L72.7062 62.2996C71.3812 73.3016 68.0133 78.4696 60.4335 77.6211C60.2369 77.6017 60.0392 77.576 59.8381 77.5459L6.6567 70.1098C-1.94454 68.9071 0.761182 49.5563 9.36246 50.759L17.5234 51.9001L19.8244 35.4439L23.7535 33.9801L20.2844 32.1543L20.7813 28.6001L28.4791 26.8197L21.7706 21.5252L23.5793 8.58973C24.2439 4.78717 25.8247 2.19176 28.5393 1.09166C29.7109 0.617278 30.9935 0.500679 32.2454 0.675734L85.8354 8.16898C91.6249 10.0877 92.1795 17.9422 89.1678 23.6432Z" fill="#EFDECC"/>
<g opacity="0.3">
<path d="M77.4507 13.9746L70.2379 65.5586C70.2379 65.5586 68.4066 79.3558 56.3395 75.0802C44.2724 70.8046 38.4934 65.7017 38.4934 65.7017L38.6061 57.4382C57.1669 60.8452 69.1204 43.186 77.4507 13.9746Z" fill="#4C136D"/>
</g>
<path d="M63.0417 67.5917L54.9953 66.4666C54.0998 70.726 55.0945 73.9352 56.9718 75.8143C57.9379 76.7808 59.1383 77.3956 60.4335 77.621C60.2369 77.6016 60.0391 77.5759 59.838 77.5458L6.65667 70.1097C3.38086 69.6517 1.74358 66.56 1.44984 62.9737C0.972097 57.1472 4.03699 50.0142 9.36243 50.7589L60.9641 57.9741C67.5433 59.5141 68.1498 67.5731 63.0417 67.5917Z" fill="#E0CFBD"/>
<path d="M42.3401 13.7133L41.799 11.5881C42.487 11.4128 43.1894 11.2783 43.8865 11.1885L44.167 13.3638C43.5574 13.4423 42.9427 13.5599 42.3401 13.7133Z" fill="#4C136D"/>
<path d="M47.9764 11.1553L47.7282 13.3331C48.9132 13.4685 50.076 13.7479 51.1853 14.1647L51.9575 12.1125C50.6799 11.6319 49.3379 11.3094 47.9764 11.1553ZM55.5847 14.0169L54.3305 15.8164C55.3081 16.4987 56.1928 17.2988 56.9612 18.1955L58.6265 16.7674C57.737 15.729 56.7146 14.805 55.5847 14.0169ZM60.8736 20.2061L58.8987 21.156C59.4085 22.2177 59.7819 23.349 60.005 24.5176L62.1582 24.1061C61.9007 22.7514 61.4683 21.4388 60.8736 20.2061ZM52.9917 39.3284C51.9585 39.7919 50.8109 40.1528 49.5763 40.401L50.0085 42.5511C51.4025 42.2709 52.7083 41.8596 53.8918 41.3285L52.9917 39.3284ZM45.7663 40.9272C44.3467 41.232 43.0025 41.8755 41.879 42.7834L43.2569 44.49C44.1152 43.7947 45.142 43.3041 46.2274 43.0713L45.7663 40.9272ZM40.8101 48.758C40.8904 48.1834 41.0472 47.6235 41.2768 47.0899L39.2619 46.2244C38.9547 46.9384 38.7452 47.6882 38.638 48.4543C38.5806 48.865 38.552 49.2858 38.554 49.7028C38.5548 49.9707 38.5678 50.2382 38.5894 50.501L40.7738 50.3132C40.758 50.1097 40.7486 49.903 40.7475 49.6955C40.7471 49.3813 40.767 49.066 40.8101 48.758Z" fill="#4C136D"/>
<path d="M61.9846 78.3112C61.2779 78.3112 60.534 78.2529 59.7502 78.1367L6.5739 70.7013C1.73458 70.0247 0.274752 64.3939 0.966292 59.4486C1.65783 54.5034 4.60509 49.4891 9.44525 50.1657L17.0138 51.2239L19.232 35.3603C19.2624 35.1426 19.4097 34.9593 19.6156 34.8826L22.2914 33.8857L20.0058 32.6827C19.7826 32.5653 19.6571 32.3204 19.692 32.0706L20.1889 28.5164C20.2232 28.2711 20.4052 28.0723 20.6466 28.0165L27.1308 26.5167L21.4 21.9938C21.2332 21.8621 21.1488 21.6519 21.1782 21.4414L22.9869 8.50603C22.9879 8.49926 22.989 8.49256 22.9901 8.48586C23.7129 4.34988 25.5043 1.67534 28.3146 0.536424C29.5337 0.0426061 30.9214 -0.114258 32.3282 0.0824218L85.9182 7.57567C85.9541 7.58067 85.9893 7.58889 86.0236 7.60024C88.2255 8.33007 89.8701 9.91094 90.7794 12.172C92.1249 15.5176 91.6998 20.1296 89.6967 23.9216V23.9216C89.1287 24.997 87.9296 25.6048 86.7127 25.435L78.6229 24.3038L73.2986 62.3817C72.4093 69.7694 70.6089 74.2729 67.6337 76.5433C66.0835 77.7261 64.2217 78.3112 61.9846 78.3112ZM8.59691 51.3022C4.97245 51.3022 2.72743 55.4924 2.15106 59.6142C1.53936 63.9888 2.7143 68.9536 6.73952 69.5165L59.9208 76.9526C62.8547 77.3885 65.1384 76.9426 66.9081 75.5922C69.6091 73.531 71.2629 69.2842 72.1124 62.2273L77.521 23.5458C77.5667 23.2186 77.8702 22.9912 78.1962 23.0363L86.8784 24.2503C87.5983 24.351 88.3055 23.9943 88.639 23.3629V23.3629C90.4848 19.8688 90.8893 15.6513 89.6696 12.6184C88.9027 10.7115 87.5299 9.37589 85.6978 8.75276L32.1626 1.26719C30.9634 1.09915 29.7883 1.23025 28.7638 1.64517C26.3299 2.63152 24.8272 4.93309 24.1703 8.68188L22.4105 21.2673L28.8496 26.3493C29.0302 26.4918 29.1129 26.7252 29.0627 26.9496C29.0124 27.174 28.8379 27.3497 28.6138 27.4015L21.3167 29.0893L20.9349 31.8199L24.032 33.4499C24.2407 33.5599 24.3654 33.7821 24.3504 34.0175C24.3353 34.2528 24.1833 34.4574 23.9622 34.5398L20.3673 35.8791L18.1157 51.9821C18.07 52.3092 17.7669 52.5368 17.4405 52.4916L9.27963 51.3505C9.04692 51.318 8.81921 51.3022 8.59691 51.3022Z" fill="#4C136D"/>
<path d="M77.5216 23.5469L78.0547 19.7338L78.3214 17.8271L78.4547 16.8738C78.4942 16.5622 78.5525 16.2266 78.6166 15.8959C78.8789 14.5896 79.3176 13.2836 80.0836 12.1158C80.4732 11.5384 80.9474 10.9981 81.5317 10.5666C82.115 10.1395 82.807 9.81746 83.5502 9.71138C84.2897 9.59343 85.0614 9.68656 85.7529 9.95468C86.4496 10.2165 87.062 10.652 87.5625 11.172C88.5649 12.2256 89.0864 13.6071 89.2446 14.9569C89.3318 15.6343 89.3448 16.3133 89.2847 16.9798C89.2315 17.6468 89.1136 18.3017 88.9495 18.9394C88.6227 20.2161 88.1025 21.4205 87.46 22.5387C87.8286 21.3022 88.1385 20.0625 88.2743 18.814C88.3439 18.1911 88.3735 17.5685 88.3582 16.9536C88.339 16.3386 88.2699 15.7313 88.1425 15.1447C87.8835 13.9746 87.3847 12.8807 86.6281 12.0522C86.246 11.6465 85.802 11.3011 85.3002 11.0976C84.8005 10.8925 84.2573 10.8207 83.7278 10.8946C83.1972 10.9689 82.6909 11.2022 82.2415 11.5295C81.7922 11.8608 81.4059 12.2954 81.0788 12.7795C80.4338 13.7612 80.0288 14.9289 79.7893 16.1316C79.7318 16.4304 79.6791 16.7264 79.6377 17.0509L79.5046 18.0026L79.2385 19.9059L78.7063 23.7126C78.6605 24.0398 78.3582 24.268 78.031 24.2222C77.7039 24.1764 77.4758 23.8741 77.5216 23.5469Z" fill="#4C136D"/>
<g opacity="0.3">
<path d="M87.46 22.5387L78.4421 21.2777L79.0978 16.5881C80.9164 5.26657 92.7951 10.2996 87.46 22.5387Z" fill="#4C136D"/>
</g>
<path d="M69.7088 56.3722C79.5089 56.3722 87.4535 48.4276 87.4535 38.6275C87.4535 28.8274 79.5089 20.8828 69.7088 20.8828C59.9086 20.8828 51.964 28.8274 51.964 38.6275C51.964 48.4276 59.9086 56.3722 69.7088 56.3722Z" fill="#FFB200"/>
<path d="M80.1895 52.3459L75.6728 54.8896L78.1513 59.2905L82.668 56.7468L80.1895 52.3459Z" fill="#4C136D"/>
<path d="M93.079 76.5144L89.6614 78.4383C88.4943 79.0965 87.0162 78.6824 86.3579 77.5154L84.6776 74.5304L77.7813 62.2863C77.123 61.1192 77.5374 59.6391 78.7045 58.9809L82.1221 57.057C82.1373 57.0491 82.1851 57.0235 82.2631 56.9841C83.4049 56.4351 84.7931 56.8587 85.4255 57.9799L94.0019 73.211C94.6601 74.3781 94.2461 75.8563 93.079 76.5144Z" fill="#FEB300"/>
<path d="M83.4321 40.5459C82.8056 45.0262 80.1007 48.7066 76.4274 50.7456C76.4251 50.7473 76.4251 50.7473 76.4229 50.749C73.8846 52.1577 70.886 52.7833 67.7899 52.3503C60.2115 51.2907 54.9258 44.2866 55.9854 36.7082C57.0451 29.1297 64.0492 23.8441 71.6276 24.9037C74.5125 25.3071 77.0635 26.5718 79.0605 28.4011C79.0605 28.4011 79.0605 28.4011 79.0602 28.4031C82.3103 31.378 84.0884 35.8524 83.4321 40.5459Z" fill="#EFDECC"/>
<g opacity="0.3">
<path d="M78.187 27.6658L74.8551 51.495C72.688 52.3657 70.27 52.698 67.7899 52.3512C65.5764 52.0417 63.5587 51.224 61.8367 50.0351C67.414 44.5721 72.0683 36.4534 76.009 26.2822C76.783 26.6783 77.5116 27.1406 78.187 27.6658Z" fill="#4C136D"/>
</g>
<path d="M83.4321 40.5471C82.8056 45.0274 80.1007 48.7078 76.4274 50.7469C77.1379 50.1718 77.2808 48.545 77.2808 48.545L79.6346 31.7117C79.8141 29.8948 79.0951 28.4716 79.0602 28.4043C82.3103 31.3792 84.0884 35.8536 83.4321 40.5471Z" fill="#FBE291"/>
<g opacity="0.2">
<path d="M86.06 68.4173L85.0041 69.0117C84.6436 69.2151 84.1869 69.0872 83.9835 68.7266L83.4643 67.8044L81.3337 64.0215C81.1304 63.661 81.2583 63.2037 81.6189 63.0003L82.6748 62.4059C82.6795 62.4035 82.6943 62.3956 82.7184 62.3834C83.0711 62.2138 83.5 62.3447 83.6954 62.6911L86.3451 67.3968C86.5485 67.7573 86.4206 68.214 86.06 68.4173Z" fill="white"/>
</g>
<path d="M93.079 76.5144L89.6614 78.4383C88.4943 79.0965 87.0161 78.6824 86.3579 77.5153L84.6776 74.5304C86.9369 76.0786 90.9409 74.1547 89.1752 69.0439C88.9374 68.3556 88.6124 67.7006 88.2333 67.0789L82.1221 57.057C82.1373 57.0491 82.1851 57.0235 82.2631 56.9841C83.4049 56.4351 84.7931 56.8587 85.4255 57.9799L94.0019 73.211C94.6601 74.3781 94.2461 75.8562 93.079 76.5144Z" fill="#F28D01"/>
<path d="M88.4765 79.3509C88.2033 79.3509 87.9284 79.3135 87.6581 79.2379C86.8802 79.0206 86.2335 78.5133 85.8371 77.8096L77.2601 62.5799C76.4419 61.127 76.9582 59.2793 78.4109 58.461L81.8276 56.5369C82.5312 56.1406 83.3471 56.042 84.1252 56.2595C84.9031 56.4768 85.5498 56.984 85.9462 57.6878L94.5233 72.9174C95.3415 74.3703 94.8252 76.218 93.3724 77.0363H93.3723L89.9557 78.9604C89.4966 79.2191 88.9896 79.3509 88.4765 79.3509ZM83.3086 57.3432C82.9985 57.3432 82.6922 57.4228 82.4146 57.5793L78.998 59.5034C78.12 59.998 77.808 61.1146 78.3024 61.9928L86.8795 77.2224C87.119 77.6479 87.5099 77.9545 87.98 78.0858C88.4504 78.2172 88.9435 78.1579 89.3687 77.918L92.7854 75.9939C93.6634 75.4994 93.9755 74.3826 93.481 73.5046L84.9038 58.2749C84.6644 57.8495 84.2735 57.5428 83.8033 57.4115C83.6399 57.3659 83.4737 57.3432 83.3086 57.3432Z" fill="#4C136D"/>
<g opacity="0.24">
<path d="M83.4321 40.5459C82.8057 45.0262 80.1007 48.7066 76.4274 50.7456C76.4251 50.7473 76.4251 50.7473 76.4229 50.749C75.9187 51.0289 75.3944 51.2797 74.8551 51.4942C72.688 52.3648 70.27 52.6971 67.7899 52.3503C65.5764 52.0408 63.5587 51.2232 61.8367 50.0342C57.664 47.1497 55.2353 42.0731 55.9854 36.7082C57.0451 29.1297 64.0492 23.8441 71.6276 24.9037C73.1994 25.1235 74.671 25.599 76.009 26.2814C76.783 26.6775 77.5116 27.1397 78.187 27.665C78.4886 27.8984 78.7803 28.1445 79.0605 28.4011C79.0605 28.4011 79.0605 28.4011 79.0602 28.4031C82.3103 31.378 84.0884 35.8524 83.4321 40.5459Z" fill="#4C136D"/>
</g>
<g opacity="0.13">
<path d="M57.1597 37.9132C56.5843 42.0282 57.8807 45.9741 60.3983 48.8889C57.1223 45.9124 55.3264 41.4215 55.9854 36.7082C57.0451 29.1297 64.0492 23.8441 71.6276 24.9037C74.5125 25.3071 77.0635 26.5718 79.0605 28.4011C79.0605 28.4011 79.0605 28.4011 79.0602 28.4031C79.4617 28.7713 79.8401 29.1604 80.1955 29.5705C78.204 27.76 75.669 26.5096 72.802 26.1087C65.2235 25.0491 58.2194 30.3348 57.1597 37.9132Z" fill="#4C136D"/>
</g>
<path d="M87.2825 41.085C85.9255 50.7901 76.9566 57.5585 67.2515 56.2015C61.9024 55.4536 57.4461 52.3945 54.751 48.1725C57.4842 51.6328 61.5002 54.0827 66.2115 54.7415C75.9185 56.0988 84.8855 49.3301 86.2425 39.625C86.8516 35.2691 85.8234 31.0607 83.6266 27.623C86.5262 31.2898 87.9811 36.0894 87.2825 41.085Z" fill="#F28D01"/>
<g opacity="0.6">
<path d="M86.5062 32.9016C84.1525 27.3463 79.0245 23.1303 72.6151 22.2341C62.908 20.8768 53.941 27.6455 52.584 37.3506C52.1862 40.1959 52.486 42.9758 53.3561 45.5213C52.1487 42.6669 51.6748 39.4621 52.135 36.1704C53.492 26.4654 62.461 19.697 72.1661 21.054C79.0218 22.0126 84.4122 26.7706 86.5062 32.9016Z" fill="white"/>
</g>
<path d="M69.7472 56.9745C68.8916 56.9745 68.0309 56.9148 67.1687 56.7944C57.1518 55.3937 50.142 46.1049 51.5426 36.0881C52.2211 31.2358 54.7485 26.9381 58.6594 23.9868C62.5704 21.0355 67.3965 19.7842 72.2488 20.4622C77.1011 21.1407 81.3989 23.6681 84.3502 27.579C87.3016 31.4899 88.5534 36.316 87.8749 41.1683C87.1964 46.0206 84.6689 50.3183 80.758 53.2697C77.542 55.6967 73.7066 56.9745 69.7472 56.9745ZM69.6728 21.4786C65.9713 21.4786 62.3865 22.6728 59.3801 24.9417C55.7243 27.7005 53.3616 31.7179 52.7274 36.2538C51.4182 45.6173 57.9708 54.3003 67.3343 55.6096C71.8706 56.244 76.3816 55.0738 80.0374 52.3148C83.6932 49.5559 86.0559 45.5386 86.6901 41.0027C87.3244 36.4668 86.1543 31.9554 83.3954 28.2996C80.6365 24.6438 76.6191 22.2811 72.0832 21.6469C71.2775 21.5343 70.4723 21.4786 69.6728 21.4786Z" fill="#4C136D"/>
<path d="M69.7184 52.9841C69.0589 52.9841 68.3922 52.9386 67.7209 52.8446C59.8816 51.7485 54.3956 44.479 55.4918 36.6398C56.588 28.8006 63.8575 23.3153 71.6966 24.4108C75.4941 24.9418 78.8575 26.9198 81.1673 29.9805C83.4771 33.0411 84.4567 36.8182 83.9257 40.6156C82.9235 47.7836 76.7596 52.9841 69.7184 52.9841ZM69.6997 25.2684C63.147 25.2684 57.4118 30.1072 56.4791 36.7779C55.4591 44.0727 60.5641 50.8374 67.859 51.8576C68.4832 51.9447 69.1044 51.9872 69.7177 51.9872C76.2704 51.9877 82.0057 47.1482 82.9385 40.4776C83.9585 33.1827 78.8535 26.4181 71.5586 25.3981C70.9344 25.3108 70.3129 25.2684 69.6997 25.2684Z" fill="#4C136D"/>
<path d="M64.6006 27.5129L61.7439 27.3252C61.7196 27.8183 61.6728 28.3224 61.6034 28.8187C61.4815 29.6911 61.2863 30.5792 61.024 31.4579L63.788 32.195C64.0816 31.2054 64.3033 30.2033 64.4414 29.2155C64.5205 28.65 64.5744 28.0763 64.6006 27.5129Z" fill="#4C136D"/>
<path d="M59.2804 35.1973C58.4708 36.3595 57.4878 37.3892 56.3544 38.252L58.2451 40.2318C59.591 39.2035 60.7611 37.9834 61.7191 36.6066L59.2804 35.1973Z" fill="#4C136D"/>
<g opacity="0.3">
<path d="M83.4321 40.5468C82.3724 48.1253 75.3683 53.4109 67.7899 52.3512C60.2115 51.2916 54.9258 44.2875 55.9854 36.7091C55.9962 36.632 56.007 36.555 56.0194 36.4803C55.4396 43.2762 60.273 49.4118 67.107 50.3674C74.174 51.3555 80.7052 46.4285 81.6936 39.3595C82.66 32.4485 77.9663 26.0486 71.1487 24.8457C71.3075 24.8619 71.4677 24.8823 71.6276 24.9046C79.2061 25.9643 84.4918 32.9684 83.4321 40.5468Z" fill="#4C136D"/>
</g>
<path d="M76.4229 51.2492C76.277 51.2492 76.1324 51.1855 76.034 51.063C75.8615 50.8484 75.8957 50.5347 76.1103 50.3621C76.5074 50.0432 76.7345 49.0509 76.7844 48.5004C76.7851 48.4923 76.7861 48.4838 76.7872 48.4758L79.1395 31.6526C79.3041 29.9639 78.6263 28.6472 78.6195 28.6341C78.4918 28.3903 78.5858 28.089 78.8297 27.9612C79.0733 27.8337 79.3748 27.9276 79.5026 28.1714C79.5364 28.2359 80.3279 29.7738 80.1306 31.7609C80.1299 31.7675 80.1292 31.7741 80.1283 31.7806L77.7762 48.6019C77.7535 48.8448 77.5723 50.4664 76.7348 51.1394C76.6427 51.2133 76.5324 51.2492 76.4229 51.2492Z" fill="#4C136D"/>
<path opacity="0.6" d="M70.768 40.0071C66.1067 43.5247 61.5764 45.2089 59.396 42.3198C57.2156 39.4305 59.2268 34.2368 63.8881 30.7191C68.5494 27.2015 74.0957 26.692 76.276 29.5812C78.4564 32.4704 75.4292 36.4894 70.768 40.0071Z" fill="url(#paint0_linear_194_5392)"/>
<g opacity="0.83">
<path d="M66.4648 37.0497C67.8004 35.5445 68.132 33.6577 67.2054 32.8355C66.2788 32.0134 64.4449 32.5671 63.1093 34.0723C61.7737 35.5776 61.4421 37.4644 62.3687 38.2865C63.2953 39.1087 65.1292 38.555 66.4648 37.0497Z" fill="white"/>
</g>
<path d="M60.4341 78.2188C60.4001 78.2188 60.3657 78.2157 60.331 78.2098C58.4268 77.8791 56.7589 76.7842 55.635 75.1267C54.5657 73.5499 53.4851 70.746 54.41 66.3424C54.4747 66.0346 54.7674 65.8295 55.0781 65.8729L63.0809 66.9919C64.6254 66.9707 65.6482 66.059 65.8203 64.5462C66.0823 62.243 64.2965 59.3791 60.8538 58.5606L17.4407 52.4903C17.1135 52.4446 16.8853 52.1423 16.9311 51.815C16.9768 51.4879 17.2803 51.2603 17.6063 51.3055L61.047 57.3797C61.0651 57.3822 61.0829 57.3856 61.1006 57.3897C65.3634 58.388 67.3263 61.8916 67.0089 64.6814C66.7637 66.8369 65.2444 68.1808 63.0439 68.1884C63.017 68.1906 62.9871 68.1867 62.959 68.1827L55.4756 67.1362C54.9736 70.0305 55.3757 72.6131 56.625 74.4553C57.5652 75.8416 58.9541 76.7564 60.5358 77.0311C60.8612 77.0877 61.0793 77.3974 61.0227 77.7228C60.9722 78.0137 60.7195 78.2186 60.4341 78.2188Z" fill="#4C136D"/>
<path d="M54.4115 66.3358C54.7413 65.1238 55.2664 63.9588 56.0333 62.9639C56.7915 61.9717 57.7791 61.1278 58.9547 60.6683C59.5397 60.4432 60.1708 60.3088 60.8023 60.3488C61.4307 60.3843 62.0527 60.5749 62.5685 60.9207C63.085 61.2661 63.4951 61.7373 63.7997 62.2555C64.1058 62.775 64.3131 63.3399 64.4618 63.9139C64.2655 63.354 64.0126 62.814 63.6743 62.3369C63.3377 61.8604 62.9109 61.4515 62.4139 61.1767C61.9166 60.9013 61.3512 60.7827 60.7965 60.7974C60.2391 60.8082 59.693 60.9745 59.1926 61.2169C58.1871 61.7109 57.3679 62.5382 56.7675 63.4794C56.1588 64.4226 55.7812 65.4993 55.5792 66.5953L55.5781 66.6014C55.5182 66.9267 55.206 67.1417 54.8808 67.0818C54.5555 67.0219 54.3405 66.7097 54.4004 66.3845C54.4033 66.3684 54.4073 66.3513 54.4115 66.3358Z" fill="#4C136D"/>
<g opacity="0.3">
<path d="M54.9954 66.4664C56.3518 60.3648 62.7698 58.162 64.4618 63.9147C64.4618 63.9147 65.2623 66.8283 62.9469 67.3098C60.6316 67.7913 54.9954 66.4664 54.9954 66.4664Z" fill="#4C136D"/>
</g>
<path d="M37.0838 13.4977L39.31 12.0226C39.5184 11.8845 39.5753 11.6037 39.4373 11.3953L38.2485 9.60141C38.1105 9.39306 37.8297 9.33607 37.6214 9.47412L35.0813 11.1572L33.1002 8.84193C32.9378 8.65202 32.6521 8.62981 32.4622 8.7923L30.827 10.1914C30.6371 10.3539 30.6149 10.6395 30.7774 10.8295L32.5136 12.8587L30.2874 14.3338C30.079 14.4719 30.022 14.7527 30.1601 14.9611L31.3488 16.755C31.4869 16.9634 31.7677 17.0203 31.976 16.8823L34.5162 15.1991L36.4972 17.5145C36.6597 17.7044 36.9453 17.7266 37.1352 17.5641L38.7704 16.165C38.9603 16.0025 38.9825 15.7168 38.82 15.5269L37.0838 13.4977Z" fill="#CE2828"/>
<path d="M43.6178 54.6966L43.1628 55.3879C43.1628 55.3879 42.6389 55.679 42.5349 55.6021C42.5058 55.5799 42.4143 55.5429 42.2975 55.5004C42.0102 55.3958 41.5758 55.2626 41.5758 55.2626L40.3871 55.0964C40.3138 55.0157 40.2453 54.9296 40.1774 54.8396C40.1296 54.7785 40.084 54.7158 40.0384 54.6531L41.8251 53.3789C42.1447 53.8283 42.518 54.1824 42.938 54.4324C42.938 54.4324 43.208 54.5748 43.6178 54.6966Z" fill="#4C136D"/>
<g opacity="0.3">
<path d="M58.1963 77.3071C58.1963 77.3071 58.194 77.3088 58.1893 77.3142L6.6567 70.1086C3.38089 69.6506 1.74361 66.5589 1.44987 62.9727C1.45185 62.9729 1.45185 62.9729 1.45185 62.9729C5.59401 71.0714 40.8622 73.7983 55.1896 62.3838C52.3036 66.5381 52.6712 75.2119 56.9718 75.8133L58.1963 77.3071Z" fill="#4C136D"/>
</g>
<g opacity="0.25">
<path d="M33.5285 61.2565C33.1778 63.7647 27.6113 65.0594 21.0954 64.1483C14.5795 63.2372 9.5816 60.4653 9.9323 57.9571C10.283 55.4489 14.6171 55.4092 21.133 56.3203C27.649 57.2314 33.8793 58.7483 33.5285 61.2565Z" fill="white"/>
</g>
<defs>
<linearGradient id="paint0_linear_194_5392" x1="63.4458" y1="32.9206" x2="72.3578" y2="39.0516" gradientUnits="userSpaceOnUse">
<stop stop-color="white"/>
<stop offset="1" stop-color="#F1F2F2"/>
</linearGradient>
</defs>
</svg>
