<svg width="134" height="139" viewBox="0 0 134 139" fill="none" xmlns="http://www.w3.org/2000/svg">
<path d="M67.0225 56.6597C67.0225 56.6597 100.316 60.1661 108.384 62.0427C110 62.4185 110.427 63.4767 110.427 65.0342C110.427 67.0767 110.427 101.187 110.427 101.187C110.427 101.187 77.4906 117.898 69.7288 120.319C69.1092 120.513 68.1118 120.796 67.0224 120.796C65.9331 120.796 64.9357 120.513 64.316 120.319C56.5543 117.898 23.6181 101.187 23.6181 101.187C23.6181 101.187 23.6181 67.0767 23.6181 65.0342C23.6181 63.4767 24.045 62.4185 25.6607 62.0427C33.7289 60.1661 67.0225 56.6597 67.0225 56.6597Z" fill="white"/>
<path d="M67.0225 121.796C65.8423 121.796 64.7971 121.517 64.0183 121.274C56.2659 118.856 24.5137 102.763 23.1658 102.079L22.6182 101.801V65.0343C22.6182 64.2154 22.6182 61.7236 25.4341 61.0688C33.47 59.1997 65.5557 55.8087 66.9177 55.6653L67.0225 55.6543L67.1272 55.6653C68.4893 55.8087 100.575 59.1997 108.611 61.0688C111.427 61.7236 111.427 64.2154 111.427 65.0343V101.801L110.879 102.079C109.531 102.763 77.7791 118.856 70.0266 121.274C69.2478 121.517 68.2026 121.796 67.0225 121.796ZM24.6182 100.573C28.9492 102.761 57.565 117.166 64.614 119.365C65.2573 119.565 66.1126 119.796 67.0225 119.796C67.9324 119.796 68.7876 119.565 69.4309 119.365C76.48 117.166 105.096 102.761 109.427 100.573V65.0343C109.427 63.5697 109.018 63.2168 108.158 63.0168C100.465 61.2275 69.0908 57.8846 67.0225 57.6654C64.9541 57.8846 33.5799 61.2275 25.8872 63.0168C25.0274 63.2168 24.6182 63.5697 24.6182 65.0343V100.573Z" fill="#070766"/>
<path d="M67.0225 56.6597C67.0225 56.6597 100.316 60.1661 108.384 62.0427C110 62.4185 110.427 63.4767 110.427 65.0342C110.427 67.0767 110.427 101.187 110.427 101.187C110.427 101.187 77.4906 117.898 69.7288 120.319C69.1092 120.513 68.1118 120.796 67.0224 120.796C65.9331 120.796 64.9357 120.513 64.316 120.319C56.5543 117.898 23.6181 101.187 23.6181 101.187C23.6181 101.187 23.6181 67.0767 23.6181 65.0342C23.6181 63.4767 24.045 62.4185 25.6607 62.0427C33.7289 60.1661 67.0225 56.6597 67.0225 56.6597Z" fill="#FFB164"/>
<path d="M38.5629 61.0854L31.8395 62.5323L67.0225 69.8684L101.644 62.5833L85.4054 59.3833L38.5629 61.0854Z" fill="#D87E2E"/>
<g opacity="0.6">
<path d="M26.7161 63.3477L25.4225 64.0809L64.265 74.6341L67.0225 96.0809L71.2488 74.7339L108.486 64.2171L107.731 63.3477L67.0225 71.9107L26.7161 63.3477Z" fill="white"/>
</g>
<path d="M26.7234 90.1577L26.7161 99.1452C26.7161 99.1452 65.5927 117.018 67.0225 117.12C68.4523 117.222 107.32 99.1026 107.32 99.1026V90.9749L67.0225 105.164L26.7234 90.1577Z" fill="#D87E2E"/>
<path d="M71.8225 97.0001L75.3969 79.0256L107.261 69.8682V86.2767L71.8225 97.0001Z" fill="#FFC280"/>
<path d="M26.725 85.3067V68.2344L59.2011 78.0649L61.2675 97.0003L26.725 85.3067Z" fill="#FFC280"/>
<path d="M67.0225 121.796C65.8423 121.796 64.7971 121.517 64.0183 121.274C56.2659 118.856 24.5137 102.763 23.1658 102.079L22.6182 101.801V65.0343C22.6182 64.2154 22.6182 61.7236 25.4341 61.0688C33.47 59.1997 65.5557 55.8087 66.9177 55.6653L67.0225 55.6543L67.1272 55.6653C68.4893 55.8087 100.575 59.1997 108.611 61.0688C111.427 61.7236 111.427 64.2154 111.427 65.0343V101.801L110.879 102.079C109.531 102.763 77.7791 118.856 70.0266 121.274C69.2478 121.517 68.2026 121.796 67.0225 121.796ZM24.6182 100.573C28.9492 102.761 57.565 117.166 64.614 119.365C65.2573 119.565 66.1126 119.796 67.0225 119.796C67.9324 119.796 68.7876 119.565 69.4309 119.365C76.48 117.166 105.096 102.761 109.427 100.573V65.0343C109.427 63.5697 109.018 63.2168 108.158 63.0168C100.465 61.2275 69.0908 57.8846 67.0225 57.6654C64.9541 57.8846 33.5799 61.2275 25.8872 63.0168C25.0274 63.2168 24.6182 63.5697 24.6182 65.0343V100.573Z" fill="#070766"/>
<path d="M66.4224 118.234C66.19 107.547 66.1683 94.2405 66.0763 83.4916L66.0224 71.9109C66.0198 71.3587 66.4655 70.9088 67.0177 70.9063C67.5701 70.9037 68.0198 71.3494 68.0224 71.9016C67.9335 86.6627 67.9078 103.515 67.6225 118.234C67.5919 118.988 66.4666 119.028 66.4224 118.234Z" fill="#070766"/>
<path d="M67.0225 72.9327L66.8167 72.8892L23.9659 63.8757C23.4253 63.7619 23.0794 63.2316 23.1932 62.6912C23.3069 62.1508 23.8377 61.8052 24.3775 61.9184L67.0225 70.8889L109.668 61.9184C110.207 61.8055 110.738 62.1508 110.852 62.6912C110.966 63.2316 110.62 63.7619 110.079 63.8757L67.0225 72.9327Z" fill="#070766"/>
<path d="M40.8987 91.5223V67.7123C40.8987 66.9342 41.3861 66.2394 42.1178 65.9745L54.3075 61.562L63.8224 62.8972L51.1216 67.859C50.4121 68.1362 49.9453 68.8203 49.9459 69.582L49.966 93.5305C49.9665 94.2195 49.3067 94.717 48.6444 94.5268L41.6485 92.5178C41.2046 92.3903 40.8987 91.9842 40.8987 91.5223Z" fill="#FFE2C0"/>
<path d="M40.8987 76.7687L49.9525 77.3528L49.951 75.561L40.8987 73.9341V76.7687Z" fill="#FFF6EE"/>
<path d="M50.9385 67.947L42.8765 65.6997L42.1178 65.9743C41.3861 66.2392 40.8987 66.934 40.8987 67.7122V70.863L49.9491 73.3063L49.946 69.5819C49.9454 68.8887 50.3343 68.2634 50.9385 67.947Z" fill="#FFF6EE"/>
<path d="M51.1216 67.859L63.8225 62.8972L54.3076 61.562L45.0068 64.9287L50.9384 66.3344L48.299 67.9961V92.4046L40.8987 90.5543V91.5223C40.8987 91.9842 41.2045 92.3903 41.6485 92.5178L48.6444 94.5268C49.3067 94.717 49.9665 94.2195 49.966 93.5305L49.9459 69.582C49.9453 68.8203 50.4121 68.1362 51.1216 67.859Z" fill="#D3A16E"/>
<path d="M48.9358 95.5685C48.7469 95.5685 48.5562 95.5419 48.3684 95.488L41.3723 93.4789C40.5046 93.2292 39.8987 92.4247 39.8987 91.5221V67.7122C39.8987 66.5169 40.6538 65.4406 41.7778 65.0341L54.2007 60.5371L67.7461 62.4379L51.4853 68.7902C51.1574 68.9183 50.9458 69.2288 50.946 69.5808L50.966 93.5297C50.9665 94.1752 50.6711 94.7682 50.1557 95.1569C49.7964 95.4277 49.3709 95.5685 48.9358 95.5685ZM54.4146 62.5867L42.4583 66.9147C42.1236 67.0358 41.8987 67.3563 41.8987 67.7122V91.5222C41.8987 91.538 41.9095 91.5522 41.9248 91.5568L48.9204 93.5656C48.9277 93.5681 48.9373 93.5708 48.9517 93.5598C48.9661 93.549 48.9661 93.539 48.9661 93.5312L48.9461 69.5827C48.9449 68.4002 49.656 67.3579 50.7576 66.9274L59.8989 63.3564L54.4146 62.5867Z" fill="#070766"/>
<path d="M50.1208 69.3056C47.5964 69.0789 45.1174 68.424 42.7985 67.3991C42.6034 67.3131 42.6775 66.9997 42.889 67.0095C45.4222 67.1119 47.936 67.6169 50.3019 68.5263C50.718 68.7013 50.5681 69.3335 50.1208 69.3056Z" fill="#070766"/>
<path d="M68.6054 67.0256C68.6054 67.0256 93.5293 62.066 95.3884 61.5746C97.465 61.0256 98.3757 60.5746 98.3757 59.098C98.3757 57.5533 98.3757 33.2554 98.3757 30.9065C98.3757 28.498 96.8565 28.1022 95.2607 27.8256C93.8253 27.5768 67.0225 24.5405 67.0225 24.5405C67.0225 24.5405 40.2195 27.5768 38.7841 27.8256C37.1884 28.1022 35.6693 28.498 35.6693 30.9065C35.6693 33.2554 35.6693 57.5533 35.6693 59.098C35.6693 60.5746 36.5799 61.0256 38.6565 61.5746C40.5155 62.066 65.4395 67.0256 65.4395 67.0256C65.4395 67.0256 66.3672 67.1851 67.0225 67.1851C67.6778 67.1851 68.6054 67.0256 68.6054 67.0256Z" fill="#FFB164"/>
<path d="M46.5379 28.2595L42.5118 28.7788L66.8693 34.2682L91.7374 28.7788L74.9884 26.8384L46.5379 28.2595Z" fill="#D87E2E"/>
<g opacity="0.6">
<path d="M38.1203 28.9565L37.7629 29.468L63.9248 37.2069L67.0225 56.1744L69.5416 37.5956L95.8457 29.5814L95.9246 28.9565L67.0225 35.8254L38.1203 28.9565Z" fill="white"/>
</g>
<path d="M71.725 52.3785L72.9459 41.4427L95.542 35.2896V48.081L71.725 52.3785Z" fill="#FFC280"/>
<path d="M62.3164 53.2651L60.6906 40.4334L38.5815 35.2896V48.6938L62.3164 53.2651Z" fill="#FFC280"/>
<path d="M38.5815 54.0044V58.7967L67.0225 64.6256L95.542 58.5998V54.2086L67.0225 59.3831L38.5815 54.0044Z" fill="#D87E2E"/>
<path d="M67.0225 68.1852C66.2903 68.1852 65.3113 68.0183 65.27 68.0111L65.2444 68.0063C64.2253 67.8037 40.2685 63.035 38.4009 62.5414C36.7383 62.1019 34.6692 61.5549 34.6692 59.098V30.9065C34.6692 27.524 37.2348 27.0793 38.6133 26.8403C40.061 26.5895 65.8142 23.671 66.9099 23.5469L67.0224 23.5342L67.135 23.5469C68.2307 23.671 93.9839 26.5895 95.4316 26.8403C96.8101 27.0793 99.3757 27.524 99.3757 30.9065V59.098C99.3757 61.5549 97.3066 62.1019 95.644 62.5414C93.7763 63.035 69.8196 67.8037 68.8005 68.0063L68.7749 68.0111C68.7336 68.0183 67.7547 68.1852 67.0225 68.1852ZM65.6211 66.0421C65.8684 66.084 66.5655 66.1852 67.0225 66.1852C67.4795 66.1852 68.1765 66.084 68.4238 66.0421C69.1238 65.9028 93.3418 61.0813 95.1328 60.6078C97.3757 60.0149 97.3757 59.7085 97.3757 59.098V30.9065C97.3757 29.3609 96.7141 29.0925 95.0898 28.811C93.9822 28.619 76.3137 26.5996 67.0224 25.5469C57.7312 26.5996 40.0627 28.619 38.955 28.811C37.3308 29.0925 36.6691 29.361 36.6691 30.9065V59.098C36.6691 59.7085 36.6691 60.0149 38.912 60.6078C40.7031 61.0813 64.9211 65.9028 65.6211 66.0421Z" fill="#070766"/>
<path d="M36.7182 28.0177L67.2022 34.8418L67.8314 34.9827L67.8225 35.6213L67.4225 64.4214C67.4194 64.6423 67.2379 64.819 67.017 64.8159C66.7999 64.8129 66.6257 64.637 66.6226 64.4214L66.2226 35.6213L66.8428 36.4009L36.4487 29.1871C35.7089 29.0009 35.9238 27.8665 36.7182 28.0177Z" fill="#070766"/>
<path d="M97.5962 29.1873L67.2022 36.4011L67.8225 35.6215L67.4225 64.4216C67.4194 64.6425 67.2379 64.8192 67.0169 64.8161C66.7999 64.8131 66.6257 64.6372 66.6226 64.4216L66.2226 35.6215L66.2137 34.9829L66.8428 34.842L97.3267 28.0179C98.0791 27.8671 98.3725 28.9771 97.5962 29.1873Z" fill="#070766"/>
<path d="M81.2889 52.8114L85.5822 51.9858C86.2644 51.8546 86.7496 51.2463 86.7257 50.552L86.09 32.0535C86.0729 31.5562 85.7569 31.1187 85.2903 30.9461L77.4054 28.0303L69.5076 29.426L78.0915 32.6518C78.5091 32.8087 78.7929 33.1995 78.8128 33.6451L79.6131 51.4892C79.6517 52.3488 80.444 52.9739 81.2889 52.8114Z" fill="#FFE2C0"/>
<path d="M86.09 32.0532C86.0729 31.556 85.7569 31.1184 85.2903 30.9459L85.1476 30.8931L78.286 32.7502C78.5943 32.9416 78.7962 33.2731 78.8129 33.6448L78.9099 35.8075L86.1691 34.3532L86.09 32.0532Z" fill="#FFF6EE"/>
<path d="M86.2389 36.3877L78.9965 37.7401L79.0867 39.751L86.318 38.6876L86.2389 36.3877Z" fill="#FFF6EE"/>
<path d="M69.7754 29.5266L78.0916 32.6518C78.5091 32.8087 78.7929 33.1994 78.8129 33.645L79.6132 51.4892C79.6518 52.3487 80.4441 52.9739 81.289 52.8114L85.5822 51.9858C86.2645 51.8546 86.7496 51.2462 86.7258 50.5519L86.7197 50.3758L81.1672 51.2473L80.1869 33.4498C80.1463 32.714 79.7023 32.061 79.033 31.7527L75.7544 30.243L72.1363 28.9614L69.7498 29.3832L69.7754 29.5266Z" fill="#D3A16E"/>
<path d="M85.018 30.8454L77.4054 28.0303L69.5076 29.426L77.8329 32.5546L85.018 30.8454Z" fill="#D3A16E"/>
<path d="M81.022 53.6367C80.5291 53.6367 80.0464 53.4718 79.6528 53.1612C79.1484 52.7631 78.8427 52.1666 78.8139 51.5248L78.0134 33.6809C78.008 33.5548 77.9282 33.4449 77.8101 33.4006L66.4904 29.1467L77.4797 27.2046L85.5679 30.1957C86.3423 30.4821 86.8613 31.2004 86.8897 32.0259L87.5252 50.5244C87.5628 51.6194 86.8094 52.5643 85.7334 52.7714L81.4402 53.5969C81.3013 53.6236 81.1611 53.6367 81.022 53.6367ZM72.5247 29.705L78.3731 31.9028C79.0916 32.1728 79.5779 32.8427 79.6121 33.6096L80.4126 51.4532C80.4234 51.696 80.5622 51.8407 80.644 51.9053C80.7261 51.97 80.8989 52.0712 81.1379 52.0256L85.4311 51.2001C85.7282 51.1429 85.9366 50.882 85.926 50.5795L85.2905 32.0808C85.2846 31.9075 85.1755 31.7566 85.0129 31.6964L77.3313 28.8557L72.5247 29.705Z" fill="#070766"/>
<path d="M79.916 32.8049C80.8713 32.3731 81.8613 32.0642 82.8641 31.7811C83.8684 31.5057 84.8741 31.2686 85.928 31.2877C86.1553 31.2935 86.335 31.4826 86.3291 31.71C86.325 31.8684 86.2316 32.0038 86.0987 32.0694C85.1486 32.5257 84.1355 32.7294 83.1078 32.8978C82.0782 33.0583 81.0498 33.1901 80.0013 33.1957C79.786 33.1988 79.7194 32.8904 79.916 32.8049Z" fill="#070766"/>
<path d="M65.6693 32.5702C65.6693 32.5702 66.2182 32.6915 67.0225 32.6915C67.8267 32.6915 68.3757 32.5702 68.3757 32.5702C68.3757 32.5702 85.5204 29.0341 87.507 28.2595C89.1385 27.6234 89.465 26.8384 89.465 25.6894C89.465 24.5405 89.465 9.31065 89.465 7.14045C89.465 4.6894 88.6352 4.25535 86.7198 3.9135C85.217 3.6453 67.0225 1 67.0225 1C67.0225 1 48.8279 3.6453 47.3251 3.9135C45.4097 4.25535 44.5799 4.6894 44.5799 7.14045C44.5799 9.31065 44.5799 24.5405 44.5799 25.6894C44.5799 26.8384 44.9064 27.6234 46.5379 28.2595C48.5246 29.034 65.6693 32.5702 65.6693 32.5702C65.6693 32.5702 66.2182 32.6915 67.0225 32.6915C67.8267 32.6915 68.3757 32.5702 68.3757 32.5702" fill="#FFB164"/>
<path d="M65.6039 2.40039L80.8097 4.71054L67.6347 6.71489L52.282 4.71054L65.6039 2.40039Z" fill="#FFC280"/>
<path d="M86.7266 18.7365V10.0557L70.9144 13.6113L69.5076 21.9892L86.7266 18.7365Z" fill="#FFC280"/>
<path d="M47.2104 18.7365V10.0557L62.3164 13.4525L63.9586 21.9365L47.2104 18.7365Z" fill="#FFC280"/>
<g opacity="0.6">
<path d="M46.2565 5.23687L66.6863 8.20007L87.8906 5.05322L88.0948 5.62987L68.7586 10.3618L66.6863 23.8767L64.9799 10.2597L45.7799 5.73202L46.2565 5.23687Z" fill="white"/>
</g>
<path d="M47.2104 22.3657V25.7433L66.6863 30.0584L86.7266 25.7447V22.4723L66.6863 26.3532L47.2104 22.3657Z" fill="#D87E2E"/>
<path d="M67.0225 33.6915C66.1348 33.6915 65.5208 33.5616 65.4536 33.5467C63.7039 33.186 48.1821 29.9738 46.1746 29.1913C44.3557 28.482 43.5798 27.4346 43.5798 25.6894V7.14058C43.5798 4.13583 44.8345 3.34238 47.1494 2.92903C48.6509 2.66108 66.135 0.118625 66.8787 0.010425C66.9739 -0.003475 67.0711 -0.003475 67.1663 0.010425C67.9099 0.118575 85.3941 2.66108 86.8955 2.92903C89.2105 3.34238 90.4651 4.13583 90.4651 7.14058V25.6894C90.4651 27.4347 89.6892 28.482 87.8704 29.1913C85.8645 29.9733 70.3677 33.1805 68.5823 33.5487C68.5798 33.5493 68.5769 33.5499 68.5735 33.5507C68.4995 33.5668 67.9131 33.6871 67.0691 33.6914C67.0535 33.6915 67.0371 33.6914 67.0225 33.6915ZM66.9775 31.6914C66.9924 31.6915 67.0073 31.6915 67.0224 31.6915C67.6936 31.6915 68.1591 31.5939 68.1638 31.593C68.1679 31.5921 68.1721 31.5913 68.1765 31.5904C72.9421 30.6073 85.58 27.9376 87.1437 27.3279C88.4037 26.8365 88.465 26.4068 88.465 25.6894V7.14058C88.465 5.30488 88.1293 5.18098 86.5439 4.89803C85.1442 4.64813 68.7402 2.26048 67.0224 2.01058C65.3046 2.26048 48.9006 4.64818 47.5009 4.89803C45.9154 5.18098 45.5797 5.30488 45.5797 7.14058V25.6894C45.5797 26.4068 45.641 26.8365 46.901 27.328C48.4662 27.9381 61.1254 30.612 65.871 31.5909C65.8722 31.5913 65.8732 31.5913 65.8747 31.5917C65.9194 31.6008 66.3552 31.6873 66.9775 31.6914Z" fill="#070766"/>
<path d="M88.4686 5.64694C88.3306 5.66504 66.8041 8.99339 66.6864 9.00944C66.5948 8.99899 45.0093 5.66044 44.9038 5.64689C44.1483 5.51604 44.2814 4.37398 45.0763 4.45928L66.8011 7.40823H66.5715L88.2963 4.45928C89.0567 4.36828 89.2555 5.50384 88.4686 5.64694Z" fill="#070766"/>
<path d="M67.4863 8.20021L67.0863 30.2427C67.0682 30.7513 66.3095 30.7687 66.2863 30.2427L65.8863 8.20027C65.9 7.12957 67.4687 7.11846 67.4863 8.20021Z" fill="#070766"/>
<path d="M57.4067 20.2275L53.9828 19.3948C53.5612 19.2923 53.2599 18.921 53.2464 18.4873L52.8996 7.35408C52.8771 6.63178 53.3749 5.99694 54.0817 5.84644L72.8494 1.85059L79.5413 2.83098L59.1179 6.88648C58.7535 6.95883 58.4922 7.28009 58.4955 7.65154L58.5995 19.2814C58.6051 19.91 58.0176 20.376 57.4067 20.2275Z" fill="#FFE2C0"/>
<path d="M63.4526 3.85129L68.6231 4.99899L75.1244 3.70799L70.0331 2.4502L63.4526 3.85129Z" fill="#FFF6EE"/>
<path d="M62.5386 6.20728L66.2337 5.47353L61.4196 4.28418L57.5476 5.10858L62.5386 6.20728Z" fill="#FFF6EE"/>
<path d="M55.004 5.6499L54.0817 5.84625C53.3749 5.99675 52.8771 6.6316 52.8996 7.3539L52.9232 8.1097L58.5096 9.23465L58.4955 7.6513C58.4922 7.2799 58.7535 6.9586 59.1178 6.88625L59.9288 6.7252L55.004 5.6499Z" fill="#FFF6EE"/>
<path d="M53.0387 11.8203L58.5384 12.455L58.5247 10.9137L52.9801 9.93848L53.0387 11.8203Z" fill="#FFF6EE"/>
<path d="M59.0963 6.89254L58.7097 6.29199L58.2227 6.45249C57.7466 6.60939 57.4228 7.05154 57.4169 7.55279L57.2863 18.6849L53.235 18.1199L53.2465 18.4871C53.26 18.9207 53.5613 19.292 53.9828 19.3945L57.4068 20.2272C58.0176 20.3758 58.6052 19.9098 58.5995 19.2811L58.4955 7.65124C58.4922 7.28744 58.7436 6.97329 59.0963 6.89254Z" fill="#D3A16E"/>
<path d="M57.6389 21.0555C57.4988 21.0555 57.3577 21.0388 57.2178 21.0047L53.7937 20.172C53.0254 19.9851 52.4717 19.3027 52.4468 18.5126L52.1001 7.37894C52.0654 6.26884 52.8288 5.29519 53.915 5.06389L72.6828 1.06803C72.7754 1.04803 72.8708 1.04484 72.9653 1.05899L79.6572 2.03934C80.0424 2.09574 80.331 2.42144 80.341 2.81059C80.3508 3.19989 80.0791 3.53974 79.697 3.61554L59.2954 7.66679L59.3996 19.2741C59.4045 19.8222 59.1609 20.3319 58.7314 20.6726C58.4148 20.9237 58.0317 21.0555 57.6389 21.0555ZM57.5957 19.4501C57.6614 19.4659 57.7083 19.4419 57.7373 19.4191C57.7661 19.3961 57.8003 19.355 57.7996 19.2885L57.6953 7.65859C57.689 6.90309 58.2217 6.24844 58.9624 6.10169L74.8345 2.94984L72.8755 2.66283L54.2483 6.62879C53.9197 6.69874 53.6888 6.99329 53.6993 7.32909L54.046 18.4624C54.0484 18.536 54.1002 18.5998 54.172 18.6173L57.5957 19.4501Z" fill="#070766"/>
<path d="M57.5123 6.82414L53.5098 6.63604C52.7174 6.57904 52.7702 5.41414 53.5665 5.43134C53.6063 5.43319 53.6481 5.43979 53.6855 5.44894L57.5709 6.42844C57.8019 6.48504 57.7495 6.83754 57.5123 6.82414Z" fill="#070766"/>
<path d="M23.429 98.4298C23.429 98.4298 24.7833 88.207 18.9694 84.7106C14.1013 81.7829 4.9438 85.3915 1.9821 96.4213C-1.23055 108.386 4.84171 122.966 16.3821 127.264C16.3821 127.264 18.2394 133.187 25.8289 134.43C25.8289 134.43 29.3864 138.43 37.0459 136.591C42.0842 137.681 48.9949 135.196 53.5395 131.4C55.6662 129.624 60.6033 120.421 59.8374 117.681C59.1184 115.108 56.4501 114.566 56.4501 114.566C58.9352 108.2 55.0203 104.728 50.2884 106.294C52.1948 98.668 43.2757 96.3532 39.8374 102.583C39.0289 98.1489 33.9991 97.1021 30.6799 99.7063C28.1004 101.73 26.7991 104.149 25.2672 105.306C23.7353 106.464 23.429 98.4298 23.429 98.4298Z" fill="#FFC5C5"/>
<g opacity="0.6">
<path d="M59.8375 117.681C59.1185 115.109 56.4502 114.566 56.4502 114.566C58.9353 108.2 55.0204 104.728 50.2885 106.294C52.1949 98.6684 43.2758 96.3535 39.8375 102.583C39.029 98.1492 33.9992 97.1024 30.68 99.7067C28.1005 101.731 26.7992 104.149 25.2673 105.307C25.0713 105.455 24.8955 105.452 24.7377 105.335C24.2053 106.442 23.5246 107.72 22.648 109.205C27.431 106.294 31.7884 99.2812 35.6353 100.847C38.796 102.134 38.1718 105.773 38.1718 105.773C45.6778 97.511 50.5501 104.153 48.1455 110.406C53.9502 106.294 56.4503 110.406 54.8183 118.09L53.7362 119.915C57.7295 115.076 59.1584 120.795 57.3097 125.817C58.9369 122.696 60.2615 119.198 59.8375 117.681Z" fill="white"/>
</g>
<path d="M37.3312 134.265C42.0696 135.289 48.5102 133.063 52.927 129.577C50.0152 129.565 49.5225 126.056 49.5225 126.056C49.5225 126.056 40.8986 129.034 41.2942 120.077C30.5225 119.724 33.7467 112.541 33.7467 112.541C33.7467 112.541 29.3864 114.975 27.6011 109.664C27.6011 109.664 21.6812 116.983 15.4588 117.987C11.3839 118.645 8.12799 116.939 5.85959 115.002C8.42334 119.614 12.3184 123.362 17.2333 125.192C17.2333 125.192 19.0397 130.954 26.4214 132.162C26.4214 132.162 29.8814 136.053 37.3312 134.265Z" fill="#E58989"/>
<g opacity="0.6">
<path d="M23.4615 98.135C23.6291 96.439 24.1983 87.8552 18.9694 84.7106C14.1013 81.7829 4.94385 85.3915 1.98215 96.4213C0.472654 102.043 1.01331 108.242 3.20746 113.68C1.12771 98.906 5.89086 88.7399 13.4054 86.583C20.458 84.5586 22.2181 92.8992 23.4615 98.135Z" fill="white"/>
</g>
<path d="M5.70721 101.195C5.70721 101.195 6.83126 109.8 13.6758 114.208C21.8971 110.406 25.2673 105.306 25.2673 105.306C22.8353 99.2808 21.911 88.5751 18.5492 92.4042C14.6704 96.8222 15.2097 100.847 5.70721 101.195Z" fill="#E58989"/>
<path d="M33.1611 138.078C28.6909 138.078 26.1433 136.099 25.3486 135.361C18.6804 134.14 16.238 129.545 15.6062 128.037C10.062 125.832 5.50385 121.265 2.738 115.129C0.0241507 109.107 -0.603297 102.194 1.0163 96.1623C2.6484 90.0841 6.30025 85.5024 11.0359 83.5917C14.0832 82.362 17.1631 82.4574 19.4848 83.8539C25.5566 87.5053 24.5649 97.3566 24.4314 98.4723C24.5237 100.743 24.8323 103.048 25.157 104.08C25.5889 103.661 26.0364 103.123 26.533 102.527C27.4756 101.394 28.544 100.111 30.0625 98.9198C32.0965 97.3244 34.7649 96.8666 37.0271 97.7248C38.3886 98.2414 39.4629 99.1918 40.1392 100.44C42.3418 98.0077 45.4658 97.5241 47.7883 98.4369C49.819 99.2355 51.8386 101.395 51.5242 104.985C53.5525 104.717 55.4023 105.285 56.6604 106.611C58.2744 108.312 58.645 110.951 57.7227 113.953C58.757 114.419 60.2425 115.415 60.8005 117.412C61.706 120.652 56.5127 130.22 54.1807 132.168C49.1311 136.385 42.1318 138.604 37.0601 137.615C35.6279 137.943 34.3284 138.078 33.1611 138.078ZM15.2371 84.7325C14.1387 84.7325 12.9649 84.9698 11.7842 85.4464C7.63645 87.12 4.41575 91.2147 2.94795 96.6808C-0.239798 108.552 6.20115 122.405 16.7312 126.327L17.1897 126.498L17.3362 126.965C17.4055 127.179 19.1413 132.322 25.9907 133.443L26.3406 133.5L26.5764 133.765C26.7041 133.905 29.8884 137.281 36.8125 135.619L37.0344 135.566L37.2573 135.614C41.7097 136.576 48.2893 134.482 52.8984 130.632C54.8703 128.986 59.4971 120.178 58.8742 117.95C58.3342 116.018 56.33 115.563 56.2449 115.545L55.0986 115.296L55.5186 114.202C56.5537 111.551 56.4412 109.286 55.2095 107.988C54.1838 106.906 52.4614 106.628 50.6028 107.243L48.8777 107.814L49.3183 106.051C50.1345 102.786 48.685 100.939 47.0564 100.298C45.091 99.525 42.2798 100.227 40.7129 103.066L39.3569 105.523L38.8535 102.763C38.575 101.234 37.6743 100.109 36.3176 99.5946C34.7058 98.9835 32.7825 99.3275 31.2971 100.493C29.9453 101.554 28.9489 102.75 28.0698 103.806C27.3034 104.727 26.6416 105.522 25.8701 106.104C25.4123 106.451 24.8723 106.516 24.3894 106.288C23.971 106.089 22.6973 105.485 22.4297 98.4679L22.4265 98.3829L22.4375 98.2985C22.4551 98.1627 23.6214 88.6752 18.4542 85.5678C17.5291 85.0116 16.4273 84.7325 15.2371 84.7325Z" fill="#070766"/>
<path d="M13.6062 114.021C16.2308 112.514 18.7518 110.811 20.9473 108.727C22.2448 107.502 23.4147 106.14 24.4657 104.709C24.7879 104.242 25.4387 104.132 25.8926 104.475C26.3453 104.814 26.4255 105.466 26.0687 105.905C25.261 106.901 24.4208 107.872 23.469 108.722C21.6215 110.445 19.5056 111.894 17.261 113.043C16.136 113.606 14.9751 114.085 13.7452 114.396C13.5198 114.454 13.3917 114.127 13.6062 114.021Z" fill="#070766"/>
<path d="M21.7932 122.327C25.406 119.676 28.9217 116.814 31.8804 113.46C34.6957 110.047 36.9414 106.099 38.9376 102.147C39.1828 101.651 39.7854 101.448 40.2806 101.695C40.7687 101.939 40.97 102.529 40.7374 103.019C38.7147 107.179 36.2778 111.165 33.1396 114.585C31.546 116.272 29.7252 117.72 27.8599 119.084C25.9952 120.425 24.0394 121.633 22.001 122.669C21.794 122.771 21.5874 122.479 21.7932 122.327Z" fill="#070766"/>
<path d="M29.278 130.005C33.4999 126.795 37.461 123.16 40.9541 119.186C44.3788 115.184 47.0445 110.575 49.3893 105.856C49.6348 105.361 50.2348 105.159 50.7296 105.405C51.2193 105.648 51.4216 106.24 51.1877 106.732C50.021 109.175 48.7204 111.571 47.232 113.856C44.3139 118.462 40.4708 122.45 36.2022 125.803C34.0841 127.483 31.8511 129.025 29.4948 130.342C29.2919 130.451 29.07 130.167 29.278 130.005Z" fill="#070766"/>
<path d="M16.6375 89.5957C17.9141 91.8425 19.0375 93.2893 21.7694 95.2638C24.4805 97.2232 27.1372 99.0712 26.6715 103.511C26.2885 107.162 21.897 111.553 16.3311 109.97C13.7154 109.226 11.7813 106.793 9.47149 104.523C7.49704 102.583 4.60339 100.302 4.60339 100.302L16.6375 89.5957Z" fill="#FFC5C5"/>
<path d="M16.3311 109.97C21.1613 111.344 25.1051 108.218 26.3142 104.982C26.3142 104.982 21.8971 108.927 17.251 106.392C11.9668 103.51 9.7799 98.8383 4.60345 100.302C4.60345 100.302 7.49705 102.583 9.47155 104.523C11.7814 106.793 13.7154 109.226 16.3311 109.97Z" fill="#E58989"/>
<g opacity="0.6">
<path d="M26.6715 103.511C27.1372 99.0712 24.4805 97.2232 21.7694 95.2638C19.0375 93.2893 17.9141 91.8425 16.6375 89.5957C16.8523 91.7404 16.265 94.5674 20.4012 97.0255C24.8412 99.6642 26.5114 104.359 23.5671 108.608C25.3381 107.254 26.4844 105.295 26.6715 103.511Z" fill="white"/>
</g>
<path d="M16.8114 89.4973C18.1109 90.9039 19.3285 92.3262 20.8474 93.4973C22.3997 94.7176 24.1733 95.6595 25.5931 97.1586C27.3911 98.9517 28.0522 101.666 27.5932 104.125C27.2243 106.04 26.098 107.749 24.6506 109.015C22.1855 111.232 18.4754 111.924 15.3897 110.685C12.4647 109.451 10.6661 106.833 8.52725 104.689C7.19035 103.308 5.78715 101.946 4.47965 100.46C4.4048 100.376 4.41245 100.246 4.4971 100.172C4.5624 100.114 4.6547 100.107 4.7272 100.145C5.60865 100.618 6.43765 101.158 7.24785 101.728C7.55675 101.94 8.14765 102.385 8.4412 102.615C11.1277 104.589 13.0794 107.592 16.1062 108.859C18.5405 109.772 21.3984 109.247 23.3372 107.506C25.3829 105.78 26.231 103.099 25.442 100.623C24.8952 98.9327 23.5227 97.7425 22.1085 96.643C19.6467 94.8291 17.2745 92.8094 16.4636 89.6948C16.4023 89.4997 16.6741 89.3412 16.8114 89.4973Z" fill="#070766"/>
<path d="M38.5124 134.248C42.2359 131.778 45.852 129.046 48.6943 125.609C51.4699 122.148 53.6591 118.177 55.5317 114.171C55.7595 113.667 56.3545 113.443 56.858 113.673C57.3477 113.896 57.5698 114.467 57.3688 114.961C54.6224 121.346 50.6472 127.454 44.8387 131.433C42.9211 132.745 40.8817 133.868 38.6775 134.612C38.4607 134.681 38.2984 134.376 38.5124 134.248Z" fill="#070766"/>
<path d="M110.616 98.4298C110.616 98.4298 109.262 88.207 115.076 84.7106C119.944 81.7829 129.101 85.3915 132.063 96.4213C135.275 108.386 129.203 122.966 117.663 127.264C117.663 127.264 115.805 133.187 108.216 134.43C108.216 134.43 104.659 138.43 96.999 136.591C91.9607 137.681 85.05 135.196 80.5053 131.4C78.3786 129.624 73.4415 120.421 74.2074 117.681C74.9264 115.108 77.5947 114.566 77.5947 114.566C75.1096 108.2 79.0245 104.728 83.7564 106.294C81.85 98.668 90.7691 96.3532 94.2074 102.583C95.0159 98.1489 100.046 97.1021 103.365 99.7063C105.944 101.73 107.246 104.149 108.778 105.306C110.31 106.464 110.616 98.4298 110.616 98.4298Z" fill="#FFC5C5"/>
<g opacity="0.6">
<path d="M74.2074 117.681C74.9264 115.108 77.5946 114.566 77.5946 114.566C75.1095 108.2 79.0245 104.727 83.7564 106.293C81.85 98.6679 90.7692 96.353 94.2074 102.583C95.0159 98.1487 100.046 97.1019 103.365 99.7062C105.944 101.73 107.246 104.149 108.778 105.306C108.974 105.454 109.149 105.451 109.307 105.334C109.84 106.442 110.52 107.72 111.397 109.204C106.614 106.293 102.256 99.2807 98.4096 100.847C95.2489 102.133 95.8731 105.772 95.8731 105.772C88.3671 97.5105 83.4948 104.152 85.8995 110.406C80.0948 106.293 77.5946 110.406 79.2267 118.089L80.3087 119.914C76.3154 115.075 74.8865 120.794 76.7352 125.817C75.1079 122.695 73.7834 119.198 74.2074 117.681Z" fill="white"/>
</g>
<path d="M96.7136 134.265C91.9753 135.289 85.5347 133.063 81.1178 129.577C84.0296 129.565 84.5223 126.056 84.5223 126.056C84.5223 126.056 93.1462 129.034 92.7506 120.077C103.522 119.724 100.298 112.541 100.298 112.541C100.298 112.541 104.658 114.975 106.444 109.664C106.444 109.664 112.364 116.983 118.586 117.987C122.661 118.645 125.917 116.939 128.185 115.002C125.621 119.614 121.726 123.362 116.812 125.192C116.812 125.192 115.005 130.954 107.623 132.162C107.623 132.162 104.163 136.053 96.7136 134.265Z" fill="#E58989"/>
<g opacity="0.6">
<path d="M110.583 98.135C110.416 96.439 109.847 87.8552 115.076 84.7106C119.944 81.7829 129.101 85.3915 132.063 96.4213C133.572 102.043 133.032 108.242 130.837 113.68C132.917 98.906 128.154 88.7399 120.639 86.583C113.587 84.5586 111.827 92.8992 110.583 98.135Z" fill="white"/>
</g>
<path d="M128.338 101.195C128.338 101.195 127.214 109.8 120.369 114.208C112.148 110.406 108.778 105.306 108.778 105.306C111.21 99.2808 112.134 88.5751 115.496 92.4042C119.374 96.8222 118.835 100.847 128.338 101.195Z" fill="#E58989"/>
<path d="M100.884 138.078C99.7163 138.078 98.4175 137.943 96.9849 137.615C91.9141 138.604 84.9138 136.385 79.8642 132.168C77.5322 130.22 72.3389 120.651 73.2444 117.412C73.8028 115.415 75.2878 114.419 76.3223 113.953C75.3999 110.95 75.7705 108.312 77.3845 106.611C78.6426 105.285 80.4922 104.717 82.5208 104.985C82.2064 101.395 84.2259 99.2354 86.2566 98.4368C88.5789 97.5237 91.7027 98.0076 93.9058 100.44C94.5821 99.1917 95.6563 98.2413 97.0179 97.7247C99.2801 96.866 101.949 97.3245 103.982 98.9195C105.501 100.111 106.569 101.394 107.512 102.526C108.009 103.123 108.456 103.66 108.888 104.08C109.213 103.047 109.521 100.743 109.614 98.4722C109.48 97.3565 108.488 87.5052 114.56 83.8538C116.881 82.4576 119.961 82.3619 123.009 83.5916C127.745 85.5023 131.397 90.0841 133.029 96.1622C134.648 102.194 134.021 109.107 131.307 115.128C128.541 121.265 123.983 125.832 118.439 128.037C117.807 129.544 115.365 134.14 108.696 135.361C107.902 136.099 105.353 138.078 100.884 138.078ZM97.0105 135.566L97.2324 135.619C104.156 137.282 107.341 133.905 107.473 133.76L107.707 133.504L108.054 133.443C114.904 132.321 116.639 127.179 116.71 126.961L116.859 126.5L117.314 126.327C127.844 122.405 134.285 108.552 131.097 96.6806C129.629 91.2145 126.408 87.1198 122.261 85.4462C119.8 84.4535 117.369 84.4977 115.591 85.5675C110.413 88.6818 111.595 98.2033 111.607 98.299L111.618 98.3827L111.615 98.4677C111.348 105.485 110.074 106.089 109.656 106.288C109.173 106.516 108.633 106.45 108.175 106.104C107.403 105.521 106.742 104.726 105.975 103.806C105.096 102.75 104.1 101.554 102.748 100.493C101.262 99.3275 99.3382 98.984 97.7273 99.5944C96.3706 100.109 95.47 101.234 95.1914 102.762L94.688 105.523L93.332 103.066C91.7651 100.227 88.9546 99.5253 86.9886 100.298C85.3599 100.938 83.9104 102.786 84.7266 106.051L85.1673 107.814L83.4422 107.243C81.5825 106.627 79.8609 106.906 78.8355 107.987C77.6038 109.286 77.4912 111.551 78.5263 114.202L78.9582 115.309L77.7939 115.546C77.7148 115.563 75.7107 116.018 75.1706 117.95C74.5478 120.178 79.1746 128.985 81.1465 130.632C85.7557 134.482 92.3355 136.577 96.7876 135.614L97.0105 135.566Z" fill="#070766"/>
<path d="M120.3 114.396C116.64 113.393 113.366 111.254 110.576 108.722C109.624 107.872 108.784 106.901 107.976 105.904C107.628 105.475 107.694 104.845 108.123 104.497C108.574 104.129 109.251 104.23 109.579 104.708C110.63 106.139 111.8 107.502 113.098 108.726C115.293 110.811 117.814 112.514 120.439 114.021C120.647 114.122 120.53 114.458 120.3 114.396Z" fill="#070766"/>
<path d="M112.044 122.669C107.97 120.556 104.12 117.882 100.905 114.585C97.7672 111.165 95.3303 107.179 93.3075 103.019C93.0706 102.52 93.283 101.924 93.7819 101.687C94.2761 101.452 94.8663 101.659 95.1074 102.147C97.6328 107.077 100.395 112.03 104.454 115.861C106.893 118.201 109.502 120.337 112.252 122.327C112.437 122.456 112.277 122.784 112.044 122.669Z" fill="#070766"/>
<path d="M104.55 130.341C99.2574 127.319 94.4728 123.392 90.4541 118.792C87.3926 115.143 84.8923 111.019 82.8573 106.731C82.6192 106.233 82.8303 105.636 83.3287 105.398C83.822 105.162 84.4126 105.368 84.6554 105.856C87.0002 110.574 89.6661 115.184 93.0908 119.186C94.8164 121.173 96.6967 123.058 98.6463 124.864C99.6185 125.771 100.619 126.65 101.638 127.508C102.655 128.37 103.699 129.199 104.767 130.005C104.947 130.132 104.791 130.467 104.55 130.341Z" fill="#070766"/>
<path d="M117.407 89.5957C116.131 91.8425 115.007 93.2893 112.276 95.2638C109.564 97.2232 106.908 99.0712 107.373 103.511C107.756 107.162 112.148 111.553 117.714 109.97C120.33 109.226 122.264 106.793 124.573 104.523C126.548 102.583 129.441 100.302 129.441 100.302L117.407 89.5957Z" fill="#FFC5C5"/>
<path d="M117.714 109.97C112.884 111.344 108.94 108.218 107.731 104.982C107.731 104.982 112.148 108.927 116.794 106.392C122.078 103.51 124.265 98.8383 129.441 100.302C129.441 100.302 126.548 102.583 124.573 104.523C122.264 106.793 120.33 109.226 117.714 109.97Z" fill="#E58989"/>
<g opacity="0.6">
<path d="M107.373 103.511C106.908 99.0712 109.564 97.2232 112.276 95.2638C115.007 93.2893 116.131 91.8425 117.407 89.5957C117.193 91.7404 117.78 94.5674 113.644 97.0255C109.204 99.6642 107.533 104.359 110.478 108.608C108.707 107.254 107.561 105.295 107.373 103.511Z" fill="white"/>
</g>
<path d="M117.581 89.6947C117.046 91.6785 115.814 93.4425 114.268 94.769C112.835 96.0739 111.132 97.0812 109.883 98.4782C106.686 102.03 108.66 107.194 112.91 108.839C115.377 109.79 118.172 109.254 120.182 107.508C121.974 106.077 123.669 104.084 125.604 102.615C125.89 102.384 126.496 101.94 126.797 101.728C127.607 101.157 128.436 100.618 129.318 100.145C129.417 100.092 129.54 100.129 129.593 100.228C129.634 100.305 129.62 100.398 129.565 100.459C128.258 101.945 126.854 103.308 125.518 104.689C123.379 106.833 121.58 109.451 118.655 110.684C115.57 111.923 111.859 111.232 109.394 109.015C106.779 106.783 105.633 103.333 106.71 99.9986C107.706 96.8626 110.806 95.3247 113.197 93.4971C114.312 92.6174 115.291 91.6437 116.238 90.5863C116.56 90.2268 116.882 89.8562 117.234 89.4961C117.375 89.3471 117.642 89.4961 117.581 89.6947Z" fill="#070766"/>
<path d="M95.3674 134.612C90.9632 133.078 87.0874 130.24 83.9583 126.806C80.8871 123.293 78.5062 119.242 76.6761 114.961C76.4671 114.45 76.7124 113.866 77.2237 113.657C77.7237 113.453 78.2932 113.683 78.5133 114.171C81.3239 120.183 84.7835 126.105 90.0896 130.263C91.8125 131.681 93.6353 133.013 95.5325 134.248C95.7181 134.348 95.6201 134.691 95.3674 134.612Z" fill="#070766"/>
</svg>
