<svg width="102" height="151" viewBox="0 0 102 151" fill="none" xmlns="http://www.w3.org/2000/svg">
<g opacity="0.3">
<path d="M51.8063 150.692C74.6844 150.692 93.2309 148.773 93.2309 146.405C93.2309 144.038 74.6844 142.118 51.8063 142.118C28.9281 142.118 10.3817 144.038 10.3817 146.405C10.3817 148.773 28.9281 150.692 51.8063 150.692Z" fill="#000072"/>
</g>
<path d="M51.1139 24.7333C44.6016 24.7333 39.3036 19.4379 39.3036 12.929C39.3036 6.4202 44.6016 1.125 51.1139 1.125C57.6262 1.125 62.9244 6.42015 62.9244 12.929C62.9244 19.438 57.6262 24.7333 51.1139 24.7333ZM51.1139 2.8551C45.5563 2.8551 41.0346 7.37435 41.0346 12.929C41.0346 18.484 45.5563 23.0032 51.1139 23.0032C56.6718 23.0032 61.1933 18.4839 61.1933 12.929C61.1934 7.37435 56.6718 2.8551 51.1139 2.8551Z" fill="white"/>
<path d="M51.114 25.8578C43.9817 25.8578 38.179 20.0577 38.179 12.9287C38.179 5.7998 43.9817 0 51.114 0C58.2463 0 64.0491 5.7998 64.0491 12.9287C64.0491 20.0578 58.2463 25.8578 51.114 25.8578ZM51.114 3.97955C46.1765 3.97955 42.1594 7.99405 42.1594 12.9288C42.1594 17.8636 46.1765 21.8782 51.114 21.8782C56.0515 21.8782 60.0686 17.8636 60.0686 12.9288C60.0686 7.99405 56.0515 3.97955 51.114 3.97955Z" fill="#000072"/>
<path d="M54.0606 17.7893H48.1043C47.2071 17.7893 46.4798 17.062 46.4798 16.1648V13.6147C46.4798 12.7175 47.2071 11.9902 48.1043 11.9902H54.0606C54.9578 11.9902 55.6851 12.7175 55.6851 13.6147V16.1648C55.6851 17.062 54.9578 17.7893 54.0606 17.7893Z" fill="#F7C714"/>
<g opacity="0.6">
<path d="M48.4799 14.8931C48.4799 14.3939 48.8848 13.9892 49.3842 13.9892H55.6851V13.6143C55.6851 12.7174 54.9575 11.9902 54.0602 11.9902H48.1047C47.2073 11.9902 46.4798 12.7174 46.4798 13.6143V16.1652C46.4798 17.0622 47.2072 17.7893 48.1047 17.7893H48.4798L48.4799 14.8931Z" fill="white"/>
</g>
<path d="M54.0606 19.1646H48.1043C46.4505 19.1646 45.105 17.8191 45.105 16.1654V13.6154C45.105 11.9617 46.4505 10.6162 48.1043 10.6162H54.0606C55.7144 10.6162 57.0598 11.9617 57.0598 13.6154V16.1654C57.0598 17.8191 55.7144 19.1646 54.0606 19.1646ZM48.1043 13.3655C47.9666 13.3655 47.8545 13.4775 47.8545 13.6153V16.1654C47.8545 16.3032 47.9666 16.4152 48.1043 16.4152H54.0606C54.1983 16.4152 54.3103 16.3032 54.3103 16.1654V13.6153C54.3103 13.4775 54.1983 13.3655 54.0606 13.3655H48.1043Z" fill="#000072"/>
<path d="M54.0672 17.79H47.9861V27.7444H54.0672V17.79Z" fill="#F7C714"/>
<path d="M54.0672 29.1187H47.9861C47.2268 29.1187 46.6114 28.5032 46.6114 27.744V17.7897C46.6114 17.0305 47.2269 16.415 47.9861 16.415H54.0672C54.8265 16.415 55.4419 17.0305 55.4419 17.7897V27.744C55.4419 28.5032 54.8264 29.1187 54.0672 29.1187ZM49.3609 26.3694H52.6924V19.1643H49.3609V26.3694Z" fill="#000072"/>
<g opacity="0.3">
<path d="M54.0672 17.79H47.9861V27.7444H54.0672V17.79Z" fill="#000072"/>
</g>
<path d="M85.3703 32.1535L91.8091 38.497C92.4431 39.1215 93.4632 39.1142 94.0881 38.4806L97.2516 35.2729C97.877 34.6388 97.8696 33.6177 97.2352 32.9927L90.7964 26.6492C90.1625 26.0247 89.1423 26.032 88.5174 26.6656L85.3539 29.8733C84.7285 30.5073 84.7359 31.5284 85.3703 32.1535Z" fill="#F7C714"/>
<g opacity="0.6">
<path d="M85.8462 32.6219L88.5169 29.914C89.142 29.2802 90.1629 29.2728 90.797 29.8976L96.7593 35.7717L97.2522 35.2719C97.8773 34.638 97.87 33.6177 97.2359 32.9929L90.797 26.6494C90.1629 26.0246 89.142 26.0319 88.5169 26.6658L85.3533 29.8734C84.7282 30.5073 84.7355 31.5276 85.3697 32.1524L85.8462 32.6219Z" fill="white"/>
</g>
<path d="M92.9402 40.507C92.1387 40.507 91.3371 40.205 90.7229 39.5998L84.2842 33.2563V33.2564C83.6826 32.6638 83.3481 31.8726 83.3418 31.0282C83.3357 30.184 83.6589 29.388 84.2517 28.7868L87.4152 25.579C88.6381 24.3392 90.642 24.3249 91.8825 25.5468L98.3212 31.8904C98.9228 32.4828 99.2573 33.2741 99.2636 34.1185C99.2697 34.9627 98.9465 35.7587 98.3537 36.3599L95.1902 39.5677C94.573 40.1934 93.7566 40.507 92.9402 40.507ZM89.6651 27.7337C89.6485 27.7337 89.6319 27.7401 89.6192 27.7529L86.4558 30.9603C86.4502 30.9659 86.4373 30.9792 86.4375 31.0058C86.4375 31.0324 86.451 31.0455 86.4566 31.0511C86.4566 31.0511 86.4566 31.0511 86.4566 31.0512L92.8953 37.3947C92.9204 37.4194 92.9612 37.4193 92.9863 37.3939L96.1497 34.1865C96.1553 34.1809 96.1682 34.1676 96.168 34.1409C96.168 34.1143 96.1545 34.1013 96.1489 34.0956L89.7102 27.752C89.6978 27.7398 89.6814 27.7337 89.6651 27.7337Z" fill="#000072"/>
<path d="M79.4672 40.3213L83.7982 44.5879L90.7861 37.4945L86.455 33.2279L79.4672 40.3213Z" fill="#F7C714"/>
<path d="M83.8025 46.134C83.4102 46.134 83.0179 45.9859 82.7163 45.6888L78.3855 41.4222C78.093 41.1341 77.927 40.7414 77.9239 40.3307C77.9209 39.9201 78.0813 39.5252 78.3697 39.2328L85.3614 32.1436C85.962 31.5351 86.941 31.5282 87.5496 32.1278L91.8804 36.3944C92.1729 36.6825 92.3389 37.0752 92.3421 37.4859C92.345 37.8965 92.1846 38.2914 91.8963 38.5838L84.9046 45.673C84.6016 45.9802 84.2022 46.134 83.8025 46.134ZM81.6611 40.3039L83.7866 42.398L88.6047 37.5128L86.4792 35.4187L81.6611 40.3039Z" fill="#000072"/>
<g opacity="0.3">
<path d="M79.4672 40.3213L83.7982 44.5879L90.7861 37.4945L86.455 33.2279L79.4672 40.3213Z" fill="#000072"/>
</g>
<path d="M16.2624 32.4757L9.82356 38.8192C9.18961 39.4438 8.16946 39.4365 7.54456 38.8028L4.38106 35.5952C3.75571 34.9611 3.76306 33.94 4.39746 33.315L10.8363 26.9715C11.4703 26.3469 12.4904 26.3542 13.1153 26.9879L16.2788 30.1955C16.9041 30.8296 16.8968 31.8507 16.2624 32.4757Z" fill="#F7C714"/>
<g opacity="0.6">
<path d="M7.38036 35.844C6.75526 35.2102 6.76256 34.1898 7.39686 33.5651L13.5874 27.4661L13.1159 26.988C12.4908 26.3542 11.4699 26.3468 10.8357 26.9716L4.39686 33.3152C3.76256 33.94 3.75526 34.9603 4.38036 35.5942L7.54391 38.8018C8.16901 39.4357 9.18991 39.443 9.82406 38.8182L10.0724 38.5736L7.38036 35.844Z" fill="white"/>
</g>
<path d="M8.69237 40.8281C7.87572 40.8281 7.05982 40.5146 6.44237 39.8889L3.27902 36.6812C2.68627 36.0801 2.36302 35.2841 2.36912 34.4397C2.37497 33.5955 2.70971 32.8041 3.31126 32.2116L9.74997 25.8681C10.9902 24.646 12.9946 24.6606 14.2173 25.9002L17.3808 29.1079C17.9736 29.709 18.2966 30.505 18.2907 31.3493C18.2846 32.1935 17.9501 32.9848 17.3488 33.5773C17.3488 33.5774 17.3486 33.5774 17.3486 33.5774L10.9096 39.9209C10.2954 40.5261 9.49367 40.8281 8.69237 40.8281ZM11.9675 28.0548C11.9512 28.0548 11.9348 28.0609 11.9224 28.0733L5.48366 34.4167C5.47806 34.4223 5.46461 34.4355 5.46461 34.462C5.46436 34.4886 5.47757 34.5019 5.48317 34.5075L8.64652 37.7153C8.67142 37.7405 8.71241 37.7407 8.73731 37.7159L15.1763 31.3724L15.176 31.3725C15.1819 31.3669 15.1951 31.3538 15.1953 31.3271C15.1953 31.3005 15.1824 31.2872 15.1768 31.2815L12.0132 28.0739C12.0007 28.0612 11.9841 28.0548 11.9675 28.0548Z" fill="#000072"/>
<path d="M15.1729 33.5547L10.8419 37.8213L17.8297 44.9147L22.1608 40.6481L15.1729 33.5547Z" fill="#F7C714"/>
<path d="M17.8301 46.4562C17.4304 46.4562 17.031 46.3024 16.728 45.9953L9.73631 38.9059C9.44796 38.6136 9.28756 38.2187 9.29051 37.808C9.29366 37.3974 9.4597 37.0047 9.75215 36.7166L14.083 32.45C14.6916 31.8506 15.6709 31.8572 16.2712 32.4657L23.2629 39.555C23.5513 39.8473 23.7117 40.2422 23.7087 40.6529C23.7056 41.0635 23.5395 41.4561 23.2471 41.7443L18.9163 46.011C18.615 46.308 18.2224 46.4562 17.8301 46.4562ZM13.0278 37.8349L17.8457 42.7203L19.9714 40.6261L15.1533 35.7408L13.0278 37.8349Z" fill="#000072"/>
<g opacity="0.3">
<path d="M15.1729 33.5537L10.8419 37.8203L17.8297 44.9137L22.1608 40.6471L15.1729 33.5537Z" fill="#000072"/>
</g>
<path d="M51.114 123.967C78.314 123.967 100.364 101.928 100.364 74.7427C100.364 47.5569 78.314 25.5186 51.114 25.5186C23.914 25.5186 1.86401 47.5569 1.86401 74.7427C1.86401 101.928 23.914 123.967 51.114 123.967Z" fill="#F7C714"/>
<g opacity="0.3">
<path d="M6.86061 96.3604C6.94911 96.5412 7.03786 96.7219 7.12866 96.9015C7.03796 96.7219 6.94911 96.5412 6.86061 96.3604Z" fill="#000072"/>
</g>
<g opacity="0.3">
<path d="M7.30641 97.2461C7.48086 97.5847 7.65906 97.921 7.84106 98.255C7.65906 97.921 7.48081 97.5847 7.30641 97.2461Z" fill="#000072"/>
</g>
<g opacity="0.3">
<path d="M8.52365 99.4678C8.62375 99.6397 8.7246 99.811 8.82665 99.9815C8.7246 99.811 8.62365 99.6396 8.52365 99.4678Z" fill="#000072"/>
</g>
<g opacity="0.3">
<path d="M16.156 109.41C16.2798 109.535 16.4036 109.659 16.5286 109.783C16.4036 109.659 16.2798 109.535 16.156 109.41Z" fill="#000072"/>
</g>
<g opacity="0.3">
<path d="M47.3899 123.827C47.4798 123.834 47.5702 123.839 47.6602 123.845C47.5702 123.839 47.4797 123.834 47.3899 123.827Z" fill="#000072"/>
</g>
<g opacity="0.3">
<path d="M9.04245 100.337C9.1468 100.508 9.2507 100.679 9.35705 100.849C9.2507 100.679 9.14685 100.508 9.04245 100.337Z" fill="#000072"/>
</g>
<g opacity="0.3">
<path d="M9.50452 101.079C9.71947 101.418 9.93846 101.753 10.1615 102.086C9.93861 101.753 9.71947 101.418 9.50452 101.079Z" fill="#000072"/>
</g>
<g opacity="0.3">
<path d="M14.5388 107.701C14.7236 107.906 14.9099 108.109 15.098 108.31C14.9099 108.109 14.7235 107.906 14.5388 107.701Z" fill="#000072"/>
</g>
<g opacity="0.3">
<path d="M6.14796 92.9388C14.1714 109.245 30.9549 120.468 50.364 120.468C77.3993 120.468 99.3428 98.6953 99.6078 71.737C99.6079 71.7368 99.6079 71.7365 99.608 71.7363C96.5602 80.0282 88.943 89.3529 71.6349 96.6493C38.1045 110.784 12.5967 93.2622 2.44101 76.7296C2.78341 82.9737 4.29296 88.9062 6.75056 94.3172C6.54346 93.8611 6.34141 93.4022 6.14796 92.9388Z" fill="#000072"/>
</g>
<g opacity="0.3">
<path d="M43.7446 123.418C43.8577 123.435 43.9712 123.451 44.0845 123.467C43.9712 123.451 43.8577 123.435 43.7446 123.418Z" fill="#000072"/>
</g>
<g opacity="0.3">
<path d="M10.3987 102.439C10.5083 102.6 10.6191 102.76 10.7307 102.919C10.6193 102.76 10.5083 102.6 10.3987 102.439Z" fill="#000072"/>
</g>
<g opacity="0.3">
<path d="M10.9815 103.273C11.0938 103.431 11.2061 103.588 11.3201 103.744C11.2061 103.588 11.0936 103.431 10.9815 103.273Z" fill="#000072"/>
</g>
<g opacity="0.3">
<path d="M13.1166 106.055C13.2353 106.198 13.3547 106.341 13.475 106.484C13.3547 106.342 13.2354 106.198 13.1166 106.055Z" fill="#000072"/>
</g>
<g opacity="0.3">
<path d="M12.4747 105.263C12.5913 105.41 12.7097 105.556 12.828 105.702C12.7097 105.556 12.5913 105.41 12.4747 105.263Z" fill="#000072"/>
</g>
<g opacity="0.3">
<path d="M22.2576 114.633C22.3838 114.724 22.51 114.816 22.6372 114.906C22.51 114.816 22.3838 114.724 22.2576 114.633Z" fill="#000072"/>
</g>
<g opacity="0.3">
<path d="M26.083 117.141C26.2016 117.211 26.3197 117.281 26.4389 117.35C26.3197 117.281 26.2015 117.211 26.083 117.141Z" fill="#000072"/>
</g>
<g opacity="0.3">
<path d="M27.2964 117.837C27.3819 117.884 27.4685 117.93 27.5543 117.977C27.4685 117.93 27.382 117.884 27.2964 117.837Z" fill="#000072"/>
</g>
<g opacity="0.3">
<path d="M42.6734 123.246C42.6993 123.251 42.7254 123.254 42.7513 123.259C42.7254 123.254 42.6992 123.251 42.6734 123.246Z" fill="#000072"/>
</g>
<g opacity="0.3">
<path d="M28.2131 118.33C28.3351 118.394 28.4579 118.457 28.5806 118.52C28.4579 118.457 28.3351 118.394 28.2131 118.33Z" fill="#000072"/>
</g>
<g opacity="0.3">
<path d="M16.9141 110.157C17.0899 110.327 17.2667 110.496 17.4451 110.663C17.2667 110.495 17.0899 110.327 16.9141 110.157Z" fill="#000072"/>
</g>
<g opacity="0.3">
<path d="M18.705 111.804C18.8321 111.915 18.9595 112.025 19.0877 112.135C18.9595 112.025 18.832 111.915 18.705 111.804Z" fill="#000072"/>
</g>
<g opacity="0.3">
<path d="M17.9378 111.119C18.0605 111.231 18.1846 111.341 18.3084 111.452C18.1846 111.341 18.0604 111.231 17.9378 111.119Z" fill="#000072"/>
</g>
<g opacity="0.3">
<path d="M37.8651 122.163C37.9491 122.186 38.0325 122.211 38.1166 122.234C38.0325 122.211 37.9491 122.186 37.8651 122.163Z" fill="#000072"/>
</g>
<g opacity="0.3">
<path d="M36.729 121.831C36.8495 121.868 36.97 121.905 37.0908 121.94C36.97 121.904 36.8495 121.868 36.729 121.831Z" fill="#000072"/>
</g>
<g opacity="0.3">
<path d="M35.6958 121.505C35.8129 121.543 35.9304 121.581 36.0479 121.618C35.9304 121.581 35.8129 121.543 35.6958 121.505Z" fill="#000072"/>
</g>
<g opacity="0.3">
<path d="M41.2883 122.984C41.3985 123.007 41.5084 123.03 41.6188 123.051C41.5084 123.03 41.3984 123.007 41.2883 122.984Z" fill="#000072"/>
</g>
<g opacity="0.3">
<path d="M33.3899 120.68C33.502 120.723 33.6138 120.767 33.7262 120.809C33.6138 120.767 33.502 120.723 33.3899 120.68Z" fill="#000072"/>
</g>
<g opacity="0.3">
<path d="M32.3677 120.272C32.4904 120.323 32.6133 120.373 32.7363 120.422C32.6133 120.373 32.4902 120.323 32.3677 120.272Z" fill="#000072"/>
</g>
<g opacity="0.3">
<path d="M34.6941 121.164C34.7494 121.184 34.8053 121.202 34.8608 121.221C34.8053 121.202 34.7494 121.184 34.6941 121.164Z" fill="#000072"/>
</g>
<g opacity="0.45">
<path d="M23.8368 34.8727C23.8368 34.8727 16.4534 38.0077 11.2234 45.8673C5.99351 53.727 12.4443 55.7164 23.0235 45.8673C33.6028 36.0182 28.6814 32.3171 23.8368 34.8727Z" fill="white"/>
</g>
<g opacity="0.45">
<path d="M11.4749 59.5657C12.043 57.6012 11.4545 55.7052 10.1603 55.3309C8.86621 54.9567 7.35653 56.2459 6.7884 58.2104C6.22026 60.175 6.8088 62.071 8.10293 62.4452C9.39707 62.8195 10.9067 61.5303 11.4749 59.5657Z" fill="white"/>
</g>
<path d="M51.114 125.514C23.104 125.514 0.316162 102.738 0.316162 74.7426C0.316162 46.7468 23.104 23.9707 51.114 23.9707C79.124 23.9707 101.912 46.7468 101.912 74.7426C101.912 102.738 79.124 125.514 51.114 125.514ZM51.114 27.0662C24.811 27.0662 3.41186 48.4537 3.41186 74.7426C3.41186 101.031 24.811 122.419 51.114 122.419C77.417 122.419 98.8162 101.031 98.8162 74.7426C98.8162 48.4537 77.417 27.0662 51.114 27.0662Z" fill="#000072"/>
<g opacity="0.6">
<path d="M20.2296 43.6938C2.52077 60.7933 4.31962 84.4581 21.283 102.007C38.2464 119.557 61.6959 121.074 79.4047 103.974C97.1135 86.8745 100.691 62.6604 85.217 46.0236C76.4971 36.6484 63.6625 34.1298 51.114 34.0716C39.7413 34.0188 28.6488 35.5643 20.2296 43.6938ZM81.079 100.036C66.7918 117.044 41.5317 119.354 24.659 105.196C7.78642 91.0369 5.69052 65.7714 19.9778 48.7633C34.265 31.7553 59.5251 29.4454 76.3977 43.6039C93.2704 57.7625 95.3663 83.028 81.079 100.036Z" fill="white"/>
</g>
<path d="M51.114 115.414C73.5878 115.414 91.8064 97.2052 91.8064 74.7432C91.8064 52.2813 73.5878 34.0723 51.114 34.0723C28.6402 34.0723 10.4217 52.2813 10.4217 74.7432C10.4217 97.2052 28.6402 115.414 51.114 115.414Z" fill="#F7C714"/>
<path d="M51.114 116.789C27.9182 116.789 9.04686 97.927 9.04686 74.7429C9.04686 51.5588 27.9182 32.6973 51.114 32.6973C74.3098 32.6973 93.1812 51.5588 93.1812 74.7429C93.1812 97.927 74.3098 116.789 51.114 116.789ZM51.114 35.4465C29.4341 35.4465 11.7962 53.0748 11.7962 74.7429C11.7962 96.411 29.4341 114.039 51.114 114.039C72.7939 114.039 90.4319 96.411 90.4319 74.7429C90.4319 53.0748 72.794 35.4465 51.114 35.4465Z" fill="#000072"/>
<path d="M51.114 109.225C70.1684 109.225 85.615 93.787 85.615 74.7426C85.615 55.6983 70.1684 40.2598 51.114 40.2598C32.0596 40.2598 16.613 55.6983 16.613 74.7426C16.613 93.787 32.0596 109.225 51.114 109.225Z" fill="white"/>
<path d="M51.114 109.351C32.0213 109.351 16.488 93.8256 16.488 74.7427C16.488 55.6598 32.0212 40.1348 51.114 40.1348C70.2068 40.1348 85.74 55.6598 85.74 74.7427C85.74 93.8256 70.2068 109.351 51.114 109.351ZM51.114 40.3848C32.1589 40.3848 16.738 55.7976 16.738 74.7427C16.738 93.6877 32.1589 109.101 51.114 109.101C70.0691 109.101 85.49 93.6877 85.49 74.7427C85.49 55.7976 70.0691 40.3848 51.114 40.3848Z" fill="#000072"/>
<path d="M51.114 109.225C70.1684 109.225 85.615 93.787 85.615 74.7426C85.615 55.6983 70.1684 40.2598 51.114 40.2598C32.0596 40.2598 16.613 55.6983 16.613 74.7426C16.613 93.787 32.0596 109.225 51.114 109.225Z" fill="white"/>
<path d="M51.114 109.351C32.0213 109.351 16.488 93.8256 16.488 74.7427C16.488 55.6598 32.0212 40.1348 51.114 40.1348C70.2068 40.1348 85.74 55.6598 85.74 74.7427C85.74 93.8256 70.2068 109.351 51.114 109.351ZM51.114 40.3848C32.1589 40.3848 16.738 55.7976 16.738 74.7427C16.738 93.6877 32.1589 109.101 51.114 109.101C70.0691 109.101 85.49 93.6877 85.49 74.7427C85.49 55.7976 70.0691 40.3848 51.114 40.3848Z" fill="#000072"/>
<g opacity="0.3">
<path d="M51.114 38.9082C31.3129 38.9082 15.261 54.9517 15.261 74.7424C15.261 94.533 31.3129 110.577 51.114 110.577C70.9151 110.577 86.967 94.5331 86.967 74.7424C86.967 54.9517 70.9151 38.9082 51.114 38.9082ZM51.114 107.62C33.6658 107.62 19.5212 92.1814 19.5212 74.7424C19.5212 57.3033 33.6658 41.5582 51.114 41.5582C68.5622 41.5582 82.7068 57.3033 82.7068 74.7424C82.7068 92.1814 68.5622 107.62 51.114 107.62Z" fill="#000072"/>
</g>
<g opacity="0.3">
<path d="M51.114 34.0723C30.0486 34.0723 12.9717 53.6886 12.9717 74.743C12.9717 95.7974 30.0486 115.414 51.114 115.414C72.1794 115.414 89.2564 95.7974 89.2564 74.743C89.2564 53.6886 72.1795 34.0723 51.114 34.0723ZM51.114 110.577C31.3129 110.577 15.261 94.5336 15.261 74.7429C15.261 54.9522 31.3129 38.9088 51.114 38.9088C70.9151 38.9088 86.967 54.9523 86.967 74.7429C86.967 94.5336 70.9151 110.577 51.114 110.577Z" fill="#000072"/>
</g>
<path d="M51.114 111.65C30.7525 111.65 14.187 95.0934 14.187 74.7422C14.187 54.391 30.7525 37.834 51.114 37.834C71.4756 37.834 88.041 54.391 88.041 74.7422C88.041 95.0934 71.4756 111.65 51.114 111.65ZM51.114 40.0835C31.9927 40.0835 16.4365 55.6313 16.4365 74.7422C16.4365 93.853 31.9927 109.401 51.114 109.401C70.2354 109.401 85.7915 93.853 85.7915 74.7422C85.7915 55.6313 70.2354 40.0835 51.114 40.0835Z" fill="#000072"/>
<path d="M51.1141 79.3048C53.6349 79.3048 55.6785 77.2623 55.6785 74.7427C55.6785 72.2232 53.6349 70.1807 51.1141 70.1807C48.5932 70.1807 46.5496 72.2232 46.5496 74.7427C46.5496 77.2623 48.5932 79.3048 51.1141 79.3048Z" fill="#C9CCD2"/>
<path d="M51.114 79.4274C49.9131 79.4274 48.7124 78.9705 47.7981 78.0567C46.9124 77.1715 46.4246 75.9945 46.4246 74.7426C46.4246 73.4906 46.9124 72.3136 47.7981 71.4284C49.6267 69.6007 52.6013 69.6007 54.43 71.4284C55.3157 72.3136 55.8035 73.4906 55.8035 74.7426C55.8035 75.9945 55.3157 77.1715 54.43 78.0567C53.5156 78.9705 52.315 79.4274 51.114 79.4274ZM51.114 70.3075C49.9771 70.3075 48.8403 70.74 47.9749 71.6051C47.1365 72.4431 46.6746 73.5574 46.6746 74.7426C46.6746 75.9278 47.1365 77.042 47.9749 77.88C49.7058 79.6102 52.5222 79.6102 54.2532 77.88C55.0916 77.042 55.5535 75.9278 55.5535 74.7426C55.5535 73.5574 55.0916 72.4431 54.2532 71.6051C53.3877 70.74 52.251 70.3075 51.114 70.3075Z" fill="#000072"/>
<path d="M51.114 80.3339C49.6809 80.3339 48.2481 79.7886 47.157 78.6983C46.0998 77.6416 45.5178 76.2368 45.5178 74.7426C45.5178 73.2483 46.0999 71.8435 47.157 70.7869C49.3391 68.6062 52.8889 68.6062 55.071 70.7869C56.1281 71.8435 56.7102 73.2483 56.7102 74.7426C56.7102 76.2368 56.1281 77.6416 55.071 78.6983C53.9799 79.7886 52.5471 80.3339 51.114 80.3339ZM51.114 71.214C50.2092 71.214 49.3047 71.5581 48.616 72.2466C47.9487 72.9133 47.5816 73.7997 47.5816 74.7425C47.5816 75.6854 47.9488 76.5717 48.616 77.2385C49.9934 78.6154 52.2346 78.6154 53.6121 77.2385C54.2793 76.5717 54.6465 75.6854 54.6465 74.7425C54.6465 73.7997 54.2793 72.9133 53.6121 72.2466C52.9234 71.5581 52.0188 71.214 51.114 71.214Z" fill="#000072"/>
<path d="M38.8785 60.394L45.6421 67.1421L49.0396 70.5005L52.4135 73.8824H50.2562L66.9683 57.2184C67.5538 56.6345 68.5021 56.6357 69.0863 57.221C69.6705 57.8062 69.6719 58.7515 69.0863 59.3354L52.4136 76.0388C51.8192 76.6342 50.8544 76.6353 50.2586 76.0413L50.2561 76.0388L46.8724 72.6666L43.5122 69.2709L36.7604 62.5109C36.176 61.9258 36.1769 60.978 36.7623 60.394C37.3477 59.8098 38.2942 59.8089 38.8785 60.394Z" fill="#000072"/>
<path d="M71.135 55.7642C70.8709 55.7642 70.6067 55.6633 70.4053 55.4618C70.0024 55.0587 70.0024 54.4055 70.4055 54.0025L75.7007 48.7101C76.1035 48.3073 76.7571 48.3077 77.1599 48.7105C77.5628 49.1136 77.5628 49.767 77.1597 50.1698L71.8645 55.4622C71.6631 55.6635 71.3989 55.7642 71.135 55.7642Z" fill="#000072"/>
<path d="M78.3345 67.9881C77.8855 67.9881 77.4724 67.6928 77.343 67.2398C77.1863 66.6919 77.5032 66.1207 78.0513 65.9639L85.2507 63.9045C85.7976 63.7474 86.3696 64.0648 86.5264 64.6127C86.6831 65.1607 86.3662 65.7319 85.8181 65.8886L78.6187 67.9481C78.5239 67.9752 78.4285 67.9881 78.3345 67.9881Z" fill="#000072"/>
<path d="M85.8499 84.4465C85.7671 84.4465 85.6831 84.4365 85.5991 84.4155L78.3337 82.6015C77.781 82.4635 77.4446 81.9034 77.5825 81.3504C77.7207 80.7976 78.28 80.4613 78.8337 80.5993L86.0991 82.4133C86.6519 82.5513 86.9883 83.1114 86.8503 83.6644C86.7332 84.1332 86.3123 84.4465 85.8499 84.4465Z" fill="#000072"/>
<path d="M76.4302 101.077C76.1663 101.077 75.9023 100.976 75.7007 100.775L70.4055 95.4824C70.0024 95.0794 70.0024 94.4261 70.4053 94.023C70.8081 93.6201 71.4612 93.6199 71.8645 94.0227L77.1597 99.315C77.5628 99.7179 77.5628 100.371 77.1599 100.774C76.9585 100.976 76.6943 101.077 76.4302 101.077Z" fill="#000072"/>
<path d="M60.1316 110.404C59.6731 110.404 59.2547 110.097 59.1338 109.632L57.2476 102.389C57.104 101.837 57.4346 101.274 57.9861 101.13C58.5367 100.987 59.1011 101.317 59.2447 101.869L61.1309 109.112C61.2745 109.664 60.9439 110.227 60.3924 110.371C60.3052 110.393 60.2178 110.404 60.1316 110.404Z" fill="#000072"/>
<path d="M41.5247 110.251C41.4331 110.251 41.3401 110.239 41.2476 110.213C40.6987 110.06 40.3775 109.491 40.53 108.942L42.5359 101.731C42.6885 101.182 43.2583 100.861 43.8066 101.013C44.3555 101.166 44.6767 101.735 44.5242 102.284L42.5183 109.495C42.3914 109.952 41.9766 110.251 41.5247 110.251Z" fill="#000072"/>
<path d="M25.7981 101.078C25.534 101.078 25.2698 100.977 25.0684 100.775C24.6655 100.372 24.6655 99.7188 25.0686 99.316L30.3638 94.0236C30.7666 93.6209 31.4202 93.621 31.823 94.024C32.2259 94.4271 32.2259 95.0804 31.8228 95.4833L26.5276 100.776C26.3262 100.977 26.062 101.078 25.7981 101.078Z" fill="#000072"/>
<path d="M16.2808 84.0476C15.8137 84.0476 15.3904 83.7283 15.2778 83.2539C15.1462 82.6995 15.4888 82.1433 16.0432 82.0116L23.3289 80.2812C23.8833 80.1493 24.4397 80.492 24.5713 81.0467C24.7029 81.6011 24.3604 82.1573 23.8059 82.289L16.5203 84.0194C16.44 84.0385 16.3599 84.0476 16.2808 84.0476Z" fill="#000072"/>
<path d="M23.8372 68.1881C23.7456 68.1881 23.6526 68.1759 23.5601 68.1502L16.3457 66.1436C15.7969 65.9909 15.4756 65.422 15.6282 64.8729C15.7807 64.3238 16.3506 64.0023 16.8989 64.1553L24.1133 66.1619C24.6621 66.3146 24.9834 66.8834 24.8308 67.4325C24.7039 67.8891 24.2891 68.1881 23.8372 68.1881Z" fill="#000072"/>
<path d="M31.0933 55.7642C30.8294 55.7642 30.5654 55.6635 30.3638 55.4622L25.0686 50.1699C24.6655 49.767 24.6655 49.1136 25.0684 48.7105C25.4712 48.3077 26.1243 48.3073 26.5276 48.7102L31.8228 54.0025C32.2259 54.4055 32.2259 55.0588 31.823 55.4619C31.6216 55.6634 31.3574 55.7642 31.0933 55.7642Z" fill="#000072"/>
<path d="M43.5493 48.5045C43.0972 48.5045 42.6821 48.205 42.5554 47.7481L40.5549 40.5355C40.4026 39.9864 40.7244 39.4177 41.2734 39.2655C41.8237 39.1128 42.3916 39.4352 42.5437 39.984L44.5442 47.1966C44.6965 47.7456 44.3747 48.3144 43.8257 48.4666C43.7334 48.4922 43.6404 48.5045 43.5493 48.5045Z" fill="#000072"/>
<path d="M58.1067 48.3523C58.0223 48.3523 57.9366 48.3419 57.8511 48.32C57.2989 48.1792 56.9654 47.6174 57.1063 47.0651L58.9556 39.8123C59.0965 39.2602 59.6592 38.9265 60.2103 39.0675C60.7625 39.2083 61.096 39.7701 60.9551 40.3224L59.1058 47.5752C58.9868 48.0417 58.5672 48.3523 58.1067 48.3523Z" fill="#000072"/>
<path d="M21.8386 75.9517C21.2717 75.9517 20.8105 75.4938 20.8071 74.926C20.8035 74.3562 21.2627 73.8915 21.8325 73.8879L59.2771 73.6611C59.2793 73.6611 59.2815 73.6611 59.2837 73.6611C59.8506 73.6611 60.3118 74.119 60.3152 74.6868C60.3188 75.2566 59.8597 75.7213 59.2898 75.7249L21.8452 75.9517C21.843 75.9517 21.8408 75.9517 21.8386 75.9517Z" fill="#000072"/>
<g opacity="0.35">
<path d="M69.4809 58.1233C68.8967 57.538 67.9484 57.5369 67.3629 58.1208L51.7323 73.7064L49.4342 71.4028L46.0367 68.0444L39.2731 61.2962C38.6887 60.7111 37.7423 60.7121 37.1569 61.2962C36.5715 61.8803 36.5707 62.8281 37.1551 63.4132L43.9069 70.1731L47.267 73.5689L48.3343 74.6325L22.2274 74.7909C21.6574 74.7945 21.198 75.2589 21.2016 75.8285C21.2051 76.3962 21.6665 76.8541 22.2334 76.8541C22.2357 76.8541 22.2377 76.8541 22.24 76.8541L50.3921 76.6833L50.6507 76.941L50.6533 76.9436C51.249 77.5376 52.2138 77.5365 52.8082 76.9411L53.0818 76.667L59.6844 76.6269C60.2544 76.6234 60.7137 76.159 60.7102 75.5893C60.7066 75.0217 60.2453 74.5638 59.6783 74.5638C59.6761 74.5638 59.674 74.5638 59.6718 74.5638L55.1538 74.5912L69.481 60.2378C70.0665 59.6539 70.0651 58.7085 69.4809 58.1233Z" fill="#000072"/>
</g>
<g opacity="0.45">
<path d="M35.8207 43.8525C33.6757 44.9161 31.6487 46.182 29.7848 47.6498L81.8106 90.4776C82.8893 88.3796 83.7575 86.1563 84.3923 83.8369L35.8207 43.8525Z" fill="white"/>
</g>
<g opacity="0.45">
<path d="M65.4201 106.12C68.2501 104.828 70.8783 103.17 73.2362 101.199L23.4976 54.0723C21.9249 56.1679 20.5888 58.4502 19.5209 60.8769L65.4201 106.12Z" fill="white"/>
</g>
<g opacity="0.3">
<path d="M54.0672 12.9287C54.0672 12.9287 52.864 16.9336 46.864 16.4339L47.614 17.1835H55.0085V13.9894L54.0672 12.9287Z" fill="#000072"/>
</g>
<g opacity="0.3">
<path d="M12.179 27.7441C12.179 27.7441 13.6005 33.5 7.73225 38.2101L8.25735 38.9085L15.989 32.0509L16.239 29.3023L12.179 27.7441Z" fill="#000072"/>
</g>
<g opacity="0.3">
<path d="M96.6866 34.3288C96.6866 34.3288 91.864 35.4241 85.864 30.4268L85.489 31.801L92.2545 38.8057L95.2462 37.3065L96.6866 34.3288Z" fill="#000072"/>
</g>
</svg>
