<svg width="163" height="122" viewBox="0 0 163 122" fill="none" xmlns="http://www.w3.org/2000/svg">
<path d="M118.945 96.4043C118.945 96.4043 124.204 99.3822 126.681 99.3822C126.681 99.3822 128.458 94.5998 132.603 96.964C136.749 99.3283 139.118 101.374 139.118 101.374C139.118 101.374 134.853 104.174 131.171 103.367C127.488 102.559 127.004 101.374 127.004 101.374C127.004 101.374 120.939 102.373 117.537 99.6659C117.537 99.6659 116.27 96.8723 118.945 96.4043Z" fill="#91B6E0"/>
<g opacity="0.3">
<path d="M128.714 96.8035C128.387 97.0068 128.103 97.2557 127.858 97.5184C128.031 97.5399 128.196 97.5515 128.35 97.5515C128.35 97.5515 128.469 97.2338 128.714 96.8035Z" fill="#1E276B"/>
</g>
<g opacity="0.3">
<path d="M132.496 100.868C128.813 100.06 127.324 98.736 127.324 98.736C127.324 98.736 127.153 98.8661 126.833 99.0355C126.732 99.2468 126.681 99.3821 126.681 99.3821C126.516 99.3821 126.338 99.368 126.151 99.3434C124.662 99.9137 121.851 100.374 118.281 98.0795C118.281 98.0795 118.199 97.3424 118.434 96.5386C116.446 97.2564 117.537 99.6659 117.537 99.6659C120.939 102.373 127.004 101.374 127.004 101.374C127.004 101.374 127.488 102.559 131.171 103.366C134.853 104.174 139.118 101.374 139.118 101.374C139.118 101.374 138.606 100.933 137.652 100.23C136.442 100.784 134.589 101.327 132.496 100.868Z" fill="#1E276B"/>
</g>
<path d="M132.578 104.416C132.044 104.417 131.507 104.366 130.977 104.25C128.387 103.682 127.175 102.903 126.612 102.339C124.979 102.524 120.067 102.834 116.974 100.373C116.862 100.284 116.773 100.17 116.714 100.039C116.633 99.8607 115.942 98.2548 116.646 96.9217C116.92 96.4024 117.515 95.7364 118.789 95.5135C118.996 95.4776 119.208 95.5145 119.39 95.6173C120.668 96.3404 124.13 98.1119 126.127 98.429C126.561 97.6021 127.493 96.2049 129.034 95.6451C130.283 95.191 131.635 95.3709 133.051 96.1785C137.226 98.5591 139.61 100.604 139.709 100.69C139.924 100.876 140.039 101.151 140.02 101.434C140.002 101.717 139.851 101.974 139.614 102.13C139.452 102.237 136.085 104.416 132.578 104.416ZM127.831 100.992C127.968 101.156 128.719 101.903 131.364 102.484C133.564 102.966 136.083 101.959 137.501 101.246C136.447 100.449 134.615 99.1523 132.156 97.7494C131.208 97.2091 130.389 97.0766 129.651 97.3449C128.247 97.8549 127.535 99.6789 127.528 99.6972C127.397 100.051 127.059 100.286 126.681 100.286C124.316 100.286 120.07 98.0556 118.81 97.3637C118.39 97.4945 118.285 97.6906 118.247 97.7631C118.043 98.1442 118.174 98.7536 118.289 99.1022C121.371 101.343 126.802 100.492 126.858 100.482C127.317 100.408 127.714 100.554 127.831 100.992Z" fill="#1E276B"/>
<path d="M120.435 64.7928L134.434 70.1818L142.259 72.4073C142.259 72.4073 145.274 72.8538 145.562 74.8919C145.849 76.93 144.557 78.7966 144.557 78.7966C144.557 78.7966 147.069 83.3912 144.269 87.4832C141.47 91.5753 136.342 91.2163 133.019 89.2062C129.696 87.196 121.368 83.0322 121.368 83.0322L121.44 92.7239C121.44 92.7239 120.507 94.3033 119.717 95.093C118.927 95.8827 116.774 101.626 116.774 101.626L116.415 118.353C116.415 118.353 109.236 123.091 98.7544 119.071C98.7544 119.071 86.4064 122.158 81.8119 117.348C81.094 116.199 81.8119 97.2467 81.8119 97.2467L78.7249 94.5905L76.8382 93.8726C76.8382 93.8726 75.5243 82.4356 76.8382 73.9867C76.8382 73.9867 59.7722 70.1459 52.0189 61.908C48.6448 57.7621 54.8905 51.9289 54.8905 51.9289C54.8905 51.9289 55.4648 49.4344 58.3365 48.2858C61.2081 47.1371 65.3001 49.0286 67.6692 52.821C67.6692 52.821 74.2461 56.5311 80.0889 57.1877C85.9317 57.8444 103.708 63.424 120.435 64.7928Z" fill="#91B6E0"/>
<g opacity="0.4">
<path d="M56.4181 52.3776C56.4181 52.3776 58.109 50.9015 60.8431 50.7063C63.5771 50.5111 67.9149 55.3136 67.9149 55.3136C67.9149 55.3136 68.3691 53.7775 67.1846 52.4853C66 51.1931 64.7617 48.8778 61.0465 48.3394C57.3314 47.8009 55.8602 49.8683 55.6623 50.4392C55.4643 51.0102 55.6995 51.8288 55.7459 51.9286C55.7924 52.0284 56.4181 52.3776 56.4181 52.3776Z" fill="#F5F5F5"/>
</g>
<g opacity="0.4">
<path d="M136.676 75.1379C136.857 74.9916 142.512 73.669 142.996 75.1379C143.48 76.6069 142.996 78.5452 142.996 78.5452H143.693L145.149 77.6531C145.149 77.6531 146.872 75.1694 144.934 73.6537C142.995 72.1379 139.929 73.3316 139.929 73.3316L136.676 75.1379Z" fill="#F5F5F5"/>
</g>
<g opacity="0.4">
<path d="M84.0912 110.301C84.4926 110.301 84.8181 108.508 84.8181 106.296C84.8181 104.083 84.4926 102.29 84.0912 102.29C83.6897 102.29 83.3643 104.083 83.3643 106.296C83.3643 108.508 83.6897 110.301 84.0912 110.301Z" fill="#F5F5F5"/>
</g>
<g opacity="0.4">
<path d="M101.082 110.92C101.559 110.873 101.77 109.05 101.553 106.848C101.336 104.646 100.772 102.9 100.295 102.947C99.8173 102.994 99.6063 104.817 99.8235 107.019C100.041 109.221 100.604 110.967 101.082 110.92Z" fill="#F5F5F5"/>
</g>
<path d="M139.774 71.7003L119.194 64.7551L85.8546 58.5866C85.8546 58.5866 77.7863 56.8011 77.2708 56.6685C76.7552 56.5359 70.792 54.7466 70.792 54.7466L68.6447 53.3376L67.915 53.8851C67.915 53.8851 68.2352 57.291 66.4445 61.43C64.6539 65.569 61.2902 67.8244 61.2902 67.8244L61.6994 68.6021C61.6994 68.6021 67.6483 71.6538 71.3843 72.6034C75.1202 73.553 76.5908 73.9284 76.5908 73.9284C76.5908 73.9284 75.6957 87.3357 76.7975 93.4936C77.3608 94.7403 80.1047 94.8638 82.9066 94.7403C85.7085 94.6168 91.0369 94.0324 93.2983 93.046L94.5769 93.1638C94.5769 93.1638 100.503 96.6638 108.854 96.9193C117.204 97.1748 120.038 94.7403 120.038 94.7403L121.44 92.7237L121.368 83.714L122.089 83.3944L132.473 88.8829L132.745 88.4952C132.745 88.4952 131.168 83.9955 133.474 79.1166C135.78 74.2377 140.632 73.1325 140.632 73.1325L141.251 72.1203L139.774 71.7003Z" fill="#F5F5F5"/>
<path d="M102.918 66.4768L100.477 68.6024V69.7151L101.698 80.7529L99.3646 82.6886L94.2137 85.4056C94.2137 85.4056 88.8944 80.1816 88.9909 79.6581C89.0875 79.1345 93.1204 68.6024 93.1204 68.6024L93.5137 67.2384L92.1996 60.6696L93.7351 60.0449L102.272 61.8541L102.918 63.7925V66.4768Z" fill="#FF3939"/>
<g opacity="0.3">
<path d="M53.2972 53.7217C53.2972 53.7217 52.5932 58.3542 57.3313 61.3155C62.0695 64.2769 66.5384 60.0233 66.5384 60.0233L64.8157 64.1012C64.8157 64.1012 70.092 68.1356 77.8454 69.033C80.1606 69.3501 81.0604 71.7072 80.7989 76.3376C80.5375 80.9681 80.4142 88.183 83.9218 90.3906C87.4294 92.5981 93.8725 90.8752 93.8725 90.8752V92.0597L92.8675 92.7956C92.8675 92.7956 88.2394 94.8563 83.7142 94.7404C79.189 94.6244 77.2588 94.0325 77.2588 94.0325L76.6855 92.7956C76.6855 92.7956 76.1857 83.0611 76.3307 79.5144C76.4757 75.9676 76.5715 74.2334 76.5715 74.2334C76.5715 74.2334 63.2125 70.521 56.0183 65.2991C48.8242 60.0772 50.9322 57.004 53.2972 53.7217Z" fill="#1E276B"/>
</g>
<g opacity="0.3">
<path d="M90.0139 77.8992C90.0139 77.8992 92.6522 80.5375 94.4829 80.5375C96.3135 80.5375 97.2288 71.45 97.0673 71.0941C96.9058 70.7381 92.8345 69.3502 92.8345 69.3502L93.4093 67.6006L93.2984 66.1617L92.9371 65.4197C92.9371 65.4197 97.9827 66.5383 99.0595 66.2153C100.136 65.8922 100.477 61.9079 100.477 61.9079L102.272 61.854C102.272 61.854 103.351 64.4977 103.421 64.7453C103.491 64.9929 103.385 66.092 102.918 66.4766C102.452 66.8613 100.118 69.3501 100.118 69.3501C100.118 69.3501 101.952 80.5884 101.375 81.1656C100.797 81.7428 95.0399 84.7647 94.8422 85.0739C94.6444 85.3833 93.2983 85.0739 93.2983 85.0739C93.2983 85.0739 88.9371 79.9093 88.9909 79.658C89.0448 79.4067 90.0139 77.8992 90.0139 77.8992Z" fill="#1E276B"/>
</g>
<g opacity="0.3">
<path d="M94.3751 89.6907C94.3751 89.6907 107.19 93.5674 112.574 91.8444C117.958 90.1215 116.128 80.4298 116.128 80.4298L116.189 80.081L115.626 79.7602C115.626 79.7602 117.617 79.1914 121.368 80.5375C125.119 81.8835 130.45 83.8757 130.45 83.8757C130.45 83.8757 130.438 86.9986 131.171 88.5601L122.089 83.3946L121.368 83.7142L121.437 92.2859L119.322 95.2524C119.322 95.2524 116.666 97.3364 108.374 96.9057C100.082 96.4749 94.5769 93.164 94.5769 93.164L93.8726 92.0599L94.3751 89.6907Z" fill="#1E276B"/>
</g>
<g opacity="0.3">
<path d="M133.295 79.5144C133.295 79.5144 132.334 86.5678 138.311 87.3216C144.287 88.0754 145.603 84.5757 145.603 84.5757C145.603 84.5757 144.953 90.677 138.725 90.6415C132.496 90.606 132.395 87.0952 132.395 87.0952C132.395 87.0952 131.402 82.3681 133.295 79.5144Z" fill="#1E276B"/>
</g>
<g opacity="0.3">
<path d="M103.421 64.7453C103.421 64.7453 106.905 67.4537 109.174 67.2922C111.443 67.1306 117.411 64.9177 117.743 64.7453C118.074 64.5729 119.173 65.5078 119.019 65.5932C118.864 65.6786 109.433 71.4022 106.508 70.1817C103.582 68.9613 103.421 64.7453 103.421 64.7453Z" fill="#1E276B"/>
</g>
<g opacity="0.3">
<path d="M82.9605 114.458L83.2297 112.412C83.2297 112.412 88.6678 114.081 91.8984 112.412C95.129 110.743 93.3499 100.868 93.3499 100.868H97.2288L97.8211 102.072L98.6631 117.409C98.6631 117.409 99.2409 119.021 97.7493 119.291C96.2577 119.561 93.8726 119.735 93.8726 119.735C93.8726 119.735 94.0521 117.131 92.8137 116.387C91.5753 115.643 90.9528 116.225 90.5075 117.409C90.0623 118.594 89.9989 118.794 89.9989 118.794C89.9989 118.794 89.6101 118.846 89.5831 118.739C89.5562 118.631 88.2819 116.083 87.1961 115.903C86.1103 115.723 85.356 118.05 85.356 118.05C85.356 118.05 84.7798 117.719 84.7587 117.644C84.7376 117.569 84.0374 114.62 82.9605 114.458Z" fill="#1E276B"/>
</g>
<g opacity="0.3">
<path d="M101.267 116.415L100.98 113.974C100.98 113.974 109.343 114.275 110.636 110.302C111.928 106.328 109.972 99.6516 105.808 99.5439C101.644 99.4362 101.105 100.738 95.7212 100.868C90.3369 100.998 84.8016 99.1132 84.4733 98.6286C84.145 98.144 80.7772 96.3564 80.7772 96.3564L80.0788 94.7404C80.0788 94.7404 85.0915 95.1216 88.1321 94.2801C91.1727 93.4387 93.2983 93.0461 93.2983 93.0461L94.8717 93.3299C94.8717 93.3299 98.8441 95.5057 105.144 96.6902C111.443 97.8748 118.281 95.6713 118.281 95.6713V96.9382C118.281 96.9382 116.765 102.023 116.756 102.454C116.747 102.886 116.427 117.795 116.427 117.795L116.069 118.558L112.825 119.573L111.91 118.784C111.91 118.784 111.533 117.402 110.097 117.366C108.661 117.33 107.961 119.268 107.961 119.268L107.542 119.001C107.542 119.001 106.58 116.809 105.287 116.935C103.995 117.061 103.618 118.981 103.528 118.891C103.439 118.802 102.851 118.454 102.851 118.454C102.851 118.454 102.218 116.792 101.267 116.415Z" fill="#1E276B"/>
</g>
<path d="M112.39 120.004C112.39 120.004 112.179 117.707 110.6 117.204C109.02 116.702 107.944 120.004 107.944 120.004C107.944 120.004 107.01 117.133 105.646 116.774C104.282 116.415 103.421 120.004 103.421 120.004C103.421 120.004 102.487 116.774 101.267 116.415C100.047 116.056 99.4768 119.335 99.3646 119.296C99.3646 119.296 105.098 121.978 112.39 120.004Z" fill="#F5F5F5"/>
<path d="M93.8726 119.573C93.8726 119.573 93.1547 116.128 91.9343 115.912C90.7138 115.697 89.7806 119.573 89.7806 119.573C89.7806 119.573 88.6319 116.469 87.1961 115.904C85.7603 115.338 85.1142 119.071 85.1142 119.071C85.1142 119.071 84.2528 114.979 83.3195 114.764C82.3862 114.548 81.5757 115.702 81.5757 115.702C81.5757 115.702 81.3982 117.376 83.8485 118.798C86.2987 120.22 92.4009 120.435 93.8726 119.573Z" fill="#F5F5F5"/>
<path d="M107.17 121.605C104.703 121.605 101.847 121.188 98.6941 120.015C96.7447 120.464 85.715 122.743 81.158 117.972C81.1155 117.928 81.0778 117.879 81.0452 117.827C80.8098 117.451 80.4542 116.882 80.6386 106.85C80.7119 102.865 80.8465 98.9332 80.8924 97.6483L78.2552 95.379L76.5165 94.7174C76.2009 94.5973 75.9784 94.3111 75.9399 93.9757C75.8874 93.5189 74.707 83.0287 75.8254 74.6734C72.275 73.7867 58.3279 69.9305 51.3605 62.5274C51.3456 62.5115 51.3314 62.4952 51.3177 62.4786C47.7663 58.115 53.0064 52.5206 54.0922 51.4434C54.3509 50.6707 55.2902 48.5301 58.0007 47.4464C61.3101 46.1222 65.7044 48.1368 68.3068 52.1392C69.4229 52.742 75.1481 55.7225 80.1898 56.2891C82.2667 56.5225 85.731 57.3426 90.1169 58.3807C98.3562 60.3311 109.64 63.0023 120.509 63.8914C120.595 63.8985 120.679 63.9178 120.76 63.9488L134.721 69.3233L142.457 71.5232C142.968 71.6116 146.103 72.2547 146.457 74.7659C146.701 76.4961 145.998 78.0843 145.582 78.8441C146.187 80.2164 147.575 84.2525 145.016 87.9935C141.989 92.4163 136.455 92.3406 132.551 89.9798C130.088 88.4898 124.763 85.7621 122.283 84.5059L122.344 92.7171C122.345 92.8812 122.302 93.0423 122.218 93.1837C122.178 93.252 121.217 94.8714 120.357 95.732C119.945 96.1729 118.657 99.1942 117.674 101.8L117.319 118.372C117.312 118.669 117.161 118.944 116.913 119.108C116.697 119.25 113.033 121.604 107.17 121.605ZM98.7543 118.167C98.8644 118.167 98.9742 118.187 99.0781 118.227C107.619 121.503 113.921 118.681 115.522 117.824L115.87 101.607C115.872 101.504 115.891 101.404 115.927 101.308C116.595 99.5264 118.24 95.2913 119.078 94.4537C119.578 93.9534 120.213 92.993 120.534 92.4739L120.464 83.0386C120.462 82.7242 120.623 82.431 120.89 82.2647C121.157 82.0984 121.491 82.0825 121.773 82.2234C122.114 82.3941 130.171 86.4266 133.487 88.4324C136.056 89.9869 140.85 90.8802 143.523 86.9725C145.966 83.4024 143.853 79.397 143.762 79.2281C143.6 78.9288 143.619 78.5616 143.813 78.2818C143.822 78.2683 144.899 76.6682 144.666 75.0181C144.481 73.6993 142.148 73.3047 142.124 73.3011C142.087 73.2952 142.048 73.2869 142.012 73.2767L134.187 71.0513C134.161 71.0438 134.135 71.0352 134.109 71.0254L120.231 65.6829C109.267 64.772 97.9634 62.0962 89.7004 60.1404C85.3738 59.1162 81.9564 58.3071 79.9879 58.0859C74.0308 57.4162 67.5001 53.7634 67.225 53.6081C67.0934 53.5339 66.9824 53.428 66.9023 53.2998C64.8099 49.9499 61.1948 48.1164 58.6722 49.125C56.3045 50.072 55.7906 52.0544 55.77 52.1382C55.728 52.3083 55.6357 52.4697 55.5075 52.5893C55.4521 52.6413 49.9465 57.8718 52.7004 61.3127C60.1829 69.2341 76.8688 73.0666 77.0367 73.1045C77.5008 73.2092 77.8045 73.6555 77.7315 74.1255C76.6127 81.3196 77.4441 90.865 77.6793 93.2251L79.0463 93.7453C79.1443 93.7827 79.235 93.8366 79.3145 93.905L82.4015 96.5612C82.6101 96.7407 82.7257 97.0056 82.7152 97.2807C82.3938 105.767 82.2481 115.345 82.5941 116.853C86.8787 121.039 98.418 118.223 98.5353 118.194C98.6074 118.176 98.6809 118.167 98.7543 118.167Z" fill="#1E276B"/>
<path d="M107.365 71.258C106.776 71.258 106.389 71.1372 106.094 70.9856C103.262 69.5288 102.145 63.416 102.027 62.7236C101.943 62.2317 102.274 61.7649 102.766 61.6807C103.258 61.5969 103.725 61.9275 103.809 62.4195C104.198 64.691 105.387 68.5887 106.921 69.3777C108.16 70.0157 114.672 67.1175 119.978 64.0123C120.409 63.7603 120.963 63.9048 121.215 64.3358C121.468 64.7669 121.323 65.3206 120.892 65.5728C120.863 65.5897 117.968 67.2801 114.802 68.7879C110.749 70.7187 108.609 71.258 107.365 71.258Z" fill="#1E276B"/>
<path d="M93.8658 86.3096C93.7389 86.3096 93.6597 86.2833 93.5867 86.2588C93.0635 86.0845 91.6855 84.6224 90.6216 83.4265C88.1613 80.6611 88.1127 80.0305 88.0893 79.7273C88.0174 78.792 90.355 72.9126 92.3703 68.0489L91.3031 59.9192C91.2381 59.4241 91.5867 58.97 92.0818 58.9051C92.5773 58.8409 93.0309 59.1888 93.0959 59.6839L94.1946 68.0537C94.2154 68.2112 94.1941 68.3714 94.1333 68.5178C92.1753 73.2366 90.1077 78.5439 89.9065 79.5759C90.294 80.4365 93.0768 83.5356 94.0736 84.4226C95.3895 83.9216 99.7057 81.6157 100.515 80.812C100.571 79.6846 99.9193 74.1282 99.2229 69.1585C99.1815 68.8631 99.2885 68.5664 99.5087 68.3653L102.811 65.3501C103.18 65.0135 103.751 65.0396 104.088 65.4082C104.425 65.7769 104.399 66.3489 104.03 66.6856L101.08 69.3797C102.099 76.7122 102.484 80.7832 102.221 81.4829C102.11 81.7796 101.879 82.3963 98.0961 84.4544C95.2078 86.0259 94.2816 86.3096 93.8658 86.3096Z" fill="#1E276B"/>
<path d="M100.119 69.9374C100.082 69.9374 100.044 69.935 100.005 69.9301L93.185 69.0686C92.6897 69.0061 92.3387 68.5537 92.4013 68.0583C92.4639 67.563 92.9161 67.2129 93.4116 67.2746L100.232 68.1362C100.727 68.1987 101.078 68.6511 101.015 69.1464C100.958 69.6035 100.568 69.9374 100.119 69.9374Z" fill="#1E276B"/>
<path d="M110.039 97.867C101.114 97.8675 93.8367 93.8147 93.4263 93.5818C93.1434 93.4212 92.9686 93.1209 92.9686 92.7954V85.4011C92.9686 84.9019 93.3734 84.4971 93.8726 84.4971C94.3719 84.4971 94.7767 84.9019 94.7767 85.4011V92.2498C97.1829 93.4697 108.649 98.7302 119.369 94.2583C119.83 94.0664 120.359 94.2842 120.552 94.7447C120.744 95.2056 120.526 95.7349 120.065 95.9273C116.673 97.3423 113.248 97.867 110.039 97.867Z" fill="#1E276B"/>
<path d="M82.4989 95.6453C81.3086 95.6453 80.0272 95.5989 78.6545 95.4917C78.1567 95.4529 77.7847 95.0178 77.8235 94.52C77.8623 94.0225 78.2972 93.6484 78.7952 93.689C88.4873 94.4441 93.4131 92.0147 93.4616 91.9902C93.9062 91.7651 94.4501 91.9412 94.6768 92.385C94.9033 92.8289 94.7293 93.3716 94.2861 93.5994C94.1003 93.6951 90.206 95.6453 82.4989 95.6453Z" fill="#1E276B"/>
<path d="M98.7535 119.975C98.277 119.975 97.878 119.602 97.8516 119.12L96.8983 101.758C88.2383 102.448 81.6054 98.1916 81.3175 98.0036C80.8994 97.7304 80.7818 97.1704 81.0549 96.7522C81.3275 96.3347 81.8872 96.217 82.3054 96.489C82.3734 96.5332 89.1897 100.889 97.6408 99.8667C97.8889 99.8364 98.1386 99.9106 98.3302 100.071C98.5219 100.232 98.6383 100.465 98.652 100.715L99.6572 119.021C99.6846 119.52 99.3026 119.946 98.8041 119.974C98.7871 119.974 98.7703 119.975 98.7535 119.975Z" fill="#1E276B"/>
<path d="M97.5532 99.8818C98.3508 99.64 99.2007 99.6009 100.036 99.6117C100.318 99.6121 100.614 99.6709 100.964 99.973C101.007 100.01 101.018 100.07 100.996 100.12C100.661 100.854 100.132 100.896 99.5383 101.187C99.0194 101.395 98.4939 101.573 97.9454 101.647C96.8464 101.778 96.5097 100.223 97.5532 99.8818Z" fill="#1E276B"/>
<path d="M120.921 83.8178C119.869 83.2705 118.867 82.6324 117.886 81.9668C116.893 81.2239 115.807 80.7382 115.157 79.5799C115.126 79.5242 115.168 79.4502 115.232 79.4491C116.559 79.4172 117.531 80.1046 118.676 80.5798C119.749 81.0844 120.809 81.6207 121.816 82.2467C122.774 82.8769 121.948 84.3178 120.921 83.8178Z" fill="#1E276B"/>
<path d="M133.018 89.901C132.763 89.901 132.517 89.7594 132.396 89.5145C132.315 89.3512 130.442 85.4557 132.363 80.0013C134.517 73.8844 139.834 71.9454 143.728 72.1434C144.111 72.163 144.407 72.4896 144.387 72.8734C144.367 73.2567 144.035 73.5492 143.657 73.5326C140.24 73.3576 135.574 75.0702 133.675 80.4633C131.958 85.3375 133.626 88.8649 133.643 88.9C133.811 89.2445 133.669 89.6608 133.325 89.8295C133.226 89.878 133.121 89.901 133.018 89.901Z" fill="#1E276B"/>
<path d="M127.649 86.948C127.319 86.948 127.027 86.7126 126.966 86.3764C125.786 79.8718 127.956 75.6865 129.985 73.3205C132.186 70.7534 134.654 69.7436 134.759 69.7019C135.115 69.5598 135.52 69.7321 135.663 70.0883C135.806 70.4448 135.633 70.8496 135.277 70.9926C134.895 71.1477 126.278 74.7934 128.334 86.1284C128.403 86.5063 128.152 86.8681 127.774 86.9367C127.732 86.9443 127.69 86.948 127.649 86.948Z" fill="#1E276B"/>
<path d="M144.684 79.6915C143.851 79.8385 143.012 79.9473 142.171 80.0416L142.936 79.0848C142.959 79.7685 142.847 80.4155 142.632 81.0616C142.232 82.3184 141.111 83.4895 139.788 83.7208C139.145 83.8349 138.504 83.7584 137.943 83.4663C137.902 83.445 137.886 83.3945 137.908 83.3536C139.393 82.6288 140.679 82.3989 141.051 80.594C141.141 80.1985 141.178 79.7762 141.16 79.3682C141.159 79.3178 141.155 79.2432 141.151 79.226C141.071 78.7894 141.36 78.3704 141.797 78.2901C142.67 78.137 143.547 77.9981 144.429 77.9014C145.586 77.8062 145.819 79.4585 144.684 79.6915Z" fill="#1E276B"/>
<path d="M60.8437 68.8671C60.6266 68.8671 60.4126 68.7658 60.277 68.5753C60.054 68.2626 60.1266 67.8283 60.4393 67.6054C60.5502 67.5255 68.6693 61.5815 66.9866 52.954C66.9131 52.5771 67.1591 52.2118 67.536 52.1384C67.9131 52.0644 68.2782 52.311 68.3518 52.6879C70.211 62.2192 61.6139 68.476 61.247 68.7377C61.1245 68.8251 60.9835 68.8671 60.8437 68.8671Z" fill="#1E276B"/>
<path d="M56.3349 50.6968C56.4743 51.5455 56.9357 52.3847 57.5611 52.9989C58.1085 53.5759 58.8006 53.9063 59.4507 54.3617C59.6868 54.5185 59.9234 54.6995 60.1519 54.965C60.1841 55.0022 60.1801 55.0584 60.1429 55.0905C59.8238 55.2267 59.4831 55.2431 59.1626 55.2518C56.8812 55.0128 54.6003 53.1251 54.5267 50.7157C54.5512 49.5212 56.2852 49.5016 56.3349 50.6968Z" fill="#1E276B"/>
<path d="M112.389 120.7C112.033 120.7 111.73 120.428 111.697 120.068C111.696 120.051 111.487 118.216 110.389 117.867C109.747 117.667 108.896 119.326 108.605 120.22C108.511 120.506 108.245 120.7 107.944 120.7C107.943 120.7 107.943 120.7 107.943 120.7C107.642 120.699 107.375 120.506 107.282 120.219C106.951 119.206 106.146 117.624 105.469 117.446C105.458 117.443 105.441 117.439 105.387 117.471C104.877 117.776 104.316 119.26 104.097 120.167C104.023 120.473 103.752 120.692 103.437 120.699C103.431 120.699 103.426 120.699 103.421 120.699C103.112 120.699 102.839 120.495 102.753 120.197C102.365 118.858 101.591 117.267 101.089 117.088C100.942 117.165 100.644 117.533 100.188 119.065C100.045 119.546 99.9799 119.765 99.6869 119.914C99.5172 120.001 99.3144 120.015 99.1348 119.952C98.7724 119.825 98.5815 119.428 98.7084 119.066C98.7264 119.015 98.7496 118.967 98.7774 118.923C98.7984 118.858 98.8288 118.756 98.8545 118.669C99.1819 117.568 99.8627 115.276 101.463 115.748C102.291 115.991 102.941 116.979 103.395 117.947C103.707 117.27 104.131 116.602 104.673 116.278C105.037 116.06 105.435 115.998 105.823 116.101C106.769 116.35 107.488 117.35 107.962 118.26C108.551 117.224 109.511 116.129 110.811 116.541C112.807 117.177 113.072 119.828 113.082 119.941C113.118 120.323 112.836 120.662 112.453 120.697C112.432 120.699 112.41 120.7 112.389 120.7ZM99.3646 118.6C99.4409 118.6 99.5184 118.612 99.5946 118.639C99.4813 118.6 99.3716 118.592 99.271 118.606C99.3019 118.602 99.3331 118.6 99.3646 118.6Z" fill="#1E276B"/>
<path d="M93.8719 120.269C93.5496 120.269 93.2604 120.043 93.1918 119.715C92.8554 118.108 92.1932 116.736 91.8428 116.605C91.4697 116.793 90.8057 118.287 90.4567 119.736C90.3851 120.034 90.1274 120.249 89.822 120.267C89.5173 120.282 89.235 120.102 89.1285 119.815C88.6945 118.646 87.7291 116.861 86.9412 116.55C86.905 116.536 86.9028 116.537 86.8754 116.553C86.4669 116.782 85.9892 118.101 85.7994 119.19C85.7421 119.518 85.4598 119.76 85.1264 119.766C84.802 119.765 84.5026 119.54 84.4337 119.214C84.0693 117.486 83.4626 115.756 83.1131 115.434C82.7662 115.411 82.3079 115.874 82.143 116.104C81.9202 116.416 81.4868 116.49 81.1744 116.268C80.862 116.047 80.7864 115.616 81.0064 115.303C81.117 115.145 82.1257 113.776 83.4759 114.086C84.1053 114.231 84.6739 115.061 85.1743 116.56C85.4331 116.042 85.7681 115.58 86.1937 115.34C86.5899 115.117 87.025 115.088 87.451 115.256C88.3597 115.614 89.1215 116.679 89.6491 117.635C90.1498 116.337 90.9378 115.029 92.0551 115.227C93.6181 115.503 94.3625 118.515 94.5535 119.432C94.6318 119.808 94.3905 120.175 94.0147 120.254C93.9669 120.264 93.919 120.269 93.8719 120.269Z" fill="#1E276B"/>
<path d="M65.3663 71.0431C65.119 71.0431 64.8796 70.911 64.7538 70.6781C64.5715 70.3407 64.6967 69.9196 65.0335 69.7365C65.3142 69.5827 71.8344 65.8832 71.6573 55.0456C71.6511 54.6613 71.9573 54.3449 72.3414 54.3388C72.7291 54.3305 73.0418 54.6386 73.0482 55.0226C73.2397 66.747 66.0043 70.7929 65.6964 70.9594C65.5913 71.0163 65.478 71.0431 65.3663 71.0431Z" fill="#1E276B"/>
<path d="M83.9296 60.0233C83.9296 60.0233 78.0069 57.8696 74.9917 52.9161C74.9917 52.9161 65.8385 54.1007 64.7616 44.6243C63.6848 35.148 60.4542 32.3482 57.8698 25.7794C55.2853 19.2106 54.5315 9.41115 66.2692 3.3808C73.6995 -0.0651454 81.1298 4.1346 85.7603 8.98045C85.7603 8.98045 91.683 5.96525 97.821 5.5345C97.821 5.5345 97.2826 4.1346 97.821 3.70385C98.3595 3.2731 103.313 4.1346 103.313 4.1346C103.313 4.1346 103.205 0.904053 103.959 0.904053C104.713 0.904053 108.266 2.7347 109.989 5.5345C109.989 5.5345 121.189 5.42681 129.911 15.5493C132.28 18.9952 134.542 19.749 137.665 19.3183C140.787 18.8875 154.679 13.3956 160.386 25.241C166.093 37.0864 155.863 47.9626 150.048 52.7008C144.233 57.4389 142.187 58.4081 139.388 62.8232C136.588 67.2383 128.834 63.7923 127.65 61.854C127.65 61.854 115.295 69.183 97.0672 63.1462C97.0672 63.1462 95.2904 69.8766 85.9756 73.2149C85.9756 73.2149 84.9526 76.4454 81.5066 76.607C78.0607 76.7685 78.3838 72.2996 78.0069 71.3304C77.63 70.3612 75.3147 67.6152 76.0685 66.4306C76.8223 65.2461 79.4068 65.3538 80.699 66.0538C81.9913 66.7537 83.7143 62.6078 83.9296 60.0233Z" fill="#91B6E0"/>
<g opacity="0.4">
<path d="M151.205 17.9858C144.269 17.2722 138.725 19.1024 138.725 19.1024C138.725 19.1024 135.484 20.072 132.711 18.2144C129.938 16.3569 128.979 14.2343 125.743 11.5535C122.508 8.87274 116.596 5.57744 110.206 5.53799C110.206 5.53799 105.503 0.401445 103.959 0.903995C103.241 1.29884 103.313 4.13454 103.313 4.13454C103.313 4.13454 98.9209 3.12949 97.9941 3.63199C97.0672 4.13454 97.5357 5.55679 97.5357 5.55679C97.5357 5.55679 86.3 6.61879 83.0907 11.7223C79.8813 16.8257 78.5693 17.9687 78.2058 22.3592C77.8423 26.7497 77.4449 33.7659 77.4449 33.7659C77.4449 33.7659 79.9444 20.3989 84.0893 14.5652C85.0373 15.1584 87.3548 14.8785 89.7886 13.7941C92.6638 12.5129 94.6047 10.5989 94.1235 9.51909C94.0511 9.35659 93.9226 9.22574 93.756 9.11914C97.41 8.20099 100.557 7.96984 100.477 7.65234C100.334 7.07799 100.047 5.96044 100.047 5.96044C100.047 5.96044 102.775 6.14479 104.067 6.71909C105.359 7.29344 105.072 5.28329 105.682 5.21149C106.292 5.13969 107.8 7.50879 108.159 7.58059C108.518 7.65239 120.722 9.15999 126.394 15.4057C129.193 18.4927 131.203 21.8669 135.152 21.9028C139.1 21.9387 152.956 15.2622 160.386 25.241C160.386 25.2409 158.14 18.6995 151.205 17.9858Z" fill="#F5F5F5"/>
</g>
<g opacity="0.4">
<path d="M81.2375 66.8612C81.2375 66.8612 84.8988 65.892 85.491 61.8538C86.0833 57.8156 86.1371 49.2546 90.1753 43.7627C94.2135 38.2707 99.2927 39.5561 99.2927 39.5561C99.2927 39.5561 93.5082 37.3225 89.8495 40.4349C86.1909 43.5473 84.6827 51.0416 84.6827 51.0416L83.9477 58.5865C83.9477 58.5865 83.9295 61.3423 83.3103 63.2537C82.6912 65.1651 81.2375 66.8612 81.2375 66.8612Z" fill="#F5F5F5"/>
</g>
<path d="M100.25 53.4762C100.25 53.4762 104.139 50.4101 104.377 50.2456C104.615 50.0812 105.251 49.9368 105.251 49.9368C105.251 49.9368 104.93 52.9223 103.278 54.6063C101.626 56.2902 99.7953 56.2546 99.7953 56.2546C99.7953 56.2546 99.2927 56.1108 99.2927 55.9313C99.2927 55.7518 99.3645 54.7467 99.3645 54.7467L100.25 53.4762Z" fill="#F5F5F5"/>
<path d="M136.104 27.5047C136.104 27.5047 144.473 22.8127 151.649 24.3498C158.825 25.8869 159.158 34.4858 157.295 41.4664C155.433 48.447 152.632 49.9836 146.797 55.2886C140.962 60.5936 140.606 60.9385 139.162 63.1461C137.718 65.3536 133.311 64.9767 130.992 64.1152C128.673 63.2537 128.408 62.6555 128.408 62.6555V61.8538C128.408 61.8538 132.853 57.3902 134.263 48.7458C135.672 40.1014 134.273 29.7287 134.273 29.7287L134.455 28.672L136.104 27.5047Z" fill="#FF8CCA"/>
<path d="M79.7468 12.2086C79.7468 12.2086 75.1194 3.56419 66.9477 6.61099C58.776 9.65774 57.1799 18.8718 57.7671 24.0486C58.3543 29.2254 62.447 33.9151 63.4368 38.0862C64.4265 42.2574 64.3272 47.8576 67.3711 50.5215C70.4151 53.1854 73.8072 52.9162 73.8072 52.9162L74.5951 52.2821C74.5951 52.2821 70.9629 46.6733 72.4389 42.4721C73.9149 38.2709 76.607 37.1402 77.2531 34.9865C77.8992 32.8328 77.096 23.1432 80.0552 16.8426C80.7529 15.0109 80.799 14.4005 80.799 14.4005L79.7468 12.2086Z" fill="#FF8CCA"/>
<g opacity="0.3">
<path d="M58.6087 16.0402C58.6087 16.0402 63.7924 8.94457 70.3971 9.94962C77.0018 10.9547 77.4326 17.344 76.2839 18.8516C75.1353 20.3592 72.5508 24.5948 73.6995 27.7536C74.8481 30.9124 76.6354 33.8078 75.7814 36.0095C75.7814 36.0095 77.4702 35.0278 77.4514 30.1703C77.4326 25.3128 78.1848 20.2453 79.335 17.9363C80.4853 15.6274 80.9503 14.5263 80.9503 14.5263C80.9503 14.5263 82.2775 13.0382 82.403 12.8627C82.5285 12.6872 83.1489 11.8587 83.1489 11.8587C83.1489 11.8587 80.6991 5.58836 72.9188 4.29611C65.1386 3.00391 59.058 9.41116 57.6159 12.0764C56.1737 14.7416 56.3353 18.2683 56.5776 18.8336C56.8199 19.399 57.116 19.6413 57.3852 19.4259C57.6544 19.2105 57.8703 18.8875 57.8703 18.8875L58.6087 16.0402Z" fill="#1E276B"/>
</g>
<g opacity="0.3">
<path d="M61.5688 33.4592C61.5688 33.4592 65.1923 37.7324 66.2692 41.0168C67.346 44.3012 68.516 49.3098 73.0999 49.363L74.3804 51.9287L73.2212 52.916C73.2212 52.916 68.2614 52.6468 65.8923 48.8778C63.5232 45.1088 64.5785 41.9293 63.838 39.4974C63.0976 37.0656 61.5688 33.4592 61.5688 33.4592Z" fill="#1E276B"/>
</g>
<g opacity="0.3">
<path d="M76.8381 35.894C76.8381 35.894 73.9867 41.4654 76.2122 46.7779C78.4377 52.0904 83.7143 54.3876 83.7143 54.3876C83.7143 54.3876 83.9565 57.6111 83.9475 57.9024C83.9386 58.1938 83.7143 59.3053 83.7143 59.3053H82.3299C82.3299 59.3053 76.7583 56.4836 73.6854 50.5359C70.6125 44.5883 73.2839 40.8919 73.5276 40.0659C73.7713 39.2399 76.8381 35.894 76.8381 35.894Z" fill="#1E276B"/>
</g>
<g opacity="0.3">
<path d="M76.8381 67.9381C76.8381 67.9381 79.6222 67.615 81.722 68.9611C83.8219 70.3071 91.9521 67.1484 93.8366 59.3053C95.7211 51.4622 105.682 48.6085 105.682 48.6085L100.25 53.4761L99.2927 55.5004L98.6098 58.2724C98.6098 58.2724 111.765 62.3986 121.943 59.3053C132.12 56.212 134.793 42.2815 134.793 42.2815C134.793 42.2815 135.464 59.1258 124.827 63.1461C114.189 67.1663 102.48 65.447 98.3197 63.5428L97.0672 63.7204C97.0672 63.7204 97.6774 61.5413 97.7492 61.3275C97.821 61.1137 97.821 58.7669 97.821 58.7669C97.821 58.7669 95.6673 68.0996 84.7193 71.8327C84.7193 71.8327 83.6425 74.4531 81.7041 74.8479C79.7658 75.2428 78.5095 72.8378 78.5095 72.8378C78.5095 72.8378 77.8634 70.9713 77.5044 70.2534C77.1454 69.5354 76.8381 67.9381 76.8381 67.9381Z" fill="#1E276B"/>
</g>
<g opacity="0.3">
<path d="M130.45 59.6464C130.45 59.6464 134.434 61.9617 136.965 60.4002C139.495 58.8388 142.868 55.2137 149.258 53.0957C149.258 53.0957 143.268 57.5409 141.947 59.4551C140.626 61.3694 139.4 64.2402 136.325 64.6893C133.249 65.1384 129.096 63.1462 129.096 63.1462L128.191 62.4703V61.5848L130.45 59.6464Z" fill="#1E276B"/>
</g>
<g opacity="0.3">
<path d="M158.197 36.2249C158.197 36.2249 156.833 29.5408 150.659 28.2165C144.485 26.8921 138.725 32.5784 138.725 32.5784C138.725 32.5784 142.779 43.0449 134.801 47.8549C134.801 47.8549 135.134 36.5155 134.801 33.9994C134.469 31.4832 134.075 28.0165 134.075 28.0165C134.075 28.0165 137.018 21.9386 147.572 21.5079C158.125 21.0771 161.427 29.333 158.197 36.2249Z" fill="#1E276B"/>
</g>
<path d="M83.7559 59.975C84.7126 60.0323 85.6274 60.3815 86.4161 60.9116C87.1613 61.4521 87.9738 62.103 88.0159 63.1136C88.0182 63.1628 87.9645 63.1989 87.9198 63.1784C87.06 62.8481 86.6114 62.297 85.8095 61.9793C85.1305 61.672 84.4056 61.4804 83.6726 61.3635C82.7609 61.2697 82.843 59.9473 83.7559 59.975Z" fill="#1E276B"/>
<path d="M84.2651 51.5906C86.611 50.8991 89.3524 51.1807 91.295 52.7385C91.9387 53.2416 92.4429 53.9261 92.6459 54.7139C92.6605 54.7673 92.5954 54.8135 92.5505 54.7795C91.3143 53.9139 90.2784 53.0483 88.8078 52.7798C87.4525 52.4992 85.9944 52.5976 84.655 52.9249C83.7817 53.1418 83.4117 51.8795 84.2651 51.5906Z" fill="#1E276B"/>
<path d="M87.09 42.9565C90.6445 42.5022 94.9595 43.4993 97.4398 46.2077C97.6699 46.5168 97.8956 46.8316 98.0789 47.1693C98.0944 47.1983 98.0834 47.2345 98.0544 47.2501C98.0367 47.2595 98.0165 47.2592 97.9998 47.251C97.7644 47.1335 97.551 47.0007 97.3419 46.8688C95.9522 45.9722 94.4865 45.1442 92.8671 44.755C91.0533 44.29 89.1289 44.1505 87.2683 44.3352C86.3704 44.4192 86.1953 43.1068 87.09 42.9565Z" fill="#1E276B"/>
<path d="M81.3179 77.5154C77.9787 77.5154 77.5032 73.981 77.2975 72.4524C77.2586 72.1633 77.2054 71.7676 77.1641 71.6577C77.089 71.4646 76.8256 71.0454 76.5708 70.6399C75.6294 69.1418 74.4579 67.2773 75.3057 65.9451C76.3722 64.2698 79.3843 64.3882 81.0111 65.1973C81.5859 64.8218 82.6179 62.6399 82.948 60.5989C81.3151 59.8872 77.1195 57.769 74.5199 53.8581C73.2196 53.9145 70.0346 53.8135 67.4352 51.7773C65.417 50.1965 64.2154 47.8242 63.8633 44.7263C63.1462 38.4155 61.4367 35.1203 59.6268 31.6318C58.7601 29.9609 57.8637 28.2331 57.0285 26.1103C55.8778 23.1855 54.7339 18.7397 55.8191 14.1692C56.9741 9.30515 60.3511 5.40475 65.8561 2.5764C65.8669 2.5708 65.8779 2.5654 65.8889 2.5603C74.9796 -1.65525 83.0675 5.0249 85.9515 7.885C87.5216 7.1548 91.918 5.2783 96.6968 4.73095C96.6305 4.12305 96.712 3.43335 97.2565 2.9978C97.5147 2.791 98.0322 2.376 102.407 3.0674C102.444 1.97755 102.615 0.876001 103.1 0.373801C103.333 0.132851 103.639 0 103.959 0C105.128 0 108.624 1.97805 110.484 4.64185C112.828 4.7456 122.651 5.73855 130.596 14.959C130.618 14.9839 130.638 15.0098 130.656 15.0369C132.933 18.3489 134.905 18.7861 137.541 18.4226C137.922 18.3699 138.555 18.2154 139.287 18.0364C144.275 16.8176 155.956 13.9639 161.201 24.8486C163.829 30.3025 163.537 36.0945 160.335 42.0635C157.497 47.3533 153.03 51.4377 150.62 53.4016C149.321 54.4595 148.215 55.3259 147.24 56.0906C143.915 58.6963 142.246 60.0041 140.151 63.3071C139.085 64.989 137.314 65.8765 135.026 65.8765C135.001 65.8765 134.977 65.8762 134.952 65.8762C132.118 65.8525 128.889 64.4087 127.432 62.9949C126.221 63.6025 123.435 64.8345 119.372 65.6501C114.514 66.6257 106.852 67.1538 97.6232 64.2747C96.7918 66.2805 94.0889 71.134 86.6658 73.9243C86.2131 74.9384 84.7971 77.3576 81.549 77.5097C81.4705 77.5134 81.3934 77.5154 81.3179 77.5154ZM78.3879 66.4394C77.6714 66.4394 77.0319 66.6006 76.8312 66.916C76.7856 67.021 76.6404 67.3518 78.1019 69.6777C78.4427 70.2202 78.7119 70.6484 78.8496 71.0026C78.968 71.3069 79.0217 71.706 79.0897 72.2111C79.4023 74.5336 79.8728 75.7856 81.4643 75.7036C84.2171 75.5747 85.0798 73.0447 85.1152 72.937C85.2023 72.6723 85.4082 72.4575 85.6706 72.3635C94.4364 69.2221 96.1765 62.9782 96.1931 62.9155C96.2568 62.6743 96.4172 62.4702 96.6366 62.3513C96.8559 62.2324 97.115 62.2097 97.3514 62.288C114.937 68.112 127.069 61.1469 127.19 61.0756C127.615 60.8249 128.164 60.9616 128.422 61.3825C128.975 62.2878 132.119 64.0444 134.967 64.0678C136.657 64.0891 137.888 63.5002 138.624 62.3388C140.886 58.7729 142.746 57.3147 146.125 54.6674C147.094 53.9077 148.193 53.0466 149.478 51.9997C154.4 47.989 165.237 37.3906 159.572 25.6333C154.963 16.0676 144.665 18.5835 139.717 19.7929C138.903 19.9916 138.261 20.1484 137.788 20.2138C134.061 20.727 131.569 19.5364 129.195 16.1028C120.875 6.47895 110.118 6.4448 109.997 6.43845C109.685 6.44575 109.385 6.27755 109.22 6.00825C107.882 3.83465 105.395 2.36935 104.338 1.93695C104.245 2.4377 104.191 3.31315 104.217 4.10465C104.226 4.3764 104.112 4.6381 103.906 4.81655C103.701 4.99525 103.426 5.0724 103.158 5.02505C101.422 4.7233 99.3322 4.46745 98.4912 4.4838C98.512 4.69085 98.5792 4.9828 98.6659 5.2118C98.7672 5.47915 98.7364 5.7799 98.5823 6.02065C98.4282 6.26135 98.1697 6.41615 97.8845 6.43615C92.0099 6.84825 86.2282 9.75695 86.1704 9.78625C85.8147 9.96665 85.3825 9.89365 85.1068 9.60485C82.9393 7.33655 75.2068 0.246199 66.6663 4.193C54.8609 10.2689 56.6139 20.1171 58.7113 25.4481C59.5122 27.4838 60.3865 29.1691 61.2321 30.799C63.1211 34.4401 64.9053 37.8793 65.6602 44.5221C65.9547 47.1142 66.9231 49.0732 68.5384 50.3442C71.2124 52.4487 74.8414 52.0241 74.878 52.0189C75.2304 51.9747 75.5791 52.1417 75.7643 52.4459C78.5718 57.0585 84.1833 59.1532 84.2397 59.1737C84.6221 59.3136 84.8647 59.6923 84.8309 60.098C84.6455 62.3234 83.4057 65.9579 81.8078 66.822C81.2951 67.0988 80.7486 67.1088 80.2688 66.8485C79.7615 66.5742 79.0427 66.4394 78.3879 66.4394Z" fill="#1E276B"/>
<path d="M83.0259 60.0526C82.8333 51.7246 85.2442 36.1436 96.7039 38.3875C98.0675 38.7042 99.3463 39.248 100.507 39.9606C100.543 39.9826 100.554 40.0294 100.532 40.0652C100.514 40.0945 100.479 40.1071 100.447 40.0986C99.1402 39.7467 97.8469 39.4347 96.5545 39.3102C87.4641 38.1925 85.4901 49.1569 84.963 56.0578C84.8714 57.3617 84.8208 58.714 84.8334 60.0094C84.8232 61.1888 83.099 61.2447 83.0259 60.0526Z" fill="#1E276B"/>
<path d="M74.9926 53.8203C74.6959 53.8203 74.4054 53.6746 74.2324 53.4068C68.374 44.3431 72.4273 39.6985 74.6049 37.2034L74.846 36.926C76.1829 35.3779 76.2462 34.4666 76.5509 30.0862C76.654 28.6042 76.7822 26.76 76.9989 24.4043C77.8832 14.7871 84.8673 8.56103 85.1642 8.30078C85.5393 7.97118 86.1108 8.00878 86.4401 8.38428C86.7693 8.75978 86.7319 9.33103 86.3564 9.66013C86.2548 9.75023 79.6139 15.7121 78.7995 24.5698C78.5847 26.9055 78.4573 28.7385 78.3548 30.2116C78.04 34.738 77.945 36.1042 76.2144 38.1079L75.9672 38.3923C73.8428 40.8266 70.6323 44.5056 75.751 52.4252C76.0221 52.8444 75.9019 53.4042 75.4825 53.6752C75.3308 53.7734 75.1607 53.8203 74.9926 53.8203Z" fill="#1E276B"/>
<path d="M59.0264 29.3324C58.6823 29.3324 58.3536 29.1349 58.2023 28.8012C55.8641 23.6376 56.29 17.4748 59.3416 12.3158C61.847 8.08023 65.6988 5.36903 69.6453 5.06363C78.5009 4.37563 81.8521 14.6347 81.8849 14.7382C82.0357 15.214 81.772 15.7223 81.2961 15.8729C80.8205 16.024 80.3127 15.7606 80.1614 15.2853C80.044 14.9176 77.1998 6.28723 69.7848 6.86633C66.4257 7.12633 63.1034 9.50768 60.8979 13.2362C58.1462 17.8885 57.7542 23.4281 59.8495 28.055C60.0555 28.5099 59.8538 29.0458 59.3988 29.2516C59.2779 29.3065 59.1512 29.3324 59.0264 29.3324Z" fill="#1E276B"/>
<path d="M127.651 62.7583C127.347 62.7583 127.05 62.605 126.879 62.3269C126.619 61.9024 126.751 61.3477 127.174 61.0855C127.228 61.0511 131.605 58.2166 133.115 50.1651C134.689 41.7701 133.545 28.6402 133.534 28.5086C133.503 28.169 133.667 27.8413 133.956 27.6612C134.427 27.367 145.602 20.5057 154.599 24.3001C156.915 25.2761 158.385 27.3821 158.969 30.5591C160.229 37.4124 156.849 47.5874 154.656 49.6829C154.295 50.0281 153.723 50.015 153.378 49.6541C153.033 49.293 153.046 48.7208 153.407 48.3758C155.037 46.8172 158.375 37.3263 157.19 30.8861C156.723 28.346 155.615 26.6908 153.897 25.9661C146.738 22.9481 137.546 27.6995 135.382 28.9215C135.592 31.5975 136.34 42.7765 134.892 50.4981C133.222 59.4049 128.33 62.4974 128.123 62.6246C127.975 62.7151 127.812 62.7583 127.651 62.7583Z" fill="#1E276B"/>
<path d="M81.8517 32.7144C82.7542 30.579 84.9454 28.9827 87.3759 29.3187C89.9774 29.6892 90.8991 32.7309 90.4766 34.9828C90.4226 35.2985 89.96 35.3168 89.8797 35.0105C89.6148 34.0629 89.2918 33.1102 88.8354 32.3623C87.3188 29.7417 84.1563 31.6759 82.3463 33.0588C82.1099 33.274 81.7291 33.0084 81.8517 32.7144Z" fill="#1E276B"/>
<path d="M109.778 39.1944C110.681 37.0591 112.872 35.4626 115.302 35.7987C117.904 36.1691 118.826 39.2108 118.403 41.4628C118.349 41.7785 117.886 41.7968 117.806 41.4905C117.541 40.5429 117.218 39.5902 116.762 38.8423C115.245 36.2216 112.083 38.156 110.273 39.5388C110.036 39.7539 109.655 39.4885 109.778 39.1944Z" fill="#1E276B"/>
<path d="M84.5784 23.2618C85.629 21.9812 87.1279 21.0639 88.818 21.0125C89.6598 21.0189 90.4251 21.6009 90.9107 22.1821C91.416 22.7839 91.7678 23.4323 91.9901 24.1622C92.0404 24.3275 91.9473 24.5024 91.782 24.5527C91.6737 24.5858 91.5643 24.5569 91.4835 24.4888C90.7004 23.9091 90.0038 23.2297 89.1729 22.8643C88.966 22.7763 88.855 22.7836 88.6581 22.8116C87.486 23.0211 86.1671 23.5988 84.8815 23.776C84.6042 23.8269 84.4017 23.4769 84.5784 23.2618Z" fill="#1E276B"/>
<path d="M121.001 31.4255C119.771 30.777 118.748 29.6733 117.59 29.1051C116.585 28.9989 115.604 29.5235 114.58 29.7932C114.411 29.8561 114.22 29.7651 114.168 29.5912C114.138 29.4917 114.161 29.3874 114.219 29.3103C114.949 28.3856 115.894 27.6493 117.1 27.3913C118.431 27.1154 119.65 28.1635 120.421 29.1118C120.876 29.6973 121.254 30.3194 121.478 31.0568C121.571 31.3309 121.24 31.5824 121.001 31.4255Z" fill="#1E276B"/>
<path d="M97.067 64.0506C96.9482 64.0506 96.8275 64.0269 96.7114 63.9773C96.2525 63.7808 96.0397 63.2493 96.236 62.7903C96.2519 62.7535 97.5866 59.606 97.9883 56.6231C97.9908 56.593 97.9947 56.5635 97.9999 56.5345C98.0641 56.0357 98.1015 55.5423 98.1015 55.0699C98.1015 54.9783 98.1153 54.8875 98.1426 54.8001C98.7325 52.9127 103.686 49.5809 105.19 48.6048C105.485 48.4132 105.864 48.4102 106.162 48.597C106.46 48.7838 106.623 49.1263 106.579 49.4752C106.265 51.9886 104.418 56.7308 99.6809 57.513C99.1674 60.515 97.9627 63.3519 97.8983 63.5025C97.7513 63.8453 97.4177 64.0506 97.067 64.0506ZM99.9083 55.241C99.9063 55.3675 99.9022 55.4947 99.8961 55.6226C102.284 55.0135 103.532 53.075 104.168 51.493C102.108 52.9705 100.256 54.522 99.9083 55.241Z" fill="#1E276B"/>
<path d="M76.8832 68.447C78.8451 68.5609 80.896 69.2168 82.1327 70.8376C82.5527 71.3925 82.7503 72.1769 82.443 72.8291C82.4164 72.8876 82.3326 72.8971 82.2934 72.8465C81.7261 72.2101 81.3112 71.6435 80.5823 71.245C79.4365 70.6234 78.0678 70.4197 76.7931 70.253C75.6313 70.1272 75.7191 68.455 76.8832 68.447Z" fill="#1E276B"/>
<path d="M58.3672 17.3176H0.904175V61.854H58.3672V17.3176Z" fill="#D3A24C"/>
<path d="M52.2538 22.0557H7.01758V57.1157H52.2538V22.0557Z" fill="#2D8C3F"/>
<g opacity="0.4">
<path d="M7.01758 24.3255H49.7933V57.1157H51.381L52.2538 56.2545V23.114L51.0694 21.9026H7.90373C7.90373 21.9026 7.01758 23.5178 7.01758 24.3255Z" fill="#F5F5F5"/>
</g>
<g opacity="0.3">
<path d="M0.904175 21.9026L3.96088 25.0255V59.3053H51.1272L54.5315 61.8539L1.87332 61.9077L0.904175 61.3155C0.904175 61.3155 0.904175 22.441 0.904175 21.9026Z" fill="#1E276B"/>
</g>
<g opacity="0.3">
<path d="M4.45245 20.0676H55.3104V59.6969L53.1671 57.8237L52.2537 56.2545V23.1141L51.5163 22.0557H7.9037L6.2897 21.4916L4.45245 20.0676Z" fill="#1E276B"/>
</g>
<path d="M58.3671 62.758H0.904161C0.404811 62.758 6.10352e-05 62.3532 6.10352e-05 61.854V17.3176C6.10352e-05 16.8184 0.404861 16.4136 0.904161 16.4136H58.3671C58.8664 16.4136 59.2712 16.8184 59.2712 17.3176V61.854C59.2712 62.3532 58.8664 62.758 58.3671 62.758ZM1.80826 60.9499H57.4631V18.2216H1.80826V60.9499Z" fill="#1E276B"/>
<path d="M52.2537 58.0198H7.01756C6.51821 58.0198 6.11346 57.615 6.11346 57.1157V22.0557C6.11346 21.5564 6.51826 21.1516 7.01756 21.1516H52.2537C52.753 21.1516 53.1578 21.5564 53.1578 22.0557V57.1157C53.1578 57.615 52.753 58.0198 52.2537 58.0198ZM7.92166 56.2117H51.3497V22.9597H7.92166V56.2117Z" fill="#1E276B"/>
<path d="M7.01696 22.9596C6.82346 22.9596 6.62846 22.8979 6.46376 22.7702L0.35036 18.0321C-0.0442896 17.7262 -0.116289 17.1583 0.189611 16.7636C0.495461 16.3693 1.06351 16.2973 1.45806 16.6029L7.57146 21.341C7.96611 21.6469 8.03811 22.2148 7.73221 22.6095C7.55401 22.8392 7.28691 22.9596 7.01696 22.9596Z" fill="#1E276B"/>
<path d="M52.2543 22.9598C51.9843 22.9598 51.7173 22.8394 51.5391 22.6097C51.2332 22.2149 51.3052 21.647 51.6999 21.3411L57.8132 16.6031C58.208 16.2972 58.7757 16.3694 59.0817 16.7637C59.3876 17.1585 59.3156 17.7264 58.921 18.0323L52.8075 22.7703C52.6428 22.898 52.4478 22.9598 52.2543 22.9598Z" fill="#1E276B"/>
<path d="M0.904764 62.758C0.634814 62.758 0.367715 62.6376 0.189565 62.4079C-0.116335 62.0131 -0.0443854 61.4453 0.350315 61.1393L6.46371 56.401C6.85836 56.0954 7.42637 56.1674 7.73217 56.5617C8.03807 56.9565 7.96611 57.5243 7.57141 57.8302L1.45801 62.5685C1.29326 62.6962 1.09826 62.758 0.904764 62.758Z" fill="#1E276B"/>
<path d="M58.3665 62.7581C58.173 62.7581 57.978 62.6963 57.8132 62.5686L51.6999 57.8303C51.3052 57.5244 51.2332 56.9565 51.5391 56.5618C51.8451 56.1672 52.4127 56.0955 52.8075 56.4011L58.921 61.1394C59.3156 61.4453 59.3876 62.0132 59.0817 62.408C58.9035 62.6377 58.6364 62.7581 58.3665 62.7581Z" fill="#1E276B"/>
<g opacity="0.3">
<path d="M10.0933 26.5332C10.0933 26.5332 15.2622 49.1472 48.214 52.4854V54.3161H10.0933V26.5332Z" fill="#1E276B"/>
</g>
<path d="M58.8068 54.6269C58.8068 54.6269 63.5929 56.131 65.6889 53.1754C64.2192 51.922 62.3027 50.6018 60.8431 50.706C58.1091 50.9012 56.4182 52.3774 56.4182 52.3774C56.4182 52.3774 55.7923 52.0282 55.7459 51.9284C55.6995 51.8286 55.4643 51.01 55.6623 50.439C55.684 50.3764 55.724 50.2934 55.7777 50.2002C55.4668 50.6072 55.2559 50.9941 55.1191 51.2987C56.6416 54.1677 58.8068 54.6269 58.8068 54.6269Z" fill="#91B6E0"/>
<path d="M61.0465 48.3392C63.9866 48.7653 65.3741 50.3032 66.4128 51.5672C66.4405 51.4607 66.4694 51.3559 66.4926 51.2431C64.096 48.5289 60.7761 47.3095 58.3365 48.2854C57.9022 48.4591 57.5262 48.6657 57.1911 48.8877C58.0469 48.4128 59.2946 48.0853 61.0465 48.3392Z" fill="#91B6E0"/>
<path d="M55.7459 51.9284C55.7923 52.0282 56.4182 52.3773 56.4182 52.3773C56.4182 52.3773 58.1091 50.9012 60.8431 50.706C62.3027 50.6018 64.2191 51.922 65.6889 53.1754C65.9963 52.7418 66.2448 52.2114 66.4127 51.567C65.3741 50.303 63.9866 48.7652 61.0465 48.3391C59.2946 48.0852 58.0469 48.4127 57.1911 48.8875C56.5769 49.2944 56.1156 49.7575 55.7776 50.2001C55.724 50.2933 55.684 50.3763 55.6622 50.4389C55.4643 51.01 55.6995 51.8286 55.7459 51.9284Z" fill="#91B6E0"/>
<g opacity="0.4">
<path d="M55.7459 51.9284C55.7923 52.0282 56.4182 52.3773 56.4182 52.3773C56.4182 52.3773 58.1091 50.9012 60.8431 50.706C62.3027 50.6018 64.2191 51.922 65.6889 53.1754C65.9963 52.7418 66.2448 52.2114 66.4127 51.567C65.3741 50.303 63.9866 48.7652 61.0465 48.3391C59.2946 48.0852 58.0469 48.4127 57.1911 48.8875C56.5769 49.2944 56.1156 49.7575 55.7776 50.2001C55.724 50.2933 55.684 50.3763 55.6622 50.4389C55.4643 51.01 55.6995 51.8286 55.7459 51.9284Z" fill="#F5F5F5"/>
</g>
<path d="M67.67 53.725C67.3685 53.725 67.0738 53.5741 66.9023 53.2997C64.8099 49.9498 61.1948 48.1163 58.6722 49.1249C57.3484 49.6544 56.6083 50.5167 56.2205 51.1471C55.9588 51.5719 55.4019 51.7044 54.9768 51.4432C54.5515 51.1815 54.4188 50.6246 54.6805 50.1993C55.2113 49.3368 56.2181 48.1588 58.0007 47.4461C61.3657 46.1004 65.8519 48.2047 68.436 52.3416C68.7006 52.7652 68.5716 53.3228 68.1482 53.5875C67.9992 53.6806 67.8336 53.725 67.67 53.725Z" fill="#1E276B"/>
<path d="M56.3349 50.6966C56.4743 51.5453 56.9357 52.3844 57.5611 52.9987C58.1085 53.5757 58.8006 53.906 59.4507 54.3615C59.6868 54.5183 59.9234 54.6993 60.1519 54.9648C60.1841 55.0019 60.1801 55.0581 60.1429 55.0903C59.8238 55.2265 59.4831 55.2428 59.1626 55.2515C56.8812 55.0125 54.6003 53.1248 54.5267 50.7154C54.5512 49.5209 56.2852 49.5014 56.3349 50.6966Z" fill="#1E276B"/>
</svg>
