<svg width="140" height="158" viewBox="0 0 140 158" fill="none" xmlns="http://www.w3.org/2000/svg">
<path d="M116.188 103.035C113.649 105.253 113.318 107.562 113.613 108.935C113.848 110.022 114.339 111.038 115.648 111.715C117.027 112.429 119.677 112.689 122.219 111.389C123.256 110.858 124.535 110.09 126.324 110.222C126.476 109.847 126.242 109.423 125.813 109.001C126.589 108.442 127.56 107.889 129.201 107.368C129.218 107.363 127.717 102.912 120.564 101.785C120.619 100.754 119.991 100.201 119.109 100.151C118.771 101.953 117.891 101.548 116.188 103.035Z" fill="#C4612B"/>
<path d="M115.648 111.715C117.027 112.429 119.677 112.691 122.218 111.389C123.253 110.861 124.526 110.095 126.306 110.22C126.313 110.22 126.32 110.22 126.325 110.221C126.347 110.164 126.363 110.106 126.368 110.048C126.383 109.889 126.339 109.725 126.251 109.557C126.154 109.374 126.001 109.188 125.813 109.002C126.589 108.442 127.56 107.889 129.201 107.369C129.201 107.364 129.172 107.269 129.099 107.109C129.088 107.082 129.074 107.053 129.058 107.021C129.008 106.914 128.941 106.788 128.858 106.642C128.841 106.613 128.824 106.582 128.805 106.551C128.765 106.486 128.723 106.417 128.676 106.343C128.655 106.311 128.632 106.278 128.61 106.245C128.458 106.019 128.273 105.772 128.049 105.51C126.878 104.146 124.637 102.428 120.564 101.785C120.618 100.754 119.991 100.202 119.108 100.151C118.771 101.953 117.892 101.548 116.188 103.035C114.086 104.872 113.497 106.769 113.526 108.147C113.525 108.149 113.525 108.149 113.524 108.15C113.529 108.436 113.562 108.7 113.614 108.936C113.849 110.023 114.339 111.039 115.648 111.715Z" fill="#C4612B"/>
<path d="M115.648 111.715C117.027 112.429 119.677 112.691 122.218 111.389C123.253 110.861 124.526 110.095 126.306 110.22C126.313 110.22 126.32 110.22 126.325 110.221C126.347 110.164 126.363 110.106 126.368 110.048C126.383 109.889 126.339 109.725 126.251 109.557C126.154 109.374 126.001 109.188 125.813 109.002C126.589 108.442 127.56 107.889 129.201 107.369C129.201 107.364 129.172 107.269 129.099 107.109C129.088 107.082 129.074 107.053 129.058 107.021C129.008 106.914 128.941 106.788 128.858 106.642C128.841 106.613 128.824 106.582 128.805 106.551C128.765 106.486 128.723 106.417 128.676 106.343C128.655 106.311 128.632 106.278 128.61 106.245C128.458 106.019 128.273 105.772 128.049 105.51C126.878 104.146 124.637 102.428 120.564 101.785C120.566 101.754 120.567 101.726 120.567 101.696C120.574 101.319 120.484 101.011 120.323 100.771C120.311 100.753 120.3 100.738 120.288 100.721C120.045 100.392 119.659 100.204 119.197 100.158C119.168 100.155 119.139 100.152 119.108 100.151C118.771 101.953 117.892 101.548 116.187 103.035C114.086 104.872 113.497 106.769 113.525 108.147C113.525 108.149 113.525 108.149 113.524 108.15C113.529 108.436 113.562 108.7 113.613 108.936C113.669 109.196 113.74 109.453 113.834 109.701C114.13 110.489 114.654 111.201 115.648 111.715Z" fill="#666566"/>
<g opacity="0.4">
<path d="M120.567 101.696C120.58 101.725 120.591 101.757 120.601 101.791C120.589 101.789 120.576 101.786 120.564 101.784C120.566 101.755 120.566 101.725 120.567 101.696Z" fill="white"/>
</g>
<g opacity="0.4">
<path d="M113.834 109.701C113.978 109.204 114.134 108.806 114.216 108.262C114.413 106.95 115.184 105.182 116.433 104.091C118.015 102.708 118.974 103.003 119.764 101.37C120.286 101.398 120.426 101.336 120.567 101.696C120.574 101.319 120.484 101.011 120.323 100.771C120.311 100.753 120.3 100.738 120.288 100.721C120.045 100.392 119.659 100.204 119.197 100.158C119.169 100.157 119.14 100.154 119.109 100.152L119.108 100.151C118.771 101.953 117.892 101.548 116.187 103.035C114.086 104.872 113.497 106.769 113.525 108.147C113.525 108.149 113.525 108.149 113.524 108.15C113.529 108.436 113.562 108.7 113.613 108.936C113.669 109.196 113.74 109.453 113.834 109.701Z" fill="white"/>
</g>
<g opacity="0.4">
<path d="M128.048 105.509C128.926 106.531 129.203 107.352 129.201 107.368C129.102 107.4 129.007 107.432 128.912 107.463C128.734 107.167 128.487 106.808 128.155 106.421C126.983 105.057 124.745 103.339 120.67 102.697C120.69 102.326 120.673 102.025 120.601 101.791C124.651 102.438 126.881 104.151 128.048 105.509Z" fill="white"/>
</g>
<path d="M115.648 111.715C117.027 112.429 119.677 112.691 122.218 111.389C123.253 110.861 124.526 110.095 126.306 110.22C126.313 110.22 126.32 110.22 126.325 110.221C126.347 110.164 126.363 110.106 126.368 110.047C126.383 109.889 126.34 109.724 126.251 109.557C126.154 109.374 126.001 109.188 125.813 109.002C126.589 108.442 127.56 107.889 129.201 107.369C129.201 107.364 129.172 107.269 129.099 107.109C129.088 107.082 129.074 107.053 129.058 107.021C129.008 106.914 128.941 106.787 128.858 106.642C128.841 106.613 128.824 106.582 128.805 106.551C128.765 106.486 128.723 106.416 128.676 106.343C128.655 106.311 128.632 106.278 128.61 106.245C128.458 106.019 128.273 105.772 128.049 105.51C128.299 106.307 128.027 106.758 127.212 106.9C125.584 107.185 124.108 107.002 122.653 107.751C123.522 108.585 121.504 109.723 120.836 109.744C118.215 109.826 117.105 107.305 115.809 107.005C114.132 106.617 113.525 108.149 113.524 108.15C113.529 108.436 113.562 108.7 113.614 108.936C113.849 110.022 114.339 111.039 115.648 111.715Z" fill="#595959"/>
<path d="M118.438 113.113C117.195 113.113 116.088 112.844 115.28 112.426C113.532 111.522 113.045 110.097 112.831 109.104C112.653 108.275 112.329 105.343 115.662 102.433C116.337 101.844 116.909 101.516 117.326 101.277C118.012 100.885 118.175 100.792 118.322 100.004C118.396 99.609 118.751 99.33 119.154 99.3529C120.294 99.4175 121.096 100.094 121.31 101.103C128.071 102.4 129.951 106.682 129.999 107.307C130.027 107.676 129.798 108.018 129.445 108.131C128.306 108.492 127.538 108.858 126.964 109.199C127.251 109.749 127.195 110.203 127.065 110.524C126.934 110.845 126.608 111.045 126.265 111.02C124.861 110.915 123.8 111.468 122.866 111.955C122.769 112.005 122.676 112.054 122.583 112.101C121.177 112.821 119.734 113.113 118.438 113.113ZM119.636 101.185C119.286 102 118.735 102.314 118.121 102.666C117.722 102.894 117.269 103.153 116.714 103.638V103.638C114.04 105.973 114.263 108.154 114.395 108.767C114.633 109.871 115.118 110.541 116.015 111.005C117.26 111.649 119.618 111.821 121.854 110.677C121.943 110.631 122.034 110.584 122.126 110.536C122.901 110.132 123.896 109.614 125.155 109.456C125.051 109.306 125.001 109.124 125.015 108.94C125.033 108.705 125.154 108.49 125.345 108.352C125.923 107.936 126.74 107.415 128.089 106.907C127.37 105.723 125.349 103.349 120.44 102.575C120.035 102.512 119.744 102.152 119.765 101.743C119.775 101.55 119.761 101.341 119.636 101.185Z" fill="#363D56"/>
<path d="M121.326 102.03C121.191 102.227 121.059 102.402 120.921 102.583C120.784 102.761 120.643 102.937 120.499 103.11C120.355 103.283 120.206 103.452 120.05 103.614C119.894 103.775 119.732 103.934 119.55 104.059C119.625 103.854 119.661 103.644 119.693 103.434C119.724 103.224 119.745 103.014 119.761 102.802C119.777 102.59 119.789 102.379 119.795 102.167C119.802 101.957 119.808 101.739 119.803 101.541L121.326 102.03Z" fill="#363D56"/>
<path d="M125.35 109.653C125.202 109.469 125.003 109.268 124.815 109.084C124.623 108.898 124.422 108.717 124.212 108.55C124.002 108.384 123.783 108.221 123.549 108.087C123.314 107.953 123.066 107.834 122.79 107.767C123.066 107.7 123.363 107.689 123.659 107.703C123.956 107.716 124.249 107.764 124.542 107.821C124.835 107.879 125.123 107.955 125.41 108.042C125.7 108.132 125.971 108.218 126.276 108.349L125.35 109.653Z" fill="#363D56"/>
<path d="M102.134 116.194C103.529 118.677 107.512 122.288 110.924 119.374C114.003 116.27 109.029 111.691 112.882 108.224C114.478 106.89 116.114 107.24 116.433 108.339C116.833 109.717 115.072 110.15 115.102 111.958C115.207 114.739 117.029 118.159 114.984 121.707C112.732 125.793 105.533 127.947 100.177 123.087L102.134 116.194Z" fill="white"/>
<path d="M116.315 109.385C115.939 110.1 115.081 110.69 115.102 111.957C115.206 114.738 117.03 118.158 114.983 121.706C112.731 125.792 105.533 127.947 100.176 123.087L102.133 116.193C103.073 117.863 105.18 120.045 107.499 120.407C108.627 120.583 109.806 120.327 110.924 119.373C114.002 116.268 109.029 111.691 112.881 108.224C114.477 106.89 116.114 107.24 116.432 108.338C116.553 108.752 116.479 109.079 116.315 109.385Z" fill="#C2C6D2"/>
<path d="M115.102 111.957C115.206 114.738 117.03 118.158 114.983 121.706C112.731 125.792 105.533 127.947 100.176 123.087L102.133 116.193C103.073 117.863 105.18 120.045 107.499 120.407C107.607 121.019 107.632 121.848 107.317 122.757C106.791 124.273 111.761 124.748 114.022 121.152C116.457 117.275 112.146 111.716 115.521 109.452C115.777 109.281 116.042 109.266 116.315 109.385C115.939 110.1 115.081 110.69 115.102 111.957Z" fill="#9DA3B2"/>
<path d="M107.136 126.681C104.418 126.681 101.807 125.646 99.6389 123.679L100.714 122.494C102.987 124.556 105.813 125.429 108.671 124.953C111.123 124.544 113.274 123.152 114.283 121.32C115.592 119.049 115.141 116.829 114.705 114.682C114.515 113.745 114.335 112.859 114.302 111.988C114.282 110.795 114.848 110.054 115.262 109.512C115.654 108.998 115.745 108.838 115.665 108.561C115.615 108.389 115.483 108.269 115.275 108.205C114.878 108.084 114.181 108.185 113.406 108.828C111.729 110.346 112.066 112.079 112.456 114.086C112.829 115.997 113.25 118.164 111.492 119.937C111.476 119.953 111.46 119.968 111.443 119.982C110.214 121.032 108.769 121.445 107.264 121.178C104.785 120.737 102.505 118.488 101.437 116.585L102.831 115.801C103.75 117.437 105.664 119.268 107.544 119.603C108.58 119.787 109.508 119.52 110.379 118.787C111.459 117.677 111.275 116.391 110.886 114.391C110.484 112.326 109.984 109.755 112.346 107.629C112.354 107.622 112.361 107.616 112.369 107.61C113.446 106.709 114.707 106.359 115.742 106.675C116.468 106.897 117 107.422 117.201 108.115C117.515 109.197 116.948 109.94 116.533 110.483C116.189 110.935 115.891 111.324 115.901 111.944C115.929 112.668 116.096 113.492 116.273 114.364C116.722 116.574 117.281 119.324 115.677 122.106C114.444 124.343 111.857 126.044 108.934 126.531C108.332 126.631 107.731 126.681 107.136 126.681Z" fill="#363D56"/>
<path d="M63.3484 116.076C63.3484 116.076 57.5818 130.626 65.6012 146.659C61.7369 147.946 61.1112 151.472 61.6119 153.165C62.2369 155.277 64.3681 155.426 67.1535 155.426C68.1812 155.426 74.5987 155.426 75.6484 155.426C79.6259 155.426 81.8484 154.226 81.7151 149.36C81.5068 141.758 77.8484 133.926 83.7774 124.726" fill="#C2C6D2"/>
<path d="M81.7149 149.36C81.8489 154.226 79.6269 155.426 75.6489 155.426H67.1529C64.3689 155.426 62.2369 155.278 61.6109 153.164C61.4149 152.502 61.393 151.562 61.6669 150.584C62.8689 151.566 64.6349 152.662 70.4869 152.512C79.2508 152.29 79.0209 148.38 78.2869 144.312C77.5529 140.246 77.6669 136.25 76.1369 135.07C75.0008 134.196 65.6709 131.61 61.4689 125.344C61.9089 119.708 63.3489 116.076 63.3489 116.076L83.777 124.726C77.8489 133.926 81.5069 141.758 81.7149 149.36Z" fill="#9DA3B2"/>
<path d="M81.7149 149.36C81.8489 154.226 79.6269 155.426 75.6489 155.426H67.1529C64.3689 155.426 62.2369 155.278 61.6109 153.164C61.4149 152.502 61.393 151.562 61.6669 150.584C62.8689 151.566 64.6349 152.662 70.4869 152.512C79.2508 152.29 79.0209 148.38 78.2869 144.312C77.5529 140.246 77.6669 136.25 76.1369 135.07C75.0008 134.196 65.6709 131.61 61.4689 125.344C61.9089 119.708 63.3489 116.076 63.3489 116.076L83.777 124.726C77.8489 133.926 81.5069 141.758 81.7149 149.36Z" fill="#9DA3B2"/>
<path d="M72.2609 155.426H67.1529C64.3689 155.426 62.2369 155.278 61.6109 153.164C61.4149 152.502 61.393 151.562 61.6669 150.584C62.1669 150.992 62.7629 151.418 63.7089 151.768C63.7109 151.778 67.0709 152.6 70.4869 152.512C71.2009 152.494 71.8549 152.452 72.4549 152.386C72.6529 153.434 72.5929 154.574 72.2609 155.426Z" fill="#DFE6F4"/>
<path d="M72.2609 155.426H67.1529C64.3689 155.426 62.2369 155.278 61.6109 153.164C61.4149 152.502 61.393 151.562 61.6669 150.584C61.7989 150.116 61.9969 149.64 62.2808 149.18C63.6409 149.432 63.7109 151.784 63.7109 151.784C63.7109 151.784 64.1808 149.404 65.8509 149.474C67.5489 149.544 67.7489 152.096 67.7489 152.096C67.7489 152.096 68.3009 149.62 70.1009 149.59C72.2529 149.554 73.0729 153.352 72.2609 155.426Z" fill="white"/>
<path d="M72.2609 155.426H67.1529C64.3689 155.426 62.2369 155.278 61.6109 153.164C61.4149 152.502 61.393 151.562 61.6669 150.584C62.5119 152.813 66.5619 152.596 70.4869 152.512C71.2009 152.497 71.8548 152.452 72.4548 152.386C72.6529 153.434 72.5929 154.574 72.2609 155.426Z" fill="#DFE6F4"/>
<path d="M75.6485 156.226H67.1536C64.7165 156.226 61.6833 156.226 60.8446 153.392C60.2403 151.349 61.0438 147.838 64.5044 146.235C60.637 138.077 60.2739 130.379 60.67 125.294C61.1135 119.597 62.544 115.935 62.6047 115.782L64.0924 116.371C64.0784 116.406 62.6782 120.006 62.2604 125.479C61.8762 130.51 62.268 138.208 66.3166 146.302C66.4205 146.509 66.4291 146.752 66.3403 146.966C66.2514 147.18 66.0741 147.345 65.8539 147.419C62.3748 148.577 62.0108 151.694 62.3789 152.938C62.8063 154.383 64.1973 154.627 67.1535 154.627H75.6484C77.7764 154.627 79.0736 154.269 79.8545 153.466C80.6221 152.677 80.9691 151.341 80.9154 149.382C80.8627 147.46 80.5865 145.539 80.2941 143.505C79.4359 137.535 78.5488 131.363 83.1049 124.293L84.4498 125.16C80.2175 131.727 81.0615 137.599 81.8777 143.277C82.1638 145.267 82.4595 147.324 82.5146 149.338C82.5808 151.752 82.0857 153.467 81.0011 154.582C79.8946 155.719 78.2438 156.226 75.6485 156.226Z" fill="#363D56"/>
<path d="M72.6151 147.477C71.4407 147.296 70.2644 147.238 69.0921 147.246C68.5059 147.251 67.9211 147.271 67.3384 147.306C66.7595 147.342 66.1665 147.391 65.6124 147.46L65.5901 145.86C66.2162 145.924 66.8032 146.01 67.4027 146.108C67.9984 146.207 68.5902 146.322 69.1775 146.451C70.3511 146.711 71.5107 147.038 72.6151 147.477Z" fill="#363D56"/>
<path d="M68.5818 75.8267C64.6818 75.8267 56.3876 88.8912 48.9369 88.9483C42.7369 88.9957 36.6601 83.7964 36.6601 83.7964C36.6601 83.7964 24.9191 92.0128 25.7484 95.0876C26.5869 98.1964 35.9352 105.807 47.3485 105.827C60.017 105.848 66.7938 99.0785 70.7818 92.2267C84.0945 85.783 72.4818 75.8267 68.5818 75.8267Z" fill="#C2C6D2"/>
<path d="M67.2389 97.2202C63.0569 102.026 56.8649 105.842 47.3489 105.826C35.9349 105.806 26.5869 98.1962 25.7489 95.0882C25.3228 93.5103 28.2088 90.5762 31.1188 88.0962L38.9868 88.0122C38.7528 92.1462 34.5788 101.356 47.6528 102.012C61.9208 102.73 64.6208 89.0682 64.6208 89.0682L67.2389 97.2202Z" fill="#9DA3B2"/>
<path d="M76.9769 84.3342C69.8689 84.8922 64.2429 83.6282 60.2589 82.2102C63.6809 78.9882 66.6629 75.8262 68.5809 75.8262C71.0409 75.8262 76.5749 79.7902 76.9769 84.3342Z" fill="#9DA3B2"/>
<path d="M66.0209 77.8462C66.9209 79.1562 66.9589 81.5622 67.1469 83.9642C66.0689 83.7942 65.0529 83.5862 64.0949 83.3542C64.0489 81.4862 63.8429 79.6442 63.4209 77.8462H66.0209Z" fill="#E2D9D3"/>
<path d="M95.2629 79.3665C90.2369 81.6525 85.6169 83.0285 81.4249 83.7665C84.7969 80.4305 88.7269 77.4305 94.1029 78.5645C94.4189 78.6945 94.8129 78.9685 95.2629 79.3665Z" fill="#E2D9D3"/>
<path d="M94.9969 79.4885C82.1829 85.2485 72.0109 85.1025 64.9229 83.5445C64.9609 83.0925 64.9929 82.6365 65.0189 82.1785C65.4649 73.2145 77.2249 73.7225 87.7149 73.1665C89.8029 74.5525 92.3769 76.7145 94.9969 79.4885Z" fill="#B25B36"/>
<path d="M47.4085 106.626C47.3878 106.626 47.3678 106.626 47.3471 106.626C42.2501 106.618 36.8618 105.082 32.1749 102.303C28.395 100.062 25.502 97.2462 24.9758 95.2957C24.6971 94.2621 24.9532 92.3483 30.3711 87.6825C33.2004 85.246 36.1717 83.1615 36.2014 83.1407C36.5002 82.9315 36.9031 82.9511 37.1801 83.1883C37.2381 83.2378 43.0574 88.148 48.8523 88.1483C48.8787 88.1483 48.9045 88.1482 48.9308 88.148C52.9291 88.1174 57.4941 83.7524 61.1621 80.2449C64.2113 77.3293 66.6197 75.0264 68.5816 75.0264C71.3367 75.0264 76.5914 78.8114 77.6199 83.2971C78.2256 85.939 77.6188 89.7251 71.35 92.8387C68.9479 96.9084 66.1385 99.9943 62.7676 102.267C58.4778 105.16 53.3102 106.626 47.4085 106.626ZM36.6299 84.8009C35.6819 85.4859 33.503 87.0963 31.4071 88.9019C26.3881 93.2258 26.4561 94.6395 26.5207 94.8791C27.1785 97.3179 35.8678 105.007 47.3498 105.026C47.3696 105.026 47.391 105.027 47.4108 105.027C57.5018 105.027 64.9198 100.708 70.0903 91.824C70.1703 91.6864 70.2897 91.5757 70.433 91.5063C73.483 90.0301 76.935 87.4696 76.0604 83.6547C75.1947 79.8797 70.5135 76.6264 68.5817 76.6264C67.2616 76.6264 64.7231 79.0539 62.268 81.4013C58.1938 85.297 53.576 89.7126 48.943 89.748C48.9129 89.7482 48.8819 89.7483 48.8518 89.7483C43.42 89.7487 38.2255 86.0475 36.6299 84.8009Z" fill="#363D56"/>
<path d="M87.7151 73.1665C96.7727 79.1763 114.982 99.8266 106.426 121.442C103.804 128.067 93.9875 132.922 83.5485 132.627C74.6985 132.377 64.2818 129.127 61.541 120.442C58.0508 109.382 64.1151 97.6266 65.019 82.1777C65.4646 73.2153 77.2241 73.7217 87.7151 73.1665Z" fill="#C2C6D2"/>
<path d="M94.9969 79.4885C82.1829 85.2485 72.0109 85.1025 64.9229 83.5445C64.9609 83.0925 64.9929 82.6365 65.0189 82.1785C65.4649 73.2145 77.2249 73.7225 87.7149 73.1665C89.8029 74.5525 92.3769 76.7145 94.9969 79.4885Z" fill="#9DA3B2"/>
<path d="M106.427 121.443C103.803 128.067 93.9869 132.923 83.5489 132.627C74.6989 132.377 64.2809 129.127 61.5409 120.443C60.1609 116.069 60.2749 111.585 60.9749 106.807H108.515C108.949 111.523 108.399 116.457 106.427 121.443Z" fill="#9DA3B2"/>
<path d="M88.1574 72.5C89.4805 73.3835 90.7153 74.3609 91.898 75.392C93.0801 76.4238 94.2093 77.5095 95.2917 78.6387C97.456 80.8971 99.4373 83.3265 101.214 85.901C102.103 87.1882 102.94 88.512 103.714 89.8734C104.492 91.2327 105.207 92.6296 105.851 94.0603C106.498 95.4894 107.071 96.954 107.56 98.4485C108.051 99.9419 108.46 101.465 108.765 103.012C109.388 106.101 109.598 109.284 109.348 112.438C109.09 115.591 108.358 118.705 107.204 121.645C106.612 123.191 105.677 124.583 104.587 125.78C103.491 126.979 102.234 128.001 100.897 128.879C98.215 130.628 95.2268 131.818 92.1527 132.566C89.0763 133.308 85.8904 133.613 82.7334 133.461C79.5876 133.314 76.4465 132.829 73.412 131.884C71.8961 131.411 70.4094 130.816 68.9869 130.072C67.565 129.329 66.2128 128.421 64.9996 127.333C63.7875 126.246 62.723 124.969 61.9055 123.538C61.4989 122.823 61.1492 122.074 60.8703 121.3C60.7966 121.108 60.7372 120.911 60.6707 120.716L60.4971 120.139C60.3878 119.753 60.2857 119.364 60.1957 118.973C59.4709 115.838 59.4187 112.606 59.7311 109.481C60.042 106.348 60.6418 103.289 61.2802 100.265C61.9241 97.2411 62.5886 94.2406 63.1352 91.2256C63.415 89.7194 63.7096 88.218 64.0119 86.7126C64.3247 85.2079 64.6281 83.6992 65.019 82.1777C65.2255 83.7351 65.2474 85.2994 65.1827 86.8558C65.1123 88.4123 64.9431 89.9611 64.701 91.4948C64.206 94.5607 63.5742 97.5929 62.9827 100.612C62.3946 103.631 61.8157 106.639 61.5473 109.651C61.4163 111.156 61.3504 112.659 61.408 114.151C61.4658 115.642 61.6461 117.121 61.9769 118.563C62.0592 118.923 62.1528 119.281 62.2526 119.636L62.4114 120.167C62.4699 120.337 62.521 120.51 62.5857 120.678C62.8288 121.356 63.1334 122.009 63.4875 122.635C64.2003 123.885 65.132 125.009 66.2142 125.982C67.2961 126.957 68.5247 127.781 69.8307 128.474C71.1377 129.167 72.5225 129.732 73.9481 130.185C76.8012 131.092 79.8042 131.577 82.8158 131.733C85.8194 131.895 88.8399 131.64 91.7623 130.941C94.6787 130.245 97.5073 129.125 100.004 127.51C101.247 126.7 102.404 125.764 103.394 124.688C104.38 123.611 105.198 122.399 105.715 121.061C106.814 118.259 107.508 115.305 107.753 112.309C107.991 109.312 107.792 106.282 107.196 103.325C106.904 101.845 106.513 100.384 106.04 98.9475C105.57 97.5104 105.018 96.0986 104.392 94.7181C103.77 93.3362 103.079 91.984 102.325 90.6662C101.574 89.3463 100.761 88.0608 99.8976 86.8098C98.1705 84.3077 96.2406 81.9411 94.1367 79.746C93.0848 78.6486 91.9884 77.5947 90.8467 76.5981C89.7053 75.6026 88.5154 74.6628 87.2728 73.8333L88.1574 72.5Z" fill="#363D56"/>
<path d="M23.3629 81.4559C27.8105 77.0083 36.2503 77.9286 36.4115 87.4104C36.5953 98.2168 28.3618 101.892 21.7457 96.9303C15.5078 92.252 19.2995 85.5192 23.3629 81.4559Z" fill="#DFE6F4"/>
<path d="M27.7682 99.9059C25.5897 99.906 23.3235 99.1142 21.2655 97.5707C19.0434 95.904 17.8315 93.8613 17.6637 91.4989C17.3358 86.8853 21.1446 82.5432 22.7973 80.8904C25.3864 78.3011 29.185 77.3938 32.2483 78.6323C35.329 79.8777 37.1378 83.0725 37.2112 87.3972C37.305 92.9068 35.2788 97.129 31.6522 98.9811C30.4387 99.6007 29.1202 99.9058 27.7682 99.9059ZM29.3526 79.681C27.438 79.681 25.4431 80.5073 23.9286 82.0219C22.4311 83.5192 18.9786 87.4293 19.2596 91.3855C19.3932 93.2644 20.3911 94.9147 22.2256 96.2906C25.0608 98.417 28.3131 98.8896 30.9245 97.5562C33.986 95.9927 35.6944 92.2997 35.6116 87.4243C35.5485 83.7191 34.1413 81.1234 31.6487 80.1157C30.9239 79.8227 30.145 79.681 29.3526 79.681Z" fill="#363D56"/>
<path d="M22.4327 100.042C19.4507 103.024 15.5179 102.902 13.4126 102.902C11.3073 102.902 7.37212 103.024 4.39022 100.042C1.51607 97.1683 -0.239581 87.5471 1.51607 77.3679C1.51607 75.9787 6.84282 74.853 13.4126 74.853C19.9825 74.853 25.3068 75.9787 25.3068 77.3679C27.0648 87.5471 25.3068 97.1683 22.4327 100.042Z" fill="white"/>
<path d="M22.4329 100.042C19.4509 103.024 15.5189 102.902 13.4129 102.902C11.3069 102.902 7.37288 103.024 4.39093 100.042C2.94093 98.5922 1.77293 95.4182 1.20093 91.3202C1.80093 93.2702 2.57088 94.7682 3.44493 95.6422C6.42693 98.6242 10.3609 98.5022 12.4669 98.5022C14.5729 98.5022 18.5049 98.6242 21.4869 95.6422C24.0089 93.1202 25.6709 85.4062 24.8549 76.6802C25.1489 76.8982 25.3069 77.1302 25.3069 77.3682C27.0649 87.5462 25.3069 97.1682 22.4329 100.042Z" fill="#DFE6F4"/>
<path d="M13.9159 103.703C13.8247 103.703 13.736 103.702 13.6504 103.702L13.4125 103.702L13.1746 103.702C10.9953 103.709 6.93169 103.715 3.82464 100.608C0.840835 97.6242 -1.13296 88.0892 0.718585 77.2845C0.912935 74.144 12.1242 74.0527 13.4125 74.0527C14.7006 74.0527 25.91 74.1439 26.1041 77.2844C27.9578 88.0869 25.9836 97.6225 22.9983 100.608C20.0132 103.593 16.1489 103.703 13.9159 103.703ZM2.31333 77.4347C2.31138 77.4577 2.30843 77.4808 2.30434 77.5036C0.604335 87.3611 2.30279 96.8234 4.95589 99.4765C7.59339 102.114 11.0842 102.105 13.1715 102.102L13.4125 102.102L13.6535 102.102C15.741 102.107 19.2297 102.113 21.867 99.4765C24.5215 96.8218 26.2203 87.3592 24.5184 77.5038C24.5143 77.4809 24.5113 77.4577 24.5094 77.4346C24.049 76.7817 20.0342 75.6527 13.4125 75.6527C6.79014 75.6528 2.77428 76.7818 2.31333 77.4347Z" fill="#363D56"/>
<path d="M13.4118 80.7587C18.8144 80.7587 23.194 79.8328 23.194 78.6906C23.194 77.5485 18.8144 76.6226 13.4118 76.6226C8.00932 76.6226 3.6297 77.5485 3.6297 78.6906C3.6297 79.8328 8.00932 80.7587 13.4118 80.7587Z" fill="#363D56"/>
<path d="M13.4118 81.1587C9.89009 81.1587 3.22974 80.6429 3.22974 78.6907C3.22974 76.7385 9.89009 76.2227 13.4118 76.2227C16.9337 76.2227 23.594 76.7385 23.594 78.6907C23.594 80.6428 16.9337 81.1587 13.4118 81.1587ZM13.4118 77.0226C10.8258 77.0226 8.39869 77.2346 6.57759 77.6197C4.49789 78.0593 4.02974 78.5526 4.02974 78.6907C4.02974 78.8288 4.49789 79.3219 6.57759 79.7616C8.39869 80.1466 10.8258 80.3586 13.4118 80.3586C15.9977 80.3586 18.4249 80.1466 20.2462 79.7616C22.3259 79.3219 22.794 78.8288 22.794 78.6907C22.794 78.5526 22.3259 78.0593 20.2462 77.6197C18.4249 77.2346 15.9977 77.0226 13.4118 77.0226Z" fill="#363D56"/>
<path d="M33.6866 90.7045C33.6866 90.7045 35.4357 92.0105 37.5537 90.5929C39.9149 89.0126 40.5656 82.5427 37.6839 81.0553C35.0508 79.6963 31.8089 82.7472 31.8089 82.7472L33.6866 90.7045Z" fill="#C2C6D2"/>
<path d="M39.5689 86.0182C39.4289 87.9422 38.6889 89.8322 37.5529 90.5922C35.4349 92.0102 33.6869 90.7042 33.6869 90.7042L32.3189 84.9062L36.295 84.0562C37.2495 84.5962 37.087 87.1003 37.9495 87.4337C38.812 87.767 39.5269 86.1202 39.5689 86.0182Z" fill="#9DA3B2"/>
<g opacity="0.3">
<path d="M39.4389 87.0301C39.5029 85.0841 38.9369 83.1801 37.5329 82.4562C35.4589 81.3842 33.0049 83.0522 32.0589 83.8082L31.8089 82.7482C31.8089 82.7482 35.0509 79.6962 37.6829 81.0562C39.4249 81.9541 39.8769 84.6721 39.4389 87.0301Z" fill="white"/>
</g>
<path d="M35.5225 92.0583C34.186 92.0583 33.2663 91.3889 33.2079 91.3455C33.0573 91.233 32.951 91.0712 32.9079 90.8882L31.0301 82.9309C30.9645 82.6527 31.0524 82.3606 31.2606 82.1646C31.4098 82.0241 34.9504 78.7448 38.0508 80.3445C39.41 81.046 40.2592 82.676 40.3807 84.8164C40.5124 87.137 39.7366 90.0947 37.9987 91.2579C37.0979 91.8607 36.2487 92.0583 35.5225 92.0583ZM34.3874 90.1905C34.8341 90.4105 35.8821 90.7493 37.1089 89.9281C38.1673 89.2196 38.9028 87.014 38.7833 84.907C38.6948 83.3462 38.1602 82.2015 37.3169 81.7663C35.6538 80.9077 33.5212 82.3826 32.6999 83.0395L34.3874 90.1905Z" fill="#363D56"/>
<path d="M27.2038 81.9106C31.2289 78.4432 36.6135 80.7403 36.66 85.7774C36.6659 86.4139 36.4254 87.5532 35.7003 87.9901C36.5276 91.3552 36.4145 95.528 33.1202 97.3614C31.3007 98.374 27.5869 98.028 26.0094 95.2803C24.4492 92.5628 24.8005 83.9809 27.2038 81.9106Z" fill="#C2C6D2"/>
<g opacity="0.3">
<path d="M36.2949 83.688C34.5689 81.25 30.9449 80.692 28.0429 83.19C25.6889 85.218 25.3449 93.622 26.8729 96.284C26.9149 96.358 26.961 96.432 27.007 96.502C26.6229 96.164 26.2829 95.758 26.0089 95.28C24.449 92.562 24.801 83.98 27.203 81.91C30.6189 78.968 35.0129 80.176 36.2949 83.688Z" fill="white"/>
</g>
<path d="M35.7009 87.9904C36.5269 91.3564 36.4149 95.5284 33.1208 97.3624C31.3009 98.3744 27.5868 98.0284 26.0088 95.2804C25.7869 94.8944 25.6029 94.3904 25.4588 93.8024C27.0628 96.4744 30.6724 96.8534 32.4119 95.7464C35.1619 93.9964 34.6369 87.6464 33.1549 86.1144C33.8809 85.6784 35.8208 86.3224 35.3628 83.1224C35.2909 82.6204 35.1848 82.1564 35.0469 81.7324C36.0208 82.6904 36.6449 84.0784 36.6609 85.7784C36.6649 86.4144 36.4249 87.5544 35.7009 87.9904Z" fill="#9DA3B2"/>
<path d="M30.8298 98.6786C28.8183 98.6786 26.5392 97.8102 25.3157 95.6787C23.6825 92.8344 23.8513 83.7427 26.6817 81.3046C28.8329 79.4512 31.6003 78.948 33.9032 79.991C36.1062 80.9887 37.4358 83.1491 37.4601 85.7702C37.4659 86.4143 37.2757 87.55 36.5892 88.2871C37.1237 90.7909 37.5831 95.7935 33.5093 98.0607C32.7999 98.4554 31.8489 98.6786 30.8298 98.6786ZM27.7259 82.5169C25.7032 84.2594 25.2987 92.4359 26.7032 94.8821C27.9993 97.1398 31.2036 97.513 32.7312 96.6626C36.1273 94.7725 35.3956 90.1017 34.9234 88.1813C34.8398 87.8411 34.9872 87.486 35.2874 87.3052C35.6364 87.0948 35.8654 86.3493 35.8601 85.785C35.8419 83.8034 34.8636 82.1823 33.2433 81.4485C31.488 80.6534 29.4253 81.0534 27.7259 82.5169Z" fill="#363D56"/>
<path d="M29.6667 86.0853C30.8024 85.6325 32.1106 85.4761 33.3963 85.7783C34.0365 85.9305 34.6715 86.2008 35.2373 86.6243C35.8014 87.0445 36.2921 87.6327 36.5848 88.3398L35.058 88.818C34.9826 88.3606 34.7664 87.9067 34.4288 87.5111C34.0925 87.1147 33.6421 86.7805 33.1334 86.5338C32.1115 86.0375 30.8748 85.8866 29.6667 86.0853Z" fill="#363D56"/>
<path d="M84.2151 127.793C82.7151 137.826 85.3985 143.751 87.3235 148.126C85.2244 149.471 84.0453 152.521 84.6994 154.531C85.3706 156.593 86.8494 156.826 90.2485 156.826C91.9093 156.826 96.2625 156.826 97.3485 156.826C102.248 156.826 103.548 154.876 104.098 152.826C104.832 150.094 102.883 140.675 102.748 138.193C102.448 132.639 103.798 127.826 106.426 121.441" fill="#C2C6D2"/>
<path d="M102.749 138.192C102.883 140.674 104.831 150.094 104.099 152.826C103.549 154.876 102.249 156.826 97.3489 156.826H90.2489C86.8489 156.826 85.3708 156.594 84.6989 154.53C84.5249 153.996 84.4808 153.386 84.5489 152.756C85.7388 153.354 87.8789 154.022 92.9369 153.946C102.287 153.804 101.887 150.34 101.063 145.596C100.087 139.996 99.4629 135.146 98.7629 132.638C98.3489 131.158 96.0709 128.896 92.1949 128.84C89.3709 128.798 85.6629 129.862 83.785 132.724C83.8169 131.198 83.9509 129.558 84.215 127.792L106.427 121.442C103.799 127.826 102.449 132.638 102.749 138.192Z" fill="#9DA3B2"/>
<path d="M98.0989 156.81C97.8588 156.82 97.6088 156.826 97.3489 156.826H90.2489C86.8489 156.826 85.3708 156.594 84.6989 154.53C84.5249 153.996 84.4808 153.386 84.5489 152.756C85.7388 153.354 87.8789 154.022 92.9369 153.946C95.0749 153.914 96.7029 153.708 97.9329 153.35C98.2669 154.374 98.3529 155.604 98.0989 156.81Z" fill="#DFE6F4"/>
<path d="M98.0989 156.81C97.8588 156.82 97.6088 156.826 97.3489 156.826H90.2489C86.8489 156.826 85.3708 156.594 84.6989 154.53C84.4168 153.664 84.4749 152.604 84.8029 151.572C85.0109 151.226 85.2829 150.95 85.6369 150.822C87.5369 150.134 87.6749 153.258 87.6749 153.258C87.6749 153.258 88.3449 150.736 90.3769 150.758C92.1109 150.778 92.8229 153.204 92.8229 153.204C92.8229 153.204 93.3989 150.918 95.2529 150.876C97.3429 150.832 98.7129 153.886 98.0989 156.81Z" fill="white"/>
<path d="M98.0989 156.81C97.8588 156.82 97.6088 156.826 97.3489 156.826H90.2489C86.8489 156.826 85.3708 156.594 84.6989 154.53C84.5249 153.996 84.4808 153.386 84.5489 152.756C85.7388 153.354 87.8789 154.022 92.9369 153.946C95.0749 153.914 96.7029 153.708 97.9329 153.35C98.2669 154.374 98.3529 155.604 98.0989 156.81Z" fill="#DFE6F4"/>
<path d="M84.2151 127.793C84.2616 128.681 84.2797 129.554 84.308 130.422C84.3463 131.291 84.3784 132.151 84.4329 133.007C84.5447 134.717 84.7032 136.408 85.0066 138.073C85.1578 138.905 85.3314 139.732 85.5491 140.548C85.7641 141.364 85.9958 142.177 86.2694 142.979C86.789 144.593 87.4436 146.168 88.0558 147.804L88.0847 147.882C88.2158 148.233 88.0691 148.619 87.755 148.8C86.8511 149.382 86.1342 150.345 85.7141 151.397C85.2992 152.451 85.1548 153.625 85.5583 154.551C85.6562 154.792 85.7749 154.999 85.9153 155.165C86.0557 155.332 86.2186 155.462 86.4234 155.569C86.8294 155.784 87.3945 155.892 87.9856 155.949C89.1772 156.059 90.4733 156.018 91.7566 156.027H95.6082L97.5256 156.024C98.1379 156.017 98.7454 155.98 99.332 155.89C100.503 155.715 101.608 155.318 102.319 154.565C102.678 154.191 102.947 153.732 103.14 153.206C103.19 153.075 103.233 152.939 103.275 152.801C103.293 152.733 103.317 152.658 103.331 152.596L103.371 152.415C103.414 152.155 103.442 151.869 103.453 151.571C103.478 150.977 103.452 150.353 103.413 149.73C103.373 149.106 103.314 148.477 103.245 147.847C103.107 146.587 102.933 145.324 102.747 144.058L102.18 140.244C102.092 139.598 101.998 138.967 101.952 138.265L101.915 137.274C101.908 136.944 101.914 136.614 101.913 136.283C101.945 133.638 102.387 131.008 103.086 128.487C103.78 125.959 104.709 123.529 105.686 121.137L107.166 121.746C106.202 124.106 105.294 126.484 104.629 128.911C103.957 131.336 103.544 133.812 103.512 136.306C103.514 136.617 103.508 136.929 103.515 137.241L103.549 138.174C103.587 138.754 103.678 139.395 103.764 140.02L104.33 143.826C104.517 145.101 104.694 146.381 104.836 147.674C104.907 148.32 104.968 148.97 105.01 149.627C105.051 150.285 105.079 150.946 105.051 151.636C105.039 151.979 105.007 152.333 104.944 152.706L104.88 152.996C104.857 153.09 104.833 153.167 104.809 153.254C104.758 153.424 104.704 153.594 104.64 153.763C104.393 154.441 104.007 155.119 103.474 155.672C102.945 156.229 102.288 156.641 101.618 156.919C100.945 157.202 100.256 157.367 99.5737 157.472C98.891 157.576 98.2135 157.616 97.5426 157.624L95.6082 157.627H91.7565C90.4736 157.616 89.1969 157.664 87.829 157.541C87.1491 157.469 86.4193 157.365 85.6796 156.985C85.3144 156.797 84.963 156.522 84.6918 156.196C84.4177 155.872 84.2212 155.51 84.0776 155.157C83.9378 154.816 83.8215 154.423 83.7696 154.042C83.7162 153.66 83.7086 153.282 83.7338 152.913C83.7855 152.175 83.9638 151.47 84.2277 150.805C84.4932 150.14 84.8469 149.513 85.2881 148.943C85.7295 148.374 86.2614 147.858 86.8918 147.453L86.8919 147.453L86.5912 148.449C85.7949 146.899 85.0612 145.273 84.4822 143.578C84.2025 142.728 83.9436 141.867 83.7427 140.991C83.5442 140.115 83.3762 139.232 83.263 138.342C83.0359 136.562 82.979 134.764 83.1282 132.99C83.2901 131.217 83.6293 129.468 84.2151 127.793Z" fill="#363D56"/>
<path d="M99.0984 148.877C98.1394 148.602 97.1612 148.426 96.1803 148.311C95.1989 148.198 94.2135 148.147 93.2313 148.149C92.2495 148.152 91.2696 148.207 90.3053 148.322C89.3461 148.439 88.3816 148.614 87.5326 148.899L87.1144 147.354C88.1952 147.15 89.2193 147.113 90.2447 147.124C91.2673 147.139 92.28 147.219 93.283 147.351C94.2858 147.484 95.2787 147.67 96.2534 147.918C97.2273 148.167 98.1846 148.477 99.0984 148.877Z" fill="#363D56"/>
<path d="M108.635 113.62C108.265 116.49 107.505 119.146 106.427 121.442C98.5329 126.896 65.1369 126.22 61.3929 119.948C60.6469 118.342 60.2469 116.594 60.0929 114.732V114.73C59.2229 104.178 66.2809 90.0002 63.4209 77.8462H66.0209C68.0629 80.8222 65.6629 89.4682 70.6869 90.8382C77.6869 92.7462 82.5629 76.1302 94.1029 78.5642C96.6289 79.6022 104.099 89.8862 107.087 98.7462C108.811 103.86 109.227 109.016 108.635 113.62Z" fill="white"/>
<path d="M66.0209 77.8462C66.9209 79.1562 66.9589 81.5622 67.1469 83.9642C66.0689 83.7942 65.0529 83.5862 64.0949 83.3542C64.0489 81.4862 63.8429 79.6442 63.4209 77.8462H66.0209Z" fill="#DFE6F4"/>
<path d="M95.2629 79.3665C90.2369 81.6525 85.6169 83.0285 81.4249 83.7665C84.7969 80.4305 88.7269 77.4305 94.1029 78.5645C94.4189 78.6945 94.8129 78.9685 95.2629 79.3665Z" fill="#DFE6F4"/>
<path d="M108.635 113.62C108.265 116.49 107.505 119.146 106.427 121.442C98.5329 126.896 65.1369 126.22 61.3929 119.948C60.6469 118.342 60.2469 116.594 60.0929 114.732C61.8349 116.534 65.3649 118.918 71.8869 118.95C81.2009 118.994 82.4369 114.206 82.2989 108.46C82.1609 102.712 95.4628 102.474 96.8588 108.41C98.2529 114.346 103.401 122.618 108.633 113.622C108.633 113.622 108.633 113.62 108.635 113.62Z" fill="#DFE6F4"/>
<path d="M85.1237 125.938C79.3754 125.938 73.6 125.436 69.1207 124.463C64.5737 123.476 61.7422 122.095 60.7051 120.359C60.691 120.335 60.6781 120.311 60.6664 120.286C57.9906 114.526 59.5336 107.171 61.1672 99.3855C62.6737 92.2061 64.2313 84.7823 62.6414 78.0297C62.5854 77.7918 62.6412 77.5413 62.793 77.3497C62.9447 77.1581 63.1758 77.0464 63.4201 77.0464H66.0201C66.2838 77.0464 66.5305 77.1763 66.6797 77.3937C67.5764 78.7003 67.7197 80.7448 67.8717 82.9094C68.0943 86.0827 68.3246 89.3642 70.8973 90.0657C73.5442 90.7876 76.0461 88.1817 78.9418 85.1643C82.7166 81.231 87.4153 76.3367 94.2682 77.781C94.3157 77.791 94.3622 77.8053 94.4071 77.8237C97.2305 78.9835 104.786 89.4235 107.845 98.4906C110.526 106.44 110.267 115.147 107.15 121.782C107.09 121.91 106.997 122.019 106.881 122.1C103.119 124.699 94.1554 125.938 85.1237 125.938ZM62.0991 119.571C62.5751 120.334 64.1651 121.75 69.4602 122.9C80.461 125.289 99.878 124.732 105.794 120.902C108.652 114.656 108.855 106.489 106.329 99.0021C103.353 90.1822 96.1225 80.3825 93.8598 79.3303C87.9182 78.1236 83.7631 82.4512 80.0964 86.2721C76.9825 89.5167 74.0423 92.5825 70.4763 91.6092C66.8081 90.6089 66.5128 86.4018 66.2757 83.0213C66.1546 81.2956 66.0395 79.655 65.5587 78.6463H64.4093C65.7235 85.4615 64.2046 92.7016 62.7333 99.714C61.1598 107.213 59.6737 114.298 62.0991 119.571Z" fill="#363D56"/>
<path d="M98.1869 95.4216C96.4406 103.635 82.9376 107.035 81.3203 96.0133C79.9703 86.8133 85.7501 82.7527 90.2203 82.5799C95.6119 82.3716 99.7869 87.8966 98.1869 95.4216Z" fill="#C2C6D2"/>
<path d="M88.5383 103.807C88.4469 103.807 88.3561 103.805 88.2655 103.802C84.1065 103.67 81.2141 100.801 80.5286 96.1293C79.7258 90.6586 81.3981 87.2947 82.9422 85.436C84.7565 83.2523 87.4657 81.8857 90.1893 81.7805C92.7608 81.6794 95.1221 82.7452 96.8334 84.7768C99.0836 87.4485 99.8621 91.389 98.9692 95.588C97.8768 100.726 92.7669 103.807 88.5383 103.807ZM90.5145 83.3742C90.427 83.3742 90.3393 83.3759 90.251 83.3793C87.9739 83.4673 85.7018 84.6184 84.1729 86.4584C82.2569 88.7649 81.544 92.0286 82.1118 95.8971C82.684 99.7971 84.9456 102.096 88.3165 102.203C91.9467 102.323 96.46 99.6958 97.4044 95.2551C98.1936 91.5425 97.5395 88.0989 95.6096 85.8075C94.2825 84.2318 92.4817 83.3742 90.5145 83.3742Z" fill="#363D56"/>
<path d="M82.8736 89.041C82.8736 89.041 79.7383 118.153 86.6108 122.923C88.9831 124.569 91.6619 124.672 93.5619 124.522C97.2954 124.227 99.7629 122.412 100.048 120.177C100.404 117.397 98.4818 116.677 96.858 117.103L96.9744 89.518" fill="#C2C6D2"/>
<path d="M100.049 120.177C99.7628 122.413 97.2949 124.227 93.5628 124.523C91.6628 124.671 88.9828 124.569 86.6109 122.923C85.5049 122.155 84.6569 120.755 84.0149 118.947C85.2828 120.245 87.4149 121.605 90.7109 121.443C95.4649 121.209 96.6328 117.589 96.6848 117.419C96.6568 117.549 96.0868 120.195 98.0208 120.313C99.6228 120.413 99.9188 119.157 99.8328 118.231C100.059 118.715 100.153 119.357 100.049 120.177Z" fill="#9DA3B2"/>
<path d="M82.8736 89.041C82.6648 93.7139 82.5811 98.3837 82.6961 103.036C82.7622 105.362 82.8742 107.683 83.1034 109.985C83.3221 112.285 83.6545 114.575 84.218 116.77C84.5032 117.863 84.8562 118.934 85.3329 119.907C85.572 120.391 85.8427 120.85 86.1537 121.252C86.3081 121.454 86.472 121.641 86.6458 121.808C86.7328 121.892 86.8215 121.971 86.9133 122.043C87.0085 122.119 87.0877 122.179 87.206 122.252C88.0776 122.836 89.07 123.225 90.1119 123.44C91.1556 123.655 92.2471 123.701 93.3478 123.621C94.436 123.548 95.4988 123.329 96.4622 122.932C97.4194 122.538 98.2739 121.932 98.7642 121.159C98.8867 120.967 98.9857 120.766 99.0581 120.559C99.0945 120.455 99.1232 120.35 99.1468 120.244C99.1592 120.191 99.1654 120.137 99.176 120.083C99.1847 120.027 99.1903 119.963 99.198 119.903C99.2489 119.417 99.2131 118.954 99.0686 118.612C98.9256 118.269 98.6855 118.044 98.3244 117.91C97.9658 117.776 97.5014 117.764 97.0593 117.868L97.059 117.868C96.6505 117.989 96.2214 117.756 96.1004 117.348C96.0822 117.286 96.0719 117.224 96.0692 117.163L96.0669 117.1C95.9776 114.801 96.1191 112.502 96.1861 110.204L96.4248 103.308L96.6869 96.4132L96.9744 89.5181L97.2037 96.4154L97.4076 103.313L97.5881 110.21C97.6357 112.509 97.7578 114.808 97.6491 117.106L96.657 116.338L96.6575 116.338C97.3423 116.15 98.0941 116.106 98.8487 116.34C99.2229 116.458 99.5917 116.658 99.9033 116.933C100.217 117.207 100.463 117.554 100.628 117.916C100.96 118.648 100.992 119.392 100.939 120.063C100.931 120.148 100.925 120.229 100.913 120.318C100.899 120.408 100.888 120.5 100.87 120.589C100.834 120.769 100.789 120.947 100.732 121.12C100.619 121.466 100.463 121.796 100.278 122.099C99.9056 122.709 99.4139 123.213 98.8803 123.622C98.3446 124.031 97.7654 124.354 97.1688 124.607C95.9754 125.116 94.7147 125.359 93.4749 125.443C92.2472 125.527 90.9805 125.488 89.7366 125.216C88.4959 124.946 87.2776 124.454 86.215 123.723C86.086 123.641 85.9304 123.525 85.7993 123.417C85.6632 123.306 85.5357 123.189 85.4133 123.069C85.1692 122.828 84.9511 122.571 84.7542 122.306C84.3628 121.774 84.0531 121.212 83.7881 120.644C83.2632 119.504 82.9131 118.333 82.635 117.161C82.3567 115.989 82.1675 114.809 82.021 113.63C81.8746 112.451 81.7741 111.272 81.7027 110.093C81.5732 107.736 81.5567 105.383 81.6238 103.036C81.6587 101.862 81.7098 100.69 81.7774 99.5197C81.8508 98.3495 81.9382 97.1809 82.0389 96.014C82.2537 93.6812 82.5081 91.353 82.8736 89.041Z" fill="#363D56"/>
<path d="M96.0702 119.613L96.0948 116.863L97.6214 117.342L96.0702 119.613Z" fill="#3A3A3A"/>
<path d="M13.6052 70.7888C13.6052 70.7888 9.9869 69.2388 9.6869 64.2888C9.3869 59.3388 14.4869 57.1888 13.1369 54.2888C11.7869 51.3888 14.3369 47.9888 14.3369 47.9888C14.3369 47.9888 13.3256 51.0085 15.1369 53.4331C17.8119 57.0138 16.9789 58.1198 14.6869 62.8388C13.4119 65.4638 15.3402 68.4888 13.6052 70.7888Z" fill="white"/>
<path d="M138.973 51.9191C138.883 52.4132 138.749 52.9072 138.562 53.4044C138.506 53.5513 138.446 53.6999 138.382 53.8481C137.255 56.4297 133.718 59.0189 129.2 61.0501L129.198 61.0499C122.893 63.8854 114.678 65.6338 108.431 64.7509L95.445 48.2517L101.535 15.7813C101.535 15.7813 117.885 14.181 122.983 15.6135C128.079 17.0458 129.287 21.8794 129.416 28.0138C129.546 34.1504 135.601 44.5393 135.601 44.5393L138.973 51.9191Z" fill="#F8ABBB"/>
<path d="M62.0635 40.0919C62.0635 40.0919 42.9626 59.3306 33.3688 57.2636C18.8774 54.1415 13.6293 41.1662 13.5949 35.1204C13.7005 34.6874 14.1502 33.2068 15.3624 33.3616C16.7818 33.5419 21.4943 31.3171 23.1099 29.4859C24.7255 27.6518 22.7953 19.131 26.1518 12.3728C29.6649 5.29689 39.856 2.04744 43.5215 8.79084L50.2518 13.0574C55.148 22.4573 62.0635 40.0919 62.0635 40.0919Z" fill="#F8ABBB"/>
<path d="M62.0625 40.0927C62.0625 40.0927 42.9621 59.3311 33.3687 57.2631C21.318 54.6676 15.6607 45.2587 14.0775 38.6863C13.7554 37.3529 13.6003 36.1392 13.5953 35.1197C13.6997 34.6869 14.15 33.2074 15.3628 33.3625C16.7815 33.5429 21.4938 31.3176 23.1101 29.4863C24.7246 27.6528 22.7947 19.1301 26.1517 12.3739C29.6646 5.29784 39.8561 2.04799 43.5217 8.79054L46.0376 10.3866L50.2511 13.0579C55.1483 22.4581 62.0625 40.0927 62.0625 40.0927Z" fill="#F8ABBB"/>
<path d="M62.0625 40.0927C62.0625 40.0927 53.1486 49.0715 44.4409 54.1014C40.4034 56.4337 36.4088 57.919 33.3687 57.2631C26.4877 55.7804 21.6897 52.0775 18.5471 47.9484C16.1856 44.8472 14.7556 41.5044 14.0774 38.6863C13.7553 37.3529 13.6003 36.1392 13.5952 35.1197C13.6996 34.6869 14.15 33.2074 15.3628 33.3625C16.7815 33.5429 21.4937 31.3176 23.11 29.4863C24.7245 27.6528 22.7946 19.1301 26.1516 12.3739C29.6646 5.29784 39.856 2.04799 43.5216 8.79054L46.0375 10.3866L50.251 13.0579C55.1483 22.4581 62.0625 40.0927 62.0625 40.0927Z" fill="#F8ABBB"/>
<path d="M46.0376 10.3866L42.8757 14.1279C42.8757 14.1279 37.4468 8.77454 33.3009 13.2349C29.6291 17.1849 31.487 28.2395 28.9124 34.5062C27.5887 37.7302 23.9857 38.8597 18.8217 36.9766C15.8922 35.9085 14.6242 37.2898 14.0775 38.6863C13.7554 37.3529 13.6003 36.1392 13.5953 35.1197C13.6997 34.6869 14.15 33.2074 15.3628 33.3625C16.7815 33.5429 21.4938 31.3176 23.1101 29.4863C24.7246 27.6528 22.7947 19.1301 26.1517 12.3739C29.6646 5.29784 39.8561 2.04799 43.5217 8.79054L46.0376 10.3866Z" fill="#F47F9B"/>
<path d="M34.8737 58.2153C34.2926 58.2153 33.7342 58.1609 33.2002 58.0459C24.9424 56.2668 20.0549 51.4665 17.409 47.7528C14.033 43.0147 12.812 38.1231 12.795 35.1253L12.7944 35.0269L12.8176 34.9313C13.2114 33.3156 14.2249 32.41 15.4637 32.5683C16.5262 32.6992 21.0124 30.6542 22.5098 28.9569C22.9874 28.4149 23.0547 26.3516 23.12 24.3563C23.2335 20.8881 23.3885 16.1382 25.4354 12.0172C27.6503 7.55614 32.4091 4.38084 37.0079 4.29569C37.0696 4.29454 37.1311 4.29395 37.1923 4.29395C40.2142 4.29395 42.662 5.68269 44.121 8.22394L50.862 12.4973L50.9614 12.6881C55.8211 22.0179 62.7389 39.6232 62.8083 39.8L62.9987 40.2856L62.6313 40.6557C61.8815 41.4109 45.0737 58.2153 34.8737 58.2153ZM14.3962 35.2199C14.4401 37.8642 15.5909 42.4437 18.712 46.8244C21.1938 50.3076 25.7805 54.8106 33.5374 56.4818C37.22 57.2753 43.1966 54.6286 50.8157 48.8268C55.742 45.0754 59.8946 41.0989 61.1254 39.8944C59.9797 37.0025 53.9996 22.0376 49.6412 13.6178L42.9178 9.35555L42.8186 9.17314C41.3131 6.40339 38.844 5.85994 37.0373 5.89539C33.0744 5.96884 28.7977 8.84264 26.8684 12.7288C24.9764 16.5382 24.8338 20.9021 24.7192 24.4086C24.6313 27.0981 24.5676 29.0414 23.71 30.0149C22.083 31.8593 17.461 34.1698 15.5102 34.1701C15.4215 34.1701 15.3387 34.1653 15.2615 34.1556C14.761 34.0921 14.4798 34.9247 14.3962 35.2199Z" fill="#363D56"/>
<path d="M50.2518 13.0575L45.2123 13.7177C39.2804 7.9021 32.0345 6.42895 28.8042 13.8777C25.959 20.4386 27.5447 30.4435 24.5829 33.2378C22.0031 35.6718 16.7818 33.5419 15.3624 33.3616C14.1502 33.2068 13.7005 34.6874 13.5949 35.1204C13.5641 34.1426 13.6365 33.2415 13.8202 32.4431C14.9482 27.5368 19.8656 23.4943 21.7784 18.9115C23.0287 12.537 24.3055 8.91585 26.8461 6.2769C32.9755 -0.0898509 45.0877 3.08565 50.0399 9.8305C50.7911 10.8536 49.2086 11.0527 50.2518 13.0575Z" fill="#C2C6D2"/>
<path d="M50.2511 13.0582L46.6899 13.5249L45.2124 13.7174C39.28 7.90263 32.0336 6.42993 28.8042 13.8788C25.9581 20.4384 27.5454 30.4448 24.5821 33.2376C22.0026 35.6718 16.7815 33.5431 15.3628 33.3627C14.15 33.2076 13.6997 34.6872 13.5953 35.1199C13.5817 34.6861 13.5868 34.2662 13.6161 33.8665C13.651 33.3632 13.7174 32.8869 13.8208 32.4441C14.9471 27.5379 19.865 23.4939 21.778 18.9114C23.0292 12.5373 24.3059 8.91648 26.8465 6.27643C32.976 -0.0891209 45.0868 3.08658 50.0395 9.83108C50.791 10.8542 49.2089 11.053 50.2511 13.0582Z" fill="#C2C6D2"/>
<path d="M46.6899 13.5247L45.2124 13.7172C39.28 7.90242 32.0336 6.42972 28.8042 13.8786C25.9581 20.4382 27.5454 30.4446 24.5821 33.2374C22.0026 35.6716 16.7815 33.5429 15.3628 33.3625C14.15 33.2074 13.6997 34.687 13.5953 35.1197C13.5817 34.6859 13.5868 34.266 13.6161 33.8663C13.7989 33.0004 14.2768 32.2341 15.3686 32.1418C17.3362 31.9749 21.0674 33.5062 22.8778 32.4918C25.6053 30.9603 25.1666 22.871 26.5275 16.8655C27.8611 10.9816 30.4426 6.14312 37.8465 7.40827C42.4027 8.18767 45.5443 11.9403 46.6899 13.5247Z" fill="#A8AFC1"/>
<g opacity="0.4">
<path d="M50.1132 10.8871C44.9157 4.53418 33.2481 1.65208 27.3616 7.90213C25.1529 10.2468 23.3409 14.6485 22.0895 21.0246C20.9324 24.1854 17.4327 26.1113 13.8209 32.4441C14.9472 27.5379 19.8651 23.4939 21.778 18.9114C23.0292 12.5373 24.3059 8.91648 26.8466 6.27643C32.9761 -0.0891209 45.0868 3.08658 50.0396 9.83108C50.3574 10.2652 50.2568 10.5501 50.1132 10.8871Z" fill="white"/>
</g>
<path d="M13.5956 35.9206C13.568 35.9206 13.5401 35.9192 13.5122 35.9163C13.1141 35.8749 12.8081 35.5457 12.7954 35.1457C12.762 34.0863 12.8444 33.1168 13.0405 32.2639C13.7157 29.3273 15.6377 26.7308 17.4965 24.2199C18.8924 22.3343 20.2118 20.5518 21.0092 18.6768C22.1832 12.7124 23.4262 8.67585 26.2698 5.7221C28.8141 3.0795 32.5561 1.7798 36.8028 2.0631C42.2489 2.426 47.6979 5.2891 50.6848 9.35715C51.2858 10.1758 51.0026 10.8439 50.8333 11.243C50.6768 11.6121 50.5532 11.9036 50.9614 12.6883C51.0821 12.9199 51.0819 13.1957 50.9612 13.4272C50.8407 13.6587 50.6145 13.8168 50.3558 13.8508L45.3163 14.5111C45.072 14.5428 44.8278 14.4612 44.6525 14.2891C41.0984 10.8048 37.3501 9.14185 34.3656 9.72435C32.2716 10.1337 30.6474 11.6382 29.5382 14.1961C28.2318 17.2086 27.8851 21.1019 27.5792 24.5371C27.2154 28.6224 26.9011 32.1506 25.132 33.8199C22.7413 36.0752 18.6179 35.0001 16.4029 34.4222C15.914 34.2947 15.4919 34.1846 15.2617 34.1554C14.6908 34.085 14.4031 35.184 14.3724 35.3099C14.2843 35.6714 13.9604 35.9206 13.5956 35.9206ZM15.1878 32.5504C15.2786 32.5504 15.3704 32.5563 15.4638 32.5682C15.7958 32.6104 16.2419 32.7267 16.8065 32.874C18.7222 33.3735 22.2878 34.3036 24.0339 32.656C25.3612 31.4037 25.6645 27.9993 25.9854 24.3951C26.302 20.8393 26.661 16.8091 28.0702 13.5595C29.3829 10.5325 31.4536 8.6633 34.0587 8.15405C37.4825 7.4853 41.6337 9.2027 45.4909 12.8745L49.1526 12.3948C48.9659 11.548 49.2022 10.9909 49.3602 10.6183C49.393 10.541 49.4368 10.4379 49.4481 10.3895C49.4417 10.3753 49.4266 10.3471 49.395 10.3041C46.6758 6.60055 41.6915 3.99245 36.6965 3.6596C32.9258 3.40835 29.6336 4.5351 27.4225 6.83185C25.1421 9.2005 23.8706 12.4019 22.5633 19.0657C22.553 19.1185 22.5374 19.1702 22.5166 19.2199C21.6479 21.3012 20.1912 23.2689 18.7824 25.1718C17.0213 27.5509 15.2002 30.0111 14.5998 32.6224C14.5985 32.6281 14.5973 32.6338 14.5959 32.6394C14.7844 32.5807 14.9825 32.5504 15.1878 32.5504Z" fill="#363D56"/>
<path d="M138.973 51.9191C138.883 52.4132 138.749 52.9072 138.562 53.4044C137.629 49.133 131.542 53.6285 124.575 49.9355C117.489 46.1794 124.727 25.224 119.605 24.3959C114.372 23.5495 108.398 30.3579 108.398 30.3579C108.398 30.3579 101.527 66.8198 129.198 61.0499C122.893 63.8854 114.678 65.6338 108.431 64.7509L95.445 48.2517L101.535 15.7813C101.535 15.7813 117.885 14.181 122.983 15.6135C128.079 17.0458 129.287 21.8794 129.416 28.0138C129.546 34.1504 135.601 44.5393 135.601 44.5393L138.973 51.9191Z" fill="#F47F9B"/>
<path d="M111.891 65.7791C110.65 65.7791 109.453 65.7032 108.32 65.5431L108.002 65.4982L107.803 65.2458L94.5911 48.4606L100.859 15.0442L101.457 14.9857C102.131 14.9198 118.017 13.3876 123.199 14.8434C129.174 16.5222 130.099 22.4349 130.216 27.9973C130.34 33.8539 136.232 44.0337 136.292 44.1358L136.328 44.206L139.806 51.816L139.76 52.0635C139.629 52.7795 139.412 53.4878 139.115 54.1688C136.515 60.1234 122.606 65.7791 111.891 65.7791ZM108.859 64.0009C113.691 64.6053 120.121 63.6542 126.14 61.4343C132.063 59.2497 136.473 56.2205 137.649 53.5288C137.863 53.0377 138.027 52.5301 138.138 52.0171L134.889 44.9067C134.437 44.1263 128.747 34.1834 128.617 28.0311C128.466 20.8836 126.771 17.5091 122.766 16.3839C118.409 15.1597 105.183 16.2555 102.21 16.5228L96.2977 48.0417L108.859 64.0009Z" fill="#363D56"/>
<path d="M72.0749 81.7042C48.7287 80.968 28.8165 70.2542 28.1862 53.0715C28.0144 48.3872 29.6171 45.5314 31.0876 43.0782C32.9733 26.4573 37.0641 14.1899 47.658 6.80852C57.2144 0.150017 74.5809 -1.28018 88.8213 4.05756C97.3556 7.25646 118.111 15.4833 112.772 53.3918C113.609 70.1966 100.775 81.9849 72.0749 81.7042Z" fill="#C2C6D2"/>
<path d="M112.771 53.3903C112.876 55.5126 112.766 57.5553 112.429 59.5037C110.113 72.9821 97.1501 81.9479 72.0754 81.7048C50.7882 81.0312 32.355 72.0658 28.7917 57.464C28.4493 56.0507 28.2423 54.5861 28.1869 53.0705C28.0155 48.3866 29.6167 45.5317 31.0866 43.0793C32.9738 26.4576 37.0653 14.1905 47.6578 6.8095C57.2137 0.150055 74.581 -1.2808 88.8213 4.05845C97.3569 7.25575 118.11 15.4837 112.771 53.3903Z" fill="#C2C6D2"/>
<path d="M112.429 59.5036C110.113 72.982 97.1501 81.9477 72.0754 81.7047C50.7882 81.0311 32.355 72.0656 28.7917 57.4639C30.9438 62.0863 43.9438 65.7863 48.2104 63.2863C59.6932 63.305 66.1788 65.2731 66.1788 65.2731C66.1788 65.2731 70.3979 73.8635 85.1134 74.2244C99.1193 74.5673 109.452 68.0424 112.429 59.5036Z" fill="#A8AFC1"/>
<g opacity="0.4">
<path d="M102.035 13.6634C98.0227 11.0209 92.6251 8.63746 88.6188 7.13661C88.0326 6.91776 87.4414 6.70846 86.8433 6.51051C85.6687 7.83446 82.213 8.41506 78.3002 7.82191C74.2412 7.20711 71.0285 5.52601 70.4596 3.85526C61.4063 3.76766 53.0275 5.89321 47.4176 9.80056C44.9297 11.5326 42.7548 13.5781 40.8722 15.9671C42.985 12.8267 45.5357 10.2297 48.5698 8.11611C53.9593 4.36036 62.0084 2.31416 70.7081 2.39281C72.2205 2.40571 73.751 2.48241 75.2932 2.62626C79.4772 3.01651 83.4913 3.87541 87.2453 5.18456C87.5868 5.30051 87.9256 5.42421 88.2623 5.54971C91.5082 6.76746 97.1046 8.86506 102.035 13.6634Z" fill="white"/>
</g>
<path d="M73.0663 82.5088C72.7348 82.5088 72.402 82.5072 72.0671 82.5039L72.0497 82.5035C60.1895 82.1296 49.2307 79.1935 41.1922 74.2359C32.4703 68.8572 27.6965 61.5487 27.3868 53.1005C27.204 48.1186 28.9706 45.0562 30.3124 42.8152C31.3569 33.6998 32.9655 26.816 35.3712 21.1649C38.1282 14.6879 41.9977 9.77703 47.2005 6.15193C51.988 2.81628 58.8157 0.679876 66.4261 0.136226C74.1245 -0.413674 82.1776 0.712677 89.1023 3.30818C93.1839 4.83818 100.781 7.68603 106.631 15.2176C113.543 24.1178 115.879 36.9736 113.574 53.4281C113.925 60.8123 111.749 67.0067 107.104 71.8411C103.747 75.3359 99.1433 78.0175 93.4216 79.8112C87.7085 81.6022 80.8643 82.5088 73.0663 82.5088ZM72.0913 80.904C87.7139 81.0573 99.4122 77.5383 105.951 70.7326C110.293 66.2123 112.32 60.3913 111.973 53.4315L111.969 53.3554L111.979 53.28C117.289 15.5825 96.4032 7.75368 88.5405 4.80648C74.7476 -0.363523 57.746 0.754527 48.1153 7.46468C38.8434 13.9249 33.989 24.6026 31.8825 43.1682L31.863 43.3404L31.7737 43.4892C30.1556 46.1886 28.829 48.7708 28.9856 53.0419C29.2751 60.9311 33.7864 67.7889 42.0321 72.8741C49.8346 77.6861 60.5094 80.5376 72.0913 80.904Z" fill="#363D56"/>
<path d="M90.5752 26.9422C90.5752 26.9422 89.4519 20.8073 85.5605 20.135C82.0416 19.527 81.2256 23.884 84.3648 25.1576C86.8216 26.1543 90.5752 26.9422 90.5752 26.9422Z" fill="#363D56"/>
<path d="M41.7471 20.7602C41.7471 20.7602 44.3545 16.2251 47.6502 16.3073C50.8186 16.3863 50.0808 20.4976 47.4574 20.8813C45.9264 21.1052 41.7471 20.7602 41.7471 20.7602Z" fill="#363D56"/>
<path d="M139.078 51.1082C139.057 51.3785 139.022 51.6495 138.973 51.9192C137.003 47.387 131.368 51.4401 127.457 48.9732C122.146 45.6189 125.151 36.4753 126.065 31.4833C126.982 26.4875 129.777 19.1883 120.373 18.7357C114.468 18.4511 107.682 21.1357 107.445 21.2297C107.441 21.2313 107.439 21.2331 107.439 21.2331C107.439 21.2331 103.293 20.0716 101.661 17.6671C100.03 15.2625 102.377 14.5005 102.377 14.5005C103.582 14.0924 104.777 13.7333 105.955 13.4227C114.603 11.1401 122.43 11.4537 127.875 14.4441C137.293 19.613 132.237 30.8016 133.869 36.3033C135.032 40.2259 138.215 44.3327 138.957 48.6103C138.957 48.6142 138.958 48.6204 138.96 48.6245C139.102 49.4446 139.15 50.274 139.078 51.1082Z" fill="#C2C6D2"/>
<path d="M139.078 51.1084C139.057 51.3787 139.022 51.6497 138.973 51.9194C137.003 47.3872 131.368 51.4403 127.457 48.9734C122.146 45.6191 125.151 36.4755 126.065 31.4835C126.982 26.4877 129.777 19.1885 120.373 18.7359C114.468 18.4513 107.682 21.1359 107.445 21.2299C107.733 21.0665 119.148 14.5934 125.889 18.8419C132.539 23.0339 124.741 36.8877 126.7 44.3621C128.437 50.9848 138.278 45.9084 139.078 51.1084Z" fill="#A8AFC1"/>
<g opacity="0.4">
<path d="M138.957 48.6103C137.275 41.9126 133.216 41.512 132.162 35.1271C130.923 27.6339 135.939 16.6397 121.585 14.1958C111.481 12.4746 106.027 16.4976 104.927 14.8747C104.607 14.4023 105.063 13.802 105.955 13.4227C114.603 11.1401 122.43 11.4537 127.875 14.4441C137.293 19.613 132.237 30.8016 133.868 36.3033C135.032 40.2259 138.215 44.3327 138.957 48.6103Z" fill="white"/>
</g>
<path d="M102.376 14.4999C102.996 14.1548 103.633 13.8483 104.281 13.567C104.929 13.2823 105.588 13.0278 106.257 12.7973C107.593 12.335 108.965 11.966 110.358 11.6945C111.752 11.4222 113.168 11.2591 114.59 11.1533C116.013 11.0511 117.447 11.0293 118.881 11.118C119.598 11.1656 120.315 11.2295 121.029 11.3325C121.744 11.4286 122.456 11.5583 123.163 11.7195C124.576 12.0442 125.968 12.5058 127.297 13.1287C128.621 13.7357 129.913 14.552 131.006 15.6007C131.555 16.1222 132.048 16.7083 132.477 17.336C132.905 17.965 133.262 18.6398 133.551 19.3358C134.129 20.7316 134.419 22.2037 134.552 23.6518C134.683 25.1033 134.655 26.5395 134.59 27.9517C134.524 29.3637 134.407 30.7564 134.352 32.1228C134.327 32.8051 134.316 33.4818 134.351 34.1402C134.385 34.7978 134.462 35.4416 134.629 36.0269C134.989 37.2809 135.561 38.5241 136.17 39.7564C136.781 40.9922 137.44 42.2286 138.044 43.516C138.647 44.8027 139.202 46.1443 139.556 47.5805C139.91 49.0098 140.04 50.5556 139.76 52.0633C139.68 52.498 139.262 52.7852 138.827 52.7047C138.565 52.656 138.356 52.4842 138.25 52.2598L138.24 52.2388L138.24 52.2384C138.02 51.7363 137.727 51.3129 137.347 51.0267C136.97 50.7373 136.492 50.5686 135.943 50.4922C135.395 50.4157 134.794 50.4244 134.176 50.4593C133.556 50.495 132.916 50.5567 132.258 50.5988C131.6 50.641 130.922 50.6647 130.224 50.6165C129.529 50.57 128.811 50.4428 128.117 50.1859C127.771 50.0562 127.434 49.8939 127.115 49.7002C126.802 49.5077 126.508 49.2985 126.228 49.0616C125.671 48.5879 125.194 48.0163 124.821 47.394C124.073 46.1402 123.749 44.7356 123.624 43.3812C123.502 42.0188 123.576 40.6779 123.719 39.3639C124.005 36.7368 124.636 34.1944 125.118 31.7149L125.296 30.763L125.492 29.8068C125.625 29.1749 125.758 28.5524 125.876 27.9342C126.11 26.7011 126.301 25.476 126.262 24.3113C126.225 23.1496 125.938 22.0758 125.249 21.3171C124.567 20.5494 123.501 20.0847 122.351 19.8263C121.195 19.5663 119.952 19.5041 118.716 19.5234C117.476 19.5519 116.225 19.6552 114.974 19.821C113.723 19.9829 112.47 20.1966 111.214 20.4317C109.96 20.6789 108.703 20.942 107.438 21.2324C108.571 20.5926 109.766 20.0719 110.986 19.6208C112.206 19.1626 113.46 18.7898 114.739 18.4999C117.299 17.9344 119.973 17.6691 122.699 18.1671C123.379 18.3019 124.067 18.4967 124.73 18.8104C125.391 19.1218 126.034 19.5547 126.557 20.1269C127.084 20.6956 127.472 21.3911 127.707 22.1032C127.947 22.8171 128.042 23.5444 128.068 24.2475C128.111 25.6577 127.903 26.9924 127.65 28.2796C127.522 28.9235 127.382 29.557 127.245 30.1822L127.047 31.1138L126.862 32.0558C126.599 33.3412 126.299 34.586 126.035 35.8322C125.771 37.0765 125.536 38.3178 125.383 39.5574C125.232 40.7955 125.165 42.0361 125.264 43.2377C125.364 44.4352 125.643 45.5997 126.213 46.5666C126.498 47.0484 126.853 47.4786 127.272 47.8416C127.482 48.0213 127.712 48.1879 127.946 48.3328C128.176 48.4728 128.42 48.5906 128.676 48.6869C129.705 49.072 130.911 49.0852 132.156 49.0021C132.78 48.9625 133.421 48.9004 134.085 48.8619C134.749 48.8258 135.44 48.808 136.167 48.9079C136.887 49.0057 137.671 49.2567 138.318 49.7547C138.969 50.2471 139.415 50.9286 139.707 51.6001L139.707 51.6007L138.186 51.7763C138.416 50.5326 138.317 49.2342 138.002 47.9611C137.689 46.685 137.176 45.433 136.596 44.1959C136.015 42.9572 135.361 41.7307 134.735 40.4657C134.423 39.8329 134.117 39.19 133.834 38.528C133.55 37.8653 133.289 37.1896 133.078 36.4722C132.859 35.7151 132.771 34.9641 132.727 34.2307C132.683 33.496 132.691 32.7762 132.713 32.0648C132.761 30.6429 132.87 29.2538 132.925 27.8784C132.982 26.5047 132.981 25.1437 132.847 23.8164C132.709 22.4918 132.431 21.1989 131.924 20.0197C131.419 18.8406 130.688 17.7834 129.759 16.9094C129.295 16.4721 128.786 16.0773 128.244 15.7253C127.703 15.3748 127.12 15.0646 126.521 14.7826C125.324 14.2177 124.053 13.796 122.75 13.4884C122.099 13.331 121.439 13.2017 120.773 13.1035C120.108 12.9984 119.435 12.93 118.761 12.8763C117.411 12.782 116.05 12.7516 114.688 12.8207C113.325 12.8825 111.965 13.0275 110.606 13.2106C109.246 13.3914 107.886 13.6012 106.519 13.8264L104.46 14.1681C104.115 14.2237 103.772 14.2909 103.423 14.3398C103.077 14.3984 102.729 14.4547 102.376 14.4999Z" fill="#363D56"/>
<path d="M50.6763 53.3358C50.6763 53.3358 51.5604 49.7863 54.8777 48.2622C58.9047 46.412 66.4604 47.6613 69.6105 54.9777C72.6694 66.6106 47.4369 66.4462 50.6763 53.3358Z" fill="#C2C6D2"/>
<g opacity="0.4">
<path d="M69.6849 55.2804C66.1849 49.4264 59.4949 48.5044 55.7909 50.2065C52.4729 51.7304 51.5888 55.2804 51.5888 55.2804C51.1968 56.8665 51.2209 58.2625 51.5628 59.4724C50.4828 57.9005 50.0529 55.8585 50.6769 53.3364C50.6769 53.3364 51.5609 49.7864 54.8769 48.2625C58.9048 46.4125 66.4609 47.6625 69.6109 54.9784C69.6369 55.0804 69.6629 55.1804 69.6849 55.2804Z" fill="white"/>
</g>
<path d="M49.9001 53.1424C49.9221 53.043 49.9367 52.9836 49.9563 52.9085L50.0159 52.6993C50.0568 52.5616 50.1015 52.4273 50.1486 52.2935C50.2457 52.0279 50.3539 51.7677 50.4728 51.5119C50.7133 51.0019 51.0014 50.5123 51.3344 50.0492C51.672 49.5899 52.0518 49.1547 52.4799 48.7649C52.9116 48.38 53.3824 48.0317 53.8914 47.7474C54.9158 47.1766 56.0401 46.8616 57.149 46.7332C58.2632 46.6096 59.3794 46.6539 60.4628 46.8488C62.6258 47.2456 64.6677 48.2277 66.2613 49.6819C67.8664 51.1233 69.0049 52.9981 69.6104 54.9777C68.588 53.176 67.2561 51.5985 65.6349 50.4619C64.0203 49.3228 62.1435 48.6185 60.2313 48.4048C59.2767 48.299 58.3113 48.3015 57.3826 48.4575C56.4498 48.595 55.5641 48.8867 54.7915 49.3297C54.4009 49.5495 54.0398 49.8203 53.7038 50.1219C53.3643 50.42 53.0548 50.7583 52.7747 51.1234C52.4929 51.4874 52.2375 51.878 52.0155 52.2892C51.9026 52.4936 51.7979 52.7032 51.7029 52.9158C51.6554 53.0217 51.6077 53.128 51.5655 53.2341L51.4524 53.5291L51.4247 53.6015C51.267 54.0132 50.8052 54.2191 50.3935 54.0613C50.0191 53.9178 49.815 53.5226 49.9001 53.1424Z" fill="#363D56"/>
<path d="M66.9104 58.0864C62.2771 50.2197 52.5771 51.2387 50.6763 53.3359C49.3194 54.833 48.13 60.1064 48.1293 66.953C48.1285 74.2067 49.7119 85.1213 52.2594 89.8114C51.2035 91.3379 50.6205 93.2938 51.6035 94.5963C52.9244 96.3463 55.6994 95.9088 57.1702 94.0463C59.1743 95.9338 61.692 95.5781 62.6368 94.3963C63.5716 93.227 63.4993 90.8265 61.4604 89.6114C63.0535 85.4463 62.9104 70.1864 66.9104 64.9807L66.9104 58.0864Z" fill="#C2C6D2"/>
<path d="M66.9109 58.0862V64.9802C66.8349 65.0782 66.7629 65.1802 66.6909 65.2842C66.6909 65.2862 66.6889 65.2862 66.6889 65.2862C62.9149 70.7602 63.023 85.5242 61.4609 89.6122C63.4989 90.8262 63.5709 93.2262 62.6369 94.3962C61.693 95.5782 59.1749 95.9342 57.1709 94.0462C55.699 95.9082 52.9249 96.3462 51.603 94.5962C51.1669 94.0182 51.0389 93.3102 51.1249 92.5682C51.2309 91.6402 51.6709 90.6602 52.2589 89.8122C49.711 85.1222 48.1289 74.2062 48.1289 66.9522C48.1309 60.1062 49.319 54.8322 50.677 53.3362C52.5769 51.2382 62.2769 50.2202 66.9109 58.0862Z" fill="#C2C6D2"/>
<g opacity="0.4">
<path d="M52.2589 89.8121C49.7109 85.122 48.1289 74.2061 48.1289 66.9521C48.1308 60.1061 49.3189 54.8321 50.6769 53.3361C52.5009 51.3221 61.5109 50.3041 66.3289 57.1821C61.3409 52.1421 53.7129 53.1521 52.0508 54.9861C50.6929 56.4821 48.438 73.1663 53.3751 89.8785L52.2589 89.8121Z" fill="white"/>
</g>
<path d="M62.6369 94.3961C61.6929 95.5781 59.1749 95.9341 57.1709 94.0461C55.6989 95.9081 52.9249 96.3461 51.6029 94.5961C51.1669 94.0181 51.0389 93.3101 51.1249 92.5681C51.8269 93.2041 52.8149 93.8701 53.8629 93.8701C55.8629 93.8701 56.9109 91.9961 56.9109 91.9961C56.9109 91.9961 59.21 94.1962 60.9369 92.7901C62.2703 91.7045 59.7203 90.6711 59.0536 90.5961C61.1369 88.0121 59.5619 69.8461 66.6889 65.2861C62.9149 70.7601 63.023 85.5242 61.4609 89.6122C63.4989 90.8261 63.5709 93.2261 62.6369 94.3961Z" fill="#A8AFC1"/>
<path d="M66.9104 58.0863C66.2234 57.1309 65.4359 56.2666 64.5615 55.5224C63.6817 54.7849 62.7176 54.1647 61.6872 53.7019C60.6602 53.2338 59.5777 52.9012 58.4725 52.7215C57.3708 52.5304 56.2458 52.4748 55.1434 52.5727C54.5931 52.6238 54.0473 52.6997 53.5197 52.8251C52.9948 52.952 52.4807 53.1169 52.0316 53.3391C51.8102 53.4505 51.5993 53.5753 51.4409 53.7094C51.3991 53.7422 51.3651 53.776 51.3299 53.8085C51.2989 53.8425 51.2703 53.8694 51.2375 53.9126C51.2055 53.9511 51.1729 53.9904 51.1412 54.0386C51.1088 54.0828 51.0766 54.1292 51.0458 54.1815C50.7927 54.5856 50.5834 55.0936 50.4064 55.6098C50.0519 56.6518 49.811 57.7692 49.62 58.8919C49.4304 60.0172 49.301 61.1593 49.2093 62.3054C49.1187 63.4519 49.0717 64.6038 49.0552 65.7565C49.0378 66.9106 49.053 68.0599 49.1071 69.2148C49.2129 71.5232 49.4289 73.8343 49.7362 76.13C50.0367 78.4262 50.4263 80.7118 50.9451 82.9545C51.2088 84.0742 51.5043 85.1828 51.8456 86.2665C52.1938 87.3445 52.5931 88.4046 53.0978 89.3559L53.3751 89.8786L53.0441 90.3541C52.5593 91.0504 52.1895 91.8436 52.0745 92.5886C52.0191 92.9584 52.0313 93.3076 52.1242 93.5961C52.1688 93.7419 52.2334 93.8735 52.3178 93.9951C52.4063 94.1206 52.5189 94.2469 52.6381 94.3467C53.1111 94.7584 53.843 94.8812 54.57 94.7063C55.2976 94.5371 55.9849 94.0882 56.4678 93.4916L57.089 92.7242L57.7838 93.3947C58.3723 93.9628 59.0963 94.3505 59.8553 94.4669C60.2329 94.5242 60.617 94.513 60.9707 94.4298C61.3237 94.3481 61.643 94.1854 61.8628 93.9837C62.0684 93.7971 62.2322 93.49 62.3159 93.1458C62.3987 92.8005 62.4036 92.4223 62.3306 92.0623C62.1884 91.3346 61.7207 90.705 61.0508 90.2986L60.5043 89.9889L60.7132 89.3255C60.8499 88.8911 60.9505 88.3988 61.0421 87.9023C61.1282 87.4028 61.2119 86.8942 61.2802 86.3793L61.4831 84.8263L61.6739 83.2598L61.8639 81.6859L62.0713 80.1088C62.207 79.0557 62.3659 78.0027 62.5401 76.95C62.8759 74.8438 63.3181 72.7405 63.9473 70.679C64.2724 69.6518 64.6434 68.6338 65.1151 67.6585C65.5874 66.6887 66.1546 65.742 66.9104 64.9806C66.3853 65.911 66.0266 66.8945 65.7414 67.8986C65.5947 68.399 65.4761 68.9076 65.3606 69.4159C65.2449 69.9243 65.1439 70.4365 65.0548 70.9513C64.6789 73.0063 64.4414 75.0904 64.1946 77.1787L63.8602 80.3229L63.6947 81.9008L63.5105 83.4818C63.4499 84.01 63.3813 84.5384 63.3047 85.0675C63.2279 85.5966 63.154 86.128 63.0566 86.6592C62.9609 87.1906 62.8611 87.7254 62.7276 88.2619C62.5972 88.8001 62.4421 89.3389 62.2076 89.897L61.8699 88.924C62.3677 89.2179 62.8295 89.6081 63.1919 90.0879C63.5553 90.566 63.8146 91.1274 63.9441 91.7158C64.0738 92.3044 64.0808 92.9193 63.9487 93.5209C63.813 94.1183 63.5393 94.7226 63.041 95.2114C62.5548 95.6794 61.9713 95.9545 61.3845 96.1048C60.7949 96.2531 60.1914 96.2751 59.6086 96.1963C58.4388 96.0369 57.3731 95.4634 56.5565 94.6977L57.8724 94.6009C57.1567 95.514 56.1515 96.1933 55.0001 96.479C54.4251 96.6204 53.809 96.6629 53.1905 96.5579C52.5741 96.4559 51.9563 96.189 51.4558 95.7732C51.2035 95.5649 50.9886 95.3319 50.7962 95.0656C50.6017 94.7937 50.4483 94.4887 50.3462 94.1748C50.1365 93.5434 50.1258 92.9021 50.2049 92.3195C50.2872 91.7341 50.4626 91.1946 50.6813 90.6893C50.9017 90.1842 51.1698 89.7128 51.4746 89.2685L51.4209 90.2666C50.8197 89.1496 50.388 88.0084 50.0074 86.861C49.6335 85.713 49.3247 84.5556 49.0553 83.3934C48.5214 81.0688 48.1269 78.7279 47.8228 76.3772C47.5295 74.0249 47.3336 71.6628 47.248 69.2884C47.1614 66.9106 47.2197 64.5253 47.4506 62.1505C47.567 60.9627 47.7225 59.7765 47.9433 58.5945C48.1671 57.4124 48.4389 56.2345 48.8596 55.0636C49.0753 54.4779 49.3158 53.8945 49.6936 53.3093C49.7391 53.2365 49.7911 53.1631 49.8464 53.0899C49.8975 53.0171 49.9583 52.9436 50.0216 52.8707C50.0797 52.7989 50.1564 52.7234 50.2284 52.6535C50.3016 52.5874 50.3755 52.522 50.4501 52.4658C50.7486 52.2321 51.053 52.0691 51.3579 51.9253C51.9681 51.6442 52.5847 51.4718 53.2035 51.3498C53.8222 51.2321 54.442 51.1598 55.0612 51.1433C56.2986 51.1069 57.5303 51.2342 58.7224 51.5206C59.9107 51.8189 61.0625 52.2619 62.1157 52.8741C63.168 53.4851 64.1274 54.2466 64.9344 55.1354C65.7462 56.0192 66.4087 57.0227 66.9104 58.0863Z" fill="#363D56"/>
<path d="M70.6655 46.9919C71.0776 46.019 71.7042 45.1659 72.4673 44.4182C73.2329 43.6743 74.1532 43.0452 75.199 42.6155C76.2404 42.1788 77.4156 41.9744 78.5897 42.0199C79.7675 42.0586 80.9259 42.392 81.9582 42.8942C82.9944 43.3981 83.9064 44.0782 84.682 44.8468C85.458 45.6174 86.1067 46.4726 86.6427 47.3724C87.1904 48.2656 87.6022 49.2168 87.9399 50.1792C88.0231 50.4203 88.0993 50.6639 88.1743 50.9063C88.243 51.1515 88.3029 51.3997 88.3639 51.6456C88.4265 51.891 88.4766 52.1404 88.5175 52.3923C88.5607 52.6432 88.5996 52.8945 88.6286 53.1482C87.9426 52.3842 87.3479 51.6038 86.7069 50.876C86.0741 50.146 85.453 49.4333 84.7987 48.786C83.4957 47.4906 82.1124 46.3936 80.6342 45.7652C79.8974 45.4464 79.1421 45.2478 78.3689 45.1675C77.5965 45.0858 76.7985 45.094 75.9717 45.2277C75.1463 45.3589 74.2907 45.584 73.4124 45.8918C72.5303 46.1967 71.6414 46.5921 70.6655 46.9919Z" fill="#363D56"/>
<path d="M53.0293 44.9435C52.8415 44.7891 52.6704 44.6333 52.5087 44.4773C52.3436 44.323 52.1702 44.1792 52.0154 44.0294C51.688 43.7409 51.3755 43.4632 51.0558 43.2119C50.4233 42.704 49.7919 42.2825 49.1552 41.9557C48.5154 41.6337 47.8705 41.4066 47.2014 41.2651C46.5332 41.1178 45.8304 41.0953 45.1151 41.1798C43.6807 41.3386 42.2141 41.924 40.8156 42.744C40.1117 43.151 39.4203 43.6179 38.7411 44.1309C38.0598 44.6426 37.3931 45.1983 36.6902 45.7634C37.3006 44.0749 38.3063 42.5233 39.6435 41.2222C40.9799 39.9337 42.6961 38.8901 44.697 38.5044C45.1941 38.4051 45.7084 38.3663 46.225 38.3589C46.4839 38.3701 46.7441 38.373 47.0031 38.4022C47.2614 38.4413 47.5226 38.4603 47.7775 38.5252C48.8036 38.742 49.7802 39.2071 50.579 39.8514C51.3763 40.5004 51.9902 41.3159 52.4041 42.1871C52.6103 42.6245 52.7688 43.0758 52.875 43.5369C52.9009 43.6524 52.9241 43.7683 52.944 43.8847C52.9635 44.0012 52.9898 44.1135 52.9965 44.2337C53.0192 44.4697 53.0326 44.7059 53.0293 44.9435Z" fill="#363D56"/>
<path d="M65.1262 74.8405C65.7066 77.5847 69.0662 77.7461 69.8567 74.7357C70.5113 72.243 68.8181 67.5003 67.7618 67.4454C66.5853 67.3843 64.4978 71.8694 65.1262 74.8405Z" fill="#71EBFF"/>
<path d="M67.4309 77.5461C67.4077 77.5461 67.3846 77.5458 67.3614 77.5452C65.9928 77.5121 64.8586 76.475 64.5391 74.9645C63.9999 72.4145 65.2823 68.9602 66.4391 67.6064C66.8901 67.0785 67.3514 66.8236 67.7928 66.8461C68.1887 66.8667 68.5577 67.1181 68.9206 67.6147C69.9354 69.0037 71.0194 72.6697 70.437 74.888C70.011 76.5102 68.8354 77.546 67.4309 77.5461ZM67.7155 68.0555C67.021 68.3319 65.1384 71.9987 65.7132 74.7162C65.7134 74.7163 65.7134 74.7163 65.7134 74.7163C65.9185 75.6863 66.5767 76.3259 67.3905 76.3456C68.0751 76.3616 68.9286 75.9081 69.2765 74.5832C69.8546 72.3807 68.4005 68.492 67.7155 68.0555Z" fill="#1ACFFF"/>
<g opacity="0.7">
<path d="M66.2237 74.3888C66.5075 75.3676 67.3638 75.2193 67.5068 74.271C67.6638 73.2302 67.1728 71.9472 66.7735 71.9796C66.347 72.0143 65.903 73.2826 66.2237 74.3888Z" fill="white"/>
</g>
<path d="M134.929 28.0413C134.929 35.4013 128.147 41.3693 119.779 41.3693C118.239 41.3693 116.753 41.1673 115.353 40.7893L107.303 46.2593L110.159 38.3373C106.783 35.8933 104.629 32.1873 104.629 28.0413C104.629 20.6813 111.413 14.7153 119.779 14.7153C128.147 14.7153 134.929 20.6813 134.929 28.0413Z" fill="white"/>
<path d="M134.929 28.042C134.929 35.402 128.147 41.37 119.779 41.37C118.239 41.37 116.753 41.168 115.353 40.79L107.303 46.26L110.159 38.338C106.783 35.894 104.629 32.188 104.629 28.042C104.629 27.442 104.675 26.85 104.763 26.27C105.525 30.648 109.689 37.721 119.779 37.721C130.113 37.721 134.229 33.02 134.845 26.634C134.901 27.096 134.929 27.566 134.929 28.042Z" fill="#DFE6F4"/>
<path d="M109.899 42.5837C109.899 42.5837 111.017 39.301 111.624 39.124C112.449 38.8837 112.637 39.9212 111.749 40.8577C111.084 41.5594 109.899 42.5837 109.899 42.5837Z" fill="white"/>
<path d="M107.303 47.0595C107.13 47.0595 106.957 47.0032 106.813 46.8916C106.539 46.679 106.433 46.3143 106.551 45.9883L109.206 38.6212C105.781 35.9367 103.829 32.1122 103.829 28.0415C103.829 20.2524 110.984 13.9155 119.779 13.9155C128.574 13.9155 135.729 20.2524 135.729 28.0415C135.729 35.8317 128.574 42.1695 119.779 42.1695C118.323 42.1695 116.887 41.9964 115.503 41.6547L107.753 46.9213C107.617 47.0136 107.46 47.0595 107.303 47.0595ZM119.779 15.5155C111.866 15.5155 105.429 21.1346 105.429 28.0414C105.429 31.7809 107.324 35.2975 110.628 37.6894C110.917 37.8985 111.033 38.2734 110.912 38.6087L108.891 44.2131L114.904 40.1278C115.096 39.9968 115.337 39.9563 115.562 40.0171C116.919 40.3836 118.338 40.5695 119.779 40.5695C127.692 40.5695 134.129 34.9495 134.129 28.0414C134.129 21.1346 127.692 15.5155 119.779 15.5155Z" fill="#363D56"/>
<path d="M108.992 30.4877V29.2971L111.156 26.8125C111.511 26.4066 111.774 26.1185 111.944 25.9481C111.767 25.9589 111.533 25.9662 111.243 25.9698L109.204 25.9806V24.7139H113.978V25.7958L111.77 28.3402L110.993 29.1829C111.417 29.1575 111.68 29.1448 111.781 29.1448H114.146V30.4877L108.992 30.4877Z" fill="#363D56"/>
<path d="M115.405 35.0663V33.5267L118.203 30.3141C118.662 29.7893 119.002 29.4167 119.222 29.1964C118.993 29.2104 118.69 29.2198 118.315 29.2245L115.679 29.2385V27.6006H121.851V28.9995L118.997 32.2895L117.992 33.3791C118.54 33.3463 118.88 33.3299 119.011 33.3299H122.069V35.0663H115.405Z" fill="#363D56"/>
<path d="M123.352 28.3133V26.773L126.151 23.559C126.611 23.0339 126.95 22.6612 127.171 22.4407C126.941 22.4547 126.639 22.4642 126.264 22.4689L123.626 22.4829V20.8442H129.801V22.2438L126.946 25.5353L125.94 26.6254C126.489 26.5926 126.829 26.5761 126.96 26.5761H130.019V28.3133L123.352 28.3133Z" fill="#363D56"/>
<path d="M51.8599 86.8384C51.9218 87.1481 52.0749 87.532 52.2439 87.8849C52.4163 88.2431 52.6172 88.5948 52.8434 88.9305C53.0703 89.266 53.3226 89.5872 53.612 89.8769C53.9015 90.1654 54.2295 90.425 54.6202 90.5964C54.1947 90.555 53.7726 90.4022 53.38 90.2028C52.986 90.0023 52.6146 89.7545 52.2627 89.4809C51.911 89.2063 51.5783 88.9055 51.2643 88.5781C50.9503 88.2438 50.6558 87.9104 50.381 87.4491L51.8599 86.8384Z" fill="#363D56"/>
<path d="M62.7257 87.9011C62.6157 88.0842 62.5168 88.2169 62.4068 88.3654C62.2992 88.5097 62.1879 88.6491 62.0725 88.7848C61.842 89.0562 61.5987 89.3141 61.3379 89.5521C61.0747 89.7884 60.7964 90.0057 60.5008 90.1897C60.2008 90.3692 59.8837 90.5117 59.5619 90.5966C59.8264 90.3907 60.0438 90.1507 60.2308 89.8946C60.4136 89.633 60.5654 89.3562 60.6975 89.0726C60.8276 88.7869 60.9354 88.4924 61.0271 88.1957C61.0731 88.0475 61.1142 87.8978 61.15 87.7487C61.1846 87.6044 61.2223 87.44 61.2349 87.3203L62.7257 87.9011Z" fill="#363D56"/>
</svg>
