<svg width="117" height="145" viewBox="0 0 117 145" fill="none" xmlns="http://www.w3.org/2000/svg">
<path d="M55.1097 144.567C76.5217 144.567 93.8796 142.41 93.8796 139.75C93.8796 137.089 76.5217 134.932 55.1097 134.932C33.6977 134.932 16.3398 137.089 16.3398 139.75C16.3398 142.41 33.6977 144.567 55.1097 144.567Z" fill="#A8D5BA"/>
<path d="M52.6737 113.482V139.038C71.4426 140.931 77.1467 138.444 77.1467 138.444C79.7816 131.911 75.2902 128.273 75.2902 128.273V116.284L69.3217 115.545L52.6737 113.482Z" fill="#C1CEDB"/>
<g opacity="0.2">
<path d="M52.6737 119.051V130.738C55.0891 130.344 57.734 129.371 57.734 129.371C57.734 129.371 56.3042 127.475 56.434 125.898C56.5637 124.321 58.8843 123.966 58.8843 123.966C70.5194 124.134 75.0507 119.997 75.0507 119.997L75.2902 119.288V116.284L69.3217 115.545C69.2993 115.712 69.2768 115.885 69.2569 116.062C67.64 129.72 61.11 117.694 55.9525 118.325C52.6463 118.729 52.8359 118.699 52.6737 119.051Z" fill="#0C1C7A"/>
</g>
<path d="M52.6737 129.361V139.038C59.3335 139.709 64.3488 139.831 68.0467 139.706C68.0467 139.706 68.0467 139.709 68.0492 139.706C74.7737 139.479 77.1467 138.444 77.1467 138.444C77.6582 137.179 77.9002 136.023 77.9601 134.98C78.2121 130.639 75.2902 128.273 75.2902 128.273V127.759L73.5935 127.602C73.5935 127.602 73.8555 124.004 72.1712 123.635C70.4895 123.263 65.4167 123.51 63.66 125.02C61.9035 126.529 63.0787 129.371 63.0787 129.371C63.0787 129.371 60.7856 129.863 57.7714 129.875C56.1944 129.883 54.4203 129.758 52.6737 129.361Z" fill="#3AAAFF"/>
<path d="M52.6737 129.361V139.038C59.3335 139.709 64.3488 139.831 68.0467 139.706C59.3035 138.748 57.971 131.816 57.7714 129.875C56.1944 129.883 54.4203 129.758 52.6737 129.361Z" fill="#2979ED"/>
<path d="M63.4619 129.275C63.4619 129.275 63.3877 130.389 64.724 131.503C66.0602 132.616 67.2728 131.478 70.2175 130.76C73.1623 130.043 74.1769 131.552 74.8203 130.76C75.4637 129.968 74.56 127.896 74.56 127.896C71.2075 127.009 67.5195 127.425 63.4619 129.275Z" fill="white"/>
<path d="M77.9601 134.98C77.9002 136.023 77.6582 137.179 77.1467 138.444C77.1467 138.444 74.7738 139.479 68.0467 139.706C67.6924 139.719 67.3281 139.729 66.9513 139.734C66.8265 139.736 66.6968 139.739 66.5696 139.741C66.3126 139.744 66.048 139.746 65.7786 139.746C62.3701 139.764 58.0609 139.581 52.6738 139.038V135.135C52.9233 135.035 53.068 134.98 53.068 134.98C55.8751 136.051 58.6523 136.65 61.2747 136.934C70.5818 137.94 77.9601 134.98 77.9601 134.98Z" fill="white"/>
<path d="M68.0467 139.706C67.6924 139.719 67.3281 139.729 66.9513 139.734C66.8265 139.736 66.6968 139.739 66.5696 139.741C66.3126 139.744 66.048 139.746 65.7786 139.746C62.3701 139.764 58.0609 139.581 52.6738 139.038V135.135C52.9233 135.035 53.068 134.98 53.068 134.98C55.8751 136.051 58.6523 136.65 61.2747 136.934C62.7893 138.281 64.9551 139.367 68.0467 139.706Z" fill="#C1D6F4"/>
<path d="M65.3764 140.658C61.9969 140.658 57.7843 140.467 52.5812 139.942C52.1165 139.896 51.763 139.505 51.763 139.038V113.482C51.763 113.221 51.8748 112.973 52.0703 112.801C52.2657 112.628 52.5254 112.548 52.7842 112.58L75.4024 115.382C75.8578 115.438 76.1999 115.825 76.1999 116.284V127.883C77.2723 128.972 80.3945 132.823 77.9897 138.784C77.9005 139.005 77.7282 139.182 77.5096 139.277C77.3349 139.354 74.2013 140.658 65.3764 140.658ZM53.5817 138.213C68.7447 139.668 75.0054 138.168 76.4492 137.723C78.4765 132.168 74.8728 129.108 74.7149 128.977C74.5056 128.805 74.3811 128.545 74.3811 128.273V117.088L53.5818 114.511L53.5817 138.213Z" fill="#0C1C7A"/>
<path d="M57.9491 130.913C55.9714 130.913 53.8427 130.595 52.1879 129.549C51.7634 129.281 51.6367 128.719 51.905 128.295C52.1736 127.87 52.7345 127.743 53.1597 128.012C56.4459 130.089 62.5501 128.574 63.1688 128.412C72.0516 124.723 75.6977 127.438 75.849 127.555C76.2452 127.864 76.3166 128.435 76.0081 128.832C75.7033 129.224 75.1397 129.298 74.7434 129C74.6637 128.944 71.5623 126.88 63.812 130.115C63.7772 130.129 63.7416 130.142 63.705 130.152C63.5255 130.202 60.907 130.913 57.9491 130.913Z" fill="#0C1C7A"/>
<path d="M65.9306 132.841C65.3341 132.841 64.7527 132.663 64.1649 132.174C62.5338 130.814 62.5799 129.377 62.5906 129.217L64.3333 129.334L64.3345 129.308C64.3345 129.338 64.3433 130.048 65.2829 130.832C65.7776 131.244 66.1441 131.17 67.6336 130.645C68.2674 130.422 69.0559 130.144 70.0106 129.912C71.8752 129.457 73.1106 129.804 73.8489 130.011C73.9513 130.04 74.0763 130.075 74.1762 130.098C74.2274 129.75 74.0451 128.9 73.7595 128.245C73.5668 127.803 73.7688 127.288 74.2108 127.096C74.6535 126.902 75.1675 127.105 75.3604 127.547C75.6224 128.147 76.4063 130.193 75.4979 131.311C74.8522 132.106 73.9996 131.867 73.3774 131.693C72.6937 131.501 71.8428 131.263 70.4244 131.609C69.554 131.821 68.842 132.072 68.2138 132.293C67.405 132.578 66.6567 132.841 65.9306 132.841Z" fill="#0C1C7A"/>
<path d="M63.0794 130.282C62.7224 130.282 62.3837 130.07 62.2387 129.72C62.1804 129.579 60.8366 126.246 63.0672 124.329C65.1625 122.529 70.5562 122.345 72.3684 122.745C74.7505 123.271 74.5335 127.22 74.5008 127.668C74.4642 128.169 74.0285 128.547 73.528 128.509C73.0271 128.473 72.6506 128.038 72.6869 127.537C72.778 126.235 72.4878 124.634 71.9766 124.521C70.3591 124.164 65.6633 124.497 64.2525 125.709C63.0292 126.76 63.9104 129.002 63.9196 129.024C64.1114 129.488 63.8909 130.02 63.4269 130.212C63.313 130.259 63.1953 130.282 63.0794 130.282Z" fill="#0C1C7A"/>
<path d="M65.2378 138.031C61.4575 138.031 57.1582 137.473 52.7577 135.797C52.3071 135.625 52.0808 135.12 52.2525 134.67C52.4239 134.219 52.9275 133.993 53.3795 134.164C65.6621 138.843 77.5162 134.217 77.6347 134.17C78.082 133.991 78.5906 134.208 78.7697 134.656C78.9488 135.104 78.7319 135.611 78.2845 135.791C77.9493 135.925 72.5731 138.031 65.2378 138.031Z" fill="#0C1C7A"/>
<path d="M65.2378 138.031C61.4575 138.031 57.1582 137.473 52.7577 135.797C52.3071 135.625 52.0808 135.12 52.2525 134.67C52.4239 134.219 52.9275 133.993 53.3795 134.164C65.6621 138.843 77.5162 134.217 77.6347 134.17C78.082 133.991 78.5906 134.208 78.7697 134.656C78.9488 135.104 78.7319 135.611 78.2845 135.791C77.9493 135.925 72.5731 138.031 65.2378 138.031Z" fill="#0C1C7A"/>
<path d="M52.6712 113.482V139.038C33.9023 140.931 28.1982 138.444 28.1982 138.444C25.5633 131.911 30.0546 128.273 30.0546 128.273V116.284L36.0232 115.545L52.6712 113.482Z" fill="#C1CEDB"/>
<g opacity="0.2">
<path d="M52.6712 119.051V130.738C50.2559 130.344 47.611 129.371 47.611 129.371C47.611 129.371 49.0407 127.475 48.911 125.898C48.7812 124.321 46.4607 123.966 46.4607 123.966C34.8255 124.134 30.2942 119.997 30.2942 119.997L30.0547 119.288V116.284L36.0232 115.545C36.0457 115.712 36.0681 115.885 36.0881 116.062C37.705 129.72 44.235 117.694 49.3925 118.325C52.6987 118.729 52.509 118.699 52.6712 119.051Z" fill="#0C1C7A"/>
</g>
<path d="M52.6712 129.361V139.038C46.0115 139.709 40.9961 139.831 37.2982 139.706C37.2982 139.706 37.2983 139.709 37.2958 139.706C30.5712 139.479 28.1982 138.444 28.1982 138.444C27.6867 137.179 27.4447 136.023 27.3848 134.98C27.1328 130.639 30.0547 128.273 30.0547 128.273V127.759L31.7514 127.602C31.7514 127.602 31.4894 124.004 33.1737 123.635C34.8554 123.263 39.9282 123.51 41.6849 125.02C43.4414 126.529 42.2662 129.371 42.2662 129.371C42.2662 129.371 44.5593 129.863 47.5735 129.875C49.1505 129.883 50.9246 129.758 52.6712 129.361Z" fill="#3AAAFF"/>
<path d="M52.6712 129.361V139.038C46.0115 139.709 40.9962 139.831 37.2983 139.706C46.0415 138.748 47.3739 131.816 47.5735 129.875C49.1505 129.883 50.9246 129.758 52.6712 129.361Z" fill="#2979ED"/>
<path d="M41.883 129.275C41.883 129.275 41.9572 130.389 40.621 131.503C39.2847 132.616 38.0722 131.478 35.1274 130.76C32.1826 130.043 31.168 131.552 30.5247 130.76C29.8813 129.968 30.7849 127.896 30.7849 127.896C34.1374 127.009 37.8254 127.425 41.883 129.275Z" fill="white"/>
<path d="M52.6712 135.135V139.038C47.2841 139.581 42.9749 139.764 39.5664 139.746C39.2969 139.746 39.0324 139.744 38.7754 139.741C38.6482 139.739 38.5184 139.736 38.3937 139.734C38.0169 139.729 37.6526 139.719 37.2983 139.706C30.5712 139.479 28.1983 138.444 28.1983 138.444C27.6867 137.179 27.4447 136.023 27.3848 134.98C27.3848 134.98 34.7632 137.94 44.0703 136.934C46.6927 136.65 49.4699 136.051 52.277 134.98C52.277 134.98 52.4217 135.035 52.6712 135.135Z" fill="white"/>
<path d="M52.6712 135.135V139.038C47.2841 139.581 42.9749 139.764 39.5664 139.746C39.2969 139.746 39.0324 139.744 38.7754 139.741C38.6482 139.739 38.5184 139.736 38.3937 139.734C38.0169 139.729 37.6526 139.719 37.2983 139.706C40.3898 139.367 42.5532 138.281 44.0703 136.934C46.6927 136.65 49.4699 136.051 52.277 134.98C52.277 134.98 52.4217 135.035 52.6712 135.135Z" fill="#C1D6F4"/>
<path d="M39.9685 140.659C31.142 140.659 28.01 139.354 27.8353 139.277C27.6167 139.182 27.4445 139.005 27.3553 138.784C24.9505 132.823 28.0727 128.972 29.145 127.883V116.284C29.145 115.825 29.4871 115.438 29.9426 115.382L52.5605 112.58C52.82 112.548 53.0793 112.628 53.2745 112.801C53.4699 112.973 53.5817 113.222 53.5817 113.482V139.038C53.5817 139.505 53.2282 139.896 52.7637 139.943C47.5616 140.467 43.3475 140.658 39.9685 140.659ZM28.896 137.724C30.3296 138.165 36.5878 139.669 51.763 138.213V114.511L30.9638 117.088V128.273C30.9638 128.548 30.8401 128.807 30.6268 128.98C30.4721 129.108 26.8677 132.168 28.896 137.724Z" fill="#0C1C7A"/>
<path d="M76.7899 101.125C76.7899 101.125 76.3657 111.68 76.1062 117.471C76.1062 117.471 75.5348 118.165 74.2497 119.013C71.3254 120.947 64.7031 123.692 52.6712 120.96C40.6393 123.694 34.0146 120.945 31.0927 119.011C29.8076 118.163 29.2387 117.471 29.2387 117.471C28.9792 111.68 28.5551 101.125 28.5551 101.125H76.7899Z" fill="#37DBFF"/>
<path d="M74.2497 116.284V119.013C71.3253 120.947 64.7031 123.692 52.6712 120.96C40.6393 123.694 34.0145 120.945 31.0927 119.011V116.284C31.0927 116.284 38.204 121.628 43.0996 119.847C47.9952 118.065 45.4251 115.548 45.4251 115.548C45.4251 115.548 34.4836 112.251 31.3671 109.38C31.3671 109.38 44.6541 113.537 52.6712 113.487C60.6908 113.537 73.9777 109.38 73.9777 109.38C70.8612 112.251 59.9197 115.548 59.9197 115.548C59.9197 115.548 57.3497 118.065 62.2453 119.847C67.1409 121.628 74.2497 116.284 74.2497 116.284Z" fill="#16B0F4"/>
<path d="M95.3841 98.0963C95.3841 98.0963 93.373 104.037 88.2728 107.398C86.9104 108.299 85.3284 109.013 83.5044 109.38C83.5044 109.38 76.1835 105.075 74.2771 100.25C72.7625 96.4145 71.2554 91.2644 70.7015 89.3131C70.5568 88.8091 70.4769 88.5197 70.4769 88.5197L71.0783 88.2102L81.5382 82.8406C81.5382 82.8406 81.9823 83.3246 82.7758 84.188C84.9891 86.6033 89.9146 91.998 95.3841 98.0963Z" fill="#C1CEDB"/>
<g opacity="0.2">
<path d="M88.2728 107.398C86.9104 108.299 85.3285 109.013 83.5044 109.38C83.5044 109.38 76.1835 105.075 74.2772 100.25C72.7626 96.4145 71.2555 91.2644 70.7015 89.3131C70.8238 88.9339 70.9486 88.5671 71.0783 88.2102L81.5382 82.8406C81.5382 82.8406 81.9824 83.3246 82.7758 84.188L82.3916 84.5099C82.3916 84.5099 77.3812 91.711 78.3843 94.0865C79.098 95.7807 84.9667 103.251 88.2728 107.398Z" fill="#0C1C7A"/>
</g>
<path d="M94.5531 97.1706C94.5531 97.1706 91.5974 94.6622 90.3168 95.9614C89.0362 97.2605 91.5602 101.177 91.5602 101.177C91.5602 101.177 89.0733 99.0052 87.0317 101.177C84.9902 103.348 89.2958 106.661 89.2958 106.661C89.2958 106.661 94.6879 102.704 94.5531 97.1706Z" fill="#EDF4F9"/>
<path d="M83.5054 110.289C83.3443 110.289 83.185 110.246 83.0444 110.164C82.7344 109.981 75.4309 105.641 73.4313 100.583C71.5279 95.7671 69.6188 88.8289 69.5998 88.7595C69.486 88.3446 69.6787 87.9066 70.0616 87.71L81.123 82.0315C81.4866 81.8452 81.9303 81.9237 82.2074 82.2247C82.2717 82.2945 88.7178 89.3013 96.0604 97.4886C96.2798 97.7329 96.3502 98.0765 96.2449 98.3873C96.1062 98.7971 92.7433 108.444 83.6853 110.271C83.6256 110.283 83.5654 110.289 83.5054 110.289ZM71.5531 88.9887C72.0867 90.8683 73.6104 96.0877 75.1229 99.9143C76.6819 103.859 82.3093 107.563 83.6697 108.414C90.368 106.861 93.5633 100.158 94.3343 98.288C88.2861 91.5493 82.9165 85.6866 81.3373 83.9659L71.5531 88.9887Z" fill="#0C1C7A"/>
<path d="M89.2948 107.57C89.1013 107.57 88.9064 107.509 88.7412 107.382C88.4371 107.148 85.765 105.03 85.583 102.766C85.5164 101.937 85.7884 101.172 86.3693 100.554C87.3905 99.4676 88.5358 99.201 89.568 99.3237C89.0085 97.9263 88.7037 96.3027 89.6691 95.3232C91.4903 93.4761 94.7735 96.1648 95.1417 96.4774C95.5245 96.8023 95.5716 97.3761 95.2467 97.7591C94.9214 98.142 94.3478 98.1893 93.9648 97.8641C92.8941 96.9595 91.3487 96.2092 90.9645 96.5998C90.578 96.992 91.2518 99.0152 92.3249 100.685C92.5698 101.065 92.4972 101.569 92.1543 101.865C91.8115 102.161 91.3034 102.16 90.962 101.862C90.7766 101.703 89.0782 100.328 87.6944 101.8C87.4626 102.046 87.3705 102.299 87.3959 102.619C87.4833 103.724 88.9483 105.243 89.8511 105.941C90.2483 106.248 90.3219 106.819 90.0156 107.216C89.8363 107.448 89.567 107.57 89.2948 107.57Z" fill="#0C1C7A"/>
<path d="M62.1714 123.027C59.4535 123.027 56.3043 122.704 52.6721 121.893C35.1574 125.804 28.7987 118.369 28.5359 118.05C28.4106 117.898 28.3382 117.709 28.3295 117.512C28.0726 111.786 27.6513 101.266 27.6472 101.161C27.6372 100.914 27.7286 100.673 27.9001 100.494C28.0716 100.316 28.3082 100.215 28.5558 100.215H76.7886C77.0362 100.215 77.2728 100.316 77.4443 100.494C77.6159 100.673 77.7073 100.914 77.6972 101.161C77.6931 101.266 77.2718 111.786 77.0149 117.512C77.0062 117.709 76.9338 117.898 76.8085 118.05C76.6 118.303 72.559 123.026 62.1714 123.027ZM53.5815 120.23C68.0215 123.304 74.1007 118.198 75.2131 117.096C75.4245 112.35 75.7348 104.694 75.842 102.034H29.5026C29.6098 104.693 29.92 112.346 30.1313 117.092C31.2517 118.182 37.4074 123.283 51.7628 120.23V116.284C51.7628 115.782 52.17 115.375 52.6722 115.375C53.1745 115.375 53.5816 115.782 53.5816 116.284V120.23H53.5815Z" fill="#0C1C7A"/>
<path d="M111.788 47.466C111.788 47.466 108.911 51.5233 108.399 59.6352C107.89 67.7496 101.198 78.6012 85.3984 69.5985C85.3984 69.5985 73.384 79.3648 51.0818 75.2452C39.5565 73.6907 31.7365 69.5112 26.8559 65.8058C22.2173 62.2876 20.2311 59.196 20.2311 59.196C2.41283 62.834 -0.568935 50.4353 1.47214 42.5655C3.51572 34.6981 2.04105 29.9447 2.04105 29.9447C0.464081 23.6194 1.09038 17.8006 3.15641 13.0597C9.08002 -0.524237 26.8209 -5.27261 38.4037 12.2288C38.8653 11.9693 39.3319 11.7247 39.801 11.4977C39.9881 11.4053 40.1753 11.318 40.3649 11.2307C50.3707 6.65197 61.6664 8.95006 61.6664 8.95006C61.6664 8.95006 73.7033 10.3524 81.8078 18.332C82.1296 18.6464 82.444 18.9708 82.7509 19.3077C104.948 1.73642 125.197 26.1345 111.788 47.466Z" fill="#C1CEDB"/>
<g opacity="0.6">
<path d="M81.8077 18.332C81.8077 18.6389 81.7977 18.8111 81.7977 18.8111C68.9674 11.2082 54.9543 8.77284 39.7336 11.5974L39.801 11.4976C39.9881 11.4053 40.1752 11.318 40.3649 11.2306C50.3706 6.65192 61.6664 8.95 61.6664 8.95C61.6664 8.95 73.7033 10.3523 81.8077 18.332Z" fill="white"/>
</g>
<g opacity="0.6">
<path d="M40.3649 11.2307L36.1529 13.6835C36.1529 13.6835 20.6015 -9.74656 3.15631 13.0597C9.07993 -0.524237 26.8208 -5.27261 38.4036 12.2288C39.0499 11.8645 39.7036 11.5326 40.3649 11.2307Z" fill="white"/>
</g>
<g opacity="0.6">
<path d="M81.1974 17.749L84.4364 21.3912C84.4364 21.3912 106.509 3.96745 115.987 31.0716C114.587 16.3186 99.2064 6.28275 82.7505 19.3081C82.2497 18.7607 81.7318 18.2418 81.1974 17.749Z" fill="white"/>
</g>
<g opacity="0.2">
<path d="M36.3567 9.43878C36.4261 9.52407 34.9294 13.9598 30.3762 12.6236C25.8229 11.2873 20.2149 5.82912 11.3713 10.248C19.9275 8.23899 25.8323 11.2733 29.708 18.1667L36.1523 13.6837C36.1523 13.6837 37.9434 12.3314 37.7256 11.6338C37.5079 10.9361 36.3567 9.43878 36.3567 9.43878Z" fill="#0C1C7A"/>
</g>
<g opacity="0.2">
<path d="M85.5642 17.2942C85.4717 17.3536 85.5129 22.0349 90.2559 22.1826C94.9989 22.3304 102.027 18.8895 109.056 25.8421C101.55 21.2691 94.9944 22.3141 89.1651 27.6582L84.4368 21.3917C84.4368 21.3917 83.1557 19.549 83.5799 18.9538C84.004 18.3586 85.5642 17.2942 85.5642 17.2942Z" fill="#0C1C7A"/>
</g>
<g opacity="0.2">
<path d="M90.5883 61.1447C89.7824 66.4071 84.6997 70.4742 77.0419 73.8178C71.2505 75.819 62.5173 77.356 51.0818 75.2451C39.5564 73.6906 31.7364 69.5111 26.8558 65.8057C20.6203 60.2439 17.0546 54.7969 17.928 49.5445C17.928 49.5445 19.4625 43.793 22.6813 41.3228C22.6813 41.3228 21.5813 54.8543 38.4886 63.878C47.0795 68.4631 56.9963 70.0462 66.5878 68.3635C85.4639 65.0519 88.6321 51.85 88.6321 51.85C90.9202 55.2011 90.5883 61.1447 90.5883 61.1447Z" fill="#0C1C7A"/>
</g>
<path d="M29.7078 18.1673C26.8557 21.1865 24.907 25.1988 23.5895 28.9815C21.501 34.9825 20.997 40.4121 20.997 40.4121C16.3833 46.9894 17.1569 52.5837 18.4344 55.9123C2.41019 57.6789 5.46432 44.5815 5.46432 44.5815C6.75933 37.6873 6.2004 30.0944 6.2004 30.0944C5.82113 28.3976 5.6315 26.7209 5.53917 25.3011C5.39445 23.013 5.50674 21.3836 5.50674 21.3836C7.88222 5.54656 23.9164 6.48724 29.7078 18.1673Z" fill="#EDF4F9"/>
<g opacity="0.2">
<path d="M29.7078 18.1673C26.8558 21.1865 24.907 25.1988 23.5896 28.9815C23.4174 29.1262 23.3226 29.2036 23.3226 29.2036C24.685 17.4487 11.1385 10.9437 5.53929 25.3011C5.39457 23.013 5.50686 21.3836 5.50686 21.3836C7.88229 5.54655 23.9165 6.48724 29.7078 18.1673Z" fill="#0C1C7A"/>
</g>
<path d="M90.5173 51.51C92.8538 59.1969 90.377 64.2723 88.1266 67.0377C102.804 73.7054 103.98 60.3082 103.98 60.3082C104.896 53.3535 107.791 46.3119 107.791 46.3119C110.111 42.4115 111.162 38.2501 111.162 38.2501C113.835 22.4606 98.3051 18.3624 89.1651 27.6588C93.742 37.3716 90.5173 51.51 90.5173 51.51Z" fill="#EDF4F9"/>
<g opacity="0.2">
<path d="M89.1651 27.6588C90.9354 31.4159 91.5381 35.8355 91.6124 39.8404C91.7309 40.0316 91.7969 40.1346 91.7969 40.1346C94.162 28.5397 109.061 26.5756 109.911 41.9627C110.761 39.8333 111.162 38.25 111.162 38.25C113.835 22.4606 98.3051 18.3624 89.1651 27.6588Z" fill="#0C1C7A"/>
</g>
<path d="M42.8482 42.394C43.5113 38.2577 41.0505 34.4239 37.3519 33.8309C33.6532 33.238 30.1173 36.1104 29.4542 40.2467C28.7911 44.383 31.2518 48.2168 34.9505 48.8097C38.6491 49.4027 42.1851 46.5303 42.8482 42.394Z" fill="#0C1C7A"/>
<path d="M40.3964 40.3504C40.5933 39.1223 39.8603 37.9835 38.7592 37.807C37.6581 37.6305 36.6058 38.483 36.4089 39.7111C36.212 40.9393 36.945 42.078 38.0461 42.2546C39.1473 42.4311 40.1995 41.5786 40.3964 40.3504Z" fill="white"/>
<g opacity="0.33">
<path d="M35.5952 44.7879C35.6978 44.1479 35.1935 43.5349 34.4689 43.4187C33.7442 43.3025 33.0735 43.7272 32.9709 44.3671C32.8683 45.0071 33.3726 45.6201 34.0973 45.7362C34.822 45.8524 35.4926 45.4278 35.5952 44.7879Z" fill="white"/>
</g>
<path d="M19.5313 59.7768C15.0005 53.5983 15.9562 45.8879 20.2525 39.8919C20.2549 39.8883 20.0915 40.3296 20.0921 40.3293C20.2024 39.2718 20.356 38.2731 20.5316 37.2554C21.8445 30.2005 24.1101 22.9413 29.0456 17.5438C29.0501 17.5357 28.892 18.5721 28.8934 18.5706C26.0907 12.6338 18.6452 8.09365 12.3697 11.5394C8.70922 13.5092 6.80867 17.5096 5.8855 21.4406C5.83903 21.6513 5.6264 21.7824 5.4174 21.7299C5.23265 21.6837 5.11308 21.5107 5.12795 21.3269C5.24458 19.8709 5.49445 18.4093 5.94658 16.9848L6.32645 15.927C6.47751 15.5827 6.63825 15.2411 6.7966 14.8975C7.84354 12.8395 9.38183 10.9915 11.4602 9.88092C14.2068 8.39452 17.5503 8.17754 20.5117 9.04253C24.9273 10.3056 28.5223 13.7144 30.5228 17.7629C30.6981 18.114 30.6236 18.5238 30.368 18.7925C29.0418 20.2125 27.9274 21.8245 26.9806 23.527C25.0765 27.001 23.8089 30.7879 22.9161 34.6447C22.6931 35.614 22.4953 36.5896 22.3231 37.5689C22.1542 38.5429 22.0024 39.5439 21.903 40.4972C21.8867 40.6538 21.8331 40.7977 21.7521 40.9207C20.8198 42.25 20.0301 43.6693 19.4448 45.1594C17.9486 48.8337 17.995 53.0813 19.7445 56.6521C20.084 57.3471 20.4762 58.034 20.9499 58.6394C21.6658 59.5737 20.3221 60.6981 19.5313 59.7768Z" fill="#0C1C7A"/>
<path d="M38.8502 13.0201C37.2289 13.707 35.6258 14.5412 34.2005 15.5916C33.9817 15.7579 33.6976 15.461 33.8738 15.2504C35.0664 13.8047 36.4632 12.5665 37.9603 11.4335C39.0947 10.6789 40.0873 12.4437 38.8502 13.0201Z" fill="#0C1C7A"/>
<path d="M33.189 23.4753C35.0876 20.8733 38.9765 20.394 41.5408 22.3164C42.3786 22.9207 43.0597 23.7405 43.4396 24.6751C43.5681 24.9911 43.4161 25.3514 43.1001 25.4798C42.8505 25.5814 42.5746 25.5075 42.405 25.3178C41.3122 24.1736 39.9429 23.3679 38.401 23.1573C36.838 22.9376 35.3701 23.4381 34.0468 24.34C33.4807 24.753 32.7723 24.0312 33.189 23.4753Z" fill="#0C1C7A"/>
<path d="M82.5346 48.727C83.1923 44.5899 80.7265 40.7594 77.0271 40.1713C73.3277 39.5832 69.7955 42.4602 69.1379 46.5973C68.4802 50.7345 70.946 54.565 74.6454 55.1531C78.3448 55.7412 81.8769 52.8642 82.5346 48.727Z" fill="#0C1C7A"/>
<path d="M76.0924 46.0532C76.2877 44.8248 75.5532 43.687 74.4519 43.512C73.3505 43.3369 72.2994 44.1908 72.1041 45.4192C71.9088 46.6476 72.6433 47.7854 73.7447 47.9605C74.846 48.1355 75.8972 47.2816 76.0924 46.0532Z" fill="white"/>
<g opacity="0.33">
<path d="M77.9092 51.5473C78.0109 50.9073 77.5058 50.2949 76.781 50.1797C76.0562 50.0645 75.3861 50.49 75.2843 51.1301C75.1826 51.7702 75.6877 52.3825 76.4125 52.4977C77.1373 52.6129 77.8074 52.1874 77.9092 51.5473Z" fill="white"/>
</g>
<path d="M61.743 77.1593C58.4771 77.1594 54.8676 76.8678 50.9381 76.1433C39.1487 74.5503 31.2437 70.192 26.6871 66.8152C22.7947 63.9307 20.6299 61.2854 19.8275 60.2017C10.7117 61.9158 5.94494 59.2999 3.54355 56.7693C-0.333046 52.684 -0.523081 46.6355 0.591927 42.3371C2.53474 34.8569 1.18554 30.2572 1.17161 30.2116C1.16722 30.197 1.16238 30.1797 1.15869 30.1648C-0.412493 23.8669 0.0419334 17.7107 2.47231 12.3615C4.72019 7.41456 8.50248 3.5705 13.1225 1.5374C20.209 -1.5816 30.5787 -0.670652 38.6937 11.0355C48.9589 5.65669 60.8996 7.87153 61.8097 8.05139C62.7303 8.16372 74.765 9.77782 82.8462 18.0835C94.2015 9.48553 104.339 11.8489 110.103 17.0198C113.861 20.3905 116.258 25.2213 116.853 30.6223C117.497 36.4626 116.012 42.4544 112.557 47.9499C112.549 47.9634 112.54 47.9768 112.531 47.9899C112.503 48.0289 109.793 51.9792 109.307 59.6924C109.029 64.1232 106.966 69.8113 102.012 72.4865C98.9422 74.1441 93.5998 75.1466 85.4686 70.6799C84.3687 71.46 81.4877 73.3002 76.8904 74.8296C73.3158 76.0187 68.2021 77.1593 61.743 77.1593ZM20.2312 58.2865C20.5363 58.2865 20.8263 58.4404 20.9959 58.7039C21.0156 58.7343 23.1036 61.9139 27.8494 65.4127C32.2289 68.6413 39.8357 72.8116 51.2032 74.3439C51.2176 74.3458 51.2322 74.3481 51.2468 74.3508C62.5267 76.4344 71.055 74.8396 76.2225 73.1347C81.8219 71.2873 84.7964 68.9157 84.8257 68.8919C85.1171 68.6565 85.5231 68.6232 85.8486 68.8083C91.9431 72.281 97.2337 72.9997 101.148 70.8861C105.452 68.5617 107.255 63.3417 107.491 59.5781C107.999 51.5349 110.761 47.3521 111.029 46.9641C118.059 35.7619 115.276 24.1033 108.889 18.3734C103.565 13.5975 94.0511 11.522 83.3151 20.0204C82.9408 20.3165 82.4013 20.2731 82.0792 19.9208C74.3348 11.4416 61.6875 9.86804 61.5605 9.85307C61.5357 9.85013 61.5101 9.84614 61.4855 9.84115C61.3597 9.8158 48.8491 7.37164 38.851 13.0202C38.4348 13.2554 37.9084 13.1287 37.6453 12.7304C30.0882 1.31214 20.4018 0.321493 13.855 3.20196C6.00173 6.65797 -0.27381 16.8693 2.91806 29.7033C3.0523 30.1557 4.3784 34.9931 2.35224 42.7938C1.40531 46.4447 1.49449 51.9677 4.86282 55.5172C7.92504 58.7441 13.1769 59.708 20.049 58.3048C20.1099 58.2925 20.1708 58.2865 20.2312 58.2865Z" fill="#0C1C7A"/>
<path d="M84.9145 68.8281C90.422 64.802 91.6197 58.0417 89.6466 51.7764C89.6014 51.6211 89.5981 51.4573 89.6299 51.3088C90.4255 47.4453 90.7811 43.4266 90.6938 39.4808C90.6377 37.5081 90.4526 35.5373 90.0882 33.6012C89.7171 31.6788 89.1547 29.7915 88.3315 28.0209C88.1783 27.6718 88.2647 27.2769 88.5166 27.0207C90.631 24.8815 93.2772 23.2204 96.214 22.4032C100.634 21.1099 105.848 22.0251 109.086 25.4656C110.983 27.45 111.869 30.1329 112.082 32.8095C112.188 34.6529 111.978 36.5522 111.54 38.3141C111.419 38.7719 110.756 38.6557 110.784 38.1969C110.885 36.7804 110.907 35.374 110.771 33.9976C110.079 26.475 104.036 22.107 96.702 24.1552C94.1034 24.8779 91.7276 26.3604 89.8136 28.2957C89.8144 28.2975 89.9869 27.2634 89.9886 27.2726C92.9983 33.9388 92.8914 41.5418 91.9425 48.6552C91.7924 49.677 91.6275 50.6739 91.4031 51.7131L91.3866 51.2466C92.981 56.2626 92.7319 62.1008 89.6408 66.5201C88.6202 68.0057 87.3795 69.3501 85.8812 70.3687C84.8503 70.9933 83.8868 69.5015 84.9145 68.8281Z" fill="#0C1C7A"/>
<path d="M83.4209 18.6929C84.4901 20.2348 85.4316 21.8459 86.1144 23.59C86.1616 23.7127 86.1003 23.8504 85.9776 23.8975C85.8725 23.938 85.7561 23.8987 85.6956 23.8095C85.1803 23.0787 84.6016 22.3994 83.9902 21.752C83.3893 21.1191 82.7345 20.4816 82.0797 19.9212C81.083 18.989 82.5779 17.6172 83.4209 18.6929Z" fill="#0C1C7A"/>
<path d="M83.12 32.174C82.1436 30.9051 80.904 29.972 79.3505 29.6944C77.8114 29.4128 76.2504 29.7581 74.8507 30.5126C74.5494 30.6727 74.1755 30.5582 74.0155 30.257C73.8937 30.0277 73.9321 29.7552 74.0897 29.5681C74.7417 28.7981 75.6442 28.2311 76.6285 27.9177C79.6638 26.8892 83.2109 28.556 84.2043 31.6193C84.4258 32.2858 83.5243 32.7386 83.12 32.174Z" fill="#0C1C7A"/>
<path d="M76.4281 97.0557C79.0031 100.873 74.9933 103.366 69.4664 104.923C69.2444 104.983 69.0223 105.045 68.7952 105.103C68.7852 105.105 68.7752 105.108 68.7653 105.11C68.6705 105.138 68.5732 105.163 68.4758 105.185C68.4708 105.185 68.4684 105.188 68.4634 105.19C62.6845 106.655 55.6505 107.176 52.6713 107.154C46.5855 107.104 36.2902 106.31 31.1426 103.341C25.995 100.372 28.7672 97.5997 28.7672 97.5997C29.0142 91.7609 29.7079 85.0288 29.7079 85.0288C24.6526 83.5117 20.246 80.9367 16.5032 77.9774C8.95022 72.0088 4.08956 64.4733 2.03601 60.8802C1.29992 59.5927 1.40722 57.9908 2.29301 56.8006C2.74714 56.1917 3.19628 55.6328 3.64043 55.1238C8.06193 50.0211 11.8397 49.6767 13.8209 49.9886C14.6767 50.1209 15.3978 50.6898 15.7596 51.4758C17.0247 54.233 18.709 56.7606 20.3084 58.8292C20.5829 59.186 20.8548 59.5278 21.1243 59.8547C21.1243 59.8547 21.1268 59.8572 21.1293 59.8597C23.2552 62.4647 25.0618 64.1464 25.2589 64.3261C25.2639 64.3336 25.2714 64.3386 25.2763 64.3436C26.2669 65.1944 27.4322 66.0952 28.7746 67.0084C33.775 70.4019 41.2107 73.9152 51.0817 75.2451C60.2541 76.9394 67.6873 76.2856 73.2591 74.9232C73.6059 75.2052 73.9453 75.4871 74.2771 75.7641C77.4885 78.4739 79.9038 81.0265 80.9518 82.1843C81.3361 82.6035 81.5382 82.8405 81.5382 82.8405C78.8658 88.073 75.637 90.2513 75.637 90.2513C75.9964 92.714 76.4281 97.0557 76.4281 97.0557Z" fill="#C3A4FF"/>
<path d="M76.4281 97.0558C79.0031 100.873 74.9933 103.366 69.4664 104.923C73.294 103.656 72.6753 99.5759 64.3887 101.445C55.8177 103.381 43.6186 101.343 43.0996 101.253C43.7309 101.298 60.1543 102.438 67.5077 98.6153C75.0058 94.7178 71.2555 78.5314 71.2555 78.5314C71.2555 78.5314 73.7058 81.1688 76.3407 83.4345C78.2121 85.0414 80.0461 83.3197 80.9519 82.1844C81.3361 82.6035 81.5382 82.8406 81.5382 82.8406C78.8659 88.073 75.637 90.2514 75.637 90.2514C75.9964 92.7141 76.4281 97.0558 76.4281 97.0558Z" fill="#A07DF4"/>
<g opacity="0.2">
<path d="M22.3338 76.5669C22.3338 76.5669 28.6008 80.786 31.3816 78.231L29.2132 85.4259C29.2132 85.4259 20.4868 81.0383 17.7974 78.5304C17.7974 78.5304 20.3542 78.9673 22.3338 76.5669Z" fill="#0C1C7A"/>
</g>
<path d="M74.2772 75.7642C69.4041 78.6686 62.1555 80.6922 51.5434 79.3149C25.2215 75.8989 20.3084 58.8292 20.3084 58.8292C20.5829 59.186 20.8549 59.5279 21.1243 59.8547C21.1243 59.8547 21.1268 59.8572 21.1293 59.8597C23.2552 62.4647 25.0618 64.1465 25.2589 64.3262C25.2639 64.3336 25.2714 64.3386 25.2764 64.3436C26.267 65.1945 27.4322 66.0953 28.7746 67.0085C33.775 70.402 41.2107 73.9152 51.0817 75.2452C60.2541 76.9394 67.6873 76.2857 73.2591 74.9233C73.606 75.2052 73.9453 75.4872 74.2772 75.7642Z" fill="#A07DF4"/>
<path d="M28.7746 67.0084C28.6624 67.3952 28.4977 67.9142 28.2707 68.5205C28.2707 68.5205 28.2682 68.523 28.2657 68.5255C28.1484 68.8374 28.0136 69.1717 27.8614 69.5211C26.3443 73.0019 23.0182 78.0272 16.5032 77.9773C8.95023 72.0088 4.08957 64.4733 2.03601 60.8802C1.31989 59.6276 1.40223 58.0781 2.22315 56.8978C2.24561 56.8654 2.26807 56.833 2.29302 56.8005C2.74715 56.1917 3.19629 55.6328 3.64043 55.1237C3.85003 54.8817 4.05713 54.6521 4.26174 54.4326C8.41376 49.9911 11.932 49.6917 13.8209 49.9886C14.6767 50.1208 15.3978 50.6898 15.7596 51.4757C17.0247 54.2329 18.709 56.7606 20.3084 58.8291C20.5829 59.1859 20.8549 59.5278 21.1243 59.8546C21.1243 59.8546 21.1268 59.8571 21.1293 59.8596C23.2552 62.4646 25.0618 64.1464 25.2589 64.3261C25.2639 64.3335 25.2714 64.3385 25.2764 64.3435C26.267 65.1944 27.4322 66.0952 28.7746 67.0084Z" fill="#C1CEDB"/>
<g opacity="0.2">
<path d="M28.7746 67.0085C28.6624 67.3953 28.4977 67.9143 28.2707 68.5206C28.2707 68.5206 28.2682 68.5231 28.2657 68.5256C28.1484 68.8375 28.0137 69.1718 27.8614 69.5212C21.8554 64.2014 20.3084 58.8292 20.3084 58.8292C20.5829 59.186 20.8549 59.5279 21.1243 59.8547C21.1243 59.8547 21.1268 59.8572 21.1293 59.8597C23.2552 62.4647 25.0618 64.1465 25.2589 64.3262C25.2639 64.3336 25.2714 64.3386 25.2764 64.3436C26.267 65.1945 27.4322 66.0953 28.7746 67.0085Z" fill="#0C1C7A"/>
</g>
<g opacity="0.2">
<path d="M28.2656 68.5255C26.9805 71.9389 23.6719 78.0322 16.5032 77.9773C8.95017 72.0088 4.08951 64.4733 2.03595 60.8802C1.31983 59.6276 1.40217 58.0781 2.22309 56.8978C1.24996 58.9988 3.66283 59.8871 3.66283 59.8871C3.66283 59.8871 12.7578 72.5203 17.4688 73.7455C22.1024 74.9506 28.0635 68.7401 28.2656 68.5255Z" fill="#0C1C7A"/>
</g>
<path d="M16.6018 78.887C16.5664 78.887 16.5319 78.8869 16.4963 78.8867C15.9941 78.8828 15.5901 78.4726 15.594 77.9703C15.5979 77.468 16.0104 77.0761 16.5104 77.0679C16.5394 77.0682 16.5691 77.0683 16.5981 77.0683C24.326 77.0683 27.2018 69.1816 27.9009 66.7564C28.0402 66.2736 28.5439 65.9958 29.0266 66.1346C29.5091 66.2737 29.7876 66.7778 29.6485 67.2604C28.8602 69.9946 25.5945 78.887 16.6018 78.887Z" fill="#0C1C7A"/>
<path d="M52.7949 108.064C52.7489 108.064 52.7058 108.063 52.6641 108.063C49.0573 108.034 36.814 107.662 30.6883 104.129C28.5389 102.889 27.3458 101.478 27.1426 99.9357C26.9908 98.7839 27.4525 97.8085 27.8721 97.2504C28.0778 92.6561 28.5483 87.5507 28.7301 85.6765C13.7269 80.8314 4.53414 67.0845 1.24651 61.3314C0.333709 59.735 0.457969 57.7433 1.56354 56.2578C2.02845 55.6342 2.49655 55.0518 2.95517 54.5261C7.71068 49.0378 11.8933 48.7639 13.9621 49.0904C15.1076 49.2674 16.0891 50.0172 16.5857 51.0956C17.6584 53.4333 19.1526 55.8477 21.0276 58.2731C21.2918 58.6162 21.5554 58.9477 21.8127 59.2602C21.8203 59.2686 21.8276 59.2771 21.8337 59.2848C24.0068 61.9474 25.8531 63.6371 25.8713 63.6539C25.8796 63.6614 25.8877 63.6691 25.8957 63.6769C29.6692 66.9052 37.9533 72.5583 51.203 74.344C51.2179 74.3459 51.2323 74.3482 51.2469 74.3509C59.0049 75.7838 66.3382 75.6792 73.0434 74.04C73.318 73.9721 73.6109 74.0377 73.8317 74.2167C78.768 78.2157 82.091 82.0873 82.2298 82.2502C82.4689 82.53 82.5157 82.9265 82.3483 83.2543C80.1727 87.5138 77.6413 89.8283 76.6122 90.6542C76.9086 92.8259 77.2246 95.8937 77.3108 96.7449C78.519 98.6677 78.1773 100.198 77.6637 101.155C74.5659 106.929 56.5889 108.064 52.7949 108.064ZM12.7571 50.8168C10.8774 50.8168 7.85566 51.6479 4.32754 55.7194C3.89746 56.2124 3.45885 56.7584 3.02219 57.3443C2.34894 58.2489 2.27143 59.46 2.82557 60.4288C6.05691 66.0835 15.1705 79.7149 29.9695 84.1579C30.3874 84.2834 30.6573 84.688 30.6125 85.1221C30.6057 85.1892 29.9188 91.8949 29.6758 97.6382C29.6661 97.8658 29.5713 98.0815 29.4102 98.2427C29.3932 98.2607 28.8259 98.8675 28.9485 99.7188C29.083 100.651 29.999 101.632 31.5972 102.554C36.1587 105.185 45.478 106.185 52.6787 106.244C52.7513 106.245 52.8254 106.245 52.9012 106.245C58.789 106.245 73.7888 104.53 76.061 100.295C76.3381 99.7795 76.5991 98.9349 75.6743 97.5643C75.59 97.4394 75.5381 97.2955 75.523 97.1456C75.5189 97.1024 75.0895 92.7963 74.7372 90.3826C74.6867 90.0369 74.8388 89.6928 75.1285 89.4975C75.1561 89.4787 77.9844 87.5143 80.4416 82.9728C79.4462 81.867 76.6944 78.9216 73.0332 75.9124C66.204 77.51 58.774 77.5879 50.9382 76.1434C37.2058 74.2874 28.5954 68.3871 24.6845 65.0339C24.6747 65.0256 24.6652 65.0173 24.656 65.0086C24.6452 64.9986 24.6343 64.988 24.6236 64.9771C24.3894 64.7616 22.585 63.0786 20.4417 60.4553C20.4353 60.448 20.429 60.4406 20.4227 60.4332C20.1483 60.1003 19.8673 59.7472 19.5876 59.3838C17.6295 56.8508 16.0629 54.3172 14.9332 51.855C14.6932 51.3334 14.2251 50.9712 13.682 50.8873C13.4158 50.8454 13.1061 50.8168 12.7571 50.8168Z" fill="#0C1C7A"/>
<path d="M28.8128 84.8702C29.5351 82.2233 30.3883 79.6259 31.4818 77.1126C31.6057 76.8269 32.051 76.9805 31.9678 77.283C31.3061 79.8749 30.8841 82.5405 30.6027 85.1947C30.4209 86.4827 28.5315 86.1442 28.8128 84.8702Z" fill="#0C1C7A"/>
<path d="M13.2082 49.0053C15.3669 49.371 15.9886 51.365 15.1532 53.2085C13.9681 55.7932 11.5239 57.4988 9.07672 58.726C7.86091 59.3131 6.59874 59.7798 5.31356 60.1413C4.99183 60.2257 4.83248 59.7595 5.15002 59.6351C7.55904 58.7347 9.89341 57.4601 11.7223 55.6607C12.5742 54.8114 13.3727 53.794 13.7547 52.6746C14.0659 51.7188 13.9909 50.8598 12.93 50.8033C11.6945 50.6173 11.9737 48.8096 13.2082 49.0053Z" fill="#0C1C7A"/>
<path d="M68.139 68.5206C68.1465 68.8225 68.1291 69.1044 68.0866 69.3639H68.0841C67.6674 72.0188 64.8977 72.5578 64.8977 72.5578C62.2728 90.1265 45.1507 90.1265 41.0411 78.5962C39.9307 75.4797 39.6238 71.9914 39.766 68.558C40.1503 59.2908 43.8132 50.4353 43.8132 50.4353L64.6008 53.2075C63.8697 59.7349 61.1001 64.2014 61.0152 64.3411C63.5104 62.6868 64.9452 66.6192 64.9452 66.6192C64.9452 66.6192 68.0392 65.1346 68.139 68.5206Z" fill="#C1CEDB"/>
<g opacity="0.2">
<path d="M68.0841 69.3639C67.6674 72.0188 64.8977 72.5578 64.8977 72.5578C62.2728 90.1265 45.1507 90.1265 41.0411 78.5962C39.9307 75.4797 39.6238 71.9914 39.766 68.558L40.1553 69.0221C39.9057 67.9017 39.8459 66.8936 39.9257 66.2773C40.305 63.2956 43.0472 53.7015 43.0472 53.7015L45.7121 46.1959C45.5224 46.9071 41.2357 63.0984 44.976 68.1787C48.8036 73.3712 61.7787 66.0752 63.6102 49.3474C63.6102 49.3474 66.0255 61.6213 54.2008 71.4699C49.4474 75.4297 46.1462 75.8489 43.923 74.7386C44.2948 77.6654 45.8842 84.2303 52.6712 83.1C61.362 81.6528 63.2135 71.914 63.2135 71.914C63.2135 71.914 59.7676 71.4649 58.6298 68.004L59.0065 67.3128C59.0065 67.3128 62.3426 73.0244 68.0841 69.3639Z" fill="#0C1C7A"/>
</g>
<path d="M44.0849 50.5476C41.0764 60.0942 36.2553 81.179 49.1032 85.1798C55.6529 87.0492 61.2173 82.2318 63.0738 76.1625C63.4951 74.9573 63.7597 73.6925 63.9971 72.4237C64.0662 72.037 64.3626 71.7465 64.7232 71.6653C65.3574 71.5088 66.0175 71.1556 66.4681 70.6883C67.0422 70.1014 67.2808 69.248 67.2209 68.4117C67.1751 67.7905 67.0461 67.1191 66.2453 67.2083C65.9382 67.2274 65.5951 67.3254 65.3055 67.4531C64.837 67.6487 64.2988 67.4276 64.1031 66.9592C64.0406 66.798 63.9484 66.5892 63.8627 66.4242C63.4094 65.5503 62.5648 64.3201 61.5142 65.1002C61.0903 65.3726 60.5259 65.25 60.2534 64.8262C59.877 64.2538 60.3056 63.7726 60.6058 63.285C61.4606 61.8504 62.1655 60.329 62.7445 58.7583C63.417 56.9447 63.9009 55.0637 64.2132 53.1516C64.2499 52.9389 64.4521 52.7962 64.6649 52.8329C64.8655 52.8675 65.0038 53.0512 64.988 53.2503C64.906 54.2419 64.8049 55.2366 64.6283 56.2204C64.1093 59.206 63.2079 62.1413 61.7804 64.828C61.7805 64.8287 60.5088 63.5846 60.5088 63.5846C62.906 61.9815 64.9835 64.1005 65.8003 66.3074L64.5526 65.7992C67.2909 64.5841 69.2819 66.1275 69.0293 69.0649C68.9776 70.6307 67.9353 72.1723 66.5357 72.8892C66.0606 73.1475 65.6072 73.3295 65.07 73.4507L65.796 72.6923C65.4004 75.4421 64.634 78.1959 63.2218 80.6159C60.3708 85.8362 54.3832 88.8678 48.5307 87.151C42.4618 85.3285 39.6837 80.0179 39.0283 74.0791C38.1795 65.9171 40.2156 57.7223 43.5413 50.3228C43.7128 49.997 44.1992 50.1921 44.0849 50.5476Z" fill="#0C1C7A"/>
<path d="M61.7684 64.8465C58.7023 68.8944 52.3047 75.7552 46.7137 73.1694C46.3864 73.0054 46.5963 72.5091 46.9433 72.6368C49.7031 73.7429 52.5519 72.169 54.6536 70.3883C56.8347 68.5354 58.7032 66.2348 60.2545 63.8383C60.938 62.7915 62.4736 63.8024 61.7684 64.8465Z" fill="#0C1C7A"/>
<path d="M47.5508 42.0852C52.6643 38.4377 60.396 39.6135 63.2383 45.5032C63.416 45.8639 62.9545 46.2241 62.6499 45.9637C61.5605 45.0639 60.4896 44.2614 59.3556 43.6304C57.0666 42.3734 54.5158 41.9178 51.9 42.1161C50.5735 42.2031 49.204 42.4352 47.8685 42.7562C47.4772 42.8537 47.2257 42.326 47.5508 42.0852Z" fill="#0C1C7A"/>
<path d="M49.9835 48.702C52.0908 47.6711 54.7729 47.71 56.76 49.021C57.4309 49.4723 57.9902 50.0962 58.3145 50.816C58.375 50.9501 58.3152 51.1079 58.181 51.1684C58.0918 51.2085 57.9932 51.1956 57.9181 51.1435C56.7443 50.3611 55.5977 49.8615 54.2452 49.5835C52.9019 49.3025 51.5091 49.2556 50.1148 49.1991C49.8407 49.2112 49.7381 48.8244 49.9835 48.702Z" fill="#0C1C7A"/>
<path d="M47.8974 57.0106C50.3589 55.5489 54.132 56.3961 55.3078 59.1208C55.4179 59.3446 55.1481 59.5896 54.9373 59.4628C54.085 58.9593 53.3784 58.5182 52.4957 58.1892C51.0767 57.6637 49.5814 57.5405 48.0547 57.5002C47.784 57.5203 47.6633 57.149 47.8974 57.0106Z" fill="#0C1C7A"/>
<path d="M46.359 65.5133C48.1006 63.9061 51.1151 64.3922 52.4283 66.3134C52.6036 66.5786 52.7535 66.8572 52.8704 67.1482C52.9256 67.2857 52.859 67.4419 52.7215 67.4971C52.6508 67.5255 52.5751 67.5216 52.5107 67.4924C51.5661 66.9884 50.7033 66.3944 49.6636 66.1246C48.6793 65.8381 47.6512 65.8638 46.6057 65.9644C46.3482 66.0223 46.1658 65.6958 46.359 65.5133Z" fill="#0C1C7A"/>
<path d="M74.739 90.3946C74.3954 87.256 73.9029 84.0494 72.7814 81.0835C72.662 80.7893 73.0867 80.5791 73.2451 80.8597C74.434 83.0227 75.2154 85.3635 75.9065 87.7198C76.1327 88.5099 76.3436 89.29 76.535 90.108C76.6497 90.5982 76.3453 91.0887 75.855 91.2034C75.3205 91.3332 74.7827 90.9422 74.739 90.3946Z" fill="#0C1C7A"/>
<path d="M3.64038 55.1238C3.84998 54.8818 4.05708 54.6522 4.26168 54.4326C4.15938 54.6073 3.95727 54.8343 3.64038 55.1238Z" fill="#020C66"/>
<path d="M68.4758 105.185C68.5609 105.158 68.6583 105.133 68.7658 105.11C68.6708 105.138 68.5733 105.163 68.4758 105.185Z" fill="#0C1C7A"/>
<path d="M37.037 112.453C44.8165 115.335 53.2252 116.174 61.3685 114.54C64.0748 114.027 66.7467 113.292 69.4087 112.448C69.8326 112.315 70.1054 112.927 69.6904 113.141C59.5571 118.32 46.7637 118.689 36.7318 113.136C36.3414 112.918 36.5967 112.301 37.037 112.453Z" fill="#0C1C7A"/>
<path d="M47.3956 130.913C44.4374 130.913 41.8194 130.202 41.6398 130.152C41.6033 130.142 41.5677 130.129 41.5328 130.115C33.7182 126.853 30.6304 128.979 30.6 129.001C30.204 129.309 29.6387 129.233 29.3302 128.837C29.022 128.44 29.0997 127.864 29.4959 127.556C29.6472 127.438 33.2931 124.723 42.1761 128.413C42.7922 128.574 48.8983 130.09 52.1852 128.012C52.6102 127.744 53.1714 127.87 53.4399 128.295C53.7082 128.719 53.5815 129.281 53.157 129.549C51.5025 130.595 49.373 130.913 47.3956 130.913Z" fill="#0C1C7A"/>
<path d="M39.4144 132.841C38.6883 132.841 37.9402 132.578 37.1312 132.293C36.503 132.072 35.791 131.821 34.9206 131.609C33.5017 131.263 32.651 131.501 31.9675 131.693C31.3454 131.867 30.4928 132.106 29.8468 131.311C28.9387 130.193 29.7226 128.147 29.9845 127.547C30.1773 127.105 30.6909 126.902 31.1342 127.096C31.5762 127.288 31.7782 127.803 31.5857 128.245C31.2972 128.912 31.1176 129.745 31.1708 130.098C31.2702 130.074 31.3944 130.04 31.4961 130.011C32.2347 129.804 33.4701 129.457 35.3344 129.912C36.2891 130.145 37.0777 130.422 37.7114 130.645C39.2008 131.17 39.5675 131.244 40.0621 130.832C41.0017 130.049 41.0105 129.338 41.0105 129.308L41.0117 129.334L42.7544 129.217C42.7652 129.377 42.8112 130.814 41.1801 132.174C40.5923 132.663 40.0109 132.841 39.4144 132.841Z" fill="#0C1C7A"/>
<path d="M42.2656 130.282C42.1496 130.282 42.0319 130.259 41.9181 130.212C41.4542 130.02 41.2336 129.489 41.4254 129.024C41.4335 129.005 42.3228 126.766 41.0926 125.709C39.6817 124.497 34.9883 124.164 33.3684 124.522C32.8569 124.634 32.5667 126.236 32.6581 127.538C32.6935 128.038 32.3165 128.473 31.816 128.509C31.3082 128.546 30.8808 128.169 30.8442 127.668C30.8116 127.22 30.5944 123.271 32.9766 122.745C34.7895 122.346 40.1822 122.529 42.2778 124.329C44.5083 126.246 43.1645 129.579 43.1063 129.72C42.9613 130.07 42.6226 130.282 42.2656 130.282Z" fill="#0C1C7A"/>
<path d="M40.1071 138.031C32.7709 138.031 27.3957 135.925 27.0604 135.791C26.6128 135.611 26.3957 135.103 26.5752 134.655C26.7546 134.208 27.2624 133.991 27.711 134.17C27.8618 134.23 39.7004 138.836 51.9655 134.164C52.4165 133.993 52.9211 134.219 53.0924 134.67C53.2642 135.12 53.0378 135.625 52.5873 135.797C48.1876 137.472 43.887 138.031 40.1071 138.031Z" fill="#0C1C7A"/>
<path d="M40.1071 138.031C32.7709 138.031 27.3957 135.925 27.0604 135.791C26.6128 135.611 26.3957 135.103 26.5752 134.655C26.7546 134.208 27.2624 133.991 27.711 134.17C27.8618 134.23 39.7004 138.836 51.9655 134.164C52.4165 133.993 52.9211 134.219 53.0924 134.67C53.2642 135.12 53.0378 135.625 52.5873 135.797C48.1876 137.472 43.887 138.031 40.1071 138.031Z" fill="#0C1C7A"/>
</svg>
